G04 #@! TF.FileFunction,Copper,L2,Bot,Signal*
%FSLAX46Y46*%
G04 Gerber Fmt 4.6, Leading zero omitted, Abs format (unit mm)*
G04 Created by KiCad (PCBNEW (2016-08-20 BZR 7083)-product) date Sun Feb  5 21:27:28 2017*
%MOMM*%
%LPD*%
G01*
G04 APERTURE LIST*
%ADD10C,0.100000*%
%ADD11C,1.200000*%
%ADD12R,1.400000X1.400000*%
%ADD13C,1.400000*%
%ADD14R,2.200000X1.600000*%
%ADD15O,2.200000X1.600000*%
%ADD16C,2.000000*%
%ADD17C,1.600000*%
%ADD18R,1.600000X1.600000*%
%ADD19C,6.000000*%
%ADD20C,0.900000*%
%ADD21C,0.300000*%
%ADD22C,0.500000*%
G04 APERTURE END LIST*
D10*
D11*
X10900000Y29240000D03*
X10900000Y24160000D03*
X23500000Y34360000D03*
X23500000Y39440000D03*
X23500000Y32340000D03*
X23500000Y27260000D03*
X19660000Y74100000D03*
X24740000Y74100000D03*
X6900000Y72460000D03*
X6900000Y77540000D03*
X10900000Y32460000D03*
X10900000Y37540000D03*
X10900000Y44340000D03*
X10900000Y39260000D03*
X6240000Y30200000D03*
X1160000Y30200000D03*
D12*
X3700000Y27150000D03*
D13*
X3700000Y24650000D03*
D12*
X25500000Y60450000D03*
D13*
X25500000Y62950000D03*
D11*
X24000000Y57440000D03*
X24000000Y52360000D03*
X8640000Y60300000D03*
X3560000Y60300000D03*
X3800000Y82740000D03*
X3800000Y77660000D03*
X6900000Y70740000D03*
X6900000Y65660000D03*
X19600000Y77160000D03*
X19600000Y82240000D03*
X19600000Y71440000D03*
X19600000Y66360000D03*
X13060000Y61000000D03*
X18140000Y61000000D03*
D14*
X17110000Y81720000D03*
D15*
X17110000Y79180000D03*
X17110000Y76640000D03*
X17110000Y74100000D03*
X17110000Y71560000D03*
X17110000Y69020000D03*
X17110000Y66480000D03*
X9490000Y66480000D03*
X9490000Y69020000D03*
X9490000Y71560000D03*
X9490000Y74100000D03*
X9490000Y76640000D03*
X9490000Y79180000D03*
X9490000Y81720000D03*
D11*
X2500000Y32065000D03*
X3770000Y33335000D03*
X1230000Y33335000D03*
D16*
X26500000Y44780000D03*
X26500000Y34620000D03*
X26500000Y47220000D03*
X26500000Y57380000D03*
D17*
X25500000Y30600000D03*
X25500000Y23000000D03*
X24500000Y5700000D03*
X24500000Y13300000D03*
X27600000Y30600000D03*
X27600000Y23000000D03*
X8500000Y19920000D03*
X8500000Y22460000D03*
X8500000Y25000000D03*
D18*
X8500000Y30080000D03*
D17*
X8500000Y27540000D03*
D11*
X7100000Y35560000D03*
X7100000Y40640000D03*
D16*
X2700000Y37120000D03*
X2700000Y47280000D03*
D15*
X13390000Y36850000D03*
X13390000Y34310000D03*
X21010000Y13990000D03*
X21010000Y16530000D03*
D14*
X13390000Y13990000D03*
D15*
X13390000Y16530000D03*
X13390000Y19070000D03*
X13390000Y21610000D03*
X13390000Y24150000D03*
X13390000Y26690000D03*
X13390000Y29230000D03*
X13390000Y31770000D03*
X21010000Y31770000D03*
X21010000Y29230000D03*
X21010000Y26690000D03*
X21010000Y24150000D03*
X21010000Y21610000D03*
X21010000Y19070000D03*
X13390000Y39390000D03*
X13390000Y41930000D03*
X13390000Y44470000D03*
X13390000Y47010000D03*
X21010000Y47010000D03*
X21010000Y44470000D03*
X21010000Y41930000D03*
X21010000Y39390000D03*
X21010000Y36850000D03*
X21010000Y34310000D03*
D11*
X14560000Y2600000D03*
X19640000Y2600000D03*
D14*
X4490000Y3290000D03*
D15*
X4490000Y5830000D03*
X4490000Y8370000D03*
X4490000Y10910000D03*
X12110000Y10910000D03*
X12110000Y8370000D03*
X12110000Y5830000D03*
X12110000Y3290000D03*
D14*
X10210000Y57810000D03*
D15*
X10210000Y55270000D03*
X10210000Y52730000D03*
X10210000Y50190000D03*
X2590000Y50190000D03*
X2590000Y52730000D03*
X2590000Y55270000D03*
X2590000Y57810000D03*
D14*
X21110000Y57710000D03*
D15*
X21110000Y55170000D03*
X21110000Y52630000D03*
X21110000Y50090000D03*
X13490000Y50090000D03*
X13490000Y52630000D03*
X13490000Y55170000D03*
X13490000Y57710000D03*
D18*
X10400000Y13930000D03*
D17*
X10400000Y16470000D03*
X1250000Y7900000D03*
X1250000Y10440000D03*
X1250000Y12980000D03*
X1250000Y15520000D03*
D18*
X1250000Y20600000D03*
D17*
X1250000Y18060000D03*
X1250000Y67400000D03*
X1250000Y69940000D03*
X1250000Y72480000D03*
X1250000Y75020000D03*
D18*
X1250000Y80100000D03*
D17*
X1250000Y77560000D03*
X27750000Y7900000D03*
X27750000Y10440000D03*
X27750000Y12980000D03*
X27750000Y15520000D03*
D18*
X27750000Y20600000D03*
D17*
X27750000Y18060000D03*
X27750000Y67400000D03*
X27750000Y69940000D03*
X27750000Y72480000D03*
X27750000Y75020000D03*
D18*
X27750000Y80100000D03*
D17*
X27750000Y77560000D03*
D16*
X4300000Y75300000D03*
X4300000Y72300000D03*
X4200000Y69200000D03*
X4200000Y66200000D03*
X5100000Y63200000D03*
X8100000Y63200000D03*
X22100000Y76700000D03*
X25100000Y76700000D03*
X22100000Y71600000D03*
X25100000Y71600000D03*
X11000000Y63500000D03*
X11000000Y60500000D03*
X25100000Y79400000D03*
X22100000Y79400000D03*
X25100000Y68900000D03*
X22100000Y68900000D03*
X14400000Y63500000D03*
X17400000Y63500000D03*
X22100000Y82100000D03*
X25100000Y82100000D03*
X22100000Y66200000D03*
X25100000Y66200000D03*
X20100000Y64000000D03*
X20100000Y61000000D03*
X24500000Y16400000D03*
X24500000Y19400000D03*
X18000000Y8000000D03*
X15000000Y8000000D03*
X15200000Y5200000D03*
X18200000Y5200000D03*
X18000000Y11000000D03*
X15000000Y11000000D03*
X6800000Y47100000D03*
X9800000Y47100000D03*
D19*
X5800000Y15800000D03*
D20*
X5800000Y21800000D03*
X6000000Y28200000D03*
X8300000Y12200000D03*
X7900000Y7100000D03*
X9900000Y3900000D03*
X6600000Y1300000D03*
X27700000Y27200000D03*
X26000000Y11800000D03*
X23000000Y17800000D03*
X26000000Y18000000D03*
X23000000Y23200000D03*
X23500000Y20800000D03*
X25900000Y14500000D03*
X22700000Y12500000D03*
X23200000Y9400000D03*
X19500000Y9900000D03*
X18000000Y26500000D03*
X18700000Y20800000D03*
X18100000Y14300000D03*
X26600000Y4800000D03*
X27100000Y1100000D03*
X16700000Y50000000D03*
X18800000Y31700000D03*
X18700000Y53700000D03*
X15500000Y52500000D03*
X18700000Y51500000D03*
X15700000Y13300000D03*
X15700000Y21800000D03*
X15700000Y27700000D03*
X12200000Y1100000D03*
X1400000Y1300000D03*
X1200000Y28100000D03*
X1200000Y23300000D03*
X6200000Y34000000D03*
X6400000Y38600000D03*
X900000Y35500000D03*
X1100000Y38300000D03*
X800000Y44000000D03*
X6400000Y44700000D03*
X9300000Y43100000D03*
X2800000Y39800000D03*
X2600000Y44100000D03*
X8200000Y50800000D03*
X8200000Y55300000D03*
X25500000Y32600000D03*
X25200000Y36400000D03*
X28000000Y37500000D03*
X27700000Y42400000D03*
X25400000Y42400000D03*
X26900000Y54900000D03*
X27900000Y49300000D03*
X27800000Y58900000D03*
X23900000Y45300000D03*
X18800000Y59500000D03*
X15300000Y60400000D03*
X23100000Y59100000D03*
X19200000Y56200000D03*
X15500000Y57700000D03*
X19900000Y68200000D03*
X1200000Y59300000D03*
X9300000Y64800000D03*
X14500000Y69200000D03*
X15200000Y67400000D03*
X13800000Y65300000D03*
X15400000Y75300000D03*
X11300000Y70100000D03*
X13500000Y71100000D03*
X21000000Y73500000D03*
X23700000Y80700000D03*
X27700000Y82600000D03*
X13300000Y79500000D03*
X7300000Y82700000D03*
X3100000Y81400000D03*
X20300000Y80500000D03*
X15400000Y45400000D03*
X17000000Y42100000D03*
X15600000Y37700000D03*
X18900000Y35600000D03*
X6300000Y51300000D03*
X7200000Y56500000D03*
X4300000Y46100000D03*
X4300000Y20600000D03*
X7500000Y21200000D03*
D21*
X1250000Y18060000D02*
X1250000Y18450000D01*
X1250000Y18450000D02*
X2800000Y20000000D01*
X2700000Y37120000D02*
X2700000Y38600000D01*
X1700000Y39600000D02*
X1700000Y44800000D01*
X2700000Y38600000D02*
X1700000Y39600000D01*
X1230000Y33335000D02*
X1230000Y31670000D01*
X2800000Y22600000D02*
X2800000Y20000000D01*
X2300000Y23100000D02*
X2800000Y22600000D01*
X2300000Y30600000D02*
X2300000Y23100000D01*
X1230000Y31670000D02*
X2300000Y30600000D01*
X2700000Y37120000D02*
X2700000Y35700000D01*
X1230000Y34230000D02*
X1230000Y33335000D01*
X2700000Y35700000D02*
X1230000Y34230000D01*
X1600000Y51500000D02*
X5200000Y51500000D01*
X1700000Y44800000D02*
X1000000Y45500000D01*
X1000000Y45500000D02*
X1000000Y50900000D01*
X1000000Y50900000D02*
X1600000Y51500000D01*
X19660000Y73160000D02*
X19660000Y74100000D01*
X18600000Y72100000D02*
X19660000Y73160000D01*
X18600000Y71000000D02*
X18600000Y72100000D01*
X17900000Y70300000D02*
X18600000Y71000000D01*
X13700000Y70300000D02*
X17900000Y70300000D01*
X11200000Y67800000D02*
X13700000Y70300000D01*
X8600000Y67800000D02*
X11200000Y67800000D01*
X7900000Y67100000D02*
X8600000Y67800000D01*
X7900000Y65100000D02*
X7900000Y67100000D01*
X6600000Y63800000D02*
X7900000Y65100000D01*
X6600000Y62600000D02*
X6600000Y63800000D01*
X6300000Y62300000D02*
X6600000Y62600000D01*
X6300000Y52600000D02*
X6300000Y62300000D01*
X5200000Y51500000D02*
X6300000Y52600000D01*
D22*
X19660000Y74100000D02*
X17110000Y74100000D01*
D21*
X6000000Y22000000D02*
X5800000Y21800000D01*
X6000000Y28200000D02*
X6000000Y22000000D01*
X8300000Y12200000D02*
X8300000Y13300000D01*
X5800000Y15800000D02*
X8300000Y13300000D01*
X7900000Y7100000D02*
X7900000Y5900000D01*
X7900000Y5900000D02*
X9900000Y3900000D01*
X2500000Y32065000D02*
X2735000Y32300000D01*
X2735000Y32300000D02*
X3600000Y32300000D01*
X26000000Y11800000D02*
X23400000Y11800000D01*
X23000000Y17800000D02*
X25800000Y17800000D01*
X25800000Y17800000D02*
X26000000Y18000000D01*
X23400000Y11800000D02*
X22700000Y12500000D01*
X19500000Y9900000D02*
X19500000Y12900000D01*
X26250000Y9400000D02*
X23200000Y9400000D01*
X27750000Y7900000D02*
X26250000Y9400000D01*
X18000000Y21500000D02*
X18000000Y26500000D01*
X18700000Y20800000D02*
X18000000Y21500000D01*
X19500000Y12900000D02*
X18100000Y14300000D01*
X19640000Y2600000D02*
X21140000Y1100000D01*
X21140000Y1100000D02*
X27100000Y1100000D01*
X16000000Y52000000D02*
X15500000Y52500000D01*
X18200000Y52000000D02*
X16000000Y52000000D01*
X18700000Y51500000D02*
X18200000Y52000000D01*
X15700000Y27700000D02*
X15700000Y21800000D01*
X6600000Y1300000D02*
X1400000Y1300000D01*
X6600000Y1300000D02*
X6500000Y1300000D01*
X1200000Y28100000D02*
X1200000Y23300000D01*
X10900000Y37540000D02*
X9840000Y38600000D01*
X9840000Y38600000D02*
X6400000Y38600000D01*
X800000Y38600000D02*
X1100000Y38300000D01*
X800000Y44000000D02*
X800000Y38600000D01*
X2600000Y40000000D02*
X2800000Y39800000D01*
X2600000Y44100000D02*
X2600000Y40000000D01*
X8200000Y55300000D02*
X8200000Y50800000D01*
X27700000Y37800000D02*
X28000000Y37500000D01*
X27700000Y42400000D02*
X27700000Y37800000D01*
X23900000Y43900000D02*
X25400000Y42400000D01*
X26900000Y54900000D02*
X26900000Y50300000D01*
X26900000Y50300000D02*
X27900000Y49300000D01*
X23900000Y45300000D02*
X23900000Y43900000D01*
X22800000Y59400000D02*
X18900000Y59400000D01*
X18900000Y59400000D02*
X18800000Y59500000D01*
X25500000Y62950000D02*
X23100000Y60550000D01*
X23100000Y60550000D02*
X23100000Y59100000D01*
X23100000Y59100000D02*
X22800000Y59400000D01*
X17700000Y57700000D02*
X19200000Y56200000D01*
X15500000Y57700000D02*
X17700000Y57700000D01*
X1250000Y67400000D02*
X600000Y66750000D01*
X600000Y59900000D02*
X1200000Y59300000D01*
X600000Y66750000D02*
X600000Y59900000D01*
X14500000Y69200000D02*
X15200000Y68500000D01*
X15200000Y68500000D02*
X15200000Y67400000D01*
X11160000Y76640000D02*
X12500000Y75300000D01*
X12500000Y75300000D02*
X15400000Y75300000D01*
X9490000Y76640000D02*
X11160000Y76640000D01*
X12500000Y70100000D02*
X11300000Y70100000D01*
X13500000Y71100000D02*
X12500000Y70100000D01*
X25100000Y76700000D02*
X21900000Y73500000D01*
X21900000Y73500000D02*
X21000000Y73500000D01*
X23700000Y78100000D02*
X23700000Y80700000D01*
X25100000Y76700000D02*
X23700000Y78100000D01*
X6000000Y81400000D02*
X7300000Y82700000D01*
X3100000Y81400000D02*
X6000000Y81400000D01*
X27750000Y67400000D02*
X28600000Y66550000D01*
X28600000Y66550000D02*
X28600000Y66300000D01*
X27750000Y67400000D02*
X27100000Y66750000D01*
X27100000Y66750000D02*
X27100000Y66300000D01*
X27750000Y72480000D02*
X26930000Y73300000D01*
X26930000Y73300000D02*
X26900000Y73300000D01*
X27750000Y77560000D02*
X28600000Y76710000D01*
X28600000Y76710000D02*
X28600000Y76600000D01*
X27750000Y77560000D02*
X28500000Y78310000D01*
X28500000Y78310000D02*
X28500000Y78500000D01*
X1250000Y75020000D02*
X500000Y74270000D01*
X500000Y74270000D02*
X500000Y74100000D01*
X500000Y74270000D02*
X500000Y74100000D01*
X1250000Y75020000D02*
X2030000Y75800000D01*
X2030000Y75800000D02*
X2100000Y75800000D01*
X1250000Y67400000D02*
X400000Y66550000D01*
X400000Y66550000D02*
X400000Y66500000D01*
X1250000Y67400000D02*
X400000Y68250000D01*
X400000Y68250000D02*
X400000Y68400000D01*
X27750000Y7900000D02*
X28600000Y7050000D01*
X28600000Y7050000D02*
X28600000Y6800000D01*
X27750000Y7900000D02*
X28600000Y8750000D01*
X28600000Y8750000D02*
X28600000Y8900000D01*
X1250000Y7900000D02*
X2100000Y8750000D01*
X2100000Y8750000D02*
X2100000Y8800000D01*
X16700000Y50000000D02*
X15400000Y48700000D01*
X15400000Y48700000D02*
X15400000Y45400000D01*
X17000000Y42100000D02*
X15600000Y40700000D01*
X15600000Y40700000D02*
X15600000Y37700000D01*
X18900000Y35600000D02*
X18800000Y35500000D01*
X18800000Y35500000D02*
X18800000Y31700000D01*
X16900000Y13900000D02*
X16900000Y29230000D01*
X16900000Y29230000D02*
X16930000Y29230000D01*
X16930000Y29230000D02*
X18200000Y30500000D01*
X18000000Y11000000D02*
X18000000Y12800000D01*
X18000000Y12800000D02*
X16900000Y13900000D01*
X12110000Y3290000D02*
X13310000Y3290000D01*
X13310000Y3290000D02*
X14000000Y2600000D01*
X14000000Y2600000D02*
X14560000Y2600000D01*
X18000000Y8000000D02*
X18000000Y11000000D01*
X24500000Y5700000D02*
X20100000Y5700000D01*
X14560000Y2600000D02*
X18000000Y2600000D01*
X19500000Y8000000D02*
X18000000Y8000000D01*
X20100000Y7400000D02*
X19500000Y8000000D01*
X20100000Y4700000D02*
X20100000Y5700000D01*
X20100000Y5700000D02*
X20100000Y7400000D01*
X18000000Y2600000D02*
X20100000Y4700000D01*
X26500000Y44780000D02*
X26500000Y47220000D01*
X27600000Y30600000D02*
X27600000Y32900000D01*
X26500000Y37500000D02*
X26500000Y44780000D01*
X28000000Y36000000D02*
X26500000Y37500000D01*
X28000000Y33300000D02*
X28000000Y36000000D01*
X27600000Y32900000D02*
X28000000Y33300000D01*
X25500000Y30600000D02*
X27600000Y30600000D01*
X13390000Y29230000D02*
X16900000Y29230000D01*
X18200000Y30500000D02*
X25400000Y30500000D01*
X25400000Y30500000D02*
X25500000Y30600000D01*
X10900000Y29240000D02*
X13380000Y29240000D01*
X6240000Y30200000D02*
X6240000Y29760000D01*
X6240000Y29760000D02*
X7200000Y28800000D01*
X10040000Y29240000D02*
X10900000Y29240000D01*
X9600000Y28800000D02*
X10040000Y29240000D01*
X7200000Y28800000D02*
X9600000Y28800000D01*
X3770000Y33335000D02*
X3770000Y35270000D01*
X2700000Y45400000D02*
X2700000Y47280000D01*
X3770000Y35270000D02*
X4200000Y35700000D01*
D22*
X2700000Y47280000D02*
X6620000Y47280000D01*
D21*
X3700000Y44400000D02*
X2700000Y45400000D01*
X3700000Y38700000D02*
X3700000Y44400000D01*
X4200000Y38200000D02*
X3700000Y38700000D01*
X4200000Y35700000D02*
X4200000Y38200000D01*
X23500000Y34360000D02*
X24860000Y34360000D01*
X25120000Y34620000D02*
X26500000Y34620000D01*
X24860000Y34360000D02*
X25120000Y34620000D01*
X21010000Y34310000D02*
X23450000Y34310000D01*
X23500000Y32340000D02*
X22940000Y32340000D01*
X22940000Y32340000D02*
X22370000Y31770000D01*
X22370000Y31770000D02*
X21010000Y31770000D01*
X1250000Y15520000D02*
X1250000Y16350000D01*
X1250000Y16350000D02*
X3415000Y18515000D01*
D22*
X9490000Y74100000D02*
X7600000Y74100000D01*
X6900000Y74800000D02*
X6900000Y77540000D01*
X7600000Y74100000D02*
X6900000Y74800000D01*
D21*
X6300000Y51300000D02*
X7200000Y52200000D01*
X7200000Y52200000D02*
X7200000Y56500000D01*
X5100000Y45300000D02*
X4300000Y46100000D01*
X5100000Y23900000D02*
X5100000Y45300000D01*
X3415000Y22215000D02*
X5100000Y23900000D01*
X3415000Y18515000D02*
X3415000Y22215000D01*
X10900000Y32460000D02*
X7800000Y35560000D01*
X7800000Y35560000D02*
X7100000Y35560000D01*
X13390000Y34310000D02*
X12750000Y34310000D01*
X12750000Y34310000D02*
X10900000Y32460000D01*
X8440000Y44340000D02*
X10900000Y44340000D01*
X7100000Y43000000D02*
X8440000Y44340000D01*
X10900000Y44340000D02*
X10900000Y41400000D01*
X11900000Y38340000D02*
X13390000Y36850000D01*
X11900000Y40400000D02*
X11900000Y38340000D01*
X10900000Y41400000D02*
X11900000Y40400000D01*
X7100000Y40640000D02*
X7100000Y43000000D01*
D22*
X10800000Y44340000D02*
X10900000Y44340000D01*
D21*
X21010000Y13990000D02*
X21010000Y11990000D01*
X22560000Y10440000D02*
X27750000Y10440000D01*
X21010000Y11990000D02*
X22560000Y10440000D01*
X26500000Y57380000D02*
X26500000Y58500000D01*
X25500000Y59500000D02*
X25500000Y60450000D01*
X26500000Y58500000D02*
X25500000Y59500000D01*
X24000000Y57440000D02*
X26440000Y57440000D01*
X21380000Y57440000D02*
X24000000Y57440000D01*
X10210000Y57810000D02*
X11510000Y57810000D01*
X18790000Y57710000D02*
X21110000Y57710000D01*
X17600000Y58900000D02*
X18790000Y57710000D01*
X12600000Y58900000D02*
X17600000Y58900000D01*
X11510000Y57810000D02*
X12600000Y58900000D01*
X8640000Y60300000D02*
X10210000Y58730000D01*
X10210000Y58730000D02*
X10210000Y57810000D01*
X19600000Y77160000D02*
X19600000Y78700000D01*
X19120000Y79180000D02*
X17110000Y79180000D01*
X19600000Y78700000D02*
X19120000Y79180000D01*
X22100000Y76700000D02*
X20060000Y76700000D01*
X20060000Y76700000D02*
X19600000Y77160000D01*
X22100000Y79400000D02*
X22100000Y76700000D01*
X19600000Y82240000D02*
X21960000Y82240000D01*
X17110000Y81720000D02*
X19080000Y81720000D01*
X19080000Y81720000D02*
X19600000Y82240000D01*
X22100000Y71600000D02*
X22100000Y68900000D01*
X19600000Y71440000D02*
X21940000Y71440000D01*
X17110000Y69020000D02*
X18820000Y69020000D01*
X19600000Y69800000D02*
X19600000Y71440000D01*
X18820000Y69020000D02*
X19600000Y69800000D01*
X19600000Y66360000D02*
X21940000Y66360000D01*
X17110000Y66480000D02*
X19480000Y66480000D01*
X13060000Y61000000D02*
X14400000Y62340000D01*
X14400000Y62340000D02*
X14400000Y63500000D01*
X11000000Y63500000D02*
X14400000Y63500000D01*
X9490000Y66480000D02*
X14620000Y66480000D01*
X16700000Y61000000D02*
X18140000Y61000000D01*
X16000000Y61700000D02*
X16700000Y61000000D01*
X16000000Y65100000D02*
X16000000Y61700000D01*
X14620000Y66480000D02*
X16000000Y65100000D01*
X18140000Y61000000D02*
X20100000Y61000000D01*
X13390000Y13990000D02*
X12180000Y15200000D01*
X10000000Y20960000D02*
X8500000Y22460000D01*
X10000000Y20960000D02*
X10000000Y18900000D01*
X9200000Y18100000D02*
X10000000Y18900000D01*
X9200000Y15800000D02*
X9200000Y18100000D01*
X9800000Y15200000D02*
X9200000Y15800000D01*
X12180000Y15200000D02*
X9800000Y15200000D01*
X15000000Y11000000D02*
X13390000Y12610000D01*
X13390000Y12610000D02*
X13390000Y13990000D01*
X11000000Y18700000D02*
X10400000Y18100000D01*
X7100000Y26140000D02*
X7100000Y24300000D01*
X7100000Y24300000D02*
X7700000Y23700000D01*
X7700000Y23700000D02*
X9000000Y23700000D01*
X8500000Y27540000D02*
X7100000Y26140000D01*
X11000000Y18700000D02*
X11000000Y21700000D01*
X11000000Y21700000D02*
X9000000Y23700000D01*
X10400000Y18100000D02*
X10400000Y16470000D01*
X10400000Y16470000D02*
X13330000Y16470000D01*
X8500000Y25000000D02*
X11600000Y21900000D01*
X12030000Y19070000D02*
X13390000Y19070000D01*
X11600000Y19500000D02*
X12030000Y19070000D01*
X11600000Y21900000D02*
X11600000Y19500000D01*
X21010000Y47010000D02*
X22310000Y47010000D01*
X24230000Y55170000D02*
X21110000Y55170000D01*
X25700000Y53700000D02*
X24230000Y55170000D01*
X25700000Y50400000D02*
X25700000Y53700000D01*
X22310000Y47010000D02*
X25700000Y50400000D01*
X22400000Y48200000D02*
X25100000Y50900000D01*
X24300000Y53900000D02*
X19900000Y53900000D01*
X25100000Y53100000D02*
X24300000Y53900000D01*
X25100000Y50900000D02*
X25100000Y53100000D01*
X17300000Y56500000D02*
X12800000Y56500000D01*
X12800000Y56500000D02*
X11570000Y55270000D01*
X11570000Y55270000D02*
X10210000Y55270000D01*
X19900000Y53900000D02*
X17300000Y56500000D01*
X21010000Y44470000D02*
X19300000Y46180000D01*
X20200000Y48200000D02*
X22400000Y48200000D01*
X19300000Y47300000D02*
X20200000Y48200000D01*
X19300000Y46180000D02*
X19300000Y47300000D01*
X21010000Y41930000D02*
X19270000Y41930000D01*
X18510000Y48710000D02*
X18510000Y50090000D01*
X17900000Y48100000D02*
X18510000Y48710000D01*
X17900000Y43300000D02*
X17900000Y48100000D01*
X19270000Y41930000D02*
X17900000Y43300000D01*
X10210000Y50190000D02*
X11320000Y51300000D01*
X18510000Y50090000D02*
X21110000Y50090000D01*
X17300000Y51300000D02*
X18510000Y50090000D01*
X11320000Y51300000D02*
X17300000Y51300000D01*
X18600000Y47600000D02*
X18600000Y43900000D01*
X22900000Y50840000D02*
X22900000Y49500000D01*
X22900000Y49500000D02*
X22200000Y48800000D01*
X22200000Y48800000D02*
X19800000Y48800000D01*
X19800000Y48800000D02*
X18600000Y47600000D01*
X21110000Y52630000D02*
X22900000Y50840000D01*
X23750000Y36850000D02*
X21010000Y36850000D01*
X25200000Y38300000D02*
X23750000Y36850000D01*
X25200000Y41200000D02*
X25200000Y38300000D01*
X23200000Y43200000D02*
X25200000Y41200000D01*
X19300000Y43200000D02*
X23200000Y43200000D01*
X18600000Y43900000D02*
X19300000Y43200000D01*
X21110000Y52630000D02*
X16770000Y52630000D01*
X11380000Y53900000D02*
X10210000Y52730000D01*
X15500000Y53900000D02*
X11380000Y53900000D01*
X16770000Y52630000D02*
X15500000Y53900000D01*
X12110000Y8370000D02*
X10830000Y8370000D01*
X10830000Y8370000D02*
X10400000Y8800000D01*
X10400000Y8800000D02*
X10400000Y13930000D01*
X12110000Y8370000D02*
X13430000Y8370000D01*
X13800000Y8000000D02*
X15000000Y8000000D01*
X13430000Y8370000D02*
X13800000Y8000000D01*
X24500000Y16400000D02*
X25900000Y16400000D01*
X26780000Y15520000D02*
X27750000Y15520000D01*
X25900000Y16400000D02*
X26780000Y15520000D01*
X25500000Y23000000D02*
X25500000Y20600000D01*
X25500000Y20600000D02*
X27750000Y18350000D01*
X21010000Y21610000D02*
X22710000Y21610000D01*
X24100000Y23000000D02*
X25500000Y23000000D01*
X22710000Y21610000D02*
X24100000Y23000000D01*
X24500000Y13300000D02*
X26000000Y13300000D01*
X26320000Y12980000D02*
X27750000Y12980000D01*
X26000000Y13300000D02*
X26320000Y12980000D01*
X21270000Y16530000D02*
X24500000Y13300000D01*
X27600000Y23000000D02*
X27600000Y24100000D01*
X23050000Y24150000D02*
X21010000Y24150000D01*
X23700000Y24800000D02*
X23050000Y24150000D01*
X26900000Y24800000D02*
X23700000Y24800000D01*
X27600000Y24100000D02*
X26900000Y24800000D01*
X27750000Y20600000D02*
X27750000Y22850000D01*
X27750000Y22850000D02*
X27600000Y23000000D01*
X4300000Y72300000D02*
X5800000Y70800000D01*
X2590000Y59410000D02*
X2590000Y57810000D01*
X2000000Y60000000D02*
X2590000Y59410000D01*
X2000000Y66100000D02*
X2000000Y60000000D01*
X3600000Y67700000D02*
X2000000Y66100000D01*
X5400000Y67700000D02*
X3600000Y67700000D01*
X5800000Y68100000D02*
X5400000Y67700000D01*
X5800000Y70800000D02*
X5800000Y68100000D01*
X4200000Y66200000D02*
X3300000Y65300000D01*
X4130000Y52730000D02*
X2590000Y52730000D01*
X5400000Y54000000D02*
X4130000Y52730000D01*
X5400000Y60800000D02*
X5400000Y54000000D01*
X3300000Y62900000D02*
X5400000Y60800000D01*
X3300000Y65300000D02*
X3300000Y62900000D01*
X17400000Y63500000D02*
X19600000Y63500000D01*
X19600000Y63500000D02*
X20100000Y64000000D01*
X27750000Y69940000D02*
X26500000Y68690000D01*
X22900000Y64000000D02*
X20100000Y64000000D01*
X23400000Y64500000D02*
X22900000Y64000000D01*
X25800000Y64500000D02*
X23400000Y64500000D01*
X26500000Y65200000D02*
X25800000Y64500000D01*
X26500000Y68690000D02*
X26500000Y65200000D01*
X2590000Y50190000D02*
X7210000Y50190000D01*
X8700000Y48700000D02*
X13490000Y48700000D01*
X7210000Y50190000D02*
X8700000Y48700000D01*
X13490000Y50090000D02*
X13490000Y48700000D01*
X13490000Y48700000D02*
X13490000Y47110000D01*
X21010000Y19070000D02*
X22670000Y19070000D01*
X23000000Y19400000D02*
X24500000Y19400000D01*
X22670000Y19070000D02*
X23000000Y19400000D01*
X8500000Y56600000D02*
X11700000Y56600000D01*
X8500000Y56600000D02*
X7100000Y58000000D01*
X7100000Y58000000D02*
X7100000Y62200000D01*
X8100000Y63200000D02*
X7100000Y62200000D01*
X11700000Y56600000D02*
X12810000Y57710000D01*
X12810000Y57710000D02*
X13490000Y57710000D01*
X6900000Y20600000D02*
X4300000Y20600000D01*
X7500000Y21200000D02*
X6900000Y20600000D01*
X1250000Y12980000D02*
X2320000Y12980000D01*
X5600000Y12200000D02*
X6600000Y11200000D01*
X3100000Y12200000D02*
X5600000Y12200000D01*
X2320000Y12980000D02*
X3100000Y12200000D01*
X5930000Y5830000D02*
X4490000Y5830000D01*
X6600000Y6500000D02*
X5930000Y5830000D01*
X6600000Y11200000D02*
X6600000Y6500000D01*
X12110000Y5830000D02*
X13270000Y5830000D01*
X13900000Y5200000D02*
X15200000Y5200000D01*
X13270000Y5830000D02*
X13900000Y5200000D01*
X3800000Y82740000D02*
X2140000Y82740000D01*
X1250000Y81850000D02*
X1250000Y80100000D01*
X2140000Y82740000D02*
X1250000Y81850000D01*
X17110000Y76640000D02*
X12360000Y76640000D01*
X6300000Y80100000D02*
X1250000Y80100000D01*
X8500000Y77900000D02*
X6300000Y80100000D01*
X11100000Y77900000D02*
X8500000Y77900000D01*
X12360000Y76640000D02*
X11100000Y77900000D01*
X6900000Y70740000D02*
X6900000Y71000000D01*
X6900000Y71000000D02*
X8800000Y72900000D01*
X8800000Y72900000D02*
X12900000Y72900000D01*
X12900000Y72900000D02*
X14240000Y71560000D01*
X14240000Y71560000D02*
X17110000Y71560000D01*
X4300000Y75300000D02*
X3510000Y75300000D01*
X3510000Y75300000D02*
X1250000Y77560000D01*
X4200000Y69530000D02*
X1250000Y72480000D01*
X1250000Y10440000D02*
X3320000Y8370000D01*
X3320000Y8370000D02*
X4490000Y8370000D01*
X25100000Y79400000D02*
X25800000Y80100000D01*
X25800000Y80100000D02*
X27750000Y80100000D01*
X25100000Y82100000D02*
X25100000Y79400000D01*
X25100000Y68900000D02*
X23700000Y70300000D01*
X25830000Y73100000D02*
X27750000Y75020000D01*
X24300000Y73100000D02*
X25830000Y73100000D01*
X23700000Y72500000D02*
X24300000Y73100000D01*
X23700000Y70300000D02*
X23700000Y72500000D01*
X25100000Y66200000D02*
X25100000Y68900000D01*
X9490000Y71560000D02*
X6600000Y68670000D01*
X5100000Y64700000D02*
X5100000Y63200000D01*
X5700000Y65300000D02*
X5100000Y64700000D01*
X5700000Y66700000D02*
X5700000Y65300000D01*
X6600000Y67600000D02*
X5700000Y66700000D01*
X6600000Y68670000D02*
X6600000Y67600000D01*
X9490000Y81720000D02*
X9490000Y79180000D01*
G36*
X26607544Y29938114D02*
X26936383Y29608700D01*
X27366252Y29430203D01*
X27831706Y29429797D01*
X28261886Y29607544D01*
X28580000Y29925103D01*
X28580000Y23674364D01*
X28263617Y23991300D01*
X28120000Y24050935D01*
X28120000Y24100000D01*
X28080417Y24298995D01*
X27967696Y24467696D01*
X27967693Y24467698D01*
X27267696Y25167696D01*
X27098995Y25280417D01*
X26900000Y25320001D01*
X26899995Y25320000D01*
X23700005Y25320000D01*
X23700000Y25320001D01*
X23501005Y25280417D01*
X23332304Y25167696D01*
X23332302Y25167693D01*
X22834608Y24670000D01*
X22371455Y24670000D01*
X22166114Y24977315D01*
X21786539Y25230939D01*
X21338799Y25320000D01*
X20681201Y25320000D01*
X20233461Y25230939D01*
X19853886Y24977315D01*
X19600262Y24597740D01*
X19511201Y24150000D01*
X19600262Y23702260D01*
X19853886Y23322685D01*
X20233461Y23069061D01*
X20681201Y22980000D01*
X21338799Y22980000D01*
X21786539Y23069061D01*
X22166114Y23322685D01*
X22371455Y23630000D01*
X23049995Y23630000D01*
X23050000Y23629999D01*
X23248995Y23669583D01*
X23417696Y23782304D01*
X23915391Y24280000D01*
X24750000Y24280000D01*
X24750000Y23904496D01*
X24508700Y23663617D01*
X24449065Y23520000D01*
X24100005Y23520000D01*
X24100000Y23520001D01*
X23901005Y23480417D01*
X23732304Y23367696D01*
X23732302Y23367693D01*
X22494608Y22130000D01*
X22371455Y22130000D01*
X22166114Y22437315D01*
X21786539Y22690939D01*
X21338799Y22780000D01*
X20681201Y22780000D01*
X20233461Y22690939D01*
X19853886Y22437315D01*
X19600262Y22057740D01*
X19511201Y21610000D01*
X19600262Y21162260D01*
X19853886Y20782685D01*
X20233461Y20529061D01*
X20681201Y20440000D01*
X21338799Y20440000D01*
X21786539Y20529061D01*
X22166114Y20782685D01*
X22371455Y21090000D01*
X22709995Y21090000D01*
X22710000Y21089999D01*
X22908995Y21129583D01*
X23077696Y21242304D01*
X24315391Y22480000D01*
X24448918Y22480000D01*
X24507544Y22338114D01*
X24836383Y22008700D01*
X24980000Y21949065D01*
X24980000Y20684101D01*
X24773705Y20769762D01*
X24228686Y20770237D01*
X23724971Y20562107D01*
X23339248Y20177056D01*
X23232509Y19920000D01*
X23000000Y19920000D01*
X22801005Y19880417D01*
X22632304Y19767696D01*
X22632302Y19767693D01*
X22454608Y19590000D01*
X22371455Y19590000D01*
X22166114Y19897315D01*
X21786539Y20150939D01*
X21338799Y20240000D01*
X20681201Y20240000D01*
X20233461Y20150939D01*
X19853886Y19897315D01*
X19600262Y19517740D01*
X19511201Y19070000D01*
X19600262Y18622260D01*
X19853886Y18242685D01*
X20233461Y17989061D01*
X20681201Y17900000D01*
X21338799Y17900000D01*
X21786539Y17989061D01*
X22166114Y18242685D01*
X22371455Y18550000D01*
X22669995Y18550000D01*
X22670000Y18549999D01*
X22868995Y18589583D01*
X23037696Y18702304D01*
X23215391Y18880000D01*
X23232518Y18880000D01*
X23337893Y18624971D01*
X23722944Y18239248D01*
X24226295Y18030238D01*
X24771314Y18029763D01*
X25275029Y18237893D01*
X25660752Y18622944D01*
X25869762Y19126295D01*
X25870083Y19494525D01*
X26724164Y18640445D01*
X26580203Y18293748D01*
X26579797Y17828294D01*
X26757544Y17398114D01*
X27086383Y17068700D01*
X27516252Y16890203D01*
X27981706Y16889797D01*
X28411886Y17067544D01*
X28580000Y17235365D01*
X28580000Y16344626D01*
X28413617Y16511300D01*
X27983748Y16689797D01*
X27518294Y16690203D01*
X27088114Y16512456D01*
X26805278Y16230114D01*
X26267696Y16767696D01*
X26098995Y16880417D01*
X25900000Y16920001D01*
X25899995Y16920000D01*
X25767482Y16920000D01*
X25662107Y17175029D01*
X25277056Y17560752D01*
X24773705Y17769762D01*
X24228686Y17770237D01*
X23724971Y17562107D01*
X23339248Y17177056D01*
X23130238Y16673705D01*
X23129763Y16128686D01*
X23337893Y15624971D01*
X23722944Y15239248D01*
X24226295Y15030238D01*
X24771314Y15029763D01*
X25275029Y15237893D01*
X25660752Y15622944D01*
X25743173Y15821435D01*
X26412302Y15152307D01*
X26412304Y15152304D01*
X26522713Y15078532D01*
X26581005Y15039583D01*
X26691657Y15017572D01*
X26757544Y14858114D01*
X27086383Y14528700D01*
X27516252Y14350203D01*
X27981706Y14349797D01*
X28411886Y14527544D01*
X28580000Y14695365D01*
X28580000Y13804626D01*
X28413617Y13971300D01*
X27983748Y14149797D01*
X27518294Y14150203D01*
X27088114Y13972456D01*
X26758700Y13643617D01*
X26699065Y13500000D01*
X26535391Y13500000D01*
X26367696Y13667696D01*
X26198995Y13780417D01*
X26000000Y13820001D01*
X25999995Y13820000D01*
X25551082Y13820000D01*
X25492456Y13961886D01*
X25163617Y14291300D01*
X24733748Y14469797D01*
X24268294Y14470203D01*
X24124573Y14410818D01*
X22425278Y16110113D01*
X22508799Y16530000D01*
X22419738Y16977740D01*
X22166114Y17357315D01*
X21786539Y17610939D01*
X21338799Y17700000D01*
X20681201Y17700000D01*
X20233461Y17610939D01*
X19853886Y17357315D01*
X19600262Y16977740D01*
X19511201Y16530000D01*
X19600262Y16082260D01*
X19853886Y15702685D01*
X20233461Y15449061D01*
X20681201Y15360000D01*
X21338799Y15360000D01*
X21643917Y15420692D01*
X23389077Y13675532D01*
X23330203Y13533748D01*
X23329797Y13068294D01*
X23507544Y12638114D01*
X23836383Y12308700D01*
X24266252Y12130203D01*
X24731706Y12129797D01*
X25161886Y12307544D01*
X25491300Y12636383D01*
X25550935Y12780000D01*
X25784608Y12780000D01*
X25952302Y12612307D01*
X25952304Y12612304D01*
X26019067Y12567695D01*
X26121004Y12499583D01*
X26320000Y12460000D01*
X26698918Y12460000D01*
X26757544Y12318114D01*
X27086383Y11988700D01*
X27516252Y11810203D01*
X27981706Y11809797D01*
X28411886Y11987544D01*
X28580000Y12155365D01*
X28580000Y11264626D01*
X28413617Y11431300D01*
X27983748Y11609797D01*
X27518294Y11610203D01*
X27088114Y11432456D01*
X26758700Y11103617D01*
X26699065Y10960000D01*
X22775392Y10960000D01*
X21530000Y12205392D01*
X21530000Y12858032D01*
X21786539Y12909061D01*
X22166114Y13162685D01*
X22419738Y13542260D01*
X22508799Y13990000D01*
X22419738Y14437740D01*
X22166114Y14817315D01*
X21786539Y15070939D01*
X21338799Y15160000D01*
X20681201Y15160000D01*
X20233461Y15070939D01*
X19853886Y14817315D01*
X19600262Y14437740D01*
X19511201Y13990000D01*
X19600262Y13542260D01*
X19853886Y13162685D01*
X20233461Y12909061D01*
X20490000Y12858032D01*
X20490000Y11990005D01*
X20489999Y11990000D01*
X20529583Y11791005D01*
X20642304Y11622304D01*
X22192304Y10072304D01*
X22361005Y9959583D01*
X22560000Y9919999D01*
X22560005Y9920000D01*
X26698918Y9920000D01*
X26757544Y9778114D01*
X27086383Y9448700D01*
X27516252Y9270203D01*
X27981706Y9269797D01*
X28411886Y9447544D01*
X28580000Y9615365D01*
X28580000Y8742731D01*
X28575057Y8737788D01*
X28502614Y8951196D01*
X28043050Y9159191D01*
X27538871Y9175486D01*
X27066836Y8997599D01*
X26997386Y8951196D01*
X26924942Y8737786D01*
X27750000Y7912728D01*
X27764142Y7926870D01*
X27776870Y7914142D01*
X27762728Y7900000D01*
X27776870Y7885858D01*
X27764142Y7873130D01*
X27750000Y7887272D01*
X26924942Y7062214D01*
X26997386Y6848804D01*
X27456950Y6640809D01*
X27961129Y6624514D01*
X28433164Y6802401D01*
X28502614Y6848804D01*
X28575057Y7062212D01*
X28580000Y7057269D01*
X28580000Y420000D01*
X420000Y420000D01*
X420000Y4090000D01*
X3012752Y4090000D01*
X3012752Y2490000D01*
X3041468Y2345633D01*
X3123245Y2223245D01*
X3245633Y2141468D01*
X3390000Y2112752D01*
X5590000Y2112752D01*
X5734367Y2141468D01*
X5856755Y2223245D01*
X5938532Y2345633D01*
X5967248Y2490000D01*
X5967248Y4090000D01*
X5938532Y4234367D01*
X5856755Y4356755D01*
X5734367Y4438532D01*
X5590000Y4467248D01*
X3390000Y4467248D01*
X3245633Y4438532D01*
X3123245Y4356755D01*
X3041468Y4234367D01*
X3012752Y4090000D01*
X420000Y4090000D01*
X420000Y7057269D01*
X424943Y7062212D01*
X497386Y6848804D01*
X956950Y6640809D01*
X1461129Y6624514D01*
X1933164Y6802401D01*
X2002614Y6848804D01*
X2075058Y7062214D01*
X1250000Y7887272D01*
X1235858Y7873130D01*
X1223130Y7885858D01*
X1237272Y7900000D01*
X1223130Y7914142D01*
X1235858Y7926870D01*
X1250000Y7912728D01*
X1264142Y7926870D01*
X1276870Y7914142D01*
X1262728Y7900000D01*
X2087786Y7074942D01*
X2301196Y7147386D01*
X2509191Y7606950D01*
X2525486Y8111129D01*
X2347599Y8583164D01*
X2301196Y8652614D01*
X2087788Y8725057D01*
X2158670Y8795939D01*
X2952302Y8002307D01*
X2952304Y8002304D01*
X3086366Y7912728D01*
X3086845Y7912408D01*
X3262966Y7648824D01*
X3250000Y7600000D01*
X3250000Y6531771D01*
X3080262Y6277740D01*
X2991201Y5830000D01*
X3080262Y5382260D01*
X3333886Y5002685D01*
X3713461Y4749061D01*
X4161201Y4660000D01*
X4818799Y4660000D01*
X5266539Y4749061D01*
X5646114Y5002685D01*
X5851455Y5310000D01*
X5929995Y5310000D01*
X5930000Y5309999D01*
X6128995Y5349583D01*
X6297696Y5462304D01*
X6665391Y5830000D01*
X10611201Y5830000D01*
X10700262Y5382260D01*
X10953886Y5002685D01*
X11333461Y4749061D01*
X11781201Y4660000D01*
X12438799Y4660000D01*
X12886539Y4749061D01*
X13266114Y5002685D01*
X13304490Y5060119D01*
X13532302Y4832307D01*
X13532304Y4832304D01*
X13656888Y4749061D01*
X13701005Y4719583D01*
X13900000Y4679999D01*
X13900005Y4680000D01*
X13932518Y4680000D01*
X14037893Y4424971D01*
X14422944Y4039248D01*
X14926295Y3830238D01*
X15471314Y3829763D01*
X15975029Y4037893D01*
X16360752Y4422944D01*
X16569762Y4926295D01*
X16569788Y4956970D01*
X16723102Y4956970D01*
X16928529Y4410285D01*
X16983827Y4327524D01*
X17218019Y4230747D01*
X18187272Y5200000D01*
X17218019Y6169253D01*
X16983827Y6072476D01*
X16742521Y5540654D01*
X16723102Y4956970D01*
X16569788Y4956970D01*
X16570237Y5471314D01*
X16362107Y5975029D01*
X15977056Y6360752D01*
X15473705Y6569762D01*
X14928686Y6570237D01*
X14424971Y6362107D01*
X14039248Y5977056D01*
X13986167Y5849224D01*
X13637696Y6197696D01*
X13520020Y6276324D01*
X13519738Y6277740D01*
X13266114Y6657315D01*
X12886539Y6910939D01*
X12438799Y7000000D01*
X11781201Y7000000D01*
X11333461Y6910939D01*
X10953886Y6657315D01*
X10700262Y6277740D01*
X10611201Y5830000D01*
X6665391Y5830000D01*
X6967693Y6132302D01*
X6967696Y6132304D01*
X7080417Y6301005D01*
X7092571Y6362107D01*
X7120001Y6500000D01*
X7120000Y6500005D01*
X7120000Y11199995D01*
X7120001Y11200000D01*
X7080417Y11398995D01*
X7058059Y11432456D01*
X6967696Y11567696D01*
X6967693Y11567698D01*
X6221208Y12314184D01*
X6362031Y12309010D01*
X7655194Y12789825D01*
X7871087Y12934081D01*
X8191113Y13350000D01*
X9222752Y13350000D01*
X9222752Y13130000D01*
X9251468Y12985633D01*
X9333245Y12863245D01*
X9455633Y12781468D01*
X9600000Y12752752D01*
X9880000Y12752752D01*
X9880000Y8800005D01*
X9879999Y8800000D01*
X9919583Y8601005D01*
X10032304Y8432304D01*
X10462302Y8002307D01*
X10462304Y8002304D01*
X10582100Y7922260D01*
X10631005Y7889583D01*
X10736059Y7868686D01*
X10953886Y7542685D01*
X11333461Y7289061D01*
X11781201Y7200000D01*
X12438799Y7200000D01*
X12886539Y7289061D01*
X13266114Y7542685D01*
X13368577Y7696031D01*
X13432304Y7632304D01*
X13601005Y7519583D01*
X13726475Y7494625D01*
X13837893Y7224971D01*
X14222944Y6839248D01*
X14726295Y6630238D01*
X15271314Y6629763D01*
X15775029Y6837893D01*
X16160752Y7222944D01*
X16369762Y7726295D01*
X16370237Y8271314D01*
X16162107Y8775029D01*
X15777056Y9160752D01*
X15273705Y9369762D01*
X14728686Y9370237D01*
X14224971Y9162107D01*
X13839248Y8777056D01*
X13815508Y8719884D01*
X13797696Y8737696D01*
X13628995Y8850417D01*
X13477809Y8880491D01*
X13266114Y9197315D01*
X12886539Y9450939D01*
X12438799Y9540000D01*
X11781201Y9540000D01*
X11333461Y9450939D01*
X10953886Y9197315D01*
X10920000Y9146601D01*
X10920000Y10010949D01*
X11316442Y9741965D01*
X11801000Y9642000D01*
X12101000Y9642000D01*
X12101000Y10901000D01*
X12081000Y10901000D01*
X12081000Y10919000D01*
X12101000Y10919000D01*
X12101000Y10939000D01*
X12119000Y10939000D01*
X12119000Y10919000D01*
X12139000Y10919000D01*
X12139000Y10901000D01*
X12119000Y10901000D01*
X12119000Y9642000D01*
X12419000Y9642000D01*
X12903558Y9741965D01*
X13312976Y10019753D01*
X13584924Y10433073D01*
X13652646Y10673304D01*
X13837893Y10224971D01*
X14222944Y9839248D01*
X14726295Y9630238D01*
X15271314Y9629763D01*
X15775029Y9837893D01*
X16160752Y10222944D01*
X16369762Y10726295D01*
X16370237Y11271314D01*
X16162107Y11775029D01*
X15777056Y12160752D01*
X15273705Y12369762D01*
X14728686Y12370237D01*
X14471444Y12263947D01*
X13922640Y12812752D01*
X14490000Y12812752D01*
X14634367Y12841468D01*
X14756755Y12923245D01*
X14838532Y13045633D01*
X14867248Y13190000D01*
X14867248Y14790000D01*
X14838532Y14934367D01*
X14756755Y15056755D01*
X14750000Y15061269D01*
X14750000Y16007822D01*
X14799738Y16082260D01*
X14888799Y16530000D01*
X14799738Y16977740D01*
X14750000Y17052178D01*
X14750000Y18547822D01*
X14799738Y18622260D01*
X14888799Y19070000D01*
X14799738Y19517740D01*
X14750000Y19592178D01*
X14750000Y21087822D01*
X14799738Y21162260D01*
X14888799Y21610000D01*
X14799738Y22057740D01*
X14546114Y22437315D01*
X14166539Y22690939D01*
X13718799Y22780000D01*
X13061201Y22780000D01*
X12613461Y22690939D01*
X12233886Y22437315D01*
X12044122Y22153314D01*
X12026013Y22180417D01*
X11967696Y22267696D01*
X11967693Y22267698D01*
X11130185Y23105206D01*
X11476614Y23236274D01*
X11532750Y23273783D01*
X11580860Y23466412D01*
X10900000Y24147272D01*
X10885858Y24133130D01*
X10873130Y24145858D01*
X10887272Y24160000D01*
X10912728Y24160000D01*
X11593588Y23479140D01*
X11786217Y23527250D01*
X11945032Y23879371D01*
X11980262Y23702260D01*
X12233886Y23322685D01*
X12613461Y23069061D01*
X13061201Y22980000D01*
X13718799Y22980000D01*
X14166539Y23069061D01*
X14546114Y23322685D01*
X14799738Y23702260D01*
X14888799Y24150000D01*
X14799738Y24597740D01*
X14546114Y24977315D01*
X14166539Y25230939D01*
X13718799Y25320000D01*
X13061201Y25320000D01*
X12613461Y25230939D01*
X12233886Y24977315D01*
X11980262Y24597740D01*
X11944427Y24417586D01*
X11823726Y24736614D01*
X11786217Y24792750D01*
X11593588Y24840860D01*
X10912728Y24160000D01*
X10887272Y24160000D01*
X10206412Y24840860D01*
X10013783Y24792750D01*
X9839099Y24405445D01*
X9838824Y24396568D01*
X9610923Y24624468D01*
X9669797Y24766252D01*
X9669873Y24853588D01*
X10219140Y24853588D01*
X10900000Y24172728D01*
X11580860Y24853588D01*
X11532750Y25046217D01*
X11145445Y25220901D01*
X10720772Y25234073D01*
X10323386Y25083726D01*
X10267250Y25046217D01*
X10219140Y24853588D01*
X9669873Y24853588D01*
X9670203Y25231706D01*
X9492456Y25661886D01*
X9350000Y25804591D01*
X9350000Y26690000D01*
X11891201Y26690000D01*
X11980262Y26242260D01*
X12233886Y25862685D01*
X12613461Y25609061D01*
X13061201Y25520000D01*
X13718799Y25520000D01*
X14166539Y25609061D01*
X14546114Y25862685D01*
X14799738Y26242260D01*
X14888799Y26690000D01*
X14799738Y27137740D01*
X14546114Y27517315D01*
X14166539Y27770939D01*
X13718799Y27860000D01*
X13061201Y27860000D01*
X12613461Y27770939D01*
X12233886Y27517315D01*
X11980262Y27137740D01*
X11891201Y26690000D01*
X9350000Y26690000D01*
X9350000Y26735330D01*
X9491300Y26876383D01*
X9669797Y27306252D01*
X9670203Y27771706D01*
X9492456Y28201886D01*
X9414478Y28280000D01*
X9599995Y28280000D01*
X9600000Y28279999D01*
X9798995Y28319583D01*
X9967696Y28432304D01*
X10151857Y28616465D01*
X10349822Y28418154D01*
X10706209Y28270169D01*
X11092098Y28269832D01*
X11448743Y28417195D01*
X11721846Y28689822D01*
X11734377Y28720000D01*
X12021863Y28720000D01*
X12233886Y28402685D01*
X12613461Y28149061D01*
X13061201Y28060000D01*
X13718799Y28060000D01*
X14166539Y28149061D01*
X14546114Y28402685D01*
X14751455Y28710000D01*
X16380000Y28710000D01*
X16380000Y13900005D01*
X16379999Y13900000D01*
X16419583Y13701005D01*
X16532304Y13532304D01*
X17480000Y12584609D01*
X17480000Y12267482D01*
X17224971Y12162107D01*
X16839248Y11777056D01*
X16630238Y11273705D01*
X16629763Y10728686D01*
X16837893Y10224971D01*
X17222944Y9839248D01*
X17480000Y9732509D01*
X17480000Y9267482D01*
X17224971Y9162107D01*
X16839248Y8777056D01*
X16630238Y8273705D01*
X16629763Y7728686D01*
X16837893Y7224971D01*
X17222944Y6839248D01*
X17726295Y6630238D01*
X17832551Y6630145D01*
X17410285Y6471471D01*
X17327524Y6416173D01*
X17230747Y6181981D01*
X18200000Y5212728D01*
X18214142Y5226870D01*
X18226870Y5214142D01*
X18212728Y5200000D01*
X18226870Y5185858D01*
X18214142Y5173130D01*
X18200000Y5187272D01*
X17230747Y4218019D01*
X17327524Y3983827D01*
X17859346Y3742521D01*
X18389492Y3724883D01*
X17784608Y3120000D01*
X15394681Y3120000D01*
X15382805Y3148743D01*
X15110178Y3421846D01*
X14753791Y3569831D01*
X14367902Y3570168D01*
X14011257Y3422805D01*
X13961879Y3373513D01*
X13677696Y3657696D01*
X13508995Y3770417D01*
X13496204Y3772961D01*
X13266114Y4117315D01*
X12886539Y4370939D01*
X12438799Y4460000D01*
X11781201Y4460000D01*
X11333461Y4370939D01*
X10953886Y4117315D01*
X10700262Y3737740D01*
X10611201Y3290000D01*
X10700262Y2842260D01*
X10953886Y2462685D01*
X11333461Y2209061D01*
X11781201Y2120000D01*
X12438799Y2120000D01*
X12886539Y2209061D01*
X13266114Y2462685D01*
X13320512Y2544097D01*
X13632302Y2232307D01*
X13632304Y2232304D01*
X13673861Y2204537D01*
X13737195Y2051257D01*
X14009822Y1778154D01*
X14366209Y1630169D01*
X14752098Y1629832D01*
X15108743Y1777195D01*
X15238185Y1906412D01*
X18959140Y1906412D01*
X19007250Y1713783D01*
X19394555Y1539099D01*
X19819228Y1525927D01*
X20216614Y1676274D01*
X20272750Y1713783D01*
X20320860Y1906412D01*
X19640000Y2587272D01*
X18959140Y1906412D01*
X15238185Y1906412D01*
X15381846Y2049822D01*
X15394377Y2080000D01*
X17999995Y2080000D01*
X18000000Y2079999D01*
X18198995Y2119583D01*
X18367696Y2232304D01*
X18566240Y2430848D01*
X18565927Y2420772D01*
X18716274Y2023386D01*
X18753783Y1967250D01*
X18946412Y1919140D01*
X19627272Y2600000D01*
X19652728Y2600000D01*
X20333588Y1919140D01*
X20526217Y1967250D01*
X20700901Y2354555D01*
X20714073Y2779228D01*
X20563726Y3176614D01*
X20526217Y3232750D01*
X20333588Y3280860D01*
X19652728Y2600000D01*
X19627272Y2600000D01*
X19613130Y2614142D01*
X19625858Y2626870D01*
X19640000Y2612728D01*
X20320860Y3293588D01*
X20272750Y3486217D01*
X19885445Y3660901D01*
X19798974Y3663583D01*
X20467693Y4332302D01*
X20467696Y4332304D01*
X20580417Y4501005D01*
X20620000Y4700000D01*
X20620000Y5180000D01*
X23448918Y5180000D01*
X23507544Y5038114D01*
X23836383Y4708700D01*
X24266252Y4530203D01*
X24731706Y4529797D01*
X25161886Y4707544D01*
X25491300Y5036383D01*
X25669797Y5466252D01*
X25670203Y5931706D01*
X25492456Y6361886D01*
X25163617Y6691300D01*
X24733748Y6869797D01*
X24268294Y6870203D01*
X23838114Y6692456D01*
X23508700Y6363617D01*
X23449065Y6220000D01*
X20620000Y6220000D01*
X20620000Y7399995D01*
X20620001Y7400000D01*
X20580417Y7598996D01*
X20535267Y7666567D01*
X20520365Y7688871D01*
X26474514Y7688871D01*
X26652401Y7216836D01*
X26698804Y7147386D01*
X26912214Y7074942D01*
X27737272Y7900000D01*
X26912214Y8725058D01*
X26698804Y8652614D01*
X26490809Y8193050D01*
X26474514Y7688871D01*
X20520365Y7688871D01*
X20467696Y7767696D01*
X20467693Y7767698D01*
X19867696Y8367696D01*
X19698995Y8480417D01*
X19500000Y8520001D01*
X19499995Y8520000D01*
X19267482Y8520000D01*
X19162107Y8775029D01*
X18777056Y9160752D01*
X18520000Y9267491D01*
X18520000Y9732518D01*
X18775029Y9837893D01*
X19160752Y10222944D01*
X19369762Y10726295D01*
X19370237Y11271314D01*
X19162107Y11775029D01*
X18777056Y12160752D01*
X18520000Y12267491D01*
X18520000Y12799995D01*
X18520001Y12800000D01*
X18480417Y12998995D01*
X18434113Y13068294D01*
X18367696Y13167696D01*
X18367693Y13167698D01*
X17420000Y14115392D01*
X17420000Y26690000D01*
X19511201Y26690000D01*
X19600262Y26242260D01*
X19853886Y25862685D01*
X20233461Y25609061D01*
X20681201Y25520000D01*
X21338799Y25520000D01*
X21786539Y25609061D01*
X22166114Y25862685D01*
X22419738Y26242260D01*
X22484215Y26566412D01*
X22819140Y26566412D01*
X22867250Y26373783D01*
X23254555Y26199099D01*
X23679228Y26185927D01*
X24076614Y26336274D01*
X24132750Y26373783D01*
X24180860Y26566412D01*
X23500000Y27247272D01*
X22819140Y26566412D01*
X22484215Y26566412D01*
X22508799Y26690000D01*
X22436771Y27052111D01*
X22576274Y26683386D01*
X22613783Y26627250D01*
X22806412Y26579140D01*
X23487272Y27260000D01*
X23512728Y27260000D01*
X24193588Y26579140D01*
X24386217Y26627250D01*
X24560901Y27014555D01*
X24574073Y27439228D01*
X24423726Y27836614D01*
X24386217Y27892750D01*
X24193588Y27940860D01*
X23512728Y27260000D01*
X23487272Y27260000D01*
X22806412Y27940860D01*
X22613783Y27892750D01*
X22439099Y27505445D01*
X22426621Y27103138D01*
X22419738Y27137740D01*
X22166114Y27517315D01*
X21786539Y27770939D01*
X21338799Y27860000D01*
X20681201Y27860000D01*
X20233461Y27770939D01*
X19853886Y27517315D01*
X19600262Y27137740D01*
X19511201Y26690000D01*
X17420000Y26690000D01*
X17420000Y27953588D01*
X22819140Y27953588D01*
X23500000Y27272728D01*
X24180860Y27953588D01*
X24132750Y28146217D01*
X23745445Y28320901D01*
X23320772Y28334073D01*
X22923386Y28183726D01*
X22867250Y28146217D01*
X22819140Y27953588D01*
X17420000Y27953588D01*
X17420000Y28984608D01*
X17458148Y29022757D01*
X19459051Y29022757D01*
X19535076Y28753073D01*
X19807024Y28339753D01*
X20216442Y28061965D01*
X20701000Y27962000D01*
X21001000Y27962000D01*
X21001000Y29221000D01*
X21019000Y29221000D01*
X21019000Y27962000D01*
X21319000Y27962000D01*
X21803558Y28061965D01*
X22212976Y28339753D01*
X22484924Y28753073D01*
X22560949Y29022757D01*
X22460965Y29221000D01*
X21019000Y29221000D01*
X21001000Y29221000D01*
X19559035Y29221000D01*
X19459051Y29022757D01*
X17458148Y29022757D01*
X18415391Y29980000D01*
X19714747Y29980000D01*
X19535076Y29706927D01*
X19459051Y29437243D01*
X19559035Y29239000D01*
X21001000Y29239000D01*
X21001000Y29259000D01*
X21019000Y29259000D01*
X21019000Y29239000D01*
X22460965Y29239000D01*
X22560949Y29437243D01*
X22484924Y29706927D01*
X22305253Y29980000D01*
X24490237Y29980000D01*
X24507544Y29938114D01*
X24836383Y29608700D01*
X25266252Y29430203D01*
X25731706Y29429797D01*
X26161886Y29607544D01*
X26491300Y29936383D01*
X26549924Y30077565D01*
X26607544Y29938114D01*
X26607544Y29938114D01*
G37*
X26607544Y29938114D02*
X26936383Y29608700D01*
X27366252Y29430203D01*
X27831706Y29429797D01*
X28261886Y29607544D01*
X28580000Y29925103D01*
X28580000Y23674364D01*
X28263617Y23991300D01*
X28120000Y24050935D01*
X28120000Y24100000D01*
X28080417Y24298995D01*
X27967696Y24467696D01*
X27967693Y24467698D01*
X27267696Y25167696D01*
X27098995Y25280417D01*
X26900000Y25320001D01*
X26899995Y25320000D01*
X23700005Y25320000D01*
X23700000Y25320001D01*
X23501005Y25280417D01*
X23332304Y25167696D01*
X23332302Y25167693D01*
X22834608Y24670000D01*
X22371455Y24670000D01*
X22166114Y24977315D01*
X21786539Y25230939D01*
X21338799Y25320000D01*
X20681201Y25320000D01*
X20233461Y25230939D01*
X19853886Y24977315D01*
X19600262Y24597740D01*
X19511201Y24150000D01*
X19600262Y23702260D01*
X19853886Y23322685D01*
X20233461Y23069061D01*
X20681201Y22980000D01*
X21338799Y22980000D01*
X21786539Y23069061D01*
X22166114Y23322685D01*
X22371455Y23630000D01*
X23049995Y23630000D01*
X23050000Y23629999D01*
X23248995Y23669583D01*
X23417696Y23782304D01*
X23915391Y24280000D01*
X24750000Y24280000D01*
X24750000Y23904496D01*
X24508700Y23663617D01*
X24449065Y23520000D01*
X24100005Y23520000D01*
X24100000Y23520001D01*
X23901005Y23480417D01*
X23732304Y23367696D01*
X23732302Y23367693D01*
X22494608Y22130000D01*
X22371455Y22130000D01*
X22166114Y22437315D01*
X21786539Y22690939D01*
X21338799Y22780000D01*
X20681201Y22780000D01*
X20233461Y22690939D01*
X19853886Y22437315D01*
X19600262Y22057740D01*
X19511201Y21610000D01*
X19600262Y21162260D01*
X19853886Y20782685D01*
X20233461Y20529061D01*
X20681201Y20440000D01*
X21338799Y20440000D01*
X21786539Y20529061D01*
X22166114Y20782685D01*
X22371455Y21090000D01*
X22709995Y21090000D01*
X22710000Y21089999D01*
X22908995Y21129583D01*
X23077696Y21242304D01*
X24315391Y22480000D01*
X24448918Y22480000D01*
X24507544Y22338114D01*
X24836383Y22008700D01*
X24980000Y21949065D01*
X24980000Y20684101D01*
X24773705Y20769762D01*
X24228686Y20770237D01*
X23724971Y20562107D01*
X23339248Y20177056D01*
X23232509Y19920000D01*
X23000000Y19920000D01*
X22801005Y19880417D01*
X22632304Y19767696D01*
X22632302Y19767693D01*
X22454608Y19590000D01*
X22371455Y19590000D01*
X22166114Y19897315D01*
X21786539Y20150939D01*
X21338799Y20240000D01*
X20681201Y20240000D01*
X20233461Y20150939D01*
X19853886Y19897315D01*
X19600262Y19517740D01*
X19511201Y19070000D01*
X19600262Y18622260D01*
X19853886Y18242685D01*
X20233461Y17989061D01*
X20681201Y17900000D01*
X21338799Y17900000D01*
X21786539Y17989061D01*
X22166114Y18242685D01*
X22371455Y18550000D01*
X22669995Y18550000D01*
X22670000Y18549999D01*
X22868995Y18589583D01*
X23037696Y18702304D01*
X23215391Y18880000D01*
X23232518Y18880000D01*
X23337893Y18624971D01*
X23722944Y18239248D01*
X24226295Y18030238D01*
X24771314Y18029763D01*
X25275029Y18237893D01*
X25660752Y18622944D01*
X25869762Y19126295D01*
X25870083Y19494525D01*
X26724164Y18640445D01*
X26580203Y18293748D01*
X26579797Y17828294D01*
X26757544Y17398114D01*
X27086383Y17068700D01*
X27516252Y16890203D01*
X27981706Y16889797D01*
X28411886Y17067544D01*
X28580000Y17235365D01*
X28580000Y16344626D01*
X28413617Y16511300D01*
X27983748Y16689797D01*
X27518294Y16690203D01*
X27088114Y16512456D01*
X26805278Y16230114D01*
X26267696Y16767696D01*
X26098995Y16880417D01*
X25900000Y16920001D01*
X25899995Y16920000D01*
X25767482Y16920000D01*
X25662107Y17175029D01*
X25277056Y17560752D01*
X24773705Y17769762D01*
X24228686Y17770237D01*
X23724971Y17562107D01*
X23339248Y17177056D01*
X23130238Y16673705D01*
X23129763Y16128686D01*
X23337893Y15624971D01*
X23722944Y15239248D01*
X24226295Y15030238D01*
X24771314Y15029763D01*
X25275029Y15237893D01*
X25660752Y15622944D01*
X25743173Y15821435D01*
X26412302Y15152307D01*
X26412304Y15152304D01*
X26522713Y15078532D01*
X26581005Y15039583D01*
X26691657Y15017572D01*
X26757544Y14858114D01*
X27086383Y14528700D01*
X27516252Y14350203D01*
X27981706Y14349797D01*
X28411886Y14527544D01*
X28580000Y14695365D01*
X28580000Y13804626D01*
X28413617Y13971300D01*
X27983748Y14149797D01*
X27518294Y14150203D01*
X27088114Y13972456D01*
X26758700Y13643617D01*
X26699065Y13500000D01*
X26535391Y13500000D01*
X26367696Y13667696D01*
X26198995Y13780417D01*
X26000000Y13820001D01*
X25999995Y13820000D01*
X25551082Y13820000D01*
X25492456Y13961886D01*
X25163617Y14291300D01*
X24733748Y14469797D01*
X24268294Y14470203D01*
X24124573Y14410818D01*
X22425278Y16110113D01*
X22508799Y16530000D01*
X22419738Y16977740D01*
X22166114Y17357315D01*
X21786539Y17610939D01*
X21338799Y17700000D01*
X20681201Y17700000D01*
X20233461Y17610939D01*
X19853886Y17357315D01*
X19600262Y16977740D01*
X19511201Y16530000D01*
X19600262Y16082260D01*
X19853886Y15702685D01*
X20233461Y15449061D01*
X20681201Y15360000D01*
X21338799Y15360000D01*
X21643917Y15420692D01*
X23389077Y13675532D01*
X23330203Y13533748D01*
X23329797Y13068294D01*
X23507544Y12638114D01*
X23836383Y12308700D01*
X24266252Y12130203D01*
X24731706Y12129797D01*
X25161886Y12307544D01*
X25491300Y12636383D01*
X25550935Y12780000D01*
X25784608Y12780000D01*
X25952302Y12612307D01*
X25952304Y12612304D01*
X26019067Y12567695D01*
X26121004Y12499583D01*
X26320000Y12460000D01*
X26698918Y12460000D01*
X26757544Y12318114D01*
X27086383Y11988700D01*
X27516252Y11810203D01*
X27981706Y11809797D01*
X28411886Y11987544D01*
X28580000Y12155365D01*
X28580000Y11264626D01*
X28413617Y11431300D01*
X27983748Y11609797D01*
X27518294Y11610203D01*
X27088114Y11432456D01*
X26758700Y11103617D01*
X26699065Y10960000D01*
X22775392Y10960000D01*
X21530000Y12205392D01*
X21530000Y12858032D01*
X21786539Y12909061D01*
X22166114Y13162685D01*
X22419738Y13542260D01*
X22508799Y13990000D01*
X22419738Y14437740D01*
X22166114Y14817315D01*
X21786539Y15070939D01*
X21338799Y15160000D01*
X20681201Y15160000D01*
X20233461Y15070939D01*
X19853886Y14817315D01*
X19600262Y14437740D01*
X19511201Y13990000D01*
X19600262Y13542260D01*
X19853886Y13162685D01*
X20233461Y12909061D01*
X20490000Y12858032D01*
X20490000Y11990005D01*
X20489999Y11990000D01*
X20529583Y11791005D01*
X20642304Y11622304D01*
X22192304Y10072304D01*
X22361005Y9959583D01*
X22560000Y9919999D01*
X22560005Y9920000D01*
X26698918Y9920000D01*
X26757544Y9778114D01*
X27086383Y9448700D01*
X27516252Y9270203D01*
X27981706Y9269797D01*
X28411886Y9447544D01*
X28580000Y9615365D01*
X28580000Y8742731D01*
X28575057Y8737788D01*
X28502614Y8951196D01*
X28043050Y9159191D01*
X27538871Y9175486D01*
X27066836Y8997599D01*
X26997386Y8951196D01*
X26924942Y8737786D01*
X27750000Y7912728D01*
X27764142Y7926870D01*
X27776870Y7914142D01*
X27762728Y7900000D01*
X27776870Y7885858D01*
X27764142Y7873130D01*
X27750000Y7887272D01*
X26924942Y7062214D01*
X26997386Y6848804D01*
X27456950Y6640809D01*
X27961129Y6624514D01*
X28433164Y6802401D01*
X28502614Y6848804D01*
X28575057Y7062212D01*
X28580000Y7057269D01*
X28580000Y420000D01*
X420000Y420000D01*
X420000Y4090000D01*
X3012752Y4090000D01*
X3012752Y2490000D01*
X3041468Y2345633D01*
X3123245Y2223245D01*
X3245633Y2141468D01*
X3390000Y2112752D01*
X5590000Y2112752D01*
X5734367Y2141468D01*
X5856755Y2223245D01*
X5938532Y2345633D01*
X5967248Y2490000D01*
X5967248Y4090000D01*
X5938532Y4234367D01*
X5856755Y4356755D01*
X5734367Y4438532D01*
X5590000Y4467248D01*
X3390000Y4467248D01*
X3245633Y4438532D01*
X3123245Y4356755D01*
X3041468Y4234367D01*
X3012752Y4090000D01*
X420000Y4090000D01*
X420000Y7057269D01*
X424943Y7062212D01*
X497386Y6848804D01*
X956950Y6640809D01*
X1461129Y6624514D01*
X1933164Y6802401D01*
X2002614Y6848804D01*
X2075058Y7062214D01*
X1250000Y7887272D01*
X1235858Y7873130D01*
X1223130Y7885858D01*
X1237272Y7900000D01*
X1223130Y7914142D01*
X1235858Y7926870D01*
X1250000Y7912728D01*
X1264142Y7926870D01*
X1276870Y7914142D01*
X1262728Y7900000D01*
X2087786Y7074942D01*
X2301196Y7147386D01*
X2509191Y7606950D01*
X2525486Y8111129D01*
X2347599Y8583164D01*
X2301196Y8652614D01*
X2087788Y8725057D01*
X2158670Y8795939D01*
X2952302Y8002307D01*
X2952304Y8002304D01*
X3086366Y7912728D01*
X3086845Y7912408D01*
X3262966Y7648824D01*
X3250000Y7600000D01*
X3250000Y6531771D01*
X3080262Y6277740D01*
X2991201Y5830000D01*
X3080262Y5382260D01*
X3333886Y5002685D01*
X3713461Y4749061D01*
X4161201Y4660000D01*
X4818799Y4660000D01*
X5266539Y4749061D01*
X5646114Y5002685D01*
X5851455Y5310000D01*
X5929995Y5310000D01*
X5930000Y5309999D01*
X6128995Y5349583D01*
X6297696Y5462304D01*
X6665391Y5830000D01*
X10611201Y5830000D01*
X10700262Y5382260D01*
X10953886Y5002685D01*
X11333461Y4749061D01*
X11781201Y4660000D01*
X12438799Y4660000D01*
X12886539Y4749061D01*
X13266114Y5002685D01*
X13304490Y5060119D01*
X13532302Y4832307D01*
X13532304Y4832304D01*
X13656888Y4749061D01*
X13701005Y4719583D01*
X13900000Y4679999D01*
X13900005Y4680000D01*
X13932518Y4680000D01*
X14037893Y4424971D01*
X14422944Y4039248D01*
X14926295Y3830238D01*
X15471314Y3829763D01*
X15975029Y4037893D01*
X16360752Y4422944D01*
X16569762Y4926295D01*
X16569788Y4956970D01*
X16723102Y4956970D01*
X16928529Y4410285D01*
X16983827Y4327524D01*
X17218019Y4230747D01*
X18187272Y5200000D01*
X17218019Y6169253D01*
X16983827Y6072476D01*
X16742521Y5540654D01*
X16723102Y4956970D01*
X16569788Y4956970D01*
X16570237Y5471314D01*
X16362107Y5975029D01*
X15977056Y6360752D01*
X15473705Y6569762D01*
X14928686Y6570237D01*
X14424971Y6362107D01*
X14039248Y5977056D01*
X13986167Y5849224D01*
X13637696Y6197696D01*
X13520020Y6276324D01*
X13519738Y6277740D01*
X13266114Y6657315D01*
X12886539Y6910939D01*
X12438799Y7000000D01*
X11781201Y7000000D01*
X11333461Y6910939D01*
X10953886Y6657315D01*
X10700262Y6277740D01*
X10611201Y5830000D01*
X6665391Y5830000D01*
X6967693Y6132302D01*
X6967696Y6132304D01*
X7080417Y6301005D01*
X7092571Y6362107D01*
X7120001Y6500000D01*
X7120000Y6500005D01*
X7120000Y11199995D01*
X7120001Y11200000D01*
X7080417Y11398995D01*
X7058059Y11432456D01*
X6967696Y11567696D01*
X6967693Y11567698D01*
X6221208Y12314184D01*
X6362031Y12309010D01*
X7655194Y12789825D01*
X7871087Y12934081D01*
X8191113Y13350000D01*
X9222752Y13350000D01*
X9222752Y13130000D01*
X9251468Y12985633D01*
X9333245Y12863245D01*
X9455633Y12781468D01*
X9600000Y12752752D01*
X9880000Y12752752D01*
X9880000Y8800005D01*
X9879999Y8800000D01*
X9919583Y8601005D01*
X10032304Y8432304D01*
X10462302Y8002307D01*
X10462304Y8002304D01*
X10582100Y7922260D01*
X10631005Y7889583D01*
X10736059Y7868686D01*
X10953886Y7542685D01*
X11333461Y7289061D01*
X11781201Y7200000D01*
X12438799Y7200000D01*
X12886539Y7289061D01*
X13266114Y7542685D01*
X13368577Y7696031D01*
X13432304Y7632304D01*
X13601005Y7519583D01*
X13726475Y7494625D01*
X13837893Y7224971D01*
X14222944Y6839248D01*
X14726295Y6630238D01*
X15271314Y6629763D01*
X15775029Y6837893D01*
X16160752Y7222944D01*
X16369762Y7726295D01*
X16370237Y8271314D01*
X16162107Y8775029D01*
X15777056Y9160752D01*
X15273705Y9369762D01*
X14728686Y9370237D01*
X14224971Y9162107D01*
X13839248Y8777056D01*
X13815508Y8719884D01*
X13797696Y8737696D01*
X13628995Y8850417D01*
X13477809Y8880491D01*
X13266114Y9197315D01*
X12886539Y9450939D01*
X12438799Y9540000D01*
X11781201Y9540000D01*
X11333461Y9450939D01*
X10953886Y9197315D01*
X10920000Y9146601D01*
X10920000Y10010949D01*
X11316442Y9741965D01*
X11801000Y9642000D01*
X12101000Y9642000D01*
X12101000Y10901000D01*
X12081000Y10901000D01*
X12081000Y10919000D01*
X12101000Y10919000D01*
X12101000Y10939000D01*
X12119000Y10939000D01*
X12119000Y10919000D01*
X12139000Y10919000D01*
X12139000Y10901000D01*
X12119000Y10901000D01*
X12119000Y9642000D01*
X12419000Y9642000D01*
X12903558Y9741965D01*
X13312976Y10019753D01*
X13584924Y10433073D01*
X13652646Y10673304D01*
X13837893Y10224971D01*
X14222944Y9839248D01*
X14726295Y9630238D01*
X15271314Y9629763D01*
X15775029Y9837893D01*
X16160752Y10222944D01*
X16369762Y10726295D01*
X16370237Y11271314D01*
X16162107Y11775029D01*
X15777056Y12160752D01*
X15273705Y12369762D01*
X14728686Y12370237D01*
X14471444Y12263947D01*
X13922640Y12812752D01*
X14490000Y12812752D01*
X14634367Y12841468D01*
X14756755Y12923245D01*
X14838532Y13045633D01*
X14867248Y13190000D01*
X14867248Y14790000D01*
X14838532Y14934367D01*
X14756755Y15056755D01*
X14750000Y15061269D01*
X14750000Y16007822D01*
X14799738Y16082260D01*
X14888799Y16530000D01*
X14799738Y16977740D01*
X14750000Y17052178D01*
X14750000Y18547822D01*
X14799738Y18622260D01*
X14888799Y19070000D01*
X14799738Y19517740D01*
X14750000Y19592178D01*
X14750000Y21087822D01*
X14799738Y21162260D01*
X14888799Y21610000D01*
X14799738Y22057740D01*
X14546114Y22437315D01*
X14166539Y22690939D01*
X13718799Y22780000D01*
X13061201Y22780000D01*
X12613461Y22690939D01*
X12233886Y22437315D01*
X12044122Y22153314D01*
X12026013Y22180417D01*
X11967696Y22267696D01*
X11967693Y22267698D01*
X11130185Y23105206D01*
X11476614Y23236274D01*
X11532750Y23273783D01*
X11580860Y23466412D01*
X10900000Y24147272D01*
X10885858Y24133130D01*
X10873130Y24145858D01*
X10887272Y24160000D01*
X10912728Y24160000D01*
X11593588Y23479140D01*
X11786217Y23527250D01*
X11945032Y23879371D01*
X11980262Y23702260D01*
X12233886Y23322685D01*
X12613461Y23069061D01*
X13061201Y22980000D01*
X13718799Y22980000D01*
X14166539Y23069061D01*
X14546114Y23322685D01*
X14799738Y23702260D01*
X14888799Y24150000D01*
X14799738Y24597740D01*
X14546114Y24977315D01*
X14166539Y25230939D01*
X13718799Y25320000D01*
X13061201Y25320000D01*
X12613461Y25230939D01*
X12233886Y24977315D01*
X11980262Y24597740D01*
X11944427Y24417586D01*
X11823726Y24736614D01*
X11786217Y24792750D01*
X11593588Y24840860D01*
X10912728Y24160000D01*
X10887272Y24160000D01*
X10206412Y24840860D01*
X10013783Y24792750D01*
X9839099Y24405445D01*
X9838824Y24396568D01*
X9610923Y24624468D01*
X9669797Y24766252D01*
X9669873Y24853588D01*
X10219140Y24853588D01*
X10900000Y24172728D01*
X11580860Y24853588D01*
X11532750Y25046217D01*
X11145445Y25220901D01*
X10720772Y25234073D01*
X10323386Y25083726D01*
X10267250Y25046217D01*
X10219140Y24853588D01*
X9669873Y24853588D01*
X9670203Y25231706D01*
X9492456Y25661886D01*
X9350000Y25804591D01*
X9350000Y26690000D01*
X11891201Y26690000D01*
X11980262Y26242260D01*
X12233886Y25862685D01*
X12613461Y25609061D01*
X13061201Y25520000D01*
X13718799Y25520000D01*
X14166539Y25609061D01*
X14546114Y25862685D01*
X14799738Y26242260D01*
X14888799Y26690000D01*
X14799738Y27137740D01*
X14546114Y27517315D01*
X14166539Y27770939D01*
X13718799Y27860000D01*
X13061201Y27860000D01*
X12613461Y27770939D01*
X12233886Y27517315D01*
X11980262Y27137740D01*
X11891201Y26690000D01*
X9350000Y26690000D01*
X9350000Y26735330D01*
X9491300Y26876383D01*
X9669797Y27306252D01*
X9670203Y27771706D01*
X9492456Y28201886D01*
X9414478Y28280000D01*
X9599995Y28280000D01*
X9600000Y28279999D01*
X9798995Y28319583D01*
X9967696Y28432304D01*
X10151857Y28616465D01*
X10349822Y28418154D01*
X10706209Y28270169D01*
X11092098Y28269832D01*
X11448743Y28417195D01*
X11721846Y28689822D01*
X11734377Y28720000D01*
X12021863Y28720000D01*
X12233886Y28402685D01*
X12613461Y28149061D01*
X13061201Y28060000D01*
X13718799Y28060000D01*
X14166539Y28149061D01*
X14546114Y28402685D01*
X14751455Y28710000D01*
X16380000Y28710000D01*
X16380000Y13900005D01*
X16379999Y13900000D01*
X16419583Y13701005D01*
X16532304Y13532304D01*
X17480000Y12584609D01*
X17480000Y12267482D01*
X17224971Y12162107D01*
X16839248Y11777056D01*
X16630238Y11273705D01*
X16629763Y10728686D01*
X16837893Y10224971D01*
X17222944Y9839248D01*
X17480000Y9732509D01*
X17480000Y9267482D01*
X17224971Y9162107D01*
X16839248Y8777056D01*
X16630238Y8273705D01*
X16629763Y7728686D01*
X16837893Y7224971D01*
X17222944Y6839248D01*
X17726295Y6630238D01*
X17832551Y6630145D01*
X17410285Y6471471D01*
X17327524Y6416173D01*
X17230747Y6181981D01*
X18200000Y5212728D01*
X18214142Y5226870D01*
X18226870Y5214142D01*
X18212728Y5200000D01*
X18226870Y5185858D01*
X18214142Y5173130D01*
X18200000Y5187272D01*
X17230747Y4218019D01*
X17327524Y3983827D01*
X17859346Y3742521D01*
X18389492Y3724883D01*
X17784608Y3120000D01*
X15394681Y3120000D01*
X15382805Y3148743D01*
X15110178Y3421846D01*
X14753791Y3569831D01*
X14367902Y3570168D01*
X14011257Y3422805D01*
X13961879Y3373513D01*
X13677696Y3657696D01*
X13508995Y3770417D01*
X13496204Y3772961D01*
X13266114Y4117315D01*
X12886539Y4370939D01*
X12438799Y4460000D01*
X11781201Y4460000D01*
X11333461Y4370939D01*
X10953886Y4117315D01*
X10700262Y3737740D01*
X10611201Y3290000D01*
X10700262Y2842260D01*
X10953886Y2462685D01*
X11333461Y2209061D01*
X11781201Y2120000D01*
X12438799Y2120000D01*
X12886539Y2209061D01*
X13266114Y2462685D01*
X13320512Y2544097D01*
X13632302Y2232307D01*
X13632304Y2232304D01*
X13673861Y2204537D01*
X13737195Y2051257D01*
X14009822Y1778154D01*
X14366209Y1630169D01*
X14752098Y1629832D01*
X15108743Y1777195D01*
X15238185Y1906412D01*
X18959140Y1906412D01*
X19007250Y1713783D01*
X19394555Y1539099D01*
X19819228Y1525927D01*
X20216614Y1676274D01*
X20272750Y1713783D01*
X20320860Y1906412D01*
X19640000Y2587272D01*
X18959140Y1906412D01*
X15238185Y1906412D01*
X15381846Y2049822D01*
X15394377Y2080000D01*
X17999995Y2080000D01*
X18000000Y2079999D01*
X18198995Y2119583D01*
X18367696Y2232304D01*
X18566240Y2430848D01*
X18565927Y2420772D01*
X18716274Y2023386D01*
X18753783Y1967250D01*
X18946412Y1919140D01*
X19627272Y2600000D01*
X19652728Y2600000D01*
X20333588Y1919140D01*
X20526217Y1967250D01*
X20700901Y2354555D01*
X20714073Y2779228D01*
X20563726Y3176614D01*
X20526217Y3232750D01*
X20333588Y3280860D01*
X19652728Y2600000D01*
X19627272Y2600000D01*
X19613130Y2614142D01*
X19625858Y2626870D01*
X19640000Y2612728D01*
X20320860Y3293588D01*
X20272750Y3486217D01*
X19885445Y3660901D01*
X19798974Y3663583D01*
X20467693Y4332302D01*
X20467696Y4332304D01*
X20580417Y4501005D01*
X20620000Y4700000D01*
X20620000Y5180000D01*
X23448918Y5180000D01*
X23507544Y5038114D01*
X23836383Y4708700D01*
X24266252Y4530203D01*
X24731706Y4529797D01*
X25161886Y4707544D01*
X25491300Y5036383D01*
X25669797Y5466252D01*
X25670203Y5931706D01*
X25492456Y6361886D01*
X25163617Y6691300D01*
X24733748Y6869797D01*
X24268294Y6870203D01*
X23838114Y6692456D01*
X23508700Y6363617D01*
X23449065Y6220000D01*
X20620000Y6220000D01*
X20620000Y7399995D01*
X20620001Y7400000D01*
X20580417Y7598996D01*
X20535267Y7666567D01*
X20520365Y7688871D01*
X26474514Y7688871D01*
X26652401Y7216836D01*
X26698804Y7147386D01*
X26912214Y7074942D01*
X27737272Y7900000D01*
X26912214Y8725058D01*
X26698804Y8652614D01*
X26490809Y8193050D01*
X26474514Y7688871D01*
X20520365Y7688871D01*
X20467696Y7767696D01*
X20467693Y7767698D01*
X19867696Y8367696D01*
X19698995Y8480417D01*
X19500000Y8520001D01*
X19499995Y8520000D01*
X19267482Y8520000D01*
X19162107Y8775029D01*
X18777056Y9160752D01*
X18520000Y9267491D01*
X18520000Y9732518D01*
X18775029Y9837893D01*
X19160752Y10222944D01*
X19369762Y10726295D01*
X19370237Y11271314D01*
X19162107Y11775029D01*
X18777056Y12160752D01*
X18520000Y12267491D01*
X18520000Y12799995D01*
X18520001Y12800000D01*
X18480417Y12998995D01*
X18434113Y13068294D01*
X18367696Y13167696D01*
X18367693Y13167698D01*
X17420000Y14115392D01*
X17420000Y26690000D01*
X19511201Y26690000D01*
X19600262Y26242260D01*
X19853886Y25862685D01*
X20233461Y25609061D01*
X20681201Y25520000D01*
X21338799Y25520000D01*
X21786539Y25609061D01*
X22166114Y25862685D01*
X22419738Y26242260D01*
X22484215Y26566412D01*
X22819140Y26566412D01*
X22867250Y26373783D01*
X23254555Y26199099D01*
X23679228Y26185927D01*
X24076614Y26336274D01*
X24132750Y26373783D01*
X24180860Y26566412D01*
X23500000Y27247272D01*
X22819140Y26566412D01*
X22484215Y26566412D01*
X22508799Y26690000D01*
X22436771Y27052111D01*
X22576274Y26683386D01*
X22613783Y26627250D01*
X22806412Y26579140D01*
X23487272Y27260000D01*
X23512728Y27260000D01*
X24193588Y26579140D01*
X24386217Y26627250D01*
X24560901Y27014555D01*
X24574073Y27439228D01*
X24423726Y27836614D01*
X24386217Y27892750D01*
X24193588Y27940860D01*
X23512728Y27260000D01*
X23487272Y27260000D01*
X22806412Y27940860D01*
X22613783Y27892750D01*
X22439099Y27505445D01*
X22426621Y27103138D01*
X22419738Y27137740D01*
X22166114Y27517315D01*
X21786539Y27770939D01*
X21338799Y27860000D01*
X20681201Y27860000D01*
X20233461Y27770939D01*
X19853886Y27517315D01*
X19600262Y27137740D01*
X19511201Y26690000D01*
X17420000Y26690000D01*
X17420000Y27953588D01*
X22819140Y27953588D01*
X23500000Y27272728D01*
X24180860Y27953588D01*
X24132750Y28146217D01*
X23745445Y28320901D01*
X23320772Y28334073D01*
X22923386Y28183726D01*
X22867250Y28146217D01*
X22819140Y27953588D01*
X17420000Y27953588D01*
X17420000Y28984608D01*
X17458148Y29022757D01*
X19459051Y29022757D01*
X19535076Y28753073D01*
X19807024Y28339753D01*
X20216442Y28061965D01*
X20701000Y27962000D01*
X21001000Y27962000D01*
X21001000Y29221000D01*
X21019000Y29221000D01*
X21019000Y27962000D01*
X21319000Y27962000D01*
X21803558Y28061965D01*
X22212976Y28339753D01*
X22484924Y28753073D01*
X22560949Y29022757D01*
X22460965Y29221000D01*
X21019000Y29221000D01*
X21001000Y29221000D01*
X19559035Y29221000D01*
X19459051Y29022757D01*
X17458148Y29022757D01*
X18415391Y29980000D01*
X19714747Y29980000D01*
X19535076Y29706927D01*
X19459051Y29437243D01*
X19559035Y29239000D01*
X21001000Y29239000D01*
X21001000Y29259000D01*
X21019000Y29259000D01*
X21019000Y29239000D01*
X22460965Y29239000D01*
X22560949Y29437243D01*
X22484924Y29706927D01*
X22305253Y29980000D01*
X24490237Y29980000D01*
X24507544Y29938114D01*
X24836383Y29608700D01*
X25266252Y29430203D01*
X25731706Y29429797D01*
X26161886Y29607544D01*
X26491300Y29936383D01*
X26549924Y30077565D01*
X26607544Y29938114D01*
G36*
X586383Y9448700D02*
X1016252Y9270203D01*
X1481706Y9269797D01*
X1625427Y9329181D01*
X2145939Y8808670D01*
X2075057Y8737788D01*
X2002614Y8951196D01*
X1543050Y9159191D01*
X1038871Y9175486D01*
X566836Y8997599D01*
X497386Y8951196D01*
X424943Y8737788D01*
X420000Y8742731D01*
X420000Y9615374D01*
X586383Y9448700D01*
X586383Y9448700D01*
G37*
X586383Y9448700D02*
X1016252Y9270203D01*
X1481706Y9269797D01*
X1625427Y9329181D01*
X2145939Y8808670D01*
X2075057Y8737788D01*
X2002614Y8951196D01*
X1543050Y9159191D01*
X1038871Y9175486D01*
X566836Y8997599D01*
X497386Y8951196D01*
X424943Y8737788D01*
X420000Y8742731D01*
X420000Y9615374D01*
X586383Y9448700D01*
G36*
X5826870Y15814142D02*
X5812728Y15800000D01*
X7950997Y13661731D01*
X7929457Y13657815D01*
X5800000Y15787272D01*
X5785858Y15773130D01*
X5773130Y15785858D01*
X5787272Y15800000D01*
X5773130Y15814142D01*
X5785858Y15826870D01*
X5800000Y15812728D01*
X5814142Y15826870D01*
X5826870Y15814142D01*
X5826870Y15814142D01*
G37*
X5826870Y15814142D02*
X5812728Y15800000D01*
X7950997Y13661731D01*
X7929457Y13657815D01*
X5800000Y15787272D01*
X5785858Y15773130D01*
X5773130Y15785858D01*
X5787272Y15800000D01*
X5773130Y15814142D01*
X5785858Y15826870D01*
X5800000Y15812728D01*
X5814142Y15826870D01*
X5826870Y15814142D01*
G36*
X5689822Y29378154D02*
X6026081Y29238527D01*
X6832304Y28432304D01*
X7001005Y28319583D01*
X7200000Y28279999D01*
X7200005Y28280000D01*
X7585217Y28280000D01*
X7508700Y28203617D01*
X7330203Y27773748D01*
X7329797Y27308294D01*
X7389181Y27164573D01*
X6732304Y26507696D01*
X6619583Y26338995D01*
X6579999Y26140000D01*
X6580000Y26139995D01*
X6580000Y24300005D01*
X6579999Y24300000D01*
X6619583Y24101005D01*
X6732304Y23932304D01*
X7332302Y23332307D01*
X7332304Y23332304D01*
X7419888Y23273783D01*
X7501004Y23219583D01*
X7587582Y23202361D01*
X7508700Y23123617D01*
X7330203Y22693748D01*
X7329797Y22228294D01*
X7415832Y22020074D01*
X7337607Y22020142D01*
X7036114Y21895568D01*
X6805243Y21665099D01*
X6680142Y21363824D01*
X6679930Y21120000D01*
X4939552Y21120000D01*
X4765099Y21294757D01*
X4463824Y21419858D01*
X4137607Y21420142D01*
X3935000Y21336427D01*
X3935000Y21999608D01*
X5467693Y23532302D01*
X5467696Y23532304D01*
X5580417Y23701005D01*
X5586643Y23732305D01*
X5620001Y23900000D01*
X5620000Y23900005D01*
X5620000Y29448098D01*
X5689822Y29378154D01*
X5689822Y29378154D01*
G37*
X5689822Y29378154D02*
X6026081Y29238527D01*
X6832304Y28432304D01*
X7001005Y28319583D01*
X7200000Y28279999D01*
X7200005Y28280000D01*
X7585217Y28280000D01*
X7508700Y28203617D01*
X7330203Y27773748D01*
X7329797Y27308294D01*
X7389181Y27164573D01*
X6732304Y26507696D01*
X6619583Y26338995D01*
X6579999Y26140000D01*
X6580000Y26139995D01*
X6580000Y24300005D01*
X6579999Y24300000D01*
X6619583Y24101005D01*
X6732304Y23932304D01*
X7332302Y23332307D01*
X7332304Y23332304D01*
X7419888Y23273783D01*
X7501004Y23219583D01*
X7587582Y23202361D01*
X7508700Y23123617D01*
X7330203Y22693748D01*
X7329797Y22228294D01*
X7415832Y22020074D01*
X7337607Y22020142D01*
X7036114Y21895568D01*
X6805243Y21665099D01*
X6680142Y21363824D01*
X6679930Y21120000D01*
X4939552Y21120000D01*
X4765099Y21294757D01*
X4463824Y21419858D01*
X4137607Y21420142D01*
X3935000Y21336427D01*
X3935000Y21999608D01*
X5467693Y23532302D01*
X5467696Y23532304D01*
X5580417Y23701005D01*
X5586643Y23732305D01*
X5620001Y23900000D01*
X5620000Y23900005D01*
X5620000Y29448098D01*
X5689822Y29378154D01*
G36*
X527250Y29313783D02*
X914555Y29139099D01*
X1339228Y29125927D01*
X1736614Y29276274D01*
X1780000Y29305264D01*
X1780000Y23100005D01*
X1779999Y23100000D01*
X1819583Y22901005D01*
X1932304Y22732304D01*
X2280000Y22384609D01*
X2280000Y21691314D01*
X2194367Y21748532D01*
X2050000Y21777248D01*
X450000Y21777248D01*
X420000Y21771281D01*
X420000Y29447269D01*
X479141Y29506410D01*
X527250Y29313783D01*
X527250Y29313783D01*
G37*
X527250Y29313783D02*
X914555Y29139099D01*
X1339228Y29125927D01*
X1736614Y29276274D01*
X1780000Y29305264D01*
X1780000Y23100005D01*
X1779999Y23100000D01*
X1819583Y22901005D01*
X1932304Y22732304D01*
X2280000Y22384609D01*
X2280000Y21691314D01*
X2194367Y21748532D01*
X2050000Y21777248D01*
X450000Y21777248D01*
X420000Y21771281D01*
X420000Y29447269D01*
X479141Y29506410D01*
X527250Y29313783D01*
G36*
X4580000Y25369019D02*
X4465686Y25402958D01*
X3712728Y24650000D01*
X3726870Y24635858D01*
X3714142Y24623130D01*
X3700000Y24637272D01*
X3685858Y24623130D01*
X3673130Y24635858D01*
X3687272Y24650000D01*
X2934314Y25402958D01*
X2820000Y25369019D01*
X2820000Y25415686D01*
X2947042Y25415686D01*
X3700000Y24662728D01*
X4452958Y25415686D01*
X4392682Y25618707D01*
X3969247Y25810046D01*
X3504822Y25824779D01*
X3070110Y25660663D01*
X3007318Y25618707D01*
X2947042Y25415686D01*
X2820000Y25415686D01*
X2820000Y26125277D01*
X2855633Y26101468D01*
X3000000Y26072752D01*
X4400000Y26072752D01*
X4544367Y26101468D01*
X4580000Y26125277D01*
X4580000Y25369019D01*
X4580000Y25369019D01*
G37*
X4580000Y25369019D02*
X4465686Y25402958D01*
X3712728Y24650000D01*
X3726870Y24635858D01*
X3714142Y24623130D01*
X3700000Y24637272D01*
X3685858Y24623130D01*
X3673130Y24635858D01*
X3687272Y24650000D01*
X2934314Y25402958D01*
X2820000Y25369019D01*
X2820000Y25415686D01*
X2947042Y25415686D01*
X3700000Y24662728D01*
X4452958Y25415686D01*
X4392682Y25618707D01*
X3969247Y25810046D01*
X3504822Y25824779D01*
X3070110Y25660663D01*
X3007318Y25618707D01*
X2947042Y25415686D01*
X2820000Y25415686D01*
X2820000Y26125277D01*
X2855633Y26101468D01*
X3000000Y26072752D01*
X4400000Y26072752D01*
X4544367Y26101468D01*
X4580000Y26125277D01*
X4580000Y25369019D01*
G36*
X4580000Y28174723D02*
X4544367Y28198532D01*
X4400000Y28227248D01*
X3000000Y28227248D01*
X2855633Y28198532D01*
X2820000Y28174723D01*
X2820000Y30599995D01*
X2820001Y30600000D01*
X2780417Y30798995D01*
X2757196Y30833748D01*
X2667696Y30967696D01*
X2667693Y30967698D01*
X2643351Y30992040D01*
X2679228Y30990927D01*
X3076614Y31141274D01*
X3132750Y31178783D01*
X3180860Y31371412D01*
X2500000Y32052272D01*
X2485858Y32038130D01*
X2473130Y32050858D01*
X2487272Y32065000D01*
X2473130Y32079142D01*
X2485858Y32091870D01*
X2500000Y32077728D01*
X2514142Y32091870D01*
X2526870Y32079142D01*
X2512728Y32065000D01*
X3193588Y31384140D01*
X3386217Y31432250D01*
X3560901Y31819555D01*
X3574073Y32244228D01*
X3519390Y32388762D01*
X3576209Y32365169D01*
X3962098Y32364832D01*
X4318743Y32512195D01*
X4580000Y32772997D01*
X4580000Y28174723D01*
X4580000Y28174723D01*
G37*
X4580000Y28174723D02*
X4544367Y28198532D01*
X4400000Y28227248D01*
X3000000Y28227248D01*
X2855633Y28198532D01*
X2820000Y28174723D01*
X2820000Y30599995D01*
X2820001Y30600000D01*
X2780417Y30798995D01*
X2757196Y30833748D01*
X2667696Y30967696D01*
X2667693Y30967698D01*
X2643351Y30992040D01*
X2679228Y30990927D01*
X3076614Y31141274D01*
X3132750Y31178783D01*
X3180860Y31371412D01*
X2500000Y32052272D01*
X2485858Y32038130D01*
X2473130Y32050858D01*
X2487272Y32065000D01*
X2473130Y32079142D01*
X2485858Y32091870D01*
X2500000Y32077728D01*
X2514142Y32091870D01*
X2526870Y32079142D01*
X2512728Y32065000D01*
X3193588Y31384140D01*
X3386217Y31432250D01*
X3560901Y31819555D01*
X3574073Y32244228D01*
X3519390Y32388762D01*
X3576209Y32365169D01*
X3962098Y32364832D01*
X4318743Y32512195D01*
X4580000Y32772997D01*
X4580000Y28174723D01*
G36*
X28580000Y66557269D02*
X28580000Y36750000D01*
X27985391Y36750000D01*
X27020000Y37715392D01*
X27020000Y43512518D01*
X27275029Y43617893D01*
X27660752Y44002944D01*
X27869762Y44506295D01*
X27870237Y45051314D01*
X27662107Y45555029D01*
X27277056Y45940752D01*
X27134643Y45999887D01*
X27275029Y46057893D01*
X27660752Y46442944D01*
X27869762Y46946295D01*
X27870237Y47491314D01*
X27662107Y47995029D01*
X27277056Y48380752D01*
X26773705Y48589762D01*
X26228686Y48590237D01*
X25724971Y48382107D01*
X25339248Y47997056D01*
X25130238Y47493705D01*
X25129763Y46948686D01*
X25337893Y46444971D01*
X25722944Y46059248D01*
X25865357Y46000113D01*
X25724971Y45942107D01*
X25339248Y45557056D01*
X25130238Y45053705D01*
X25129763Y44508686D01*
X25337893Y44004971D01*
X25722944Y43619248D01*
X25980000Y43512509D01*
X25980000Y37500005D01*
X25979999Y37500000D01*
X26019583Y37301005D01*
X26132304Y37132304D01*
X27480000Y35784609D01*
X27480000Y35577454D01*
X27277056Y35780752D01*
X26773705Y35989762D01*
X26228686Y35990237D01*
X25724971Y35782107D01*
X25339248Y35397056D01*
X25232509Y35140000D01*
X25120005Y35140000D01*
X25120000Y35140001D01*
X24921005Y35100417D01*
X24752304Y34987696D01*
X24752302Y34987693D01*
X24644609Y34880000D01*
X24334681Y34880000D01*
X24322805Y34908743D01*
X24050178Y35181846D01*
X23693791Y35329831D01*
X23307902Y35330168D01*
X22951257Y35182805D01*
X22678154Y34910178D01*
X22644861Y34830000D01*
X22371455Y34830000D01*
X22166114Y35137315D01*
X21786539Y35390939D01*
X21338799Y35480000D01*
X20681201Y35480000D01*
X20233461Y35390939D01*
X19853886Y35137315D01*
X19600262Y34757740D01*
X19511201Y34310000D01*
X19600262Y33862260D01*
X19853886Y33482685D01*
X20233461Y33229061D01*
X20681201Y33140000D01*
X21338799Y33140000D01*
X21786539Y33229061D01*
X22166114Y33482685D01*
X22371455Y33790000D01*
X22698415Y33790000D01*
X22949822Y33538154D01*
X23306209Y33390169D01*
X23692098Y33389832D01*
X24048743Y33537195D01*
X24321846Y33809822D01*
X24334377Y33840000D01*
X24859995Y33840000D01*
X24860000Y33839999D01*
X25058995Y33879583D01*
X25227696Y33992304D01*
X25262596Y34027204D01*
X25337893Y33844971D01*
X25722944Y33459248D01*
X26226295Y33250238D01*
X26771314Y33249763D01*
X27275029Y33457893D01*
X27480000Y33662507D01*
X27480000Y33515391D01*
X27232304Y33267696D01*
X27119583Y33098995D01*
X27079999Y32900000D01*
X27080000Y32899995D01*
X27080000Y31651082D01*
X26938114Y31592456D01*
X26608700Y31263617D01*
X26550076Y31122435D01*
X26492456Y31261886D01*
X26163617Y31591300D01*
X25733748Y31769797D01*
X25268294Y31770203D01*
X24838114Y31592456D01*
X24508700Y31263617D01*
X24407541Y31020000D01*
X23950000Y31020000D01*
X23950000Y31476395D01*
X24048743Y31517195D01*
X24321846Y31789822D01*
X24469831Y32146209D01*
X24470168Y32532098D01*
X24322805Y32888743D01*
X24050178Y33161846D01*
X23693791Y33309831D01*
X23307902Y33310168D01*
X22951257Y33162805D01*
X22678154Y32890178D01*
X22613930Y32735509D01*
X22572304Y32707696D01*
X22572302Y32707693D01*
X22284599Y32419990D01*
X22166114Y32597315D01*
X21786539Y32850939D01*
X21338799Y32940000D01*
X20681201Y32940000D01*
X20233461Y32850939D01*
X19853886Y32597315D01*
X19600262Y32217740D01*
X19511201Y31770000D01*
X19600262Y31322260D01*
X19802226Y31020000D01*
X18200005Y31020000D01*
X18200000Y31020001D01*
X18001004Y30980417D01*
X17944534Y30942685D01*
X17832304Y30867696D01*
X17832302Y30867693D01*
X16714608Y29750000D01*
X14751455Y29750000D01*
X14546114Y30057315D01*
X14166539Y30310939D01*
X13718799Y30400000D01*
X13061201Y30400000D01*
X12613461Y30310939D01*
X12233886Y30057315D01*
X12035226Y29760000D01*
X11734681Y29760000D01*
X11722805Y29788743D01*
X11450178Y30061846D01*
X11093791Y30209831D01*
X10707902Y30210168D01*
X10351257Y30062805D01*
X10078154Y29790178D01*
X10065623Y29760000D01*
X10040005Y29760000D01*
X10040000Y29760001D01*
X9841005Y29720417D01*
X9768000Y29671637D01*
X9768000Y29954000D01*
X9651000Y30071000D01*
X8509000Y30071000D01*
X8509000Y30051000D01*
X8491000Y30051000D01*
X8491000Y30071000D01*
X7349000Y30071000D01*
X7328000Y30050000D01*
X7209869Y30050000D01*
X7210168Y30392098D01*
X7062805Y30748743D01*
X6838849Y30973091D01*
X7232000Y30973091D01*
X7232000Y30206000D01*
X7349000Y30089000D01*
X8491000Y30089000D01*
X8491000Y31231000D01*
X8509000Y31231000D01*
X8509000Y30089000D01*
X9651000Y30089000D01*
X9768000Y30206000D01*
X9768000Y30973091D01*
X9696751Y31145101D01*
X9565101Y31276751D01*
X9393091Y31348000D01*
X8626000Y31348000D01*
X8509000Y31231000D01*
X8491000Y31231000D01*
X8374000Y31348000D01*
X7606909Y31348000D01*
X7434899Y31276751D01*
X7303249Y31145101D01*
X7232000Y30973091D01*
X6838849Y30973091D01*
X6790178Y31021846D01*
X6433791Y31169831D01*
X6047902Y31170168D01*
X5691257Y31022805D01*
X5620000Y30951672D01*
X5620000Y35367902D01*
X6129832Y35367902D01*
X6277195Y35011257D01*
X6549822Y34738154D01*
X6906209Y34590169D01*
X7292098Y34589832D01*
X7648743Y34737195D01*
X7768182Y34856426D01*
X9942096Y32682513D01*
X9930169Y32653791D01*
X9929832Y32267902D01*
X10077195Y31911257D01*
X10349822Y31638154D01*
X10706209Y31490169D01*
X11092098Y31489832D01*
X11268589Y31562757D01*
X11839051Y31562757D01*
X11915076Y31293073D01*
X12187024Y30879753D01*
X12596442Y30601965D01*
X13081000Y30502000D01*
X13381000Y30502000D01*
X13381000Y31761000D01*
X13399000Y31761000D01*
X13399000Y30502000D01*
X13699000Y30502000D01*
X14183558Y30601965D01*
X14592976Y30879753D01*
X14864924Y31293073D01*
X14940949Y31562757D01*
X14840965Y31761000D01*
X13399000Y31761000D01*
X13381000Y31761000D01*
X11939035Y31761000D01*
X11839051Y31562757D01*
X11268589Y31562757D01*
X11448743Y31637195D01*
X11721846Y31909822D01*
X11749841Y31977243D01*
X11839051Y31977243D01*
X11939035Y31779000D01*
X13381000Y31779000D01*
X13381000Y33038000D01*
X13399000Y33038000D01*
X13399000Y31779000D01*
X14840965Y31779000D01*
X14940949Y31977243D01*
X14864924Y32246927D01*
X14592976Y32660247D01*
X14183558Y32938035D01*
X13699000Y33038000D01*
X13399000Y33038000D01*
X13381000Y33038000D01*
X13081000Y33038000D01*
X12596442Y32938035D01*
X12187024Y32660247D01*
X11915076Y32246927D01*
X11839051Y31977243D01*
X11749841Y31977243D01*
X11869831Y32266209D01*
X11870168Y32652098D01*
X11857690Y32682298D01*
X12488169Y33312778D01*
X12613461Y33229061D01*
X13061201Y33140000D01*
X13718799Y33140000D01*
X14166539Y33229061D01*
X14546114Y33482685D01*
X14799738Y33862260D01*
X14888799Y34310000D01*
X14799738Y34757740D01*
X14546114Y35137315D01*
X14166539Y35390939D01*
X13718799Y35480000D01*
X13061201Y35480000D01*
X12613461Y35390939D01*
X12233886Y35137315D01*
X11980262Y34757740D01*
X11891201Y34310000D01*
X11911676Y34207067D01*
X11122513Y33417905D01*
X11093791Y33429831D01*
X10707902Y33430168D01*
X10677702Y33417689D01*
X8167696Y35927696D01*
X7998995Y36040417D01*
X7946742Y36050811D01*
X7922805Y36108743D01*
X7650178Y36381846D01*
X7293791Y36529831D01*
X6907902Y36530168D01*
X6551257Y36382805D01*
X6278154Y36110178D01*
X6130169Y35753791D01*
X6129832Y35367902D01*
X5620000Y35367902D01*
X5620000Y36846412D01*
X10219140Y36846412D01*
X10267250Y36653783D01*
X10654555Y36479099D01*
X11079228Y36465927D01*
X11476614Y36616274D01*
X11532750Y36653783D01*
X11580860Y36846412D01*
X10900000Y37527272D01*
X10219140Y36846412D01*
X5620000Y36846412D01*
X5620000Y37360772D01*
X9825927Y37360772D01*
X9976274Y36963386D01*
X10013783Y36907250D01*
X10206412Y36859140D01*
X10887272Y37540000D01*
X10206412Y38220860D01*
X10013783Y38172750D01*
X9839099Y37785445D01*
X9825927Y37360772D01*
X5620000Y37360772D01*
X5620000Y39080772D01*
X9825927Y39080772D01*
X9976274Y38683386D01*
X10013783Y38627250D01*
X10206412Y38579140D01*
X10887272Y39260000D01*
X10206412Y39940860D01*
X10013783Y39892750D01*
X9839099Y39505445D01*
X9825927Y39080772D01*
X5620000Y39080772D01*
X5620000Y40447902D01*
X6129832Y40447902D01*
X6277195Y40091257D01*
X6549822Y39818154D01*
X6906209Y39670169D01*
X7292098Y39669832D01*
X7648743Y39817195D01*
X7921846Y40089822D01*
X8069831Y40446209D01*
X8070168Y40832098D01*
X7922805Y41188743D01*
X7650178Y41461846D01*
X7620000Y41474377D01*
X7620000Y42784608D01*
X8655391Y43820000D01*
X10065319Y43820000D01*
X10077195Y43791257D01*
X10349822Y43518154D01*
X10380000Y43505623D01*
X10380000Y41400005D01*
X10379999Y41400000D01*
X10419583Y41201005D01*
X10532304Y41032304D01*
X11324438Y40240171D01*
X11145445Y40320901D01*
X10720772Y40334073D01*
X10323386Y40183726D01*
X10267250Y40146217D01*
X10219140Y39953588D01*
X10900000Y39272728D01*
X10914142Y39286870D01*
X10926870Y39274142D01*
X10912728Y39260000D01*
X10926870Y39245858D01*
X10914142Y39233130D01*
X10900000Y39247272D01*
X10219140Y38566412D01*
X10260702Y38400000D01*
X10219140Y38233588D01*
X10900000Y37552728D01*
X10914142Y37566870D01*
X10926870Y37554142D01*
X10912728Y37540000D01*
X11593588Y36859140D01*
X11786217Y36907250D01*
X11815560Y36972308D01*
X11898944Y36888924D01*
X11891201Y36850000D01*
X11980262Y36402260D01*
X12233886Y36022685D01*
X12613461Y35769061D01*
X13061201Y35680000D01*
X13718799Y35680000D01*
X14166539Y35769061D01*
X14546114Y36022685D01*
X14799738Y36402260D01*
X14888799Y36850000D01*
X14845623Y37067059D01*
X14847087Y37070583D01*
X14849769Y37108321D01*
X14751864Y38870611D01*
X14799738Y38942260D01*
X14888799Y39390000D01*
X19511201Y39390000D01*
X19600262Y38942260D01*
X19853886Y38562685D01*
X20233461Y38309061D01*
X20681201Y38220000D01*
X21338799Y38220000D01*
X21786539Y38309061D01*
X22166114Y38562685D01*
X22288876Y38746412D01*
X22819140Y38746412D01*
X22867250Y38553783D01*
X23254555Y38379099D01*
X23679228Y38365927D01*
X24076614Y38516274D01*
X24132750Y38553783D01*
X24180860Y38746412D01*
X23500000Y39427272D01*
X22819140Y38746412D01*
X22288876Y38746412D01*
X22419738Y38942260D01*
X22463395Y39161739D01*
X22576274Y38863386D01*
X22613783Y38807250D01*
X22806412Y38759140D01*
X23487272Y39440000D01*
X23512728Y39440000D01*
X24193588Y38759140D01*
X24386217Y38807250D01*
X24560901Y39194555D01*
X24574073Y39619228D01*
X24423726Y40016614D01*
X24386217Y40072750D01*
X24193588Y40120860D01*
X23512728Y39440000D01*
X23487272Y39440000D01*
X22806412Y40120860D01*
X22613783Y40072750D01*
X22446686Y39702266D01*
X22419738Y39837740D01*
X22222059Y40133588D01*
X22819140Y40133588D01*
X23500000Y39452728D01*
X24180860Y40133588D01*
X24132750Y40326217D01*
X23745445Y40500901D01*
X23320772Y40514073D01*
X22923386Y40363726D01*
X22867250Y40326217D01*
X22819140Y40133588D01*
X22222059Y40133588D01*
X22166114Y40217315D01*
X21786539Y40470939D01*
X21338799Y40560000D01*
X20681201Y40560000D01*
X20233461Y40470939D01*
X19853886Y40217315D01*
X19600262Y39837740D01*
X19511201Y39390000D01*
X14888799Y39390000D01*
X14799738Y39837740D01*
X14546114Y40217315D01*
X14166539Y40470939D01*
X13718799Y40560000D01*
X13061201Y40560000D01*
X12613461Y40470939D01*
X12420000Y40341672D01*
X12420000Y40399995D01*
X12420001Y40400000D01*
X12380417Y40598995D01*
X12353019Y40640000D01*
X12267696Y40767696D01*
X12267693Y40767698D01*
X11420000Y41615392D01*
X11420000Y41930000D01*
X11891201Y41930000D01*
X11980262Y41482260D01*
X12233886Y41102685D01*
X12613461Y40849061D01*
X13061201Y40760000D01*
X13718799Y40760000D01*
X14166539Y40849061D01*
X14546114Y41102685D01*
X14799738Y41482260D01*
X14888799Y41930000D01*
X14799738Y42377740D01*
X14546114Y42757315D01*
X14166539Y43010939D01*
X13718799Y43100000D01*
X13061201Y43100000D01*
X12613461Y43010939D01*
X12233886Y42757315D01*
X11980262Y42377740D01*
X11891201Y41930000D01*
X11420000Y41930000D01*
X11420000Y43505319D01*
X11448743Y43517195D01*
X11721846Y43789822D01*
X11869831Y44146209D01*
X11870113Y44470000D01*
X11891201Y44470000D01*
X11980262Y44022260D01*
X12233886Y43642685D01*
X12613461Y43389061D01*
X13061201Y43300000D01*
X13718799Y43300000D01*
X14166539Y43389061D01*
X14546114Y43642685D01*
X14799738Y44022260D01*
X14888799Y44470000D01*
X14799738Y44917740D01*
X14546114Y45297315D01*
X14166539Y45550939D01*
X13718799Y45640000D01*
X13061201Y45640000D01*
X12613461Y45550939D01*
X12233886Y45297315D01*
X11980262Y44917740D01*
X11891201Y44470000D01*
X11870113Y44470000D01*
X11870168Y44532098D01*
X11722805Y44888743D01*
X11450178Y45161846D01*
X11093791Y45309831D01*
X10707902Y45310168D01*
X10351257Y45162805D01*
X10078154Y44890178D01*
X10065623Y44860000D01*
X8440005Y44860000D01*
X8440000Y44860001D01*
X8241004Y44820417D01*
X8210448Y44800000D01*
X8072304Y44707696D01*
X8072302Y44707693D01*
X6732304Y43367696D01*
X6619583Y43198995D01*
X6579999Y43000000D01*
X6580000Y42999995D01*
X6580000Y41474681D01*
X6551257Y41462805D01*
X6278154Y41190178D01*
X6130169Y40833791D01*
X6129832Y40447902D01*
X5620000Y40447902D01*
X5620000Y45021989D01*
X6585724Y45730186D01*
X7071314Y45729763D01*
X7575029Y45937893D01*
X7960752Y46322944D01*
X7971987Y46350000D01*
X8627551Y46350000D01*
X8637893Y46324971D01*
X9022944Y45939248D01*
X9526295Y45730238D01*
X10071314Y45729763D01*
X10575029Y45937893D01*
X10687332Y46050000D01*
X12432463Y46050000D01*
X12613461Y45929061D01*
X13061201Y45840000D01*
X13718799Y45840000D01*
X14166539Y45929061D01*
X14546114Y46182685D01*
X14799738Y46562260D01*
X14888799Y47010000D01*
X14799738Y47457740D01*
X14546114Y47837315D01*
X14166539Y48090939D01*
X14010000Y48122077D01*
X14010000Y48958032D01*
X14266539Y49009061D01*
X14646114Y49262685D01*
X14899738Y49642260D01*
X14988799Y50090000D01*
X14899738Y50537740D01*
X14737865Y50780000D01*
X17084608Y50780000D01*
X17990000Y49874609D01*
X17990000Y48925391D01*
X17532304Y48467696D01*
X17419583Y48298995D01*
X17379999Y48100000D01*
X17380000Y48099995D01*
X17380000Y43300005D01*
X17379999Y43300000D01*
X17419583Y43101005D01*
X17532304Y42932304D01*
X18902302Y41562307D01*
X18902304Y41562304D01*
X19022100Y41482260D01*
X19071005Y41449583D01*
X19270000Y41409999D01*
X19270005Y41410000D01*
X19648545Y41410000D01*
X19853886Y41102685D01*
X20233461Y40849061D01*
X20681201Y40760000D01*
X21338799Y40760000D01*
X21786539Y40849061D01*
X22166114Y41102685D01*
X22419738Y41482260D01*
X22508799Y41930000D01*
X22419738Y42377740D01*
X22217774Y42680000D01*
X22984608Y42680000D01*
X24680000Y40984609D01*
X24680000Y38515391D01*
X23534608Y37370000D01*
X22371455Y37370000D01*
X22166114Y37677315D01*
X21786539Y37930939D01*
X21338799Y38020000D01*
X20681201Y38020000D01*
X20233461Y37930939D01*
X19853886Y37677315D01*
X19600262Y37297740D01*
X19511201Y36850000D01*
X19600262Y36402260D01*
X19853886Y36022685D01*
X20233461Y35769061D01*
X20681201Y35680000D01*
X21338799Y35680000D01*
X21786539Y35769061D01*
X22166114Y36022685D01*
X22371455Y36330000D01*
X23749995Y36330000D01*
X23750000Y36329999D01*
X23948995Y36369583D01*
X24117696Y36482304D01*
X25567693Y37932302D01*
X25567696Y37932304D01*
X25680417Y38101005D01*
X25683522Y38116614D01*
X25720001Y38300000D01*
X25720000Y38300005D01*
X25720000Y41199995D01*
X25720001Y41200000D01*
X25680417Y41398995D01*
X25673064Y41410000D01*
X25567696Y41567696D01*
X25567693Y41567698D01*
X23567696Y43567696D01*
X23398995Y43680417D01*
X23200000Y43720001D01*
X23199995Y43720000D01*
X22217774Y43720000D01*
X22419738Y44022260D01*
X22508799Y44470000D01*
X22419738Y44917740D01*
X22166114Y45297315D01*
X21786539Y45550939D01*
X21338799Y45640000D01*
X20681201Y45640000D01*
X20592946Y45622445D01*
X20299458Y45915933D01*
X20681201Y45840000D01*
X21338799Y45840000D01*
X21786539Y45929061D01*
X22166114Y46182685D01*
X22380875Y46504097D01*
X22508995Y46529583D01*
X22677696Y46642304D01*
X26067696Y50032304D01*
X26180417Y50201005D01*
X26220001Y50400000D01*
X26220000Y50400005D01*
X26220000Y53699995D01*
X26220001Y53700000D01*
X26180417Y53898995D01*
X26112928Y54000000D01*
X26067696Y54067696D01*
X26067693Y54067698D01*
X24597696Y55537696D01*
X24428995Y55650417D01*
X24230000Y55690001D01*
X24229995Y55690000D01*
X22471455Y55690000D01*
X22266114Y55997315D01*
X21886539Y56250939D01*
X21438799Y56340000D01*
X20781201Y56340000D01*
X20333461Y56250939D01*
X19953886Y55997315D01*
X19700262Y55617740D01*
X19611201Y55170000D01*
X19672236Y54863155D01*
X17667696Y56867696D01*
X17498995Y56980417D01*
X17300000Y57020001D01*
X17299995Y57020000D01*
X14737865Y57020000D01*
X14899738Y57262260D01*
X14988799Y57710000D01*
X14899738Y58157740D01*
X14751229Y58380000D01*
X17384608Y58380000D01*
X18422302Y57342307D01*
X18422304Y57342304D01*
X18500585Y57289999D01*
X18591004Y57229583D01*
X18790000Y57189999D01*
X18790005Y57190000D01*
X19632752Y57190000D01*
X19632752Y56910000D01*
X19661468Y56765633D01*
X19743245Y56643245D01*
X19865633Y56561468D01*
X20010000Y56532752D01*
X22210000Y56532752D01*
X22354367Y56561468D01*
X22476755Y56643245D01*
X22558532Y56765633D01*
X22587248Y56910000D01*
X22587248Y56920000D01*
X23165319Y56920000D01*
X23177195Y56891257D01*
X23449822Y56618154D01*
X23806209Y56470169D01*
X24192098Y56469832D01*
X24548743Y56617195D01*
X24821846Y56889822D01*
X24834377Y56920000D01*
X25207726Y56920000D01*
X25337893Y56604971D01*
X25722944Y56219248D01*
X26226295Y56010238D01*
X26771314Y56009763D01*
X27275029Y56217893D01*
X27660752Y56602944D01*
X27869762Y57106295D01*
X27870237Y57651314D01*
X27662107Y58155029D01*
X27277056Y58540752D01*
X26988021Y58660770D01*
X26980417Y58698995D01*
X26946496Y58749762D01*
X26867696Y58867696D01*
X26867693Y58867698D01*
X26335656Y59399735D01*
X26344367Y59401468D01*
X26466755Y59483245D01*
X26548532Y59605633D01*
X26577248Y59750000D01*
X26577248Y61150000D01*
X26548532Y61294367D01*
X26466755Y61416755D01*
X26344367Y61498532D01*
X26200000Y61527248D01*
X24800000Y61527248D01*
X24655633Y61498532D01*
X24533245Y61416755D01*
X24451468Y61294367D01*
X24422752Y61150000D01*
X24422752Y59750000D01*
X24451468Y59605633D01*
X24533245Y59483245D01*
X24655633Y59401468D01*
X24800000Y59372752D01*
X25005311Y59372752D01*
X25019583Y59301005D01*
X25132304Y59132304D01*
X25723735Y58540873D01*
X25339248Y58157056D01*
X25257423Y57960000D01*
X24834681Y57960000D01*
X24822805Y57988743D01*
X24550178Y58261846D01*
X24193791Y58409831D01*
X23807902Y58410168D01*
X23451257Y58262805D01*
X23178154Y57990178D01*
X23165623Y57960000D01*
X22587248Y57960000D01*
X22587248Y58510000D01*
X22558532Y58654367D01*
X22476755Y58776755D01*
X22354367Y58858532D01*
X22210000Y58887248D01*
X20010000Y58887248D01*
X19865633Y58858532D01*
X19743245Y58776755D01*
X19661468Y58654367D01*
X19632752Y58510000D01*
X19632752Y58230000D01*
X19005391Y58230000D01*
X17967696Y59267696D01*
X17798995Y59380417D01*
X17600000Y59420001D01*
X17599995Y59420000D01*
X12600005Y59420000D01*
X12600000Y59420001D01*
X12401005Y59380417D01*
X12232304Y59267696D01*
X12232302Y59267693D01*
X12038370Y59073762D01*
X11845997Y59266135D01*
X11872476Y59283827D01*
X11969253Y59518019D01*
X11000000Y60487272D01*
X10985858Y60473130D01*
X10973130Y60485858D01*
X10987272Y60500000D01*
X10018019Y61469253D01*
X9783827Y61372476D01*
X9542521Y60840654D01*
X9536830Y60669590D01*
X9462805Y60848743D01*
X9190178Y61121846D01*
X8833791Y61269831D01*
X8447902Y61270168D01*
X8091257Y61122805D01*
X8018325Y61050000D01*
X7620000Y61050000D01*
X7620000Y61481981D01*
X10030747Y61481981D01*
X11000000Y60512728D01*
X11969253Y61481981D01*
X11872476Y61716173D01*
X11340654Y61957479D01*
X10756970Y61976898D01*
X10210285Y61771471D01*
X10127524Y61716173D01*
X10030747Y61481981D01*
X7620000Y61481981D01*
X7620000Y61915899D01*
X7826295Y61830238D01*
X8371314Y61829763D01*
X8875029Y62037893D01*
X9260752Y62422944D01*
X9469762Y62926295D01*
X9470237Y63471314D01*
X9262107Y63975029D01*
X8877056Y64360752D01*
X8373705Y64569762D01*
X8105387Y64569996D01*
X8267693Y64732302D01*
X8267696Y64732304D01*
X8380417Y64901005D01*
X8386643Y64932304D01*
X8420001Y65100000D01*
X8420000Y65100005D01*
X8420000Y65595145D01*
X8713461Y65399061D01*
X9161201Y65310000D01*
X9818799Y65310000D01*
X10266539Y65399061D01*
X10646114Y65652685D01*
X10851455Y65960000D01*
X14404608Y65960000D01*
X15480000Y64884609D01*
X15480000Y64357279D01*
X15177056Y64660752D01*
X14673705Y64869762D01*
X14128686Y64870237D01*
X13624971Y64662107D01*
X13239248Y64277056D01*
X13132509Y64020000D01*
X12267482Y64020000D01*
X12162107Y64275029D01*
X11777056Y64660752D01*
X11273705Y64869762D01*
X10728686Y64870237D01*
X10224971Y64662107D01*
X9839248Y64277056D01*
X9630238Y63773705D01*
X9629763Y63228686D01*
X9837893Y62724971D01*
X10222944Y62339248D01*
X10726295Y62130238D01*
X11271314Y62129763D01*
X11775029Y62337893D01*
X12160752Y62722944D01*
X12267491Y62980000D01*
X13132518Y62980000D01*
X13237893Y62724971D01*
X13622944Y62339248D01*
X13651853Y62327244D01*
X13282513Y61957905D01*
X13253791Y61969831D01*
X12867902Y61970168D01*
X12511257Y61822805D01*
X12238154Y61550178D01*
X12171953Y61390749D01*
X11981981Y61469253D01*
X11012728Y60500000D01*
X11981981Y59530747D01*
X12216173Y59627524D01*
X12457479Y60159346D01*
X12459773Y60228291D01*
X12509822Y60178154D01*
X12866209Y60030169D01*
X13252098Y60029832D01*
X13608743Y60177195D01*
X13881846Y60449822D01*
X14029831Y60806209D01*
X14030168Y61192098D01*
X14017690Y61222298D01*
X14767693Y61972302D01*
X14767696Y61972304D01*
X14853690Y62101005D01*
X14880417Y62141004D01*
X14896706Y62222893D01*
X15175029Y62337893D01*
X15480000Y62642333D01*
X15480000Y61700005D01*
X15479999Y61700000D01*
X15519583Y61501005D01*
X15632304Y61332304D01*
X16332302Y60632307D01*
X16332304Y60632304D01*
X16501005Y60519583D01*
X16700000Y60480000D01*
X17305319Y60480000D01*
X17317195Y60451257D01*
X17589822Y60178154D01*
X17946209Y60030169D01*
X18332098Y60029832D01*
X18688743Y60177195D01*
X18879112Y60367232D01*
X18937893Y60224971D01*
X19322944Y59839248D01*
X19826295Y59630238D01*
X20371314Y59629763D01*
X20875029Y59837893D01*
X21260752Y60222944D01*
X21469762Y60726295D01*
X21470237Y61271314D01*
X21262107Y61775029D01*
X20950000Y62087681D01*
X20950000Y62184314D01*
X24747042Y62184314D01*
X24807318Y61981293D01*
X25230753Y61789954D01*
X25695178Y61775221D01*
X26129890Y61939337D01*
X26192682Y61981293D01*
X26252958Y62184314D01*
X25500000Y62937272D01*
X24747042Y62184314D01*
X20950000Y62184314D01*
X20950000Y62754822D01*
X24325221Y62754822D01*
X24489337Y62320110D01*
X24531293Y62257318D01*
X24734314Y62197042D01*
X25487272Y62950000D01*
X25512728Y62950000D01*
X26265686Y62197042D01*
X26468707Y62257318D01*
X26660046Y62680753D01*
X26674779Y63145178D01*
X26510663Y63579890D01*
X26468707Y63642682D01*
X26265686Y63702958D01*
X25512728Y62950000D01*
X25487272Y62950000D01*
X24734314Y63702958D01*
X24531293Y63642682D01*
X24339954Y63219247D01*
X24325221Y62754822D01*
X20950000Y62754822D01*
X20950000Y62912733D01*
X21260752Y63222944D01*
X21367491Y63480000D01*
X22899995Y63480000D01*
X22900000Y63479999D01*
X23098995Y63519583D01*
X23267696Y63632304D01*
X23615391Y63980000D01*
X24921330Y63980000D01*
X24870110Y63960663D01*
X24807318Y63918707D01*
X24747042Y63715686D01*
X25500000Y62962728D01*
X26252958Y63715686D01*
X26192682Y63918707D01*
X25978475Y64015501D01*
X25998995Y64019583D01*
X26167696Y64132304D01*
X26867693Y64832302D01*
X26867696Y64832304D01*
X26980417Y65001005D01*
X27020000Y65200000D01*
X27020000Y66338569D01*
X27456950Y66140809D01*
X27961129Y66124514D01*
X28433164Y66302401D01*
X28502614Y66348804D01*
X28575057Y66562212D01*
X28580000Y66557269D01*
X28580000Y66557269D01*
G37*
X28580000Y66557269D02*
X28580000Y36750000D01*
X27985391Y36750000D01*
X27020000Y37715392D01*
X27020000Y43512518D01*
X27275029Y43617893D01*
X27660752Y44002944D01*
X27869762Y44506295D01*
X27870237Y45051314D01*
X27662107Y45555029D01*
X27277056Y45940752D01*
X27134643Y45999887D01*
X27275029Y46057893D01*
X27660752Y46442944D01*
X27869762Y46946295D01*
X27870237Y47491314D01*
X27662107Y47995029D01*
X27277056Y48380752D01*
X26773705Y48589762D01*
X26228686Y48590237D01*
X25724971Y48382107D01*
X25339248Y47997056D01*
X25130238Y47493705D01*
X25129763Y46948686D01*
X25337893Y46444971D01*
X25722944Y46059248D01*
X25865357Y46000113D01*
X25724971Y45942107D01*
X25339248Y45557056D01*
X25130238Y45053705D01*
X25129763Y44508686D01*
X25337893Y44004971D01*
X25722944Y43619248D01*
X25980000Y43512509D01*
X25980000Y37500005D01*
X25979999Y37500000D01*
X26019583Y37301005D01*
X26132304Y37132304D01*
X27480000Y35784609D01*
X27480000Y35577454D01*
X27277056Y35780752D01*
X26773705Y35989762D01*
X26228686Y35990237D01*
X25724971Y35782107D01*
X25339248Y35397056D01*
X25232509Y35140000D01*
X25120005Y35140000D01*
X25120000Y35140001D01*
X24921005Y35100417D01*
X24752304Y34987696D01*
X24752302Y34987693D01*
X24644609Y34880000D01*
X24334681Y34880000D01*
X24322805Y34908743D01*
X24050178Y35181846D01*
X23693791Y35329831D01*
X23307902Y35330168D01*
X22951257Y35182805D01*
X22678154Y34910178D01*
X22644861Y34830000D01*
X22371455Y34830000D01*
X22166114Y35137315D01*
X21786539Y35390939D01*
X21338799Y35480000D01*
X20681201Y35480000D01*
X20233461Y35390939D01*
X19853886Y35137315D01*
X19600262Y34757740D01*
X19511201Y34310000D01*
X19600262Y33862260D01*
X19853886Y33482685D01*
X20233461Y33229061D01*
X20681201Y33140000D01*
X21338799Y33140000D01*
X21786539Y33229061D01*
X22166114Y33482685D01*
X22371455Y33790000D01*
X22698415Y33790000D01*
X22949822Y33538154D01*
X23306209Y33390169D01*
X23692098Y33389832D01*
X24048743Y33537195D01*
X24321846Y33809822D01*
X24334377Y33840000D01*
X24859995Y33840000D01*
X24860000Y33839999D01*
X25058995Y33879583D01*
X25227696Y33992304D01*
X25262596Y34027204D01*
X25337893Y33844971D01*
X25722944Y33459248D01*
X26226295Y33250238D01*
X26771314Y33249763D01*
X27275029Y33457893D01*
X27480000Y33662507D01*
X27480000Y33515391D01*
X27232304Y33267696D01*
X27119583Y33098995D01*
X27079999Y32900000D01*
X27080000Y32899995D01*
X27080000Y31651082D01*
X26938114Y31592456D01*
X26608700Y31263617D01*
X26550076Y31122435D01*
X26492456Y31261886D01*
X26163617Y31591300D01*
X25733748Y31769797D01*
X25268294Y31770203D01*
X24838114Y31592456D01*
X24508700Y31263617D01*
X24407541Y31020000D01*
X23950000Y31020000D01*
X23950000Y31476395D01*
X24048743Y31517195D01*
X24321846Y31789822D01*
X24469831Y32146209D01*
X24470168Y32532098D01*
X24322805Y32888743D01*
X24050178Y33161846D01*
X23693791Y33309831D01*
X23307902Y33310168D01*
X22951257Y33162805D01*
X22678154Y32890178D01*
X22613930Y32735509D01*
X22572304Y32707696D01*
X22572302Y32707693D01*
X22284599Y32419990D01*
X22166114Y32597315D01*
X21786539Y32850939D01*
X21338799Y32940000D01*
X20681201Y32940000D01*
X20233461Y32850939D01*
X19853886Y32597315D01*
X19600262Y32217740D01*
X19511201Y31770000D01*
X19600262Y31322260D01*
X19802226Y31020000D01*
X18200005Y31020000D01*
X18200000Y31020001D01*
X18001004Y30980417D01*
X17944534Y30942685D01*
X17832304Y30867696D01*
X17832302Y30867693D01*
X16714608Y29750000D01*
X14751455Y29750000D01*
X14546114Y30057315D01*
X14166539Y30310939D01*
X13718799Y30400000D01*
X13061201Y30400000D01*
X12613461Y30310939D01*
X12233886Y30057315D01*
X12035226Y29760000D01*
X11734681Y29760000D01*
X11722805Y29788743D01*
X11450178Y30061846D01*
X11093791Y30209831D01*
X10707902Y30210168D01*
X10351257Y30062805D01*
X10078154Y29790178D01*
X10065623Y29760000D01*
X10040005Y29760000D01*
X10040000Y29760001D01*
X9841005Y29720417D01*
X9768000Y29671637D01*
X9768000Y29954000D01*
X9651000Y30071000D01*
X8509000Y30071000D01*
X8509000Y30051000D01*
X8491000Y30051000D01*
X8491000Y30071000D01*
X7349000Y30071000D01*
X7328000Y30050000D01*
X7209869Y30050000D01*
X7210168Y30392098D01*
X7062805Y30748743D01*
X6838849Y30973091D01*
X7232000Y30973091D01*
X7232000Y30206000D01*
X7349000Y30089000D01*
X8491000Y30089000D01*
X8491000Y31231000D01*
X8509000Y31231000D01*
X8509000Y30089000D01*
X9651000Y30089000D01*
X9768000Y30206000D01*
X9768000Y30973091D01*
X9696751Y31145101D01*
X9565101Y31276751D01*
X9393091Y31348000D01*
X8626000Y31348000D01*
X8509000Y31231000D01*
X8491000Y31231000D01*
X8374000Y31348000D01*
X7606909Y31348000D01*
X7434899Y31276751D01*
X7303249Y31145101D01*
X7232000Y30973091D01*
X6838849Y30973091D01*
X6790178Y31021846D01*
X6433791Y31169831D01*
X6047902Y31170168D01*
X5691257Y31022805D01*
X5620000Y30951672D01*
X5620000Y35367902D01*
X6129832Y35367902D01*
X6277195Y35011257D01*
X6549822Y34738154D01*
X6906209Y34590169D01*
X7292098Y34589832D01*
X7648743Y34737195D01*
X7768182Y34856426D01*
X9942096Y32682513D01*
X9930169Y32653791D01*
X9929832Y32267902D01*
X10077195Y31911257D01*
X10349822Y31638154D01*
X10706209Y31490169D01*
X11092098Y31489832D01*
X11268589Y31562757D01*
X11839051Y31562757D01*
X11915076Y31293073D01*
X12187024Y30879753D01*
X12596442Y30601965D01*
X13081000Y30502000D01*
X13381000Y30502000D01*
X13381000Y31761000D01*
X13399000Y31761000D01*
X13399000Y30502000D01*
X13699000Y30502000D01*
X14183558Y30601965D01*
X14592976Y30879753D01*
X14864924Y31293073D01*
X14940949Y31562757D01*
X14840965Y31761000D01*
X13399000Y31761000D01*
X13381000Y31761000D01*
X11939035Y31761000D01*
X11839051Y31562757D01*
X11268589Y31562757D01*
X11448743Y31637195D01*
X11721846Y31909822D01*
X11749841Y31977243D01*
X11839051Y31977243D01*
X11939035Y31779000D01*
X13381000Y31779000D01*
X13381000Y33038000D01*
X13399000Y33038000D01*
X13399000Y31779000D01*
X14840965Y31779000D01*
X14940949Y31977243D01*
X14864924Y32246927D01*
X14592976Y32660247D01*
X14183558Y32938035D01*
X13699000Y33038000D01*
X13399000Y33038000D01*
X13381000Y33038000D01*
X13081000Y33038000D01*
X12596442Y32938035D01*
X12187024Y32660247D01*
X11915076Y32246927D01*
X11839051Y31977243D01*
X11749841Y31977243D01*
X11869831Y32266209D01*
X11870168Y32652098D01*
X11857690Y32682298D01*
X12488169Y33312778D01*
X12613461Y33229061D01*
X13061201Y33140000D01*
X13718799Y33140000D01*
X14166539Y33229061D01*
X14546114Y33482685D01*
X14799738Y33862260D01*
X14888799Y34310000D01*
X14799738Y34757740D01*
X14546114Y35137315D01*
X14166539Y35390939D01*
X13718799Y35480000D01*
X13061201Y35480000D01*
X12613461Y35390939D01*
X12233886Y35137315D01*
X11980262Y34757740D01*
X11891201Y34310000D01*
X11911676Y34207067D01*
X11122513Y33417905D01*
X11093791Y33429831D01*
X10707902Y33430168D01*
X10677702Y33417689D01*
X8167696Y35927696D01*
X7998995Y36040417D01*
X7946742Y36050811D01*
X7922805Y36108743D01*
X7650178Y36381846D01*
X7293791Y36529831D01*
X6907902Y36530168D01*
X6551257Y36382805D01*
X6278154Y36110178D01*
X6130169Y35753791D01*
X6129832Y35367902D01*
X5620000Y35367902D01*
X5620000Y36846412D01*
X10219140Y36846412D01*
X10267250Y36653783D01*
X10654555Y36479099D01*
X11079228Y36465927D01*
X11476614Y36616274D01*
X11532750Y36653783D01*
X11580860Y36846412D01*
X10900000Y37527272D01*
X10219140Y36846412D01*
X5620000Y36846412D01*
X5620000Y37360772D01*
X9825927Y37360772D01*
X9976274Y36963386D01*
X10013783Y36907250D01*
X10206412Y36859140D01*
X10887272Y37540000D01*
X10206412Y38220860D01*
X10013783Y38172750D01*
X9839099Y37785445D01*
X9825927Y37360772D01*
X5620000Y37360772D01*
X5620000Y39080772D01*
X9825927Y39080772D01*
X9976274Y38683386D01*
X10013783Y38627250D01*
X10206412Y38579140D01*
X10887272Y39260000D01*
X10206412Y39940860D01*
X10013783Y39892750D01*
X9839099Y39505445D01*
X9825927Y39080772D01*
X5620000Y39080772D01*
X5620000Y40447902D01*
X6129832Y40447902D01*
X6277195Y40091257D01*
X6549822Y39818154D01*
X6906209Y39670169D01*
X7292098Y39669832D01*
X7648743Y39817195D01*
X7921846Y40089822D01*
X8069831Y40446209D01*
X8070168Y40832098D01*
X7922805Y41188743D01*
X7650178Y41461846D01*
X7620000Y41474377D01*
X7620000Y42784608D01*
X8655391Y43820000D01*
X10065319Y43820000D01*
X10077195Y43791257D01*
X10349822Y43518154D01*
X10380000Y43505623D01*
X10380000Y41400005D01*
X10379999Y41400000D01*
X10419583Y41201005D01*
X10532304Y41032304D01*
X11324438Y40240171D01*
X11145445Y40320901D01*
X10720772Y40334073D01*
X10323386Y40183726D01*
X10267250Y40146217D01*
X10219140Y39953588D01*
X10900000Y39272728D01*
X10914142Y39286870D01*
X10926870Y39274142D01*
X10912728Y39260000D01*
X10926870Y39245858D01*
X10914142Y39233130D01*
X10900000Y39247272D01*
X10219140Y38566412D01*
X10260702Y38400000D01*
X10219140Y38233588D01*
X10900000Y37552728D01*
X10914142Y37566870D01*
X10926870Y37554142D01*
X10912728Y37540000D01*
X11593588Y36859140D01*
X11786217Y36907250D01*
X11815560Y36972308D01*
X11898944Y36888924D01*
X11891201Y36850000D01*
X11980262Y36402260D01*
X12233886Y36022685D01*
X12613461Y35769061D01*
X13061201Y35680000D01*
X13718799Y35680000D01*
X14166539Y35769061D01*
X14546114Y36022685D01*
X14799738Y36402260D01*
X14888799Y36850000D01*
X14845623Y37067059D01*
X14847087Y37070583D01*
X14849769Y37108321D01*
X14751864Y38870611D01*
X14799738Y38942260D01*
X14888799Y39390000D01*
X19511201Y39390000D01*
X19600262Y38942260D01*
X19853886Y38562685D01*
X20233461Y38309061D01*
X20681201Y38220000D01*
X21338799Y38220000D01*
X21786539Y38309061D01*
X22166114Y38562685D01*
X22288876Y38746412D01*
X22819140Y38746412D01*
X22867250Y38553783D01*
X23254555Y38379099D01*
X23679228Y38365927D01*
X24076614Y38516274D01*
X24132750Y38553783D01*
X24180860Y38746412D01*
X23500000Y39427272D01*
X22819140Y38746412D01*
X22288876Y38746412D01*
X22419738Y38942260D01*
X22463395Y39161739D01*
X22576274Y38863386D01*
X22613783Y38807250D01*
X22806412Y38759140D01*
X23487272Y39440000D01*
X23512728Y39440000D01*
X24193588Y38759140D01*
X24386217Y38807250D01*
X24560901Y39194555D01*
X24574073Y39619228D01*
X24423726Y40016614D01*
X24386217Y40072750D01*
X24193588Y40120860D01*
X23512728Y39440000D01*
X23487272Y39440000D01*
X22806412Y40120860D01*
X22613783Y40072750D01*
X22446686Y39702266D01*
X22419738Y39837740D01*
X22222059Y40133588D01*
X22819140Y40133588D01*
X23500000Y39452728D01*
X24180860Y40133588D01*
X24132750Y40326217D01*
X23745445Y40500901D01*
X23320772Y40514073D01*
X22923386Y40363726D01*
X22867250Y40326217D01*
X22819140Y40133588D01*
X22222059Y40133588D01*
X22166114Y40217315D01*
X21786539Y40470939D01*
X21338799Y40560000D01*
X20681201Y40560000D01*
X20233461Y40470939D01*
X19853886Y40217315D01*
X19600262Y39837740D01*
X19511201Y39390000D01*
X14888799Y39390000D01*
X14799738Y39837740D01*
X14546114Y40217315D01*
X14166539Y40470939D01*
X13718799Y40560000D01*
X13061201Y40560000D01*
X12613461Y40470939D01*
X12420000Y40341672D01*
X12420000Y40399995D01*
X12420001Y40400000D01*
X12380417Y40598995D01*
X12353019Y40640000D01*
X12267696Y40767696D01*
X12267693Y40767698D01*
X11420000Y41615392D01*
X11420000Y41930000D01*
X11891201Y41930000D01*
X11980262Y41482260D01*
X12233886Y41102685D01*
X12613461Y40849061D01*
X13061201Y40760000D01*
X13718799Y40760000D01*
X14166539Y40849061D01*
X14546114Y41102685D01*
X14799738Y41482260D01*
X14888799Y41930000D01*
X14799738Y42377740D01*
X14546114Y42757315D01*
X14166539Y43010939D01*
X13718799Y43100000D01*
X13061201Y43100000D01*
X12613461Y43010939D01*
X12233886Y42757315D01*
X11980262Y42377740D01*
X11891201Y41930000D01*
X11420000Y41930000D01*
X11420000Y43505319D01*
X11448743Y43517195D01*
X11721846Y43789822D01*
X11869831Y44146209D01*
X11870113Y44470000D01*
X11891201Y44470000D01*
X11980262Y44022260D01*
X12233886Y43642685D01*
X12613461Y43389061D01*
X13061201Y43300000D01*
X13718799Y43300000D01*
X14166539Y43389061D01*
X14546114Y43642685D01*
X14799738Y44022260D01*
X14888799Y44470000D01*
X14799738Y44917740D01*
X14546114Y45297315D01*
X14166539Y45550939D01*
X13718799Y45640000D01*
X13061201Y45640000D01*
X12613461Y45550939D01*
X12233886Y45297315D01*
X11980262Y44917740D01*
X11891201Y44470000D01*
X11870113Y44470000D01*
X11870168Y44532098D01*
X11722805Y44888743D01*
X11450178Y45161846D01*
X11093791Y45309831D01*
X10707902Y45310168D01*
X10351257Y45162805D01*
X10078154Y44890178D01*
X10065623Y44860000D01*
X8440005Y44860000D01*
X8440000Y44860001D01*
X8241004Y44820417D01*
X8210448Y44800000D01*
X8072304Y44707696D01*
X8072302Y44707693D01*
X6732304Y43367696D01*
X6619583Y43198995D01*
X6579999Y43000000D01*
X6580000Y42999995D01*
X6580000Y41474681D01*
X6551257Y41462805D01*
X6278154Y41190178D01*
X6130169Y40833791D01*
X6129832Y40447902D01*
X5620000Y40447902D01*
X5620000Y45021989D01*
X6585724Y45730186D01*
X7071314Y45729763D01*
X7575029Y45937893D01*
X7960752Y46322944D01*
X7971987Y46350000D01*
X8627551Y46350000D01*
X8637893Y46324971D01*
X9022944Y45939248D01*
X9526295Y45730238D01*
X10071314Y45729763D01*
X10575029Y45937893D01*
X10687332Y46050000D01*
X12432463Y46050000D01*
X12613461Y45929061D01*
X13061201Y45840000D01*
X13718799Y45840000D01*
X14166539Y45929061D01*
X14546114Y46182685D01*
X14799738Y46562260D01*
X14888799Y47010000D01*
X14799738Y47457740D01*
X14546114Y47837315D01*
X14166539Y48090939D01*
X14010000Y48122077D01*
X14010000Y48958032D01*
X14266539Y49009061D01*
X14646114Y49262685D01*
X14899738Y49642260D01*
X14988799Y50090000D01*
X14899738Y50537740D01*
X14737865Y50780000D01*
X17084608Y50780000D01*
X17990000Y49874609D01*
X17990000Y48925391D01*
X17532304Y48467696D01*
X17419583Y48298995D01*
X17379999Y48100000D01*
X17380000Y48099995D01*
X17380000Y43300005D01*
X17379999Y43300000D01*
X17419583Y43101005D01*
X17532304Y42932304D01*
X18902302Y41562307D01*
X18902304Y41562304D01*
X19022100Y41482260D01*
X19071005Y41449583D01*
X19270000Y41409999D01*
X19270005Y41410000D01*
X19648545Y41410000D01*
X19853886Y41102685D01*
X20233461Y40849061D01*
X20681201Y40760000D01*
X21338799Y40760000D01*
X21786539Y40849061D01*
X22166114Y41102685D01*
X22419738Y41482260D01*
X22508799Y41930000D01*
X22419738Y42377740D01*
X22217774Y42680000D01*
X22984608Y42680000D01*
X24680000Y40984609D01*
X24680000Y38515391D01*
X23534608Y37370000D01*
X22371455Y37370000D01*
X22166114Y37677315D01*
X21786539Y37930939D01*
X21338799Y38020000D01*
X20681201Y38020000D01*
X20233461Y37930939D01*
X19853886Y37677315D01*
X19600262Y37297740D01*
X19511201Y36850000D01*
X19600262Y36402260D01*
X19853886Y36022685D01*
X20233461Y35769061D01*
X20681201Y35680000D01*
X21338799Y35680000D01*
X21786539Y35769061D01*
X22166114Y36022685D01*
X22371455Y36330000D01*
X23749995Y36330000D01*
X23750000Y36329999D01*
X23948995Y36369583D01*
X24117696Y36482304D01*
X25567693Y37932302D01*
X25567696Y37932304D01*
X25680417Y38101005D01*
X25683522Y38116614D01*
X25720001Y38300000D01*
X25720000Y38300005D01*
X25720000Y41199995D01*
X25720001Y41200000D01*
X25680417Y41398995D01*
X25673064Y41410000D01*
X25567696Y41567696D01*
X25567693Y41567698D01*
X23567696Y43567696D01*
X23398995Y43680417D01*
X23200000Y43720001D01*
X23199995Y43720000D01*
X22217774Y43720000D01*
X22419738Y44022260D01*
X22508799Y44470000D01*
X22419738Y44917740D01*
X22166114Y45297315D01*
X21786539Y45550939D01*
X21338799Y45640000D01*
X20681201Y45640000D01*
X20592946Y45622445D01*
X20299458Y45915933D01*
X20681201Y45840000D01*
X21338799Y45840000D01*
X21786539Y45929061D01*
X22166114Y46182685D01*
X22380875Y46504097D01*
X22508995Y46529583D01*
X22677696Y46642304D01*
X26067696Y50032304D01*
X26180417Y50201005D01*
X26220001Y50400000D01*
X26220000Y50400005D01*
X26220000Y53699995D01*
X26220001Y53700000D01*
X26180417Y53898995D01*
X26112928Y54000000D01*
X26067696Y54067696D01*
X26067693Y54067698D01*
X24597696Y55537696D01*
X24428995Y55650417D01*
X24230000Y55690001D01*
X24229995Y55690000D01*
X22471455Y55690000D01*
X22266114Y55997315D01*
X21886539Y56250939D01*
X21438799Y56340000D01*
X20781201Y56340000D01*
X20333461Y56250939D01*
X19953886Y55997315D01*
X19700262Y55617740D01*
X19611201Y55170000D01*
X19672236Y54863155D01*
X17667696Y56867696D01*
X17498995Y56980417D01*
X17300000Y57020001D01*
X17299995Y57020000D01*
X14737865Y57020000D01*
X14899738Y57262260D01*
X14988799Y57710000D01*
X14899738Y58157740D01*
X14751229Y58380000D01*
X17384608Y58380000D01*
X18422302Y57342307D01*
X18422304Y57342304D01*
X18500585Y57289999D01*
X18591004Y57229583D01*
X18790000Y57189999D01*
X18790005Y57190000D01*
X19632752Y57190000D01*
X19632752Y56910000D01*
X19661468Y56765633D01*
X19743245Y56643245D01*
X19865633Y56561468D01*
X20010000Y56532752D01*
X22210000Y56532752D01*
X22354367Y56561468D01*
X22476755Y56643245D01*
X22558532Y56765633D01*
X22587248Y56910000D01*
X22587248Y56920000D01*
X23165319Y56920000D01*
X23177195Y56891257D01*
X23449822Y56618154D01*
X23806209Y56470169D01*
X24192098Y56469832D01*
X24548743Y56617195D01*
X24821846Y56889822D01*
X24834377Y56920000D01*
X25207726Y56920000D01*
X25337893Y56604971D01*
X25722944Y56219248D01*
X26226295Y56010238D01*
X26771314Y56009763D01*
X27275029Y56217893D01*
X27660752Y56602944D01*
X27869762Y57106295D01*
X27870237Y57651314D01*
X27662107Y58155029D01*
X27277056Y58540752D01*
X26988021Y58660770D01*
X26980417Y58698995D01*
X26946496Y58749762D01*
X26867696Y58867696D01*
X26867693Y58867698D01*
X26335656Y59399735D01*
X26344367Y59401468D01*
X26466755Y59483245D01*
X26548532Y59605633D01*
X26577248Y59750000D01*
X26577248Y61150000D01*
X26548532Y61294367D01*
X26466755Y61416755D01*
X26344367Y61498532D01*
X26200000Y61527248D01*
X24800000Y61527248D01*
X24655633Y61498532D01*
X24533245Y61416755D01*
X24451468Y61294367D01*
X24422752Y61150000D01*
X24422752Y59750000D01*
X24451468Y59605633D01*
X24533245Y59483245D01*
X24655633Y59401468D01*
X24800000Y59372752D01*
X25005311Y59372752D01*
X25019583Y59301005D01*
X25132304Y59132304D01*
X25723735Y58540873D01*
X25339248Y58157056D01*
X25257423Y57960000D01*
X24834681Y57960000D01*
X24822805Y57988743D01*
X24550178Y58261846D01*
X24193791Y58409831D01*
X23807902Y58410168D01*
X23451257Y58262805D01*
X23178154Y57990178D01*
X23165623Y57960000D01*
X22587248Y57960000D01*
X22587248Y58510000D01*
X22558532Y58654367D01*
X22476755Y58776755D01*
X22354367Y58858532D01*
X22210000Y58887248D01*
X20010000Y58887248D01*
X19865633Y58858532D01*
X19743245Y58776755D01*
X19661468Y58654367D01*
X19632752Y58510000D01*
X19632752Y58230000D01*
X19005391Y58230000D01*
X17967696Y59267696D01*
X17798995Y59380417D01*
X17600000Y59420001D01*
X17599995Y59420000D01*
X12600005Y59420000D01*
X12600000Y59420001D01*
X12401005Y59380417D01*
X12232304Y59267696D01*
X12232302Y59267693D01*
X12038370Y59073762D01*
X11845997Y59266135D01*
X11872476Y59283827D01*
X11969253Y59518019D01*
X11000000Y60487272D01*
X10985858Y60473130D01*
X10973130Y60485858D01*
X10987272Y60500000D01*
X10018019Y61469253D01*
X9783827Y61372476D01*
X9542521Y60840654D01*
X9536830Y60669590D01*
X9462805Y60848743D01*
X9190178Y61121846D01*
X8833791Y61269831D01*
X8447902Y61270168D01*
X8091257Y61122805D01*
X8018325Y61050000D01*
X7620000Y61050000D01*
X7620000Y61481981D01*
X10030747Y61481981D01*
X11000000Y60512728D01*
X11969253Y61481981D01*
X11872476Y61716173D01*
X11340654Y61957479D01*
X10756970Y61976898D01*
X10210285Y61771471D01*
X10127524Y61716173D01*
X10030747Y61481981D01*
X7620000Y61481981D01*
X7620000Y61915899D01*
X7826295Y61830238D01*
X8371314Y61829763D01*
X8875029Y62037893D01*
X9260752Y62422944D01*
X9469762Y62926295D01*
X9470237Y63471314D01*
X9262107Y63975029D01*
X8877056Y64360752D01*
X8373705Y64569762D01*
X8105387Y64569996D01*
X8267693Y64732302D01*
X8267696Y64732304D01*
X8380417Y64901005D01*
X8386643Y64932304D01*
X8420001Y65100000D01*
X8420000Y65100005D01*
X8420000Y65595145D01*
X8713461Y65399061D01*
X9161201Y65310000D01*
X9818799Y65310000D01*
X10266539Y65399061D01*
X10646114Y65652685D01*
X10851455Y65960000D01*
X14404608Y65960000D01*
X15480000Y64884609D01*
X15480000Y64357279D01*
X15177056Y64660752D01*
X14673705Y64869762D01*
X14128686Y64870237D01*
X13624971Y64662107D01*
X13239248Y64277056D01*
X13132509Y64020000D01*
X12267482Y64020000D01*
X12162107Y64275029D01*
X11777056Y64660752D01*
X11273705Y64869762D01*
X10728686Y64870237D01*
X10224971Y64662107D01*
X9839248Y64277056D01*
X9630238Y63773705D01*
X9629763Y63228686D01*
X9837893Y62724971D01*
X10222944Y62339248D01*
X10726295Y62130238D01*
X11271314Y62129763D01*
X11775029Y62337893D01*
X12160752Y62722944D01*
X12267491Y62980000D01*
X13132518Y62980000D01*
X13237893Y62724971D01*
X13622944Y62339248D01*
X13651853Y62327244D01*
X13282513Y61957905D01*
X13253791Y61969831D01*
X12867902Y61970168D01*
X12511257Y61822805D01*
X12238154Y61550178D01*
X12171953Y61390749D01*
X11981981Y61469253D01*
X11012728Y60500000D01*
X11981981Y59530747D01*
X12216173Y59627524D01*
X12457479Y60159346D01*
X12459773Y60228291D01*
X12509822Y60178154D01*
X12866209Y60030169D01*
X13252098Y60029832D01*
X13608743Y60177195D01*
X13881846Y60449822D01*
X14029831Y60806209D01*
X14030168Y61192098D01*
X14017690Y61222298D01*
X14767693Y61972302D01*
X14767696Y61972304D01*
X14853690Y62101005D01*
X14880417Y62141004D01*
X14896706Y62222893D01*
X15175029Y62337893D01*
X15480000Y62642333D01*
X15480000Y61700005D01*
X15479999Y61700000D01*
X15519583Y61501005D01*
X15632304Y61332304D01*
X16332302Y60632307D01*
X16332304Y60632304D01*
X16501005Y60519583D01*
X16700000Y60480000D01*
X17305319Y60480000D01*
X17317195Y60451257D01*
X17589822Y60178154D01*
X17946209Y60030169D01*
X18332098Y60029832D01*
X18688743Y60177195D01*
X18879112Y60367232D01*
X18937893Y60224971D01*
X19322944Y59839248D01*
X19826295Y59630238D01*
X20371314Y59629763D01*
X20875029Y59837893D01*
X21260752Y60222944D01*
X21469762Y60726295D01*
X21470237Y61271314D01*
X21262107Y61775029D01*
X20950000Y62087681D01*
X20950000Y62184314D01*
X24747042Y62184314D01*
X24807318Y61981293D01*
X25230753Y61789954D01*
X25695178Y61775221D01*
X26129890Y61939337D01*
X26192682Y61981293D01*
X26252958Y62184314D01*
X25500000Y62937272D01*
X24747042Y62184314D01*
X20950000Y62184314D01*
X20950000Y62754822D01*
X24325221Y62754822D01*
X24489337Y62320110D01*
X24531293Y62257318D01*
X24734314Y62197042D01*
X25487272Y62950000D01*
X25512728Y62950000D01*
X26265686Y62197042D01*
X26468707Y62257318D01*
X26660046Y62680753D01*
X26674779Y63145178D01*
X26510663Y63579890D01*
X26468707Y63642682D01*
X26265686Y63702958D01*
X25512728Y62950000D01*
X25487272Y62950000D01*
X24734314Y63702958D01*
X24531293Y63642682D01*
X24339954Y63219247D01*
X24325221Y62754822D01*
X20950000Y62754822D01*
X20950000Y62912733D01*
X21260752Y63222944D01*
X21367491Y63480000D01*
X22899995Y63480000D01*
X22900000Y63479999D01*
X23098995Y63519583D01*
X23267696Y63632304D01*
X23615391Y63980000D01*
X24921330Y63980000D01*
X24870110Y63960663D01*
X24807318Y63918707D01*
X24747042Y63715686D01*
X25500000Y62962728D01*
X26252958Y63715686D01*
X26192682Y63918707D01*
X25978475Y64015501D01*
X25998995Y64019583D01*
X26167696Y64132304D01*
X26867693Y64832302D01*
X26867696Y64832304D01*
X26980417Y65001005D01*
X27020000Y65200000D01*
X27020000Y66338569D01*
X27456950Y66140809D01*
X27961129Y66124514D01*
X28433164Y66302401D01*
X28502614Y66348804D01*
X28575057Y66562212D01*
X28580000Y66557269D01*
G36*
X1186870Y30214142D02*
X1172728Y30200000D01*
X1186870Y30185858D01*
X1174142Y30173130D01*
X1160000Y30187272D01*
X1145858Y30173130D01*
X1133130Y30185858D01*
X1147272Y30200000D01*
X1133130Y30214142D01*
X1145858Y30226870D01*
X1160000Y30212728D01*
X1174142Y30226870D01*
X1186870Y30214142D01*
X1186870Y30214142D01*
G37*
X1186870Y30214142D02*
X1172728Y30200000D01*
X1186870Y30185858D01*
X1174142Y30173130D01*
X1160000Y30187272D01*
X1145858Y30173130D01*
X1133130Y30185858D01*
X1147272Y30200000D01*
X1133130Y30214142D01*
X1145858Y30226870D01*
X1160000Y30212728D01*
X1174142Y30226870D01*
X1186870Y30214142D01*
G36*
X497386Y66348804D02*
X956950Y66140809D01*
X1461129Y66124514D01*
X1486800Y66134188D01*
X1479999Y66100000D01*
X1480000Y66099995D01*
X1480000Y60000005D01*
X1479999Y60000000D01*
X1519583Y59801005D01*
X1632304Y59632304D01*
X2070000Y59194608D01*
X2070000Y58941968D01*
X1813461Y58890939D01*
X1433886Y58637315D01*
X1180262Y58257740D01*
X1091201Y57810000D01*
X1180262Y57362260D01*
X1433886Y56982685D01*
X1813461Y56729061D01*
X2261201Y56640000D01*
X2918799Y56640000D01*
X3366539Y56729061D01*
X3746114Y56982685D01*
X3999738Y57362260D01*
X4088799Y57810000D01*
X3999738Y58257740D01*
X3746114Y58637315D01*
X3366539Y58890939D01*
X3110000Y58941968D01*
X3110000Y59331358D01*
X3314555Y59239099D01*
X3739228Y59225927D01*
X4136614Y59376274D01*
X4192750Y59413783D01*
X4240860Y59606412D01*
X3560000Y60287272D01*
X3545858Y60273130D01*
X3533130Y60285858D01*
X3547272Y60300000D01*
X3572728Y60300000D01*
X4253588Y59619140D01*
X4446217Y59667250D01*
X4620901Y60054555D01*
X4634073Y60479228D01*
X4483726Y60876614D01*
X4446217Y60932750D01*
X4253588Y60980860D01*
X3572728Y60300000D01*
X3547272Y60300000D01*
X2866412Y60980860D01*
X2673783Y60932750D01*
X2520000Y60591786D01*
X2520000Y60993588D01*
X2879140Y60993588D01*
X3560000Y60312728D01*
X4240860Y60993588D01*
X4192750Y61186217D01*
X3805445Y61360901D01*
X3380772Y61374073D01*
X2983386Y61223726D01*
X2927250Y61186217D01*
X2879140Y60993588D01*
X2520000Y60993588D01*
X2520000Y62050000D01*
X3414608Y62050000D01*
X4880000Y60584609D01*
X4880000Y54215391D01*
X3936696Y53272088D01*
X3746114Y53557315D01*
X3366539Y53810939D01*
X2918799Y53900000D01*
X2261201Y53900000D01*
X1813461Y53810939D01*
X1433886Y53557315D01*
X1180262Y53177740D01*
X1091201Y52730000D01*
X1180262Y52282260D01*
X1387829Y51971614D01*
X1333433Y51935267D01*
X1232304Y51867696D01*
X1232302Y51867693D01*
X632304Y51267696D01*
X519583Y51098995D01*
X479999Y50900000D01*
X480000Y50899995D01*
X480000Y45500005D01*
X479999Y45500000D01*
X519583Y45301005D01*
X632304Y45132304D01*
X1180000Y44584609D01*
X1180000Y39600005D01*
X1179999Y39600000D01*
X1219583Y39401005D01*
X1332304Y39232304D01*
X2177967Y38386642D01*
X1924971Y38282107D01*
X1539248Y37897056D01*
X1330238Y37393705D01*
X1329763Y36848686D01*
X1537893Y36344971D01*
X1922944Y35959248D01*
X2135568Y35870959D01*
X862304Y34597696D01*
X749583Y34428995D01*
X709999Y34230000D01*
X710000Y34229995D01*
X710000Y34169681D01*
X681257Y34157805D01*
X420000Y33897003D01*
X420000Y55062757D01*
X1039051Y55062757D01*
X1115076Y54793073D01*
X1387024Y54379753D01*
X1796442Y54101965D01*
X2281000Y54002000D01*
X2581000Y54002000D01*
X2581000Y55261000D01*
X2599000Y55261000D01*
X2599000Y54002000D01*
X2899000Y54002000D01*
X3383558Y54101965D01*
X3792976Y54379753D01*
X4064924Y54793073D01*
X4140949Y55062757D01*
X4040965Y55261000D01*
X2599000Y55261000D01*
X2581000Y55261000D01*
X1139035Y55261000D01*
X1039051Y55062757D01*
X420000Y55062757D01*
X420000Y55477243D01*
X1039051Y55477243D01*
X1139035Y55279000D01*
X2581000Y55279000D01*
X2581000Y56538000D01*
X2599000Y56538000D01*
X2599000Y55279000D01*
X4040965Y55279000D01*
X4140949Y55477243D01*
X4064924Y55746927D01*
X3792976Y56160247D01*
X3383558Y56438035D01*
X2899000Y56538000D01*
X2599000Y56538000D01*
X2581000Y56538000D01*
X2281000Y56538000D01*
X1796442Y56438035D01*
X1387024Y56160247D01*
X1115076Y55746927D01*
X1039051Y55477243D01*
X420000Y55477243D01*
X420000Y66557269D01*
X424943Y66562212D01*
X497386Y66348804D01*
X497386Y66348804D01*
G37*
X497386Y66348804D02*
X956950Y66140809D01*
X1461129Y66124514D01*
X1486800Y66134188D01*
X1479999Y66100000D01*
X1480000Y66099995D01*
X1480000Y60000005D01*
X1479999Y60000000D01*
X1519583Y59801005D01*
X1632304Y59632304D01*
X2070000Y59194608D01*
X2070000Y58941968D01*
X1813461Y58890939D01*
X1433886Y58637315D01*
X1180262Y58257740D01*
X1091201Y57810000D01*
X1180262Y57362260D01*
X1433886Y56982685D01*
X1813461Y56729061D01*
X2261201Y56640000D01*
X2918799Y56640000D01*
X3366539Y56729061D01*
X3746114Y56982685D01*
X3999738Y57362260D01*
X4088799Y57810000D01*
X3999738Y58257740D01*
X3746114Y58637315D01*
X3366539Y58890939D01*
X3110000Y58941968D01*
X3110000Y59331358D01*
X3314555Y59239099D01*
X3739228Y59225927D01*
X4136614Y59376274D01*
X4192750Y59413783D01*
X4240860Y59606412D01*
X3560000Y60287272D01*
X3545858Y60273130D01*
X3533130Y60285858D01*
X3547272Y60300000D01*
X3572728Y60300000D01*
X4253588Y59619140D01*
X4446217Y59667250D01*
X4620901Y60054555D01*
X4634073Y60479228D01*
X4483726Y60876614D01*
X4446217Y60932750D01*
X4253588Y60980860D01*
X3572728Y60300000D01*
X3547272Y60300000D01*
X2866412Y60980860D01*
X2673783Y60932750D01*
X2520000Y60591786D01*
X2520000Y60993588D01*
X2879140Y60993588D01*
X3560000Y60312728D01*
X4240860Y60993588D01*
X4192750Y61186217D01*
X3805445Y61360901D01*
X3380772Y61374073D01*
X2983386Y61223726D01*
X2927250Y61186217D01*
X2879140Y60993588D01*
X2520000Y60993588D01*
X2520000Y62050000D01*
X3414608Y62050000D01*
X4880000Y60584609D01*
X4880000Y54215391D01*
X3936696Y53272088D01*
X3746114Y53557315D01*
X3366539Y53810939D01*
X2918799Y53900000D01*
X2261201Y53900000D01*
X1813461Y53810939D01*
X1433886Y53557315D01*
X1180262Y53177740D01*
X1091201Y52730000D01*
X1180262Y52282260D01*
X1387829Y51971614D01*
X1333433Y51935267D01*
X1232304Y51867696D01*
X1232302Y51867693D01*
X632304Y51267696D01*
X519583Y51098995D01*
X479999Y50900000D01*
X480000Y50899995D01*
X480000Y45500005D01*
X479999Y45500000D01*
X519583Y45301005D01*
X632304Y45132304D01*
X1180000Y44584609D01*
X1180000Y39600005D01*
X1179999Y39600000D01*
X1219583Y39401005D01*
X1332304Y39232304D01*
X2177967Y38386642D01*
X1924971Y38282107D01*
X1539248Y37897056D01*
X1330238Y37393705D01*
X1329763Y36848686D01*
X1537893Y36344971D01*
X1922944Y35959248D01*
X2135568Y35870959D01*
X862304Y34597696D01*
X749583Y34428995D01*
X709999Y34230000D01*
X710000Y34229995D01*
X710000Y34169681D01*
X681257Y34157805D01*
X420000Y33897003D01*
X420000Y55062757D01*
X1039051Y55062757D01*
X1115076Y54793073D01*
X1387024Y54379753D01*
X1796442Y54101965D01*
X2281000Y54002000D01*
X2581000Y54002000D01*
X2581000Y55261000D01*
X2599000Y55261000D01*
X2599000Y54002000D01*
X2899000Y54002000D01*
X3383558Y54101965D01*
X3792976Y54379753D01*
X4064924Y54793073D01*
X4140949Y55062757D01*
X4040965Y55261000D01*
X2599000Y55261000D01*
X2581000Y55261000D01*
X1139035Y55261000D01*
X1039051Y55062757D01*
X420000Y55062757D01*
X420000Y55477243D01*
X1039051Y55477243D01*
X1139035Y55279000D01*
X2581000Y55279000D01*
X2581000Y56538000D01*
X2599000Y56538000D01*
X2599000Y55279000D01*
X4040965Y55279000D01*
X4140949Y55477243D01*
X4064924Y55746927D01*
X3792976Y56160247D01*
X3383558Y56438035D01*
X2899000Y56538000D01*
X2599000Y56538000D01*
X2581000Y56538000D01*
X2281000Y56538000D01*
X1796442Y56438035D01*
X1387024Y56160247D01*
X1115076Y55746927D01*
X1039051Y55477243D01*
X420000Y55477243D01*
X420000Y66557269D01*
X424943Y66562212D01*
X497386Y66348804D01*
G36*
X3180000Y44184609D02*
X3180000Y38799619D01*
X3166103Y38820417D01*
X3067696Y38967696D01*
X3067693Y38967698D01*
X2220000Y39815392D01*
X2220000Y44750000D01*
X2614608Y44750000D01*
X3180000Y44184609D01*
X3180000Y44184609D01*
G37*
X3180000Y44184609D02*
X3180000Y38799619D01*
X3166103Y38820417D01*
X3067696Y38967696D01*
X3067693Y38967698D01*
X2220000Y39815392D01*
X2220000Y44750000D01*
X2614608Y44750000D01*
X3180000Y44184609D01*
G36*
X8132304Y56232304D02*
X8301005Y56119583D01*
X8500000Y56079999D01*
X8500005Y56080000D01*
X9042316Y56080000D01*
X8800262Y55717740D01*
X8711201Y55270000D01*
X8800262Y54822260D01*
X8950000Y54598161D01*
X8950000Y53401839D01*
X8800262Y53177740D01*
X8711201Y52730000D01*
X8800262Y52282260D01*
X8950000Y52058161D01*
X8950000Y50861839D01*
X8800262Y50637740D01*
X8739149Y50330502D01*
X8189584Y49945807D01*
X7577696Y50557696D01*
X7408995Y50670417D01*
X7210000Y50710001D01*
X7209995Y50710000D01*
X6869638Y50710000D01*
X6994757Y50834901D01*
X7119858Y51136176D01*
X7120074Y51384683D01*
X7567693Y51832302D01*
X7567696Y51832304D01*
X7666661Y51980417D01*
X7680417Y52001004D01*
X7720001Y52200000D01*
X7720000Y52200005D01*
X7720000Y55860448D01*
X7894757Y56034901D01*
X8019858Y56336176D01*
X8019865Y56344743D01*
X8132304Y56232304D01*
X8132304Y56232304D01*
G37*
X8132304Y56232304D02*
X8301005Y56119583D01*
X8500000Y56079999D01*
X8500005Y56080000D01*
X9042316Y56080000D01*
X8800262Y55717740D01*
X8711201Y55270000D01*
X8800262Y54822260D01*
X8950000Y54598161D01*
X8950000Y53401839D01*
X8800262Y53177740D01*
X8711201Y52730000D01*
X8800262Y52282260D01*
X8950000Y52058161D01*
X8950000Y50861839D01*
X8800262Y50637740D01*
X8739149Y50330502D01*
X8189584Y49945807D01*
X7577696Y50557696D01*
X7408995Y50670417D01*
X7210000Y50710001D01*
X7209995Y50710000D01*
X6869638Y50710000D01*
X6994757Y50834901D01*
X7119858Y51136176D01*
X7120074Y51384683D01*
X7567693Y51832302D01*
X7567696Y51832304D01*
X7666661Y51980417D01*
X7680417Y52001004D01*
X7720001Y52200000D01*
X7720000Y52200005D01*
X7720000Y55860448D01*
X7894757Y56034901D01*
X8019858Y56336176D01*
X8019865Y56344743D01*
X8132304Y56232304D01*
G36*
X23423386Y53283726D02*
X23367250Y53246217D01*
X23319140Y53053588D01*
X24000000Y52372728D01*
X24014142Y52386870D01*
X24026870Y52374142D01*
X24012728Y52360000D01*
X24026870Y52345858D01*
X24014142Y52333130D01*
X24000000Y52347272D01*
X23319140Y51666412D01*
X23367250Y51473783D01*
X23754555Y51299099D01*
X24179228Y51285927D01*
X24576614Y51436274D01*
X24580000Y51438536D01*
X24580000Y51115391D01*
X23420000Y49955391D01*
X23420000Y50840000D01*
X23380417Y51038996D01*
X23335267Y51106567D01*
X23267696Y51207696D01*
X23267693Y51207698D01*
X22428972Y52046419D01*
X22518743Y52180772D01*
X22925927Y52180772D01*
X23076274Y51783386D01*
X23113783Y51727250D01*
X23306412Y51679140D01*
X23987272Y52360000D01*
X23306412Y53040860D01*
X23113783Y52992750D01*
X22939099Y52605445D01*
X22925927Y52180772D01*
X22518743Y52180772D01*
X22519738Y52182260D01*
X22608799Y52630000D01*
X22519738Y53077740D01*
X22317774Y53380000D01*
X23677850Y53380000D01*
X23423386Y53283726D01*
X23423386Y53283726D01*
G37*
X23423386Y53283726D02*
X23367250Y53246217D01*
X23319140Y53053588D01*
X24000000Y52372728D01*
X24014142Y52386870D01*
X24026870Y52374142D01*
X24012728Y52360000D01*
X24026870Y52345858D01*
X24014142Y52333130D01*
X24000000Y52347272D01*
X23319140Y51666412D01*
X23367250Y51473783D01*
X23754555Y51299099D01*
X24179228Y51285927D01*
X24576614Y51436274D01*
X24580000Y51438536D01*
X24580000Y51115391D01*
X23420000Y49955391D01*
X23420000Y50840000D01*
X23380417Y51038996D01*
X23335267Y51106567D01*
X23267696Y51207696D01*
X23267693Y51207698D01*
X22428972Y52046419D01*
X22518743Y52180772D01*
X22925927Y52180772D01*
X23076274Y51783386D01*
X23113783Y51727250D01*
X23306412Y51679140D01*
X23987272Y52360000D01*
X23306412Y53040860D01*
X23113783Y52992750D01*
X22939099Y52605445D01*
X22925927Y52180772D01*
X22518743Y52180772D01*
X22519738Y52182260D01*
X22608799Y52630000D01*
X22519738Y53077740D01*
X22317774Y53380000D01*
X23677850Y53380000D01*
X23423386Y53283726D01*
G36*
X16402302Y52262307D02*
X16402304Y52262304D01*
X16480585Y52209999D01*
X16571004Y52149583D01*
X16770000Y52109999D01*
X16770005Y52110000D01*
X19748545Y52110000D01*
X19858071Y51946082D01*
X19850518Y51912457D01*
X19750518Y50712457D01*
X19757130Y50654304D01*
X19766657Y50637107D01*
X19748545Y50610000D01*
X18725391Y50610000D01*
X17667696Y51667696D01*
X17498995Y51780417D01*
X17300000Y51820001D01*
X17299995Y51820000D01*
X14657684Y51820000D01*
X14899738Y52182260D01*
X14988799Y52630000D01*
X14899738Y53077740D01*
X14697774Y53380000D01*
X15284608Y53380000D01*
X16402302Y52262307D01*
X16402302Y52262307D01*
G37*
X16402302Y52262307D02*
X16402304Y52262304D01*
X16480585Y52209999D01*
X16571004Y52149583D01*
X16770000Y52109999D01*
X16770005Y52110000D01*
X19748545Y52110000D01*
X19858071Y51946082D01*
X19850518Y51912457D01*
X19750518Y50712457D01*
X19757130Y50654304D01*
X19766657Y50637107D01*
X19748545Y50610000D01*
X18725391Y50610000D01*
X17667696Y51667696D01*
X17498995Y51780417D01*
X17300000Y51820001D01*
X17299995Y51820000D01*
X14657684Y51820000D01*
X14899738Y52182260D01*
X14988799Y52630000D01*
X14899738Y53077740D01*
X14697774Y53380000D01*
X15284608Y53380000D01*
X16402302Y52262307D01*
G36*
X19532302Y53532307D02*
X19532304Y53532304D01*
X19628998Y53467696D01*
X19701004Y53419583D01*
X19900000Y53380000D01*
X19902226Y53380000D01*
X19748545Y53150000D01*
X16985391Y53150000D01*
X15867696Y54267696D01*
X15698995Y54380417D01*
X15500000Y54420001D01*
X15499995Y54420000D01*
X14785253Y54420000D01*
X14964924Y54693073D01*
X15040949Y54962757D01*
X14940965Y55161000D01*
X13499000Y55161000D01*
X13499000Y55141000D01*
X13481000Y55141000D01*
X13481000Y55161000D01*
X13461000Y55161000D01*
X13461000Y55179000D01*
X13481000Y55179000D01*
X13481000Y55199000D01*
X13499000Y55199000D01*
X13499000Y55179000D01*
X14940965Y55179000D01*
X15040949Y55377243D01*
X14964924Y55646927D01*
X14745775Y55980000D01*
X17084608Y55980000D01*
X19532302Y53532307D01*
X19532302Y53532307D01*
G37*
X19532302Y53532307D02*
X19532304Y53532304D01*
X19628998Y53467696D01*
X19701004Y53419583D01*
X19900000Y53380000D01*
X19902226Y53380000D01*
X19748545Y53150000D01*
X16985391Y53150000D01*
X15867696Y54267696D01*
X15698995Y54380417D01*
X15500000Y54420001D01*
X15499995Y54420000D01*
X14785253Y54420000D01*
X14964924Y54693073D01*
X15040949Y54962757D01*
X14940965Y55161000D01*
X13499000Y55161000D01*
X13499000Y55141000D01*
X13481000Y55141000D01*
X13481000Y55161000D01*
X13461000Y55161000D01*
X13461000Y55179000D01*
X13481000Y55179000D01*
X13481000Y55199000D01*
X13499000Y55199000D01*
X13499000Y55179000D01*
X14940965Y55179000D01*
X15040949Y55377243D01*
X14964924Y55646927D01*
X14745775Y55980000D01*
X17084608Y55980000D01*
X19532302Y53532307D01*
G36*
X6926870Y65674142D02*
X6912728Y65660000D01*
X6926870Y65645858D01*
X6914142Y65633130D01*
X6900000Y65647272D01*
X6885858Y65633130D01*
X6873130Y65645858D01*
X6887272Y65660000D01*
X6873130Y65674142D01*
X6885858Y65686870D01*
X6900000Y65672728D01*
X6914142Y65686870D01*
X6926870Y65674142D01*
X6926870Y65674142D01*
G37*
X6926870Y65674142D02*
X6912728Y65660000D01*
X6926870Y65645858D01*
X6914142Y65633130D01*
X6900000Y65647272D01*
X6885858Y65633130D01*
X6873130Y65645858D01*
X6887272Y65660000D01*
X6873130Y65674142D01*
X6885858Y65686870D01*
X6900000Y65672728D01*
X6914142Y65686870D01*
X6926870Y65674142D01*
G36*
X20937893Y70824971D02*
X21322944Y70439248D01*
X21580000Y70332509D01*
X21580000Y70167482D01*
X21324971Y70062107D01*
X20939248Y69677056D01*
X20730238Y69173705D01*
X20729763Y68628686D01*
X20937893Y68124971D01*
X21322944Y67739248D01*
X21779204Y67549792D01*
X21324971Y67362107D01*
X20939248Y66977056D01*
X20898947Y66880000D01*
X20434681Y66880000D01*
X20422805Y66908743D01*
X20150178Y67181846D01*
X19793791Y67329831D01*
X19407902Y67330168D01*
X19051257Y67182805D01*
X18868133Y67000000D01*
X18471455Y67000000D01*
X18266114Y67307315D01*
X17886539Y67560939D01*
X17438799Y67650000D01*
X16781201Y67650000D01*
X16333461Y67560939D01*
X15953886Y67307315D01*
X15700262Y66927740D01*
X15611201Y66480000D01*
X15674719Y66160672D01*
X14987696Y66847696D01*
X14818995Y66960417D01*
X14620000Y67000001D01*
X14619995Y67000000D01*
X10851455Y67000000D01*
X10664365Y67280000D01*
X11199995Y67280000D01*
X11200000Y67279999D01*
X11398995Y67319583D01*
X11567696Y67432304D01*
X13915391Y69780000D01*
X15908908Y69780000D01*
X15700262Y69467740D01*
X15611201Y69020000D01*
X15700262Y68572260D01*
X15953886Y68192685D01*
X16333461Y67939061D01*
X16781201Y67850000D01*
X17438799Y67850000D01*
X17886539Y67939061D01*
X18266114Y68192685D01*
X18471455Y68500000D01*
X18819995Y68500000D01*
X18820000Y68499999D01*
X19018995Y68539583D01*
X19187696Y68652304D01*
X19967693Y69432302D01*
X19967696Y69432304D01*
X20080417Y69601005D01*
X20120001Y69800000D01*
X20120000Y69800005D01*
X20120000Y70605319D01*
X20148743Y70617195D01*
X20421846Y70889822D01*
X20434377Y70920000D01*
X20898628Y70920000D01*
X20937893Y70824971D01*
X20937893Y70824971D01*
G37*
X20937893Y70824971D02*
X21322944Y70439248D01*
X21580000Y70332509D01*
X21580000Y70167482D01*
X21324971Y70062107D01*
X20939248Y69677056D01*
X20730238Y69173705D01*
X20729763Y68628686D01*
X20937893Y68124971D01*
X21322944Y67739248D01*
X21779204Y67549792D01*
X21324971Y67362107D01*
X20939248Y66977056D01*
X20898947Y66880000D01*
X20434681Y66880000D01*
X20422805Y66908743D01*
X20150178Y67181846D01*
X19793791Y67329831D01*
X19407902Y67330168D01*
X19051257Y67182805D01*
X18868133Y67000000D01*
X18471455Y67000000D01*
X18266114Y67307315D01*
X17886539Y67560939D01*
X17438799Y67650000D01*
X16781201Y67650000D01*
X16333461Y67560939D01*
X15953886Y67307315D01*
X15700262Y66927740D01*
X15611201Y66480000D01*
X15674719Y66160672D01*
X14987696Y66847696D01*
X14818995Y66960417D01*
X14620000Y67000001D01*
X14619995Y67000000D01*
X10851455Y67000000D01*
X10664365Y67280000D01*
X11199995Y67280000D01*
X11200000Y67279999D01*
X11398995Y67319583D01*
X11567696Y67432304D01*
X13915391Y69780000D01*
X15908908Y69780000D01*
X15700262Y69467740D01*
X15611201Y69020000D01*
X15700262Y68572260D01*
X15953886Y68192685D01*
X16333461Y67939061D01*
X16781201Y67850000D01*
X17438799Y67850000D01*
X17886539Y67939061D01*
X18266114Y68192685D01*
X18471455Y68500000D01*
X18819995Y68500000D01*
X18820000Y68499999D01*
X19018995Y68539583D01*
X19187696Y68652304D01*
X19967693Y69432302D01*
X19967696Y69432304D01*
X20080417Y69601005D01*
X20120001Y69800000D01*
X20120000Y69800005D01*
X20120000Y70605319D01*
X20148743Y70617195D01*
X20421846Y70889822D01*
X20434377Y70920000D01*
X20898628Y70920000D01*
X20937893Y70824971D01*
G36*
X2829763Y68928686D02*
X3037893Y68424971D01*
X3329629Y68132726D01*
X3232304Y68067696D01*
X3232302Y68067693D01*
X2517128Y67352519D01*
X2525486Y67611129D01*
X2347599Y68083164D01*
X2301196Y68152614D01*
X2087786Y68225058D01*
X1262728Y67400000D01*
X1276870Y67385858D01*
X1264142Y67373130D01*
X1250000Y67387272D01*
X1235858Y67373130D01*
X1223130Y67385858D01*
X1237272Y67400000D01*
X1223130Y67414142D01*
X1235858Y67426870D01*
X1250000Y67412728D01*
X2075058Y68237786D01*
X2002614Y68451196D01*
X1543050Y68659191D01*
X1038871Y68675486D01*
X566836Y68497599D01*
X497386Y68451196D01*
X424943Y68237788D01*
X420000Y68242731D01*
X420000Y69115374D01*
X586383Y68948700D01*
X1016252Y68770203D01*
X1481706Y68769797D01*
X1911886Y68947544D01*
X2241300Y69276383D01*
X2271868Y69350000D01*
X2830130Y69350000D01*
X2829763Y68928686D01*
X2829763Y68928686D01*
G37*
X2829763Y68928686D02*
X3037893Y68424971D01*
X3329629Y68132726D01*
X3232304Y68067696D01*
X3232302Y68067693D01*
X2517128Y67352519D01*
X2525486Y67611129D01*
X2347599Y68083164D01*
X2301196Y68152614D01*
X2087786Y68225058D01*
X1262728Y67400000D01*
X1276870Y67385858D01*
X1264142Y67373130D01*
X1250000Y67387272D01*
X1235858Y67373130D01*
X1223130Y67385858D01*
X1237272Y67400000D01*
X1223130Y67414142D01*
X1235858Y67426870D01*
X1250000Y67412728D01*
X2075058Y68237786D01*
X2002614Y68451196D01*
X1543050Y68659191D01*
X1038871Y68675486D01*
X566836Y68497599D01*
X497386Y68451196D01*
X424943Y68237788D01*
X420000Y68242731D01*
X420000Y69115374D01*
X586383Y68948700D01*
X1016252Y68770203D01*
X1481706Y68769797D01*
X1911886Y68947544D01*
X2241300Y69276383D01*
X2271868Y69350000D01*
X2830130Y69350000D01*
X2829763Y68928686D01*
G36*
X27776870Y67414142D02*
X27762728Y67400000D01*
X27776870Y67385858D01*
X27764142Y67373130D01*
X27750000Y67387272D01*
X27735858Y67373130D01*
X27723130Y67385858D01*
X27737272Y67400000D01*
X27723130Y67414142D01*
X27735858Y67426870D01*
X27750000Y67412728D01*
X27764142Y67426870D01*
X27776870Y67414142D01*
X27776870Y67414142D01*
G37*
X27776870Y67414142D02*
X27762728Y67400000D01*
X27776870Y67385858D01*
X27764142Y67373130D01*
X27750000Y67387272D01*
X27735858Y67373130D01*
X27723130Y67385858D01*
X27737272Y67400000D01*
X27723130Y67414142D01*
X27735858Y67426870D01*
X27750000Y67412728D01*
X27764142Y67426870D01*
X27776870Y67414142D01*
G36*
X13872302Y71192307D02*
X13872304Y71192304D01*
X13951709Y71139248D01*
X13973525Y71124671D01*
X14017049Y70820000D01*
X13700005Y70820000D01*
X13700000Y70820001D01*
X13501005Y70780417D01*
X13332304Y70667696D01*
X13332302Y70667693D01*
X10984608Y68320000D01*
X10731183Y68320000D01*
X10899738Y68572260D01*
X10988799Y69020000D01*
X10899738Y69467740D01*
X10650000Y69841499D01*
X10650000Y70738501D01*
X10899738Y71112260D01*
X10988799Y71560000D01*
X10899738Y72007740D01*
X10651002Y72380000D01*
X12684608Y72380000D01*
X13872302Y71192307D01*
X13872302Y71192307D01*
G37*
X13872302Y71192307D02*
X13872304Y71192304D01*
X13951709Y71139248D01*
X13973525Y71124671D01*
X14017049Y70820000D01*
X13700005Y70820000D01*
X13700000Y70820001D01*
X13501005Y70780417D01*
X13332304Y70667696D01*
X13332302Y70667693D01*
X10984608Y68320000D01*
X10731183Y68320000D01*
X10899738Y68572260D01*
X10988799Y69020000D01*
X10899738Y69467740D01*
X10650000Y69841499D01*
X10650000Y70738501D01*
X10899738Y71112260D01*
X10988799Y71560000D01*
X10899738Y72007740D01*
X10651002Y72380000D01*
X12684608Y72380000D01*
X13872302Y71192307D01*
G36*
X26912212Y73305057D02*
X26698804Y73232614D01*
X26490809Y72773050D01*
X26474514Y72268871D01*
X26652401Y71796836D01*
X26698804Y71727386D01*
X26912214Y71654942D01*
X27737272Y72480000D01*
X27723130Y72494142D01*
X27735858Y72506870D01*
X27750000Y72492728D01*
X27764142Y72506870D01*
X27776870Y72494142D01*
X27762728Y72480000D01*
X27776870Y72465858D01*
X27764142Y72453130D01*
X27750000Y72467272D01*
X26924942Y71642214D01*
X26997386Y71428804D01*
X27456950Y71220809D01*
X27961129Y71204514D01*
X28433164Y71382401D01*
X28502614Y71428804D01*
X28575057Y71642212D01*
X28580000Y71637269D01*
X28580000Y70764626D01*
X28413617Y70931300D01*
X27983748Y71109797D01*
X27518294Y71110203D01*
X27088114Y70932456D01*
X26758700Y70603617D01*
X26580203Y70173748D01*
X26579797Y69708294D01*
X26639181Y69564573D01*
X26404652Y69330043D01*
X26262107Y69675029D01*
X25877056Y70060752D01*
X25544542Y70198824D01*
X25889715Y70328529D01*
X25972476Y70383827D01*
X26069253Y70618019D01*
X25100000Y71587272D01*
X25085858Y71573130D01*
X25073130Y71585858D01*
X25087272Y71600000D01*
X25112728Y71600000D01*
X26081981Y70630747D01*
X26316173Y70727524D01*
X26557479Y71259346D01*
X26576898Y71843030D01*
X26371471Y72389715D01*
X26316173Y72472476D01*
X26081981Y72569253D01*
X25112728Y71600000D01*
X25087272Y71600000D01*
X25073130Y71614142D01*
X25085858Y71626870D01*
X25100000Y71612728D01*
X26069253Y72581981D01*
X26048366Y72632526D01*
X26197696Y72732304D01*
X26841330Y73375939D01*
X26912212Y73305057D01*
X26912212Y73305057D01*
G37*
X26912212Y73305057D02*
X26698804Y73232614D01*
X26490809Y72773050D01*
X26474514Y72268871D01*
X26652401Y71796836D01*
X26698804Y71727386D01*
X26912214Y71654942D01*
X27737272Y72480000D01*
X27723130Y72494142D01*
X27735858Y72506870D01*
X27750000Y72492728D01*
X27764142Y72506870D01*
X27776870Y72494142D01*
X27762728Y72480000D01*
X27776870Y72465858D01*
X27764142Y72453130D01*
X27750000Y72467272D01*
X26924942Y71642214D01*
X26997386Y71428804D01*
X27456950Y71220809D01*
X27961129Y71204514D01*
X28433164Y71382401D01*
X28502614Y71428804D01*
X28575057Y71642212D01*
X28580000Y71637269D01*
X28580000Y70764626D01*
X28413617Y70931300D01*
X27983748Y71109797D01*
X27518294Y71110203D01*
X27088114Y70932456D01*
X26758700Y70603617D01*
X26580203Y70173748D01*
X26579797Y69708294D01*
X26639181Y69564573D01*
X26404652Y69330043D01*
X26262107Y69675029D01*
X25877056Y70060752D01*
X25544542Y70198824D01*
X25889715Y70328529D01*
X25972476Y70383827D01*
X26069253Y70618019D01*
X25100000Y71587272D01*
X25085858Y71573130D01*
X25073130Y71585858D01*
X25087272Y71600000D01*
X25112728Y71600000D01*
X26081981Y70630747D01*
X26316173Y70727524D01*
X26557479Y71259346D01*
X26576898Y71843030D01*
X26371471Y72389715D01*
X26316173Y72472476D01*
X26081981Y72569253D01*
X25112728Y71600000D01*
X25087272Y71600000D01*
X25073130Y71614142D01*
X25085858Y71626870D01*
X25100000Y71612728D01*
X26069253Y72581981D01*
X26048366Y72632526D01*
X26197696Y72732304D01*
X26841330Y73375939D01*
X26912212Y73305057D01*
G36*
X7198084Y78466525D02*
X7093791Y78509831D01*
X6707902Y78510168D01*
X6351257Y78362805D01*
X6078154Y78090178D01*
X5930169Y77733791D01*
X5929832Y77347902D01*
X6077195Y76991257D01*
X6280000Y76788098D01*
X6280000Y74800000D01*
X6327195Y74562736D01*
X6390699Y74467696D01*
X6461594Y74361594D01*
X7161593Y73661594D01*
X7287301Y73577599D01*
X7362736Y73527195D01*
X7600000Y73480000D01*
X8195362Y73480000D01*
X8333886Y73272685D01*
X8395875Y73231266D01*
X7927345Y72762736D01*
X7823726Y73036614D01*
X7786217Y73092750D01*
X7593588Y73140860D01*
X6912728Y72460000D01*
X6926870Y72445858D01*
X6914142Y72433130D01*
X6900000Y72447272D01*
X6219140Y71766412D01*
X6267250Y71573783D01*
X6332688Y71544269D01*
X6078154Y71290178D01*
X6068489Y71266902D01*
X5563941Y71771450D01*
X5669762Y72026295D01*
X5669983Y72280772D01*
X5825927Y72280772D01*
X5976274Y71883386D01*
X6013783Y71827250D01*
X6206412Y71779140D01*
X6887272Y72460000D01*
X6206412Y73140860D01*
X6013783Y73092750D01*
X5839099Y72705445D01*
X5825927Y72280772D01*
X5669983Y72280772D01*
X5670237Y72571314D01*
X5462107Y73075029D01*
X5383685Y73153588D01*
X6219140Y73153588D01*
X6900000Y72472728D01*
X7580860Y73153588D01*
X7532750Y73346217D01*
X7145445Y73520901D01*
X6720772Y73534073D01*
X6323386Y73383726D01*
X6267250Y73346217D01*
X6219140Y73153588D01*
X5383685Y73153588D01*
X5077056Y73460752D01*
X4573705Y73669762D01*
X4028686Y73670237D01*
X3524971Y73462107D01*
X3225209Y73162867D01*
X2144449Y73240065D01*
X1913617Y73471300D01*
X1483748Y73649797D01*
X1018294Y73650203D01*
X588114Y73472456D01*
X420000Y73304635D01*
X420000Y74177269D01*
X424943Y74182212D01*
X497386Y73968804D01*
X956950Y73760809D01*
X1461129Y73744514D01*
X1933164Y73922401D01*
X2002614Y73968804D01*
X2075058Y74182214D01*
X1250000Y75007272D01*
X1235858Y74993130D01*
X1223130Y75005858D01*
X1237272Y75020000D01*
X1223130Y75034142D01*
X1235858Y75046870D01*
X1250000Y75032728D01*
X1264142Y75046870D01*
X1276870Y75034142D01*
X1262728Y75020000D01*
X2087786Y74194942D01*
X2301196Y74267386D01*
X2509191Y74726950D01*
X2525486Y75231129D01*
X2347599Y75703164D01*
X2301196Y75772614D01*
X2087788Y75845057D01*
X2158670Y75915939D01*
X2929864Y75144745D01*
X2929763Y75028686D01*
X3137893Y74524971D01*
X3522944Y74139248D01*
X4026295Y73930238D01*
X4571314Y73929763D01*
X5075029Y74137893D01*
X5460752Y74522944D01*
X5669762Y75026295D01*
X5670237Y75571314D01*
X5462107Y76075029D01*
X5077056Y76460752D01*
X4573705Y76669762D01*
X4201671Y76670086D01*
X4376614Y76736274D01*
X4432750Y76773783D01*
X4480860Y76966412D01*
X3800000Y77647272D01*
X3119140Y76966412D01*
X3167250Y76773783D01*
X3554555Y76599099D01*
X3835434Y76590387D01*
X3524971Y76462107D01*
X3303935Y76241456D01*
X2360923Y77184468D01*
X2419797Y77326252D01*
X2419931Y77480772D01*
X2725927Y77480772D01*
X2876274Y77083386D01*
X2913783Y77027250D01*
X3106412Y76979140D01*
X3787272Y77660000D01*
X3812728Y77660000D01*
X4493588Y76979140D01*
X4686217Y77027250D01*
X4860901Y77414555D01*
X4874073Y77839228D01*
X4723726Y78236614D01*
X4686217Y78292750D01*
X4493588Y78340860D01*
X3812728Y77660000D01*
X3787272Y77660000D01*
X3106412Y78340860D01*
X2913783Y78292750D01*
X2739099Y77905445D01*
X2725927Y77480772D01*
X2419931Y77480772D01*
X2420203Y77791706D01*
X2242456Y78221886D01*
X2110984Y78353588D01*
X3119140Y78353588D01*
X3800000Y77672728D01*
X4480860Y78353588D01*
X4432750Y78546217D01*
X4045445Y78720901D01*
X3620772Y78734073D01*
X3223386Y78583726D01*
X3167250Y78546217D01*
X3119140Y78353588D01*
X2110984Y78353588D01*
X1913617Y78551300D01*
X1483748Y78729797D01*
X1018294Y78730203D01*
X588114Y78552456D01*
X420000Y78384635D01*
X420000Y78928719D01*
X450000Y78922752D01*
X2050000Y78922752D01*
X2194367Y78951468D01*
X2316755Y79033245D01*
X2398532Y79155633D01*
X2427248Y79300000D01*
X2427248Y79580000D01*
X6084608Y79580000D01*
X7198084Y78466525D01*
X7198084Y78466525D01*
G37*
X7198084Y78466525D02*
X7093791Y78509831D01*
X6707902Y78510168D01*
X6351257Y78362805D01*
X6078154Y78090178D01*
X5930169Y77733791D01*
X5929832Y77347902D01*
X6077195Y76991257D01*
X6280000Y76788098D01*
X6280000Y74800000D01*
X6327195Y74562736D01*
X6390699Y74467696D01*
X6461594Y74361594D01*
X7161593Y73661594D01*
X7287301Y73577599D01*
X7362736Y73527195D01*
X7600000Y73480000D01*
X8195362Y73480000D01*
X8333886Y73272685D01*
X8395875Y73231266D01*
X7927345Y72762736D01*
X7823726Y73036614D01*
X7786217Y73092750D01*
X7593588Y73140860D01*
X6912728Y72460000D01*
X6926870Y72445858D01*
X6914142Y72433130D01*
X6900000Y72447272D01*
X6219140Y71766412D01*
X6267250Y71573783D01*
X6332688Y71544269D01*
X6078154Y71290178D01*
X6068489Y71266902D01*
X5563941Y71771450D01*
X5669762Y72026295D01*
X5669983Y72280772D01*
X5825927Y72280772D01*
X5976274Y71883386D01*
X6013783Y71827250D01*
X6206412Y71779140D01*
X6887272Y72460000D01*
X6206412Y73140860D01*
X6013783Y73092750D01*
X5839099Y72705445D01*
X5825927Y72280772D01*
X5669983Y72280772D01*
X5670237Y72571314D01*
X5462107Y73075029D01*
X5383685Y73153588D01*
X6219140Y73153588D01*
X6900000Y72472728D01*
X7580860Y73153588D01*
X7532750Y73346217D01*
X7145445Y73520901D01*
X6720772Y73534073D01*
X6323386Y73383726D01*
X6267250Y73346217D01*
X6219140Y73153588D01*
X5383685Y73153588D01*
X5077056Y73460752D01*
X4573705Y73669762D01*
X4028686Y73670237D01*
X3524971Y73462107D01*
X3225209Y73162867D01*
X2144449Y73240065D01*
X1913617Y73471300D01*
X1483748Y73649797D01*
X1018294Y73650203D01*
X588114Y73472456D01*
X420000Y73304635D01*
X420000Y74177269D01*
X424943Y74182212D01*
X497386Y73968804D01*
X956950Y73760809D01*
X1461129Y73744514D01*
X1933164Y73922401D01*
X2002614Y73968804D01*
X2075058Y74182214D01*
X1250000Y75007272D01*
X1235858Y74993130D01*
X1223130Y75005858D01*
X1237272Y75020000D01*
X1223130Y75034142D01*
X1235858Y75046870D01*
X1250000Y75032728D01*
X1264142Y75046870D01*
X1276870Y75034142D01*
X1262728Y75020000D01*
X2087786Y74194942D01*
X2301196Y74267386D01*
X2509191Y74726950D01*
X2525486Y75231129D01*
X2347599Y75703164D01*
X2301196Y75772614D01*
X2087788Y75845057D01*
X2158670Y75915939D01*
X2929864Y75144745D01*
X2929763Y75028686D01*
X3137893Y74524971D01*
X3522944Y74139248D01*
X4026295Y73930238D01*
X4571314Y73929763D01*
X5075029Y74137893D01*
X5460752Y74522944D01*
X5669762Y75026295D01*
X5670237Y75571314D01*
X5462107Y76075029D01*
X5077056Y76460752D01*
X4573705Y76669762D01*
X4201671Y76670086D01*
X4376614Y76736274D01*
X4432750Y76773783D01*
X4480860Y76966412D01*
X3800000Y77647272D01*
X3119140Y76966412D01*
X3167250Y76773783D01*
X3554555Y76599099D01*
X3835434Y76590387D01*
X3524971Y76462107D01*
X3303935Y76241456D01*
X2360923Y77184468D01*
X2419797Y77326252D01*
X2419931Y77480772D01*
X2725927Y77480772D01*
X2876274Y77083386D01*
X2913783Y77027250D01*
X3106412Y76979140D01*
X3787272Y77660000D01*
X3812728Y77660000D01*
X4493588Y76979140D01*
X4686217Y77027250D01*
X4860901Y77414555D01*
X4874073Y77839228D01*
X4723726Y78236614D01*
X4686217Y78292750D01*
X4493588Y78340860D01*
X3812728Y77660000D01*
X3787272Y77660000D01*
X3106412Y78340860D01*
X2913783Y78292750D01*
X2739099Y77905445D01*
X2725927Y77480772D01*
X2419931Y77480772D01*
X2420203Y77791706D01*
X2242456Y78221886D01*
X2110984Y78353588D01*
X3119140Y78353588D01*
X3800000Y77672728D01*
X4480860Y78353588D01*
X4432750Y78546217D01*
X4045445Y78720901D01*
X3620772Y78734073D01*
X3223386Y78583726D01*
X3167250Y78546217D01*
X3119140Y78353588D01*
X2110984Y78353588D01*
X1913617Y78551300D01*
X1483748Y78729797D01*
X1018294Y78730203D01*
X588114Y78552456D01*
X420000Y78384635D01*
X420000Y78928719D01*
X450000Y78922752D01*
X2050000Y78922752D01*
X2194367Y78951468D01*
X2316755Y79033245D01*
X2398532Y79155633D01*
X2427248Y79300000D01*
X2427248Y79580000D01*
X6084608Y79580000D01*
X7198084Y78466525D01*
G36*
X28580000Y81271281D02*
X28550000Y81277248D01*
X26950000Y81277248D01*
X26920481Y81271376D01*
X26422970Y81713608D01*
X26469762Y81826295D01*
X26470237Y82371314D01*
X26262107Y82875029D01*
X25877056Y83260752D01*
X25373705Y83469762D01*
X24828686Y83470237D01*
X24324971Y83262107D01*
X23939248Y82877056D01*
X23730238Y82373705D01*
X23729763Y81828686D01*
X23937893Y81324971D01*
X24322944Y80939248D01*
X24580000Y80832509D01*
X24580000Y80667482D01*
X24324971Y80562107D01*
X23939248Y80177056D01*
X23730238Y79673705D01*
X23729763Y79128686D01*
X23937893Y78624971D01*
X24322944Y78239248D01*
X24655458Y78101176D01*
X24310285Y77971471D01*
X24227524Y77916173D01*
X24130747Y77681981D01*
X25100000Y76712728D01*
X26069253Y77681981D01*
X25972476Y77916173D01*
X25554926Y78105630D01*
X25875029Y78237893D01*
X26260752Y78622944D01*
X26469762Y79126295D01*
X26470157Y79580000D01*
X26572752Y79580000D01*
X26572752Y79300000D01*
X26601468Y79155633D01*
X26683245Y79033245D01*
X26805633Y78951468D01*
X26950000Y78922752D01*
X28550000Y78922752D01*
X28580000Y78928719D01*
X28580000Y78402731D01*
X28575057Y78397788D01*
X28502614Y78611196D01*
X28043050Y78819191D01*
X27538871Y78835486D01*
X27066836Y78657599D01*
X26997386Y78611196D01*
X26924942Y78397786D01*
X27750000Y77572728D01*
X27764142Y77586870D01*
X27776870Y77574142D01*
X27762728Y77560000D01*
X27776870Y77545858D01*
X27764142Y77533130D01*
X27750000Y77547272D01*
X26924942Y76722214D01*
X26997386Y76508804D01*
X27456950Y76300809D01*
X27961129Y76284514D01*
X28433164Y76462401D01*
X28502614Y76508804D01*
X28575057Y76722212D01*
X28580000Y76717269D01*
X28580000Y75844626D01*
X28413617Y76011300D01*
X27983748Y76189797D01*
X27518294Y76190203D01*
X27088114Y76012456D01*
X26758700Y75683617D01*
X26580203Y75253748D01*
X26579797Y74788294D01*
X26639181Y74644573D01*
X25761250Y73766642D01*
X25800901Y73854555D01*
X25814073Y74279228D01*
X25663726Y74676614D01*
X25626217Y74732750D01*
X25433588Y74780860D01*
X24752728Y74100000D01*
X24766870Y74085858D01*
X24754142Y74073130D01*
X24740000Y74087272D01*
X24725858Y74073130D01*
X24713130Y74085858D01*
X24727272Y74100000D01*
X24046412Y74780860D01*
X23853783Y74732750D01*
X23679099Y74345445D01*
X23665927Y73920772D01*
X23816274Y73523386D01*
X23853783Y73467250D01*
X23916256Y73451647D01*
X23332304Y72867696D01*
X23219583Y72698995D01*
X23179999Y72500000D01*
X23180000Y72499995D01*
X23180000Y72457279D01*
X22877056Y72760752D01*
X22373705Y72969762D01*
X21828686Y72970237D01*
X21324971Y72762107D01*
X20939248Y72377056D01*
X20766071Y71960000D01*
X20434681Y71960000D01*
X20422805Y71988743D01*
X20150178Y72261846D01*
X19793791Y72409831D01*
X19645352Y72409961D01*
X20027693Y72792302D01*
X20027696Y72792304D01*
X20100327Y72901005D01*
X20140417Y72961004D01*
X20180000Y73160000D01*
X20180000Y73265319D01*
X20208743Y73277195D01*
X20481846Y73549822D01*
X20629831Y73906209D01*
X20630168Y74292098D01*
X20482805Y74648743D01*
X20338213Y74793588D01*
X24059140Y74793588D01*
X24740000Y74112728D01*
X25420860Y74793588D01*
X25372750Y74986217D01*
X24985445Y75160901D01*
X24560772Y75174073D01*
X24163386Y75023726D01*
X24107250Y74986217D01*
X24059140Y74793588D01*
X20338213Y74793588D01*
X20210178Y74921846D01*
X19853791Y75069831D01*
X19467902Y75070168D01*
X19111257Y74922805D01*
X18908098Y74720000D01*
X18404638Y74720000D01*
X18266114Y74927315D01*
X17886539Y75180939D01*
X17438799Y75270000D01*
X16781201Y75270000D01*
X16333461Y75180939D01*
X15953886Y74927315D01*
X15700262Y74547740D01*
X15611201Y74100000D01*
X15700262Y73652260D01*
X15953886Y73272685D01*
X16333461Y73019061D01*
X16781201Y72930000D01*
X17438799Y72930000D01*
X17886539Y73019061D01*
X18266114Y73272685D01*
X18404638Y73480000D01*
X18908328Y73480000D01*
X19076322Y73311713D01*
X18232304Y72467696D01*
X18205609Y72427743D01*
X17886539Y72640939D01*
X17438799Y72730000D01*
X16781201Y72730000D01*
X16333461Y72640939D01*
X15953886Y72387315D01*
X15748545Y72080000D01*
X14455391Y72080000D01*
X13267696Y73267696D01*
X13098995Y73380417D01*
X12900000Y73420001D01*
X12899995Y73420000D01*
X10744547Y73420000D01*
X10899738Y73652260D01*
X10988799Y74100000D01*
X10899738Y74547740D01*
X10646114Y74927315D01*
X10266539Y75180939D01*
X9818799Y75270000D01*
X9161201Y75270000D01*
X8713461Y75180939D01*
X8333886Y74927315D01*
X8195362Y74720000D01*
X7856813Y74720000D01*
X7520000Y75056812D01*
X7520000Y76432757D01*
X7939051Y76432757D01*
X8015076Y76163073D01*
X8287024Y75749753D01*
X8696442Y75471965D01*
X9181000Y75372000D01*
X9481000Y75372000D01*
X9481000Y76631000D01*
X9499000Y76631000D01*
X9499000Y75372000D01*
X9799000Y75372000D01*
X10283558Y75471965D01*
X10692976Y75749753D01*
X10964924Y76163073D01*
X11040949Y76432757D01*
X10940965Y76631000D01*
X9499000Y76631000D01*
X9481000Y76631000D01*
X8039035Y76631000D01*
X7939051Y76432757D01*
X7520000Y76432757D01*
X7520000Y76788328D01*
X7721846Y76989822D01*
X7746834Y77050000D01*
X7996209Y77050000D01*
X7939051Y76847243D01*
X8039035Y76649000D01*
X9481000Y76649000D01*
X9481000Y76669000D01*
X9499000Y76669000D01*
X9499000Y76649000D01*
X10940965Y76649000D01*
X11040949Y76847243D01*
X10983791Y77050000D01*
X11214608Y77050000D01*
X11992302Y76272307D01*
X11992304Y76272304D01*
X12130450Y76179999D01*
X12161005Y76159583D01*
X12360000Y76119999D01*
X12360005Y76120000D01*
X15748545Y76120000D01*
X15953886Y75812685D01*
X16333461Y75559061D01*
X16781201Y75470000D01*
X17438799Y75470000D01*
X17886539Y75559061D01*
X18266114Y75812685D01*
X18519738Y76192260D01*
X18608799Y76640000D01*
X18519738Y77087740D01*
X18266114Y77467315D01*
X17886539Y77720939D01*
X17438799Y77810000D01*
X16781201Y77810000D01*
X16333461Y77720939D01*
X15953886Y77467315D01*
X15748545Y77160000D01*
X12575391Y77160000D01*
X11467696Y78267696D01*
X11298995Y78380417D01*
X11100000Y78420001D01*
X11099995Y78420000D01*
X10691092Y78420000D01*
X10899738Y78732260D01*
X10988799Y79180000D01*
X15611201Y79180000D01*
X15700262Y78732260D01*
X15953886Y78352685D01*
X16333461Y78099061D01*
X16781201Y78010000D01*
X17438799Y78010000D01*
X17886539Y78099061D01*
X18266114Y78352685D01*
X18471455Y78660000D01*
X18904608Y78660000D01*
X19080000Y78484609D01*
X19080000Y77994681D01*
X19051257Y77982805D01*
X18778154Y77710178D01*
X18630169Y77353791D01*
X18629832Y76967902D01*
X18777195Y76611257D01*
X19049822Y76338154D01*
X19406209Y76190169D01*
X19792098Y76189832D01*
X19863094Y76219167D01*
X20060000Y76179999D01*
X20060005Y76180000D01*
X20832518Y76180000D01*
X20937893Y75924971D01*
X21322944Y75539248D01*
X21826295Y75330238D01*
X22371314Y75329763D01*
X22875029Y75537893D01*
X23055469Y75718019D01*
X24130747Y75718019D01*
X24227524Y75483827D01*
X24759346Y75242521D01*
X25343030Y75223102D01*
X25889715Y75428529D01*
X25972476Y75483827D01*
X26069253Y75718019D01*
X25100000Y76687272D01*
X24130747Y75718019D01*
X23055469Y75718019D01*
X23260752Y75922944D01*
X23469762Y76426295D01*
X23469788Y76456970D01*
X23623102Y76456970D01*
X23828529Y75910285D01*
X23883827Y75827524D01*
X24118019Y75730747D01*
X25087272Y76700000D01*
X25112728Y76700000D01*
X26081981Y75730747D01*
X26316173Y75827524D01*
X26557479Y76359346D01*
X26576898Y76943030D01*
X26424396Y77348871D01*
X26474514Y77348871D01*
X26652401Y76876836D01*
X26698804Y76807386D01*
X26912214Y76734942D01*
X27737272Y77560000D01*
X26912214Y78385058D01*
X26698804Y78312614D01*
X26490809Y77853050D01*
X26474514Y77348871D01*
X26424396Y77348871D01*
X26371471Y77489715D01*
X26316173Y77572476D01*
X26081981Y77669253D01*
X25112728Y76700000D01*
X25087272Y76700000D01*
X24118019Y77669253D01*
X23883827Y77572476D01*
X23642521Y77040654D01*
X23623102Y76456970D01*
X23469788Y76456970D01*
X23470237Y76971314D01*
X23262107Y77475029D01*
X22877056Y77860752D01*
X22620000Y77967491D01*
X22620000Y78132518D01*
X22875029Y78237893D01*
X23260752Y78622944D01*
X23469762Y79126295D01*
X23470237Y79671314D01*
X23262107Y80175029D01*
X22877056Y80560752D01*
X22420796Y80750208D01*
X22875029Y80937893D01*
X23260752Y81322944D01*
X23469762Y81826295D01*
X23470237Y82371314D01*
X23262107Y82875029D01*
X22877056Y83260752D01*
X22373705Y83469762D01*
X21828686Y83470237D01*
X21324971Y83262107D01*
X20939248Y82877056D01*
X20890642Y82760000D01*
X20434681Y82760000D01*
X20422805Y82788743D01*
X20150178Y83061846D01*
X19793791Y83209831D01*
X19407902Y83210168D01*
X19051257Y83062805D01*
X18778154Y82790178D01*
X18630169Y82433791D01*
X18630000Y82240000D01*
X18587248Y82240000D01*
X18587248Y82520000D01*
X18558532Y82664367D01*
X18476755Y82786755D01*
X18354367Y82868532D01*
X18210000Y82897248D01*
X16010000Y82897248D01*
X15865633Y82868532D01*
X15743245Y82786755D01*
X15661468Y82664367D01*
X15632752Y82520000D01*
X15632752Y80920000D01*
X15661468Y80775633D01*
X15743245Y80653245D01*
X15865633Y80571468D01*
X16010000Y80542752D01*
X18210000Y80542752D01*
X18354367Y80571468D01*
X18476755Y80653245D01*
X18558532Y80775633D01*
X18587248Y80920000D01*
X18587248Y81200000D01*
X19079995Y81200000D01*
X19080000Y81199999D01*
X19278995Y81239583D01*
X19355984Y81291024D01*
X19406209Y81270169D01*
X19792098Y81269832D01*
X20148743Y81417195D01*
X20421846Y81689822D01*
X20434377Y81720000D01*
X20774671Y81720000D01*
X20937893Y81324971D01*
X21322944Y80939248D01*
X21779204Y80749792D01*
X21324971Y80562107D01*
X20939248Y80177056D01*
X20730238Y79673705D01*
X20730130Y79550000D01*
X19600000Y79550000D01*
X19542597Y79538582D01*
X19515150Y79520242D01*
X19487696Y79547696D01*
X19318995Y79660417D01*
X19120000Y79700001D01*
X19119995Y79700000D01*
X18471455Y79700000D01*
X18266114Y80007315D01*
X17886539Y80260939D01*
X17438799Y80350000D01*
X16781201Y80350000D01*
X16333461Y80260939D01*
X15953886Y80007315D01*
X15700262Y79627740D01*
X15611201Y79180000D01*
X10988799Y79180000D01*
X10899738Y79627740D01*
X10646114Y80007315D01*
X10266539Y80260939D01*
X10010000Y80311968D01*
X10010000Y80588032D01*
X10266539Y80639061D01*
X10646114Y80892685D01*
X10899738Y81272260D01*
X10988799Y81720000D01*
X10899738Y82167740D01*
X10646114Y82547315D01*
X10266539Y82800939D01*
X9818799Y82890000D01*
X9161201Y82890000D01*
X8713461Y82800939D01*
X8333886Y82547315D01*
X8080262Y82167740D01*
X7991201Y81720000D01*
X8080262Y81272260D01*
X8333886Y80892685D01*
X8713461Y80639061D01*
X8970000Y80588032D01*
X8970000Y80311968D01*
X8713461Y80260939D01*
X8333886Y80007315D01*
X8080262Y79627740D01*
X7991201Y79180000D01*
X8000093Y79135299D01*
X6667696Y80467696D01*
X6498995Y80580417D01*
X6300000Y80620001D01*
X6299995Y80620000D01*
X2427248Y80620000D01*
X2427248Y80900000D01*
X2398532Y81044367D01*
X2316755Y81166755D01*
X2194367Y81248532D01*
X2050000Y81277248D01*
X1770000Y81277248D01*
X1770000Y81634608D01*
X2355391Y82220000D01*
X2965319Y82220000D01*
X2977195Y82191257D01*
X3249822Y81918154D01*
X3606209Y81770169D01*
X3992098Y81769832D01*
X4348743Y81917195D01*
X4621846Y82189822D01*
X4769831Y82546209D01*
X4770168Y82932098D01*
X4622805Y83288743D01*
X4350178Y83561846D01*
X4306458Y83580000D01*
X28580000Y83580000D01*
X28580000Y81271281D01*
X28580000Y81271281D01*
G37*
X28580000Y81271281D02*
X28550000Y81277248D01*
X26950000Y81277248D01*
X26920481Y81271376D01*
X26422970Y81713608D01*
X26469762Y81826295D01*
X26470237Y82371314D01*
X26262107Y82875029D01*
X25877056Y83260752D01*
X25373705Y83469762D01*
X24828686Y83470237D01*
X24324971Y83262107D01*
X23939248Y82877056D01*
X23730238Y82373705D01*
X23729763Y81828686D01*
X23937893Y81324971D01*
X24322944Y80939248D01*
X24580000Y80832509D01*
X24580000Y80667482D01*
X24324971Y80562107D01*
X23939248Y80177056D01*
X23730238Y79673705D01*
X23729763Y79128686D01*
X23937893Y78624971D01*
X24322944Y78239248D01*
X24655458Y78101176D01*
X24310285Y77971471D01*
X24227524Y77916173D01*
X24130747Y77681981D01*
X25100000Y76712728D01*
X26069253Y77681981D01*
X25972476Y77916173D01*
X25554926Y78105630D01*
X25875029Y78237893D01*
X26260752Y78622944D01*
X26469762Y79126295D01*
X26470157Y79580000D01*
X26572752Y79580000D01*
X26572752Y79300000D01*
X26601468Y79155633D01*
X26683245Y79033245D01*
X26805633Y78951468D01*
X26950000Y78922752D01*
X28550000Y78922752D01*
X28580000Y78928719D01*
X28580000Y78402731D01*
X28575057Y78397788D01*
X28502614Y78611196D01*
X28043050Y78819191D01*
X27538871Y78835486D01*
X27066836Y78657599D01*
X26997386Y78611196D01*
X26924942Y78397786D01*
X27750000Y77572728D01*
X27764142Y77586870D01*
X27776870Y77574142D01*
X27762728Y77560000D01*
X27776870Y77545858D01*
X27764142Y77533130D01*
X27750000Y77547272D01*
X26924942Y76722214D01*
X26997386Y76508804D01*
X27456950Y76300809D01*
X27961129Y76284514D01*
X28433164Y76462401D01*
X28502614Y76508804D01*
X28575057Y76722212D01*
X28580000Y76717269D01*
X28580000Y75844626D01*
X28413617Y76011300D01*
X27983748Y76189797D01*
X27518294Y76190203D01*
X27088114Y76012456D01*
X26758700Y75683617D01*
X26580203Y75253748D01*
X26579797Y74788294D01*
X26639181Y74644573D01*
X25761250Y73766642D01*
X25800901Y73854555D01*
X25814073Y74279228D01*
X25663726Y74676614D01*
X25626217Y74732750D01*
X25433588Y74780860D01*
X24752728Y74100000D01*
X24766870Y74085858D01*
X24754142Y74073130D01*
X24740000Y74087272D01*
X24725858Y74073130D01*
X24713130Y74085858D01*
X24727272Y74100000D01*
X24046412Y74780860D01*
X23853783Y74732750D01*
X23679099Y74345445D01*
X23665927Y73920772D01*
X23816274Y73523386D01*
X23853783Y73467250D01*
X23916256Y73451647D01*
X23332304Y72867696D01*
X23219583Y72698995D01*
X23179999Y72500000D01*
X23180000Y72499995D01*
X23180000Y72457279D01*
X22877056Y72760752D01*
X22373705Y72969762D01*
X21828686Y72970237D01*
X21324971Y72762107D01*
X20939248Y72377056D01*
X20766071Y71960000D01*
X20434681Y71960000D01*
X20422805Y71988743D01*
X20150178Y72261846D01*
X19793791Y72409831D01*
X19645352Y72409961D01*
X20027693Y72792302D01*
X20027696Y72792304D01*
X20100327Y72901005D01*
X20140417Y72961004D01*
X20180000Y73160000D01*
X20180000Y73265319D01*
X20208743Y73277195D01*
X20481846Y73549822D01*
X20629831Y73906209D01*
X20630168Y74292098D01*
X20482805Y74648743D01*
X20338213Y74793588D01*
X24059140Y74793588D01*
X24740000Y74112728D01*
X25420860Y74793588D01*
X25372750Y74986217D01*
X24985445Y75160901D01*
X24560772Y75174073D01*
X24163386Y75023726D01*
X24107250Y74986217D01*
X24059140Y74793588D01*
X20338213Y74793588D01*
X20210178Y74921846D01*
X19853791Y75069831D01*
X19467902Y75070168D01*
X19111257Y74922805D01*
X18908098Y74720000D01*
X18404638Y74720000D01*
X18266114Y74927315D01*
X17886539Y75180939D01*
X17438799Y75270000D01*
X16781201Y75270000D01*
X16333461Y75180939D01*
X15953886Y74927315D01*
X15700262Y74547740D01*
X15611201Y74100000D01*
X15700262Y73652260D01*
X15953886Y73272685D01*
X16333461Y73019061D01*
X16781201Y72930000D01*
X17438799Y72930000D01*
X17886539Y73019061D01*
X18266114Y73272685D01*
X18404638Y73480000D01*
X18908328Y73480000D01*
X19076322Y73311713D01*
X18232304Y72467696D01*
X18205609Y72427743D01*
X17886539Y72640939D01*
X17438799Y72730000D01*
X16781201Y72730000D01*
X16333461Y72640939D01*
X15953886Y72387315D01*
X15748545Y72080000D01*
X14455391Y72080000D01*
X13267696Y73267696D01*
X13098995Y73380417D01*
X12900000Y73420001D01*
X12899995Y73420000D01*
X10744547Y73420000D01*
X10899738Y73652260D01*
X10988799Y74100000D01*
X10899738Y74547740D01*
X10646114Y74927315D01*
X10266539Y75180939D01*
X9818799Y75270000D01*
X9161201Y75270000D01*
X8713461Y75180939D01*
X8333886Y74927315D01*
X8195362Y74720000D01*
X7856813Y74720000D01*
X7520000Y75056812D01*
X7520000Y76432757D01*
X7939051Y76432757D01*
X8015076Y76163073D01*
X8287024Y75749753D01*
X8696442Y75471965D01*
X9181000Y75372000D01*
X9481000Y75372000D01*
X9481000Y76631000D01*
X9499000Y76631000D01*
X9499000Y75372000D01*
X9799000Y75372000D01*
X10283558Y75471965D01*
X10692976Y75749753D01*
X10964924Y76163073D01*
X11040949Y76432757D01*
X10940965Y76631000D01*
X9499000Y76631000D01*
X9481000Y76631000D01*
X8039035Y76631000D01*
X7939051Y76432757D01*
X7520000Y76432757D01*
X7520000Y76788328D01*
X7721846Y76989822D01*
X7746834Y77050000D01*
X7996209Y77050000D01*
X7939051Y76847243D01*
X8039035Y76649000D01*
X9481000Y76649000D01*
X9481000Y76669000D01*
X9499000Y76669000D01*
X9499000Y76649000D01*
X10940965Y76649000D01*
X11040949Y76847243D01*
X10983791Y77050000D01*
X11214608Y77050000D01*
X11992302Y76272307D01*
X11992304Y76272304D01*
X12130450Y76179999D01*
X12161005Y76159583D01*
X12360000Y76119999D01*
X12360005Y76120000D01*
X15748545Y76120000D01*
X15953886Y75812685D01*
X16333461Y75559061D01*
X16781201Y75470000D01*
X17438799Y75470000D01*
X17886539Y75559061D01*
X18266114Y75812685D01*
X18519738Y76192260D01*
X18608799Y76640000D01*
X18519738Y77087740D01*
X18266114Y77467315D01*
X17886539Y77720939D01*
X17438799Y77810000D01*
X16781201Y77810000D01*
X16333461Y77720939D01*
X15953886Y77467315D01*
X15748545Y77160000D01*
X12575391Y77160000D01*
X11467696Y78267696D01*
X11298995Y78380417D01*
X11100000Y78420001D01*
X11099995Y78420000D01*
X10691092Y78420000D01*
X10899738Y78732260D01*
X10988799Y79180000D01*
X15611201Y79180000D01*
X15700262Y78732260D01*
X15953886Y78352685D01*
X16333461Y78099061D01*
X16781201Y78010000D01*
X17438799Y78010000D01*
X17886539Y78099061D01*
X18266114Y78352685D01*
X18471455Y78660000D01*
X18904608Y78660000D01*
X19080000Y78484609D01*
X19080000Y77994681D01*
X19051257Y77982805D01*
X18778154Y77710178D01*
X18630169Y77353791D01*
X18629832Y76967902D01*
X18777195Y76611257D01*
X19049822Y76338154D01*
X19406209Y76190169D01*
X19792098Y76189832D01*
X19863094Y76219167D01*
X20060000Y76179999D01*
X20060005Y76180000D01*
X20832518Y76180000D01*
X20937893Y75924971D01*
X21322944Y75539248D01*
X21826295Y75330238D01*
X22371314Y75329763D01*
X22875029Y75537893D01*
X23055469Y75718019D01*
X24130747Y75718019D01*
X24227524Y75483827D01*
X24759346Y75242521D01*
X25343030Y75223102D01*
X25889715Y75428529D01*
X25972476Y75483827D01*
X26069253Y75718019D01*
X25100000Y76687272D01*
X24130747Y75718019D01*
X23055469Y75718019D01*
X23260752Y75922944D01*
X23469762Y76426295D01*
X23469788Y76456970D01*
X23623102Y76456970D01*
X23828529Y75910285D01*
X23883827Y75827524D01*
X24118019Y75730747D01*
X25087272Y76700000D01*
X25112728Y76700000D01*
X26081981Y75730747D01*
X26316173Y75827524D01*
X26557479Y76359346D01*
X26576898Y76943030D01*
X26424396Y77348871D01*
X26474514Y77348871D01*
X26652401Y76876836D01*
X26698804Y76807386D01*
X26912214Y76734942D01*
X27737272Y77560000D01*
X26912214Y78385058D01*
X26698804Y78312614D01*
X26490809Y77853050D01*
X26474514Y77348871D01*
X26424396Y77348871D01*
X26371471Y77489715D01*
X26316173Y77572476D01*
X26081981Y77669253D01*
X25112728Y76700000D01*
X25087272Y76700000D01*
X24118019Y77669253D01*
X23883827Y77572476D01*
X23642521Y77040654D01*
X23623102Y76456970D01*
X23469788Y76456970D01*
X23470237Y76971314D01*
X23262107Y77475029D01*
X22877056Y77860752D01*
X22620000Y77967491D01*
X22620000Y78132518D01*
X22875029Y78237893D01*
X23260752Y78622944D01*
X23469762Y79126295D01*
X23470237Y79671314D01*
X23262107Y80175029D01*
X22877056Y80560752D01*
X22420796Y80750208D01*
X22875029Y80937893D01*
X23260752Y81322944D01*
X23469762Y81826295D01*
X23470237Y82371314D01*
X23262107Y82875029D01*
X22877056Y83260752D01*
X22373705Y83469762D01*
X21828686Y83470237D01*
X21324971Y83262107D01*
X20939248Y82877056D01*
X20890642Y82760000D01*
X20434681Y82760000D01*
X20422805Y82788743D01*
X20150178Y83061846D01*
X19793791Y83209831D01*
X19407902Y83210168D01*
X19051257Y83062805D01*
X18778154Y82790178D01*
X18630169Y82433791D01*
X18630000Y82240000D01*
X18587248Y82240000D01*
X18587248Y82520000D01*
X18558532Y82664367D01*
X18476755Y82786755D01*
X18354367Y82868532D01*
X18210000Y82897248D01*
X16010000Y82897248D01*
X15865633Y82868532D01*
X15743245Y82786755D01*
X15661468Y82664367D01*
X15632752Y82520000D01*
X15632752Y80920000D01*
X15661468Y80775633D01*
X15743245Y80653245D01*
X15865633Y80571468D01*
X16010000Y80542752D01*
X18210000Y80542752D01*
X18354367Y80571468D01*
X18476755Y80653245D01*
X18558532Y80775633D01*
X18587248Y80920000D01*
X18587248Y81200000D01*
X19079995Y81200000D01*
X19080000Y81199999D01*
X19278995Y81239583D01*
X19355984Y81291024D01*
X19406209Y81270169D01*
X19792098Y81269832D01*
X20148743Y81417195D01*
X20421846Y81689822D01*
X20434377Y81720000D01*
X20774671Y81720000D01*
X20937893Y81324971D01*
X21322944Y80939248D01*
X21779204Y80749792D01*
X21324971Y80562107D01*
X20939248Y80177056D01*
X20730238Y79673705D01*
X20730130Y79550000D01*
X19600000Y79550000D01*
X19542597Y79538582D01*
X19515150Y79520242D01*
X19487696Y79547696D01*
X19318995Y79660417D01*
X19120000Y79700001D01*
X19119995Y79700000D01*
X18471455Y79700000D01*
X18266114Y80007315D01*
X17886539Y80260939D01*
X17438799Y80350000D01*
X16781201Y80350000D01*
X16333461Y80260939D01*
X15953886Y80007315D01*
X15700262Y79627740D01*
X15611201Y79180000D01*
X10988799Y79180000D01*
X10899738Y79627740D01*
X10646114Y80007315D01*
X10266539Y80260939D01*
X10010000Y80311968D01*
X10010000Y80588032D01*
X10266539Y80639061D01*
X10646114Y80892685D01*
X10899738Y81272260D01*
X10988799Y81720000D01*
X10899738Y82167740D01*
X10646114Y82547315D01*
X10266539Y82800939D01*
X9818799Y82890000D01*
X9161201Y82890000D01*
X8713461Y82800939D01*
X8333886Y82547315D01*
X8080262Y82167740D01*
X7991201Y81720000D01*
X8080262Y81272260D01*
X8333886Y80892685D01*
X8713461Y80639061D01*
X8970000Y80588032D01*
X8970000Y80311968D01*
X8713461Y80260939D01*
X8333886Y80007315D01*
X8080262Y79627740D01*
X7991201Y79180000D01*
X8000093Y79135299D01*
X6667696Y80467696D01*
X6498995Y80580417D01*
X6300000Y80620001D01*
X6299995Y80620000D01*
X2427248Y80620000D01*
X2427248Y80900000D01*
X2398532Y81044367D01*
X2316755Y81166755D01*
X2194367Y81248532D01*
X2050000Y81277248D01*
X1770000Y81277248D01*
X1770000Y81634608D01*
X2355391Y82220000D01*
X2965319Y82220000D01*
X2977195Y82191257D01*
X3249822Y81918154D01*
X3606209Y81770169D01*
X3992098Y81769832D01*
X4348743Y81917195D01*
X4621846Y82189822D01*
X4769831Y82546209D01*
X4770168Y82932098D01*
X4622805Y83288743D01*
X4350178Y83561846D01*
X4306458Y83580000D01*
X28580000Y83580000D01*
X28580000Y81271281D01*
M02*
