M48
;DRILL file {KiCad (2016-08-20 BZR 7083)-product} date Sun Feb  5 21:27:32 2017
;FORMAT={3:3/ absolute / metric / suppress leading zeros}
FMAT,2
METRIC,TZ
T1C0.500
T2C0.600
T3C0.700
T4C0.800
T5C0.900
T6C1.000
T7C3.200
%
G90
G05
M71
T1
X800Y44000
X900Y35500
X1100Y38300
X1200Y59300
X1200Y28100
X1200Y23300
X1400Y1300
X2600Y44100
X2800Y39800
X3100Y81400
X4300Y46100
X4300Y20600
X5800Y21800
X6000Y28200
X6200Y34000
X6300Y51300
X6400Y44700
X6400Y38600
X6600Y1300
X7200Y56500
X7300Y82700
X7500Y21200
X7900Y7100
X8200Y55300
X8200Y50800
X8300Y12200
X9300Y64800
X9300Y43100
X9900Y3900
X11300Y70100
X12200Y1100
X13300Y79500
X13500Y71100
X13800Y65300
X14500Y69200
X15200Y67400
X15300Y60400
X15400Y75300
X15400Y45400
X15500Y57700
X15500Y52500
X15600Y37700
X15700Y27700
X15700Y21800
X15700Y13300
X16700Y50000
X17000Y42100
X18000Y26500
X18100Y14300
X18700Y53700
X18700Y51500
X18700Y20800
X18800Y59500
X18800Y31700
X18900Y35600
X19200Y56200
X19500Y9900
X19900Y68200
X20300Y80500
X21000Y73500
X22700Y12500
X23000Y23200
X23000Y17800
X23100Y59100
X23200Y9400
X23500Y20800
X23700Y80700
X23900Y45300
X25200Y36400
X25400Y42400
X25500Y32600
X25900Y14500
X26000Y18000
X26000Y11800
X26600Y4800
X26900Y54900
X27100Y1100
X27700Y82600
X27700Y42400
X27700Y27200
X27800Y58900
X27900Y49300
X28000Y37500
T2
X7100Y40640
X7100Y35560
T3
X1160Y30200
X1230Y33335
X2500Y32065
X3560Y60300
X3770Y33335
X3800Y82740
X3800Y77660
X6240Y30200
X6900Y77540
X6900Y72460
X6900Y70740
X6900Y65660
X8640Y60300
X10900Y44340
X10900Y39260
X10900Y37540
X10900Y32460
X10900Y29240
X10900Y24160
X13060Y61000
X14560Y2600
X18140Y61000
X19600Y82240
X19600Y77160
X19600Y71440
X19600Y66360
X19640Y2600
X19660Y74100
X23500Y39440
X23500Y34360
X23500Y32340
X23500Y27260
X24000Y57440
X24000Y52360
X24740Y74100
T4
X24500Y13300
X24500Y5700
X25500Y30600
X25500Y23000
X27600Y30600
X27600Y23000
T5
X2590Y57810
X2590Y55270
X2590Y52730
X2590Y50190
X3700Y27150
X3700Y24650
X4490Y10910
X4490Y8370
X4490Y5830
X4490Y3290
X9490Y81720
X9490Y79180
X9490Y76640
X9490Y74100
X9490Y71560
X9490Y69020
X9490Y66480
X10210Y57810
X10210Y55270
X10210Y52730
X10210Y50190
X12110Y10910
X12110Y8370
X12110Y5830
X12110Y3290
X13390Y47010
X13390Y44470
X13390Y41930
X13390Y39390
X13390Y36850
X13390Y34310
X13390Y31770
X13390Y29230
X13390Y26690
X13390Y24150
X13390Y21610
X13390Y19070
X13390Y16530
X13390Y13990
X13490Y57710
X13490Y55170
X13490Y52630
X13490Y50090
X17110Y81720
X17110Y79180
X17110Y76640
X17110Y74100
X17110Y71560
X17110Y69020
X17110Y66480
X21010Y47010
X21010Y44470
X21010Y41930
X21010Y39390
X21010Y36850
X21010Y34310
X21010Y31770
X21010Y29230
X21010Y26690
X21010Y24150
X21010Y21610
X21010Y19070
X21010Y16530
X21010Y13990
X21110Y57710
X21110Y55170
X21110Y52630
X21110Y50090
X25500Y62950
X25500Y60450
T6
X1250Y80100
X1250Y77560
X1250Y75020
X1250Y72480
X1250Y69940
X1250Y67400
X1250Y20600
X1250Y18060
X1250Y15520
X1250Y12980
X1250Y10440
X1250Y7900
X2700Y47280
X2700Y37120
X4200Y69200
X4200Y66200
X4300Y75300
X4300Y72300
X5100Y63200
X6800Y47100
X8100Y63200
X8500Y30080
X8500Y27540
X8500Y25000
X8500Y22460
X8500Y19920
X9800Y47100
X10400Y16470
X10400Y13930
X11000Y63500
X11000Y60500
X14400Y63500
X15000Y11000
X15000Y8000
X15200Y5200
X17400Y63500
X18000Y11000
X18000Y8000
X18200Y5200
X20100Y64000
X20100Y61000
X22100Y82100
X22100Y79400
X22100Y76700
X22100Y71600
X22100Y68900
X22100Y66200
X24500Y19400
X24500Y16400
X25100Y82100
X25100Y79400
X25100Y76700
X25100Y71600
X25100Y68900
X25100Y66200
X26500Y57380
X26500Y47220
X26500Y44780
X26500Y34620
X27750Y80100
X27750Y77560
X27750Y75020
X27750Y72480
X27750Y69940
X27750Y67400
X27750Y20600
X27750Y18060
X27750Y15520
X27750Y12980
X27750Y10440
X27750Y7900
T7
X5800Y15800
T0
M30
