G04 #@! TF.FileFunction,Legend,Top*
%FSLAX46Y46*%
G04 Gerber Fmt 4.6, Leading zero omitted, Abs format (unit mm)*
G04 Created by KiCad (PCBNEW (2016-08-20 BZR 7083)-product) date Sun Feb  5 21:27:28 2017*
%MOMM*%
%LPD*%
G01*
G04 APERTURE LIST*
%ADD10C,0.100000*%
%ADD11C,0.200000*%
G04 APERTURE END LIST*
D10*
D11*
X15867857Y17657143D02*
X15867857Y17990477D01*
X16653571Y18133334D02*
X16653571Y17657143D01*
X15153571Y17657143D01*
X15153571Y18133334D01*
X16653571Y18561905D02*
X15653571Y18561905D01*
X15939285Y18561905D02*
X15796428Y18609524D01*
X15725000Y18657143D01*
X15653571Y18752381D01*
X15653571Y18847620D01*
X16653571Y19180953D02*
X15653571Y19180953D01*
X15153571Y19180953D02*
X15225000Y19133334D01*
X15296428Y19180953D01*
X15225000Y19228572D01*
X15153571Y19180953D01*
X15296428Y19180953D01*
X16582142Y20085715D02*
X16653571Y19990477D01*
X16653571Y19800001D01*
X16582142Y19704762D01*
X16510714Y19657143D01*
X16367857Y19609524D01*
X15939285Y19609524D01*
X15796428Y19657143D01*
X15725000Y19704762D01*
X15653571Y19800001D01*
X15653571Y19990477D01*
X15725000Y20085715D01*
X16653571Y20942858D02*
X15867857Y20942858D01*
X15725000Y20895239D01*
X15653571Y20800001D01*
X15653571Y20609524D01*
X15725000Y20514286D01*
X16582142Y20942858D02*
X16653571Y20847620D01*
X16653571Y20609524D01*
X16582142Y20514286D01*
X16439285Y20466667D01*
X16296428Y20466667D01*
X16153571Y20514286D01*
X16082142Y20609524D01*
X16082142Y20847620D01*
X16010714Y20942858D01*
X16582142Y22133334D02*
X16653571Y22276191D01*
X16653571Y22514286D01*
X16582142Y22609524D01*
X16510714Y22657143D01*
X16367857Y22704762D01*
X16225000Y22704762D01*
X16082142Y22657143D01*
X16010714Y22609524D01*
X15939285Y22514286D01*
X15867857Y22323810D01*
X15796428Y22228572D01*
X15725000Y22180953D01*
X15582142Y22133334D01*
X15439285Y22133334D01*
X15296428Y22180953D01*
X15225000Y22228572D01*
X15153571Y22323810D01*
X15153571Y22561905D01*
X15225000Y22704762D01*
X15653571Y23038096D02*
X16653571Y23276191D01*
X15653571Y23514286D02*
X16653571Y23276191D01*
X17010714Y23180953D01*
X17082142Y23133334D01*
X17153571Y23038096D01*
X15653571Y23895239D02*
X16653571Y23895239D01*
X15796428Y23895239D02*
X15725000Y23942858D01*
X15653571Y24038096D01*
X15653571Y24180953D01*
X15725000Y24276191D01*
X15867857Y24323810D01*
X16653571Y24323810D01*
X15653571Y24657143D02*
X15653571Y25038096D01*
X15153571Y24800001D02*
X16439285Y24800001D01*
X16582142Y24847620D01*
X16653571Y24942858D01*
X16653571Y25038096D01*
X16653571Y25371429D02*
X15153571Y25371429D01*
X16653571Y25800001D02*
X15867857Y25800001D01*
X15725000Y25752381D01*
X15653571Y25657143D01*
X15653571Y25514286D01*
X15725000Y25419048D01*
X15796428Y25371429D01*
X16582142Y26228572D02*
X16653571Y26323810D01*
X16653571Y26514286D01*
X16582142Y26609524D01*
X16439285Y26657143D01*
X16367857Y26657143D01*
X16225000Y26609524D01*
X16153571Y26514286D01*
X16153571Y26371429D01*
X16082142Y26276191D01*
X15939285Y26228572D01*
X15867857Y26228572D01*
X15725000Y26276191D01*
X15653571Y26371429D01*
X15653571Y26514286D01*
X15725000Y26609524D01*
X16653571Y28609524D02*
X15153571Y28609524D01*
X15153571Y28847620D01*
X15225000Y28990477D01*
X15367857Y29085715D01*
X15510714Y29133334D01*
X15796428Y29180953D01*
X16010714Y29180953D01*
X16296428Y29133334D01*
X16439285Y29085715D01*
X16582142Y28990477D01*
X16653571Y28847620D01*
X16653571Y28609524D01*
X16653571Y29609524D02*
X15153571Y29609524D01*
X15939285Y30276191D02*
X16653571Y30276191D01*
X15153571Y29942858D02*
X15939285Y30276191D01*
X15153571Y30609524D01*
X16653571Y31704762D02*
X15153571Y31704762D01*
X16225000Y32038096D01*
X15153571Y32371429D01*
X16653571Y32371429D01*
X16653571Y32847620D02*
X15153571Y32847620D01*
X16653571Y33323810D02*
X15153571Y33323810D01*
X15153571Y33561905D01*
X15225000Y33704762D01*
X15367857Y33800000D01*
X15510714Y33847620D01*
X15796428Y33895239D01*
X16010714Y33895239D01*
X16296428Y33847620D01*
X16439285Y33800000D01*
X16582142Y33704762D01*
X16653571Y33561905D01*
X16653571Y33323810D01*
X16653571Y34323810D02*
X15153571Y34323810D01*
X16510714Y36133334D02*
X16582142Y36085715D01*
X16653571Y35942858D01*
X16653571Y35847620D01*
X16582142Y35704762D01*
X16439285Y35609524D01*
X16296428Y35561905D01*
X16010714Y35514286D01*
X15796428Y35514286D01*
X15510714Y35561905D01*
X15367857Y35609524D01*
X15225000Y35704762D01*
X15153571Y35847620D01*
X15153571Y35942858D01*
X15225000Y36085715D01*
X15296428Y36133334D01*
X15153571Y36419048D02*
X16653571Y36752381D01*
X15153571Y37085715D01*
X18103571Y21657143D02*
X19103571Y21895239D01*
X18103571Y22133334D01*
X19103571Y23038096D02*
X19103571Y22466667D01*
X19103571Y22752381D02*
X17603571Y22752381D01*
X17817857Y22657143D01*
X17960714Y22561905D01*
X18032142Y22466667D01*
X18960714Y23466667D02*
X19032142Y23514286D01*
X19103571Y23466667D01*
X19032142Y23419048D01*
X18960714Y23466667D01*
X19103571Y23466667D01*
X19103571Y24466667D02*
X19103571Y23895239D01*
X19103571Y24180953D02*
X17603571Y24180953D01*
X17817857Y24085715D01*
X17960714Y23990477D01*
X18032142Y23895239D01*
X18317857Y25990477D02*
X18317857Y25657143D01*
X19103571Y25657143D02*
X17603571Y25657143D01*
X17603571Y26133334D01*
X19032142Y26895239D02*
X19103571Y26800000D01*
X19103571Y26609524D01*
X19032142Y26514286D01*
X18889285Y26466667D01*
X18317857Y26466667D01*
X18175000Y26514286D01*
X18103571Y26609524D01*
X18103571Y26800000D01*
X18175000Y26895239D01*
X18317857Y26942858D01*
X18460714Y26942858D01*
X18603571Y26466667D01*
X19103571Y27371429D02*
X17603571Y27371429D01*
X18175000Y27371429D02*
X18103571Y27466667D01*
X18103571Y27657143D01*
X18175000Y27752381D01*
X18246428Y27800000D01*
X18389285Y27847620D01*
X18817857Y27847620D01*
X18960714Y27800000D01*
X19032142Y27752381D01*
X19103571Y27657143D01*
X19103571Y27466667D01*
X19032142Y27371429D01*
X18960714Y28276191D02*
X19032142Y28323810D01*
X19103571Y28276191D01*
X19032142Y28228572D01*
X18960714Y28276191D01*
X19103571Y28276191D01*
X17746428Y29466667D02*
X17675000Y29514286D01*
X17603571Y29609524D01*
X17603571Y29847620D01*
X17675000Y29942858D01*
X17746428Y29990477D01*
X17889285Y30038096D01*
X18032142Y30038096D01*
X18246428Y29990477D01*
X19103571Y29419048D01*
X19103571Y30038096D01*
X17603571Y30657143D02*
X17603571Y30752381D01*
X17675000Y30847620D01*
X17746428Y30895239D01*
X17889285Y30942858D01*
X18175000Y30990477D01*
X18532142Y30990477D01*
X18817857Y30942858D01*
X18960714Y30895239D01*
X19032142Y30847620D01*
X19103571Y30752381D01*
X19103571Y30657143D01*
X19032142Y30561905D01*
X18960714Y30514286D01*
X18817857Y30466667D01*
X18532142Y30419048D01*
X18175000Y30419048D01*
X17889285Y30466667D01*
X17746428Y30514286D01*
X17675000Y30561905D01*
X17603571Y30657143D01*
X19103571Y31942858D02*
X19103571Y31371429D01*
X19103571Y31657143D02*
X17603571Y31657143D01*
X17817857Y31561905D01*
X17960714Y31466667D01*
X18032142Y31371429D01*
X17603571Y32276191D02*
X17603571Y32942858D01*
X19103571Y32514286D01*
D10*
X16550000Y1550000D02*
X16683333Y1083334D01*
X16816666Y1416667D01*
X16950000Y1083334D01*
X17083333Y1550000D01*
X17283333Y1550000D02*
X17416666Y1083334D01*
X17550000Y1416667D01*
X17683333Y1083334D01*
X17816666Y1550000D01*
X18016666Y1550000D02*
X18150000Y1083334D01*
X18283333Y1416667D01*
X18416666Y1083334D01*
X18550000Y1550000D01*
X18816666Y1150000D02*
X18850000Y1116667D01*
X18816666Y1083334D01*
X18783333Y1116667D01*
X18816666Y1150000D01*
X18816666Y1083334D01*
X19416666Y1116667D02*
X19350000Y1083334D01*
X19216666Y1083334D01*
X19150000Y1116667D01*
X19116666Y1183334D01*
X19116666Y1450000D01*
X19150000Y1516667D01*
X19216666Y1550000D01*
X19350000Y1550000D01*
X19416666Y1516667D01*
X19450000Y1450000D01*
X19450000Y1383334D01*
X19116666Y1316667D01*
X19750000Y1083334D02*
X19750000Y1550000D01*
X19750000Y1416667D02*
X19783333Y1483334D01*
X19816666Y1516667D01*
X19883333Y1550000D01*
X19950000Y1550000D01*
X20183333Y1083334D02*
X20183333Y1550000D01*
X20183333Y1783334D02*
X20150000Y1750000D01*
X20183333Y1716667D01*
X20216666Y1750000D01*
X20183333Y1783334D01*
X20183333Y1716667D01*
X20816666Y1116667D02*
X20750000Y1083334D01*
X20616666Y1083334D01*
X20550000Y1116667D01*
X20516666Y1150000D01*
X20483333Y1216667D01*
X20483333Y1416667D01*
X20516666Y1483334D01*
X20550000Y1516667D01*
X20616666Y1550000D01*
X20750000Y1550000D01*
X20816666Y1516667D01*
X21416666Y1083334D02*
X21416666Y1450000D01*
X21383333Y1516667D01*
X21316666Y1550000D01*
X21183333Y1550000D01*
X21116666Y1516667D01*
X21416666Y1116667D02*
X21350000Y1083334D01*
X21183333Y1083334D01*
X21116666Y1116667D01*
X21083333Y1183334D01*
X21083333Y1250000D01*
X21116666Y1316667D01*
X21183333Y1350000D01*
X21350000Y1350000D01*
X21416666Y1383334D01*
X21716666Y1116667D02*
X21783333Y1083334D01*
X21916666Y1083334D01*
X21983333Y1116667D01*
X22016666Y1183334D01*
X22016666Y1216667D01*
X21983333Y1283334D01*
X21916666Y1316667D01*
X21816666Y1316667D01*
X21750000Y1350000D01*
X21716666Y1416667D01*
X21716666Y1450000D01*
X21750000Y1516667D01*
X21816666Y1550000D01*
X21916666Y1550000D01*
X21983333Y1516667D01*
X22250000Y1550000D02*
X22416666Y1083334D01*
X22583333Y1550000D02*
X22416666Y1083334D01*
X22350000Y916667D01*
X22316666Y883334D01*
X22250000Y850000D01*
X22850000Y1550000D02*
X22850000Y1083334D01*
X22850000Y1483334D02*
X22883333Y1516667D01*
X22950000Y1550000D01*
X23050000Y1550000D01*
X23116666Y1516667D01*
X23150000Y1450000D01*
X23150000Y1083334D01*
X23383333Y1550000D02*
X23650000Y1550000D01*
X23483333Y1783334D02*
X23483333Y1183334D01*
X23516666Y1116667D01*
X23583333Y1083334D01*
X23650000Y1083334D01*
X23883333Y1083334D02*
X23883333Y1783334D01*
X24183333Y1083334D02*
X24183333Y1450000D01*
X24150000Y1516667D01*
X24083333Y1550000D01*
X23983333Y1550000D01*
X23916666Y1516667D01*
X23883333Y1483334D01*
X24483333Y1116667D02*
X24550000Y1083334D01*
X24683333Y1083334D01*
X24750000Y1116667D01*
X24783333Y1183334D01*
X24783333Y1216667D01*
X24750000Y1283334D01*
X24683333Y1316667D01*
X24583333Y1316667D01*
X24516666Y1350000D01*
X24483333Y1416667D01*
X24483333Y1450000D01*
X24516666Y1516667D01*
X24583333Y1550000D01*
X24683333Y1550000D01*
X24750000Y1516667D01*
X25083333Y1150000D02*
X25116666Y1116667D01*
X25083333Y1083334D01*
X25050000Y1116667D01*
X25083333Y1150000D01*
X25083333Y1083334D01*
X25516666Y1083334D02*
X25450000Y1116667D01*
X25416666Y1183334D01*
X25416666Y1783334D01*
X25716666Y1550000D02*
X25883333Y1083334D01*
X26050000Y1550000D01*
X1500000Y81683334D02*
X1100000Y81683334D01*
X1300000Y81683334D02*
X1300000Y82383334D01*
X1233333Y82283334D01*
X1166666Y82216667D01*
X1100000Y82183334D01*
X28000000Y81683334D02*
X27600000Y81683334D01*
X27800000Y81683334D02*
X27800000Y82383334D01*
X27733333Y82283334D01*
X27666666Y82216667D01*
X27600000Y82183334D01*
X26200000Y20483334D02*
X25800000Y20483334D01*
X26000000Y20483334D02*
X26000000Y21183334D01*
X25933333Y21083334D01*
X25866666Y21016667D01*
X25800000Y20983334D01*
X1500000Y22183334D02*
X1100000Y22183334D01*
X1300000Y22183334D02*
X1300000Y22883334D01*
X1233333Y22783334D01*
X1166666Y22716667D01*
X1100000Y22683334D01*
X2583500Y6566500D02*
X2583500Y21933500D01*
X2583500Y21933500D02*
X551500Y21933500D01*
X551500Y21933500D02*
X-83500Y21298500D01*
X-83500Y21298500D02*
X-83500Y6566500D01*
X-83500Y6566500D02*
X2583500Y6566500D01*
X2583500Y66066500D02*
X2583500Y81433500D01*
X2583500Y81433500D02*
X551500Y81433500D01*
X551500Y81433500D02*
X-83500Y80798500D01*
X-83500Y80798500D02*
X-83500Y66066500D01*
X-83500Y66066500D02*
X2583500Y66066500D01*
X29083500Y6566500D02*
X29083500Y21933500D01*
X29083500Y21933500D02*
X27051500Y21933500D01*
X27051500Y21933500D02*
X26416500Y21298500D01*
X26416500Y21298500D02*
X26416500Y6566500D01*
X26416500Y6566500D02*
X29083500Y6566500D01*
X29083500Y66066500D02*
X29083500Y81433500D01*
X29083500Y81433500D02*
X27051500Y81433500D01*
X27051500Y81433500D02*
X26416500Y80798500D01*
X26416500Y80798500D02*
X26416500Y66066500D01*
X26416500Y66066500D02*
X29083500Y66066500D01*
X2783333Y19783334D02*
X3250000Y19083334D01*
X3250000Y19783334D02*
X2783333Y19083334D01*
X3516666Y19083334D02*
X3516666Y19783334D01*
X3783333Y19783334D01*
X3850000Y19750000D01*
X3883333Y19716667D01*
X3916666Y19650000D01*
X3916666Y19550000D01*
X3883333Y19483334D01*
X3850000Y19450000D01*
X3783333Y19416667D01*
X3516666Y19416667D01*
X4183333Y19716667D02*
X4216666Y19750000D01*
X4283333Y19783334D01*
X4450000Y19783334D01*
X4516666Y19750000D01*
X4550000Y19716667D01*
X4583333Y19650000D01*
X4583333Y19583334D01*
X4550000Y19483334D01*
X4150000Y19083334D01*
X4583333Y19083334D01*
X483333Y65683334D02*
X950000Y64983334D01*
X950000Y65683334D02*
X483333Y64983334D01*
X1216666Y64983334D02*
X1216666Y65683334D01*
X1483333Y65683334D01*
X1550000Y65650000D01*
X1583333Y65616667D01*
X1616666Y65550000D01*
X1616666Y65450000D01*
X1583333Y65383334D01*
X1550000Y65350000D01*
X1483333Y65316667D01*
X1216666Y65316667D01*
X1850000Y65683334D02*
X2283333Y65683334D01*
X2050000Y65416667D01*
X2150000Y65416667D01*
X2216666Y65383334D01*
X2250000Y65350000D01*
X2283333Y65283334D01*
X2283333Y65116667D01*
X2250000Y65050000D01*
X2216666Y65016667D01*
X2150000Y64983334D01*
X1950000Y64983334D01*
X1883333Y65016667D01*
X1850000Y65050000D01*
X26783333Y6283334D02*
X27250000Y5583334D01*
X27250000Y6283334D02*
X26783333Y5583334D01*
X27516666Y5583334D02*
X27516666Y6283334D01*
X27783333Y6283334D01*
X27850000Y6250000D01*
X27883333Y6216667D01*
X27916666Y6150000D01*
X27916666Y6050000D01*
X27883333Y5983334D01*
X27850000Y5950000D01*
X27783333Y5916667D01*
X27516666Y5916667D01*
X28516666Y6050000D02*
X28516666Y5583334D01*
X28350000Y6316667D02*
X28183333Y5816667D01*
X28616666Y5816667D01*
X26683333Y65783334D02*
X27150000Y65083334D01*
X27150000Y65783334D02*
X26683333Y65083334D01*
X27416666Y65083334D02*
X27416666Y65783334D01*
X27683333Y65783334D01*
X27750000Y65750000D01*
X27783333Y65716667D01*
X27816666Y65650000D01*
X27816666Y65550000D01*
X27783333Y65483334D01*
X27750000Y65450000D01*
X27683333Y65416667D01*
X27416666Y65416667D01*
X28450000Y65783334D02*
X28116666Y65783334D01*
X28083333Y65450000D01*
X28116666Y65483334D01*
X28183333Y65516667D01*
X28350000Y65516667D01*
X28416666Y65483334D01*
X28450000Y65450000D01*
X28483333Y65383334D01*
X28483333Y65216667D01*
X28450000Y65150000D01*
X28416666Y65116667D01*
X28350000Y65083334D01*
X28183333Y65083334D01*
X28116666Y65116667D01*
X28083333Y65150000D01*
M02*
