G04 #@! TF.FileFunction,Copper,L2,Bot,Signal*
%FSLAX46Y46*%
G04 Gerber Fmt 4.6, Leading zero omitted, Abs format (unit mm)*
G04 Created by KiCad (PCBNEW (2016-08-20 BZR 7083)-product) date Sun Feb  5 21:12:02 2017*
%MOMM*%
%LPD*%
G01*
G04 APERTURE LIST*
%ADD10C,0.100000*%
%ADD11C,6.000000*%
%ADD12C,1.200000*%
%ADD13R,1.200000X1.200000*%
%ADD14R,1.400000X1.400000*%
%ADD15C,1.400000*%
%ADD16C,2.000000*%
%ADD17O,2.000000X3.000000*%
%ADD18C,1.600000*%
%ADD19C,1.800000*%
%ADD20R,1.600000X1.600000*%
%ADD21O,2.600000X1.600000*%
%ADD22C,3.000000*%
%ADD23C,0.900000*%
%ADD24C,0.300000*%
%ADD25C,0.500000*%
G04 APERTURE END LIST*
D10*
D11*
X5800000Y37800000D03*
D12*
X4730000Y28000000D03*
D13*
X7270000Y28000000D03*
D14*
X4850000Y17000000D03*
D15*
X2350000Y17000000D03*
D14*
X2350000Y23500000D03*
D15*
X4850000Y23500000D03*
D12*
X9300000Y6240000D03*
X9300000Y1160000D03*
X7300000Y1160000D03*
X7300000Y6240000D03*
X25440000Y22500000D03*
X20360000Y22500000D03*
D16*
X4800000Y2520000D03*
X4800000Y12680000D03*
X1800000Y2520000D03*
X1800000Y12680000D03*
X18300000Y30600000D03*
X8300000Y30600000D03*
X21000000Y33900000D03*
X21000000Y43900000D03*
X24000000Y33900000D03*
X24000000Y43900000D03*
X16500000Y66800000D03*
X16500000Y76800000D03*
X12500000Y66800000D03*
X12500000Y76800000D03*
D17*
X19500000Y98500000D03*
X9500000Y98500000D03*
D18*
X17000000Y91000000D03*
X14500000Y91000000D03*
X12000000Y91000000D03*
X12000000Y88500000D03*
X14500000Y88500000D03*
X17000000Y88500000D03*
D19*
X25250000Y31250000D03*
X25250000Y24750000D03*
X20750000Y31250000D03*
X20750000Y24750000D03*
D18*
X17300000Y27900000D03*
X9700000Y27900000D03*
X10800000Y43500000D03*
X18400000Y43500000D03*
X18400000Y33900000D03*
X18400000Y41500000D03*
X12500000Y64500000D03*
X12500000Y56900000D03*
D12*
X4730000Y56500000D03*
D13*
X7270000Y56500000D03*
D12*
X21730000Y56500000D03*
D13*
X24270000Y56500000D03*
D12*
X13230000Y80000000D03*
D13*
X15770000Y80000000D03*
D18*
X24830000Y13680000D03*
X27370000Y13680000D03*
X27370000Y11140000D03*
D20*
X24830000Y3520000D03*
D18*
X27370000Y3520000D03*
X24830000Y6060000D03*
X27370000Y6060000D03*
X24830000Y8600000D03*
X27370000Y8600000D03*
X24830000Y11140000D03*
D21*
X14500000Y35460000D03*
X14500000Y40540000D03*
X14500000Y38000000D03*
D16*
X11920000Y4500000D03*
X22080000Y4500000D03*
X22080000Y1600000D03*
X11920000Y1600000D03*
D18*
X1250000Y89400000D03*
X1250000Y91940000D03*
X1250000Y94480000D03*
X1250000Y97020000D03*
D20*
X1250000Y102100000D03*
D18*
X1250000Y99560000D03*
X1250000Y29900000D03*
X1250000Y32440000D03*
X1250000Y34980000D03*
X1250000Y37520000D03*
D20*
X1250000Y42600000D03*
D18*
X1250000Y40060000D03*
X27750000Y29900000D03*
X27750000Y32440000D03*
X27750000Y34980000D03*
X27750000Y37520000D03*
D20*
X27750000Y42600000D03*
D18*
X27750000Y40060000D03*
X27750000Y89400000D03*
X27750000Y91940000D03*
X27750000Y94480000D03*
X27750000Y97020000D03*
D20*
X27750000Y102100000D03*
D18*
X27750000Y99560000D03*
D16*
X9302000Y50000000D03*
X1174000Y50000000D03*
X12350000Y50000000D03*
X19698000Y50000000D03*
X27826000Y50000000D03*
X16650000Y50000000D03*
X6000000Y76698000D03*
X6000000Y84826000D03*
X6000000Y73650000D03*
X6000000Y68302000D03*
X6000000Y60174000D03*
X6000000Y71350000D03*
X23000000Y68302000D03*
X23000000Y60174000D03*
X23000000Y71350000D03*
X23000000Y76698000D03*
X23000000Y84826000D03*
X23000000Y73650000D03*
D22*
X17500000Y25000000D03*
X11500000Y25000000D03*
D16*
X15200000Y46000000D03*
X12200000Y46000000D03*
X5700000Y43800000D03*
X8700000Y43800000D03*
D23*
X10800000Y39600000D03*
X11700000Y42100000D03*
X10400000Y46500000D03*
X9300000Y75300000D03*
X28000000Y1200000D03*
X24100000Y1200000D03*
X13800000Y3200000D03*
X19800000Y3500000D03*
X21800000Y8700000D03*
X1100000Y4300000D03*
X1200000Y10700000D03*
X5300000Y5000000D03*
X8600000Y21600000D03*
X11500000Y27600000D03*
X15700000Y26600000D03*
X14500000Y24000000D03*
X27600000Y23000000D03*
X24300000Y18300000D03*
X22900000Y27800000D03*
X13600000Y29100000D03*
X16700000Y33000000D03*
X22400000Y35500000D03*
X26100000Y36200000D03*
X25600000Y42000000D03*
X20800000Y36500000D03*
X25600000Y38900000D03*
X26100000Y33200000D03*
X12500000Y32800000D03*
X5900000Y31900000D03*
X24900000Y48600000D03*
X26800000Y48500000D03*
X24900000Y54500000D03*
X23400000Y50400000D03*
X21300000Y51300000D03*
X23100000Y45800000D03*
X28100000Y45900000D03*
X8700000Y51900000D03*
X1300000Y52500000D03*
X6400000Y45800000D03*
X3000000Y44000000D03*
X2800000Y48600000D03*
X1700000Y65000000D03*
X1400000Y77900000D03*
X4300000Y82800000D03*
X7600000Y88400000D03*
X7600000Y83500000D03*
X27500000Y52000000D03*
X24400000Y61900000D03*
X27400000Y67000000D03*
X27700000Y77800000D03*
X23900000Y82400000D03*
X24200000Y86400000D03*
X21800000Y89100000D03*
X17300000Y86500000D03*
X21000000Y58900000D03*
X18800000Y66300000D03*
X17000000Y54300000D03*
X16400000Y59200000D03*
X14600000Y65000000D03*
X7900000Y60400000D03*
X9600000Y66700000D03*
X14600000Y68900000D03*
X19600000Y72700000D03*
X19700000Y81500000D03*
X19800000Y90500000D03*
X24800000Y95500000D03*
X27400000Y104500000D03*
X18400000Y92500000D03*
X14800000Y98400000D03*
X11000000Y103200000D03*
X2600000Y93200000D03*
X10300000Y88900000D03*
X6500000Y95300000D03*
X10300000Y91500000D03*
X1200000Y104700000D03*
X2800000Y100700000D03*
X11500000Y92700000D03*
X24700000Y50000000D03*
X3700000Y29800000D03*
X2600000Y30900000D03*
X12100000Y30300000D03*
D24*
X10800000Y39600000D02*
X10800000Y41200000D01*
X12400000Y38000000D02*
X10800000Y39600000D01*
X14500000Y38000000D02*
X12400000Y38000000D01*
X10800000Y41200000D02*
X11700000Y42100000D01*
X13230000Y80000000D02*
X9300000Y76070000D01*
X9300000Y76070000D02*
X9300000Y75300000D01*
X24830000Y6060000D02*
X26200000Y4690000D01*
X25000000Y1200000D02*
X24100000Y1200000D01*
X26200000Y2400000D02*
X25000000Y1200000D01*
X26200000Y4690000D02*
X26200000Y2400000D01*
X24830000Y6060000D02*
X22190000Y8700000D01*
X19500000Y3200000D02*
X13800000Y3200000D01*
X19800000Y3500000D02*
X19500000Y3200000D01*
X22190000Y8700000D02*
X21800000Y8700000D01*
X7300000Y1160000D02*
X7300000Y3000000D01*
X1200000Y4400000D02*
X1100000Y4300000D01*
X1200000Y10700000D02*
X1200000Y4400000D01*
X7300000Y3000000D02*
X5300000Y5000000D01*
X9300000Y1160000D02*
X9960000Y500000D01*
X9960000Y500000D02*
X10100000Y500000D01*
X7300000Y1160000D02*
X9300000Y1160000D01*
X7300000Y1160000D02*
X6640000Y500000D01*
X6640000Y500000D02*
X6300000Y500000D01*
X20360000Y22500000D02*
X16000000Y22500000D01*
X12500000Y26600000D02*
X11500000Y27600000D01*
X15700000Y26600000D02*
X12500000Y26600000D01*
X16000000Y22500000D02*
X14500000Y24000000D01*
X26700000Y28850000D02*
X26700000Y23900000D01*
X26700000Y23900000D02*
X27600000Y23000000D01*
X27750000Y29900000D02*
X26700000Y28850000D01*
X13600000Y29900000D02*
X13600000Y29100000D01*
X16700000Y33000000D02*
X13600000Y29900000D01*
X26100000Y33200000D02*
X26100000Y36200000D01*
X21800000Y35500000D02*
X22400000Y35500000D01*
X25600000Y42000000D02*
X25600000Y38900000D01*
X20800000Y36500000D02*
X21800000Y35500000D01*
X4730000Y28000000D02*
X5900000Y29170000D01*
X12500000Y32800000D02*
X12600000Y32800000D01*
X5900000Y29170000D02*
X5900000Y31900000D01*
X24900000Y48600000D02*
X25000000Y48500000D01*
X25000000Y48500000D02*
X26800000Y48500000D01*
X24900000Y48600000D02*
X27600000Y45900000D01*
X24900000Y47600000D02*
X24900000Y48600000D01*
X23400000Y50400000D02*
X23100000Y50100000D01*
X24500000Y54500000D02*
X24900000Y54500000D01*
X21300000Y51300000D02*
X24500000Y54500000D01*
X23100000Y50100000D02*
X23100000Y45800000D01*
X23100000Y45800000D02*
X24900000Y47600000D01*
X27600000Y45900000D02*
X28100000Y45900000D01*
X12350000Y50000000D02*
X10450000Y51900000D01*
X10450000Y51900000D02*
X8700000Y51900000D01*
X6400000Y45800000D02*
X5600000Y45800000D01*
X1300000Y53070000D02*
X1300000Y52500000D01*
X4730000Y56500000D02*
X1300000Y53070000D01*
X3000000Y44000000D02*
X2900000Y44000000D01*
X5600000Y45800000D02*
X2800000Y48600000D01*
X1700000Y59530000D02*
X4730000Y56500000D01*
X1700000Y65000000D02*
X1700000Y59530000D01*
X4300000Y80800000D02*
X1400000Y77900000D01*
X4300000Y82800000D02*
X4300000Y80800000D01*
X27750000Y29900000D02*
X28600000Y30750000D01*
X28600000Y30750000D02*
X28600000Y30900000D01*
X27750000Y29900000D02*
X28600000Y29050000D01*
X28600000Y29050000D02*
X28600000Y28800000D01*
X1250000Y29900000D02*
X500000Y29150000D01*
X500000Y29150000D02*
X500000Y28900000D01*
X27750000Y94480000D02*
X28500000Y95230000D01*
X28500000Y95230000D02*
X28500000Y95500000D01*
X27750000Y94480000D02*
X28500000Y93730000D01*
X28500000Y93730000D02*
X28500000Y93300000D01*
X27750000Y99560000D02*
X28500000Y100310000D01*
X28500000Y100310000D02*
X28500000Y100500000D01*
X27750000Y99560000D02*
X28500000Y98810000D01*
X28500000Y98810000D02*
X28500000Y98300000D01*
X1250000Y97020000D02*
X400000Y97870000D01*
X400000Y97870000D02*
X400000Y98300000D01*
X1250000Y97020000D02*
X400000Y96170000D01*
X400000Y96170000D02*
X400000Y95800000D01*
X1250000Y89400000D02*
X500000Y90150000D01*
X500000Y90150000D02*
X500000Y90700000D01*
X1250000Y89400000D02*
X500000Y88650000D01*
X500000Y88650000D02*
X500000Y88400000D01*
X13230000Y80000000D02*
X11100000Y80000000D01*
X11100000Y80000000D02*
X7600000Y83500000D01*
X27400000Y64900000D02*
X24400000Y61900000D01*
X27400000Y67000000D02*
X27400000Y64900000D01*
X23900000Y81600000D02*
X27700000Y77800000D01*
X23900000Y82400000D02*
X23900000Y81600000D01*
X21800000Y88800000D02*
X24200000Y86400000D01*
X21800000Y89100000D02*
X21800000Y88800000D01*
X18800000Y61100000D02*
X21000000Y58900000D01*
X18800000Y66300000D02*
X18800000Y61100000D01*
X17000000Y54300000D02*
X16400000Y54900000D01*
X15100000Y54300000D02*
X17000000Y54300000D01*
X12500000Y56900000D02*
X15100000Y54300000D01*
X16400000Y54900000D02*
X16400000Y59200000D01*
X27750000Y99560000D02*
X24800000Y96610000D01*
X9600000Y62100000D02*
X7900000Y60400000D01*
X9600000Y66700000D02*
X9600000Y62100000D01*
X15800000Y68900000D02*
X14600000Y68900000D01*
X19600000Y72700000D02*
X15800000Y68900000D01*
X19800000Y81600000D02*
X19700000Y81500000D01*
X19800000Y90500000D02*
X19800000Y81600000D01*
X24800000Y96610000D02*
X24800000Y95500000D01*
X19500000Y98500000D02*
X19500000Y93600000D01*
X19500000Y93600000D02*
X18400000Y92500000D01*
X9500000Y98500000D02*
X9500000Y101700000D01*
X9500000Y101700000D02*
X11000000Y103200000D01*
X10300000Y91500000D02*
X10300000Y88900000D01*
X11500000Y92700000D02*
X10300000Y91500000D01*
X9500000Y98500000D02*
X9500000Y94700000D01*
X1800000Y104700000D02*
X1200000Y104700000D01*
X2800000Y103700000D02*
X1800000Y104700000D01*
X2800000Y100700000D02*
X2800000Y103700000D01*
X9500000Y94700000D02*
X11500000Y92700000D01*
X24700000Y50000000D02*
X27826000Y50000000D01*
D25*
X3700000Y31900000D02*
X5700000Y33900000D01*
X3700000Y31900000D02*
X3700000Y29800000D01*
X2460000Y40060000D02*
X1250000Y40060000D01*
X4000000Y41600000D02*
X2460000Y40060000D01*
X7800000Y41600000D02*
X4000000Y41600000D01*
X9700000Y39700000D02*
X7800000Y41600000D01*
X9700000Y35700000D02*
X9700000Y39700000D01*
X7900000Y33900000D02*
X9700000Y35700000D01*
X5700000Y33900000D02*
X7900000Y33900000D01*
X2600000Y36170000D02*
X2600000Y30900000D01*
X1250000Y37520000D02*
X2600000Y36170000D01*
D24*
X8470000Y29200000D02*
X7270000Y28000000D01*
X11000000Y29200000D02*
X8470000Y29200000D01*
X12100000Y30300000D02*
X11000000Y29200000D01*
G36*
X28580000Y103271281D02*
X28550000Y103277248D01*
X26950000Y103277248D01*
X26805633Y103248532D01*
X26683245Y103166755D01*
X26601468Y103044367D01*
X26572752Y102900000D01*
X26572752Y101300000D01*
X26601468Y101155633D01*
X26683245Y101033245D01*
X26805633Y100951468D01*
X26950000Y100922752D01*
X28550000Y100922752D01*
X28580000Y100928719D01*
X28580000Y100402731D01*
X28575057Y100397788D01*
X28502614Y100611196D01*
X28043050Y100819191D01*
X27538871Y100835486D01*
X27066836Y100657599D01*
X26997386Y100611196D01*
X26924942Y100397786D01*
X27750000Y99572728D01*
X27764142Y99586870D01*
X27776870Y99574142D01*
X27762728Y99560000D01*
X27776870Y99545858D01*
X27764142Y99533130D01*
X27750000Y99547272D01*
X26924942Y98722214D01*
X26997386Y98508804D01*
X27456950Y98300809D01*
X27961129Y98284514D01*
X28433164Y98462401D01*
X28502614Y98508804D01*
X28575057Y98722212D01*
X28580000Y98717269D01*
X28580000Y97844626D01*
X28413617Y98011300D01*
X27983748Y98189797D01*
X27518294Y98190203D01*
X27088114Y98012456D01*
X26758700Y97683617D01*
X26580203Y97253748D01*
X26579797Y96788294D01*
X26757544Y96358114D01*
X27086383Y96028700D01*
X27516252Y95850203D01*
X27981706Y95849797D01*
X28411886Y96027544D01*
X28580000Y96195365D01*
X28580000Y95322731D01*
X28575057Y95317788D01*
X28502614Y95531196D01*
X28043050Y95739191D01*
X27538871Y95755486D01*
X27066836Y95577599D01*
X26997386Y95531196D01*
X26924942Y95317786D01*
X27750000Y94492728D01*
X27764142Y94506870D01*
X27776870Y94494142D01*
X27762728Y94480000D01*
X27776870Y94465858D01*
X27764142Y94453130D01*
X27750000Y94467272D01*
X26924942Y93642214D01*
X26997386Y93428804D01*
X27456950Y93220809D01*
X27961129Y93204514D01*
X28433164Y93382401D01*
X28502614Y93428804D01*
X28575057Y93642212D01*
X28580000Y93637269D01*
X28580000Y92764626D01*
X28413617Y92931300D01*
X27983748Y93109797D01*
X27518294Y93110203D01*
X27088114Y92932456D01*
X26758700Y92603617D01*
X26580203Y92173748D01*
X26579797Y91708294D01*
X26757544Y91278114D01*
X27086383Y90948700D01*
X27516252Y90770203D01*
X27981706Y90769797D01*
X28411886Y90947544D01*
X28580000Y91115365D01*
X28580000Y90242731D01*
X28575057Y90237788D01*
X28502614Y90451196D01*
X28043050Y90659191D01*
X27538871Y90675486D01*
X27066836Y90497599D01*
X26997386Y90451196D01*
X26924942Y90237786D01*
X27750000Y89412728D01*
X27764142Y89426870D01*
X27776870Y89414142D01*
X27762728Y89400000D01*
X27776870Y89385858D01*
X27764142Y89373130D01*
X27750000Y89387272D01*
X26924942Y88562214D01*
X26997386Y88348804D01*
X27456950Y88140809D01*
X27961129Y88124514D01*
X28433164Y88302401D01*
X28502614Y88348804D01*
X28575057Y88562212D01*
X28580000Y88557269D01*
X28580000Y51170326D01*
X28099705Y51369762D01*
X27554686Y51370237D01*
X27050971Y51162107D01*
X26665248Y50777056D01*
X26558509Y50520000D01*
X25339552Y50520000D01*
X25165099Y50694757D01*
X24863824Y50819858D01*
X24537607Y50820142D01*
X24236114Y50695568D01*
X24005243Y50465099D01*
X23880142Y50163824D01*
X23879858Y49837607D01*
X24004432Y49536114D01*
X24234901Y49305243D01*
X24536176Y49180142D01*
X24862393Y49179858D01*
X25163886Y49304432D01*
X25339760Y49480000D01*
X26558518Y49480000D01*
X26663893Y49224971D01*
X27048944Y48839248D01*
X27552295Y48630238D01*
X28097314Y48629763D01*
X28580000Y48829204D01*
X28580000Y43771281D01*
X28550000Y43777248D01*
X26950000Y43777248D01*
X26805633Y43748532D01*
X26683245Y43666755D01*
X26601468Y43544367D01*
X26572752Y43400000D01*
X26572752Y41800000D01*
X26601468Y41655633D01*
X26683245Y41533245D01*
X26805633Y41451468D01*
X26950000Y41422752D01*
X28550000Y41422752D01*
X28580000Y41428719D01*
X28580000Y40884626D01*
X28413617Y41051300D01*
X27983748Y41229797D01*
X27518294Y41230203D01*
X27088114Y41052456D01*
X26758700Y40723617D01*
X26580203Y40293748D01*
X26579797Y39828294D01*
X26757544Y39398114D01*
X27086383Y39068700D01*
X27516252Y38890203D01*
X27981706Y38889797D01*
X28411886Y39067544D01*
X28580000Y39235365D01*
X28580000Y38344626D01*
X28413617Y38511300D01*
X27983748Y38689797D01*
X27518294Y38690203D01*
X27088114Y38512456D01*
X26758700Y38183617D01*
X26580203Y37753748D01*
X26579797Y37288294D01*
X26757544Y36858114D01*
X27086383Y36528700D01*
X27516252Y36350203D01*
X27981706Y36349797D01*
X28411886Y36527544D01*
X28580000Y36695365D01*
X28580000Y35804626D01*
X28413617Y35971300D01*
X27983748Y36149797D01*
X27518294Y36150203D01*
X27088114Y35972456D01*
X26758700Y35643617D01*
X26580203Y35213748D01*
X26579797Y34748294D01*
X26757544Y34318114D01*
X27086383Y33988700D01*
X27516252Y33810203D01*
X27981706Y33809797D01*
X28411886Y33987544D01*
X28580000Y34155365D01*
X28580000Y33264626D01*
X28413617Y33431300D01*
X27983748Y33609797D01*
X27518294Y33610203D01*
X27088114Y33432456D01*
X26758700Y33103617D01*
X26580203Y32673748D01*
X26579797Y32208294D01*
X26757544Y31778114D01*
X27086383Y31448700D01*
X27516252Y31270203D01*
X27981706Y31269797D01*
X28411886Y31447544D01*
X28580000Y31615365D01*
X28580000Y30742731D01*
X28575057Y30737788D01*
X28502614Y30951196D01*
X28043050Y31159191D01*
X27538871Y31175486D01*
X27066836Y30997599D01*
X26997386Y30951196D01*
X26924942Y30737786D01*
X27750000Y29912728D01*
X27764142Y29926870D01*
X27776870Y29914142D01*
X27762728Y29900000D01*
X27776870Y29885858D01*
X27764142Y29873130D01*
X27750000Y29887272D01*
X26924942Y29062214D01*
X26997386Y28848804D01*
X27456950Y28640809D01*
X27961129Y28624514D01*
X28433164Y28802401D01*
X28502614Y28848804D01*
X28575057Y29062212D01*
X28580000Y29057269D01*
X28580000Y11524900D01*
X28467599Y11823164D01*
X28421196Y11892614D01*
X28207786Y11965058D01*
X27382728Y11140000D01*
X28207786Y10314942D01*
X28421196Y10387386D01*
X28580000Y10738263D01*
X28580000Y8984900D01*
X28467599Y9283164D01*
X28421196Y9352614D01*
X28207786Y9425058D01*
X27382728Y8600000D01*
X28207786Y7774942D01*
X28421196Y7847386D01*
X28580000Y8198263D01*
X28580000Y6444900D01*
X28467599Y6743164D01*
X28421196Y6812614D01*
X28207786Y6885058D01*
X27382728Y6060000D01*
X28207786Y5234942D01*
X28421196Y5307386D01*
X28580000Y5658263D01*
X28580000Y420000D01*
X22811724Y420000D01*
X22855029Y437893D01*
X23240752Y822944D01*
X23449762Y1326295D01*
X23450237Y1871314D01*
X23242107Y2375029D01*
X22857056Y2760752D01*
X22353705Y2969762D01*
X21808686Y2970237D01*
X21304971Y2762107D01*
X20919248Y2377056D01*
X20710238Y1873705D01*
X20709763Y1328686D01*
X20917893Y824971D01*
X21302944Y439248D01*
X21349298Y420000D01*
X12651724Y420000D01*
X12695029Y437893D01*
X13080752Y822944D01*
X13289762Y1326295D01*
X13290237Y1871314D01*
X13082107Y2375029D01*
X12697056Y2760752D01*
X12193705Y2969762D01*
X11648686Y2970237D01*
X11144971Y2762107D01*
X10759248Y2377056D01*
X10550238Y1873705D01*
X10549763Y1328686D01*
X10757893Y824971D01*
X11142944Y439248D01*
X11189298Y420000D01*
X10052731Y420000D01*
X9993590Y479141D01*
X10186217Y527250D01*
X10360901Y914555D01*
X10374073Y1339228D01*
X10223726Y1736614D01*
X10186217Y1792750D01*
X9993588Y1840860D01*
X9312728Y1160000D01*
X9326870Y1145858D01*
X9314142Y1133130D01*
X9300000Y1147272D01*
X9285858Y1133130D01*
X9273130Y1145858D01*
X9287272Y1160000D01*
X8606412Y1840860D01*
X8413783Y1792750D01*
X8298876Y1537982D01*
X8223726Y1736614D01*
X8186217Y1792750D01*
X7993588Y1840860D01*
X7312728Y1160000D01*
X7326870Y1145858D01*
X7314142Y1133130D01*
X7300000Y1147272D01*
X7285858Y1133130D01*
X7273130Y1145858D01*
X7287272Y1160000D01*
X6606412Y1840860D01*
X6413783Y1792750D01*
X6239099Y1405445D01*
X6225927Y980772D01*
X6376274Y583386D01*
X6413783Y527250D01*
X6606410Y479141D01*
X6547269Y420000D01*
X420000Y420000D01*
X420000Y2248686D01*
X429763Y2248686D01*
X637893Y1744971D01*
X1022944Y1359248D01*
X1526295Y1150238D01*
X2071314Y1149763D01*
X2575029Y1357893D01*
X2960752Y1742944D01*
X3169762Y2246295D01*
X3169764Y2248686D01*
X3429763Y2248686D01*
X3637893Y1744971D01*
X4022944Y1359248D01*
X4526295Y1150238D01*
X5071314Y1149763D01*
X5575029Y1357893D01*
X5960752Y1742944D01*
X6006695Y1853588D01*
X6619140Y1853588D01*
X7300000Y1172728D01*
X7980860Y1853588D01*
X8619140Y1853588D01*
X9300000Y1172728D01*
X9980860Y1853588D01*
X9932750Y2046217D01*
X9545445Y2220901D01*
X9120772Y2234073D01*
X8723386Y2083726D01*
X8667250Y2046217D01*
X8619140Y1853588D01*
X7980860Y1853588D01*
X7932750Y2046217D01*
X7545445Y2220901D01*
X7120772Y2234073D01*
X6723386Y2083726D01*
X6667250Y2046217D01*
X6619140Y1853588D01*
X6006695Y1853588D01*
X6169762Y2246295D01*
X6170237Y2791314D01*
X5962107Y3295029D01*
X5577056Y3680752D01*
X5073705Y3889762D01*
X4528686Y3890237D01*
X4024971Y3682107D01*
X3639248Y3297056D01*
X3430238Y2793705D01*
X3429763Y2248686D01*
X3169764Y2248686D01*
X3170237Y2791314D01*
X2962107Y3295029D01*
X2577056Y3680752D01*
X2073705Y3889762D01*
X1528686Y3890237D01*
X1024971Y3682107D01*
X639248Y3297056D01*
X430238Y2793705D01*
X429763Y2248686D01*
X420000Y2248686D01*
X420000Y4228686D01*
X10549763Y4228686D01*
X10757893Y3724971D01*
X11142944Y3339248D01*
X11646295Y3130238D01*
X12191314Y3129763D01*
X12695029Y3337893D01*
X13080752Y3722944D01*
X13289762Y4226295D01*
X13289764Y4228686D01*
X20709763Y4228686D01*
X20917893Y3724971D01*
X21302944Y3339248D01*
X21806295Y3130238D01*
X22351314Y3129763D01*
X22855029Y3337893D01*
X23240752Y3722944D01*
X23449762Y4226295D01*
X23449843Y4320000D01*
X23652752Y4320000D01*
X23652752Y2720000D01*
X23681468Y2575633D01*
X23763245Y2453245D01*
X23885633Y2371468D01*
X24030000Y2342752D01*
X25630000Y2342752D01*
X25774367Y2371468D01*
X25896755Y2453245D01*
X25978532Y2575633D01*
X26007248Y2720000D01*
X26007248Y3288294D01*
X26199797Y3288294D01*
X26377544Y2858114D01*
X26706383Y2528700D01*
X27136252Y2350203D01*
X27601706Y2349797D01*
X28031886Y2527544D01*
X28361300Y2856383D01*
X28539797Y3286252D01*
X28540203Y3751706D01*
X28362456Y4181886D01*
X28033617Y4511300D01*
X27603748Y4689797D01*
X27138294Y4690203D01*
X26708114Y4512456D01*
X26378700Y4183617D01*
X26200203Y3753748D01*
X26199797Y3288294D01*
X26007248Y3288294D01*
X26007248Y4320000D01*
X25978532Y4464367D01*
X25896755Y4586755D01*
X25774367Y4668532D01*
X25630000Y4697248D01*
X24030000Y4697248D01*
X23885633Y4668532D01*
X23763245Y4586755D01*
X23681468Y4464367D01*
X23652752Y4320000D01*
X23449843Y4320000D01*
X23450237Y4771314D01*
X23263930Y5222214D01*
X24004942Y5222214D01*
X24077386Y5008804D01*
X24536950Y4800809D01*
X25041129Y4784514D01*
X25513164Y4962401D01*
X25582614Y5008804D01*
X25655058Y5222214D01*
X26544942Y5222214D01*
X26617386Y5008804D01*
X27076950Y4800809D01*
X27581129Y4784514D01*
X28053164Y4962401D01*
X28122614Y5008804D01*
X28195058Y5222214D01*
X27370000Y6047272D01*
X26544942Y5222214D01*
X25655058Y5222214D01*
X24830000Y6047272D01*
X24004942Y5222214D01*
X23263930Y5222214D01*
X23242107Y5275029D01*
X22857056Y5660752D01*
X22404017Y5848871D01*
X23554514Y5848871D01*
X23732401Y5376836D01*
X23778804Y5307386D01*
X23992214Y5234942D01*
X24817272Y6060000D01*
X24842728Y6060000D01*
X25667786Y5234942D01*
X25881196Y5307386D01*
X26089191Y5766950D01*
X26091838Y5848871D01*
X26094514Y5848871D01*
X26272401Y5376836D01*
X26318804Y5307386D01*
X26532214Y5234942D01*
X27357272Y6060000D01*
X26532214Y6885058D01*
X26318804Y6812614D01*
X26110809Y6353050D01*
X26094514Y5848871D01*
X26091838Y5848871D01*
X26105486Y6271129D01*
X25927599Y6743164D01*
X25881196Y6812614D01*
X25667786Y6885058D01*
X24842728Y6060000D01*
X24817272Y6060000D01*
X23992214Y6885058D01*
X23778804Y6812614D01*
X23570809Y6353050D01*
X23554514Y5848871D01*
X22404017Y5848871D01*
X22353705Y5869762D01*
X21808686Y5870237D01*
X21304971Y5662107D01*
X20919248Y5277056D01*
X20710238Y4773705D01*
X20709763Y4228686D01*
X13289764Y4228686D01*
X13290237Y4771314D01*
X13082107Y5275029D01*
X12697056Y5660752D01*
X12193705Y5869762D01*
X11648686Y5870237D01*
X11144971Y5662107D01*
X10759248Y5277056D01*
X10550238Y4773705D01*
X10549763Y4228686D01*
X420000Y4228686D01*
X420000Y6047902D01*
X6329832Y6047902D01*
X6477195Y5691257D01*
X6749822Y5418154D01*
X7106209Y5270169D01*
X7492098Y5269832D01*
X7848743Y5417195D01*
X8121846Y5689822D01*
X8269831Y6046209D01*
X8269832Y6047902D01*
X8329832Y6047902D01*
X8477195Y5691257D01*
X8749822Y5418154D01*
X9106209Y5270169D01*
X9492098Y5269832D01*
X9848743Y5417195D01*
X10121846Y5689822D01*
X10269831Y6046209D01*
X10270168Y6432098D01*
X10122805Y6788743D01*
X9850178Y7061846D01*
X9493791Y7209831D01*
X9107902Y7210168D01*
X8751257Y7062805D01*
X8478154Y6790178D01*
X8330169Y6433791D01*
X8329832Y6047902D01*
X8269832Y6047902D01*
X8270168Y6432098D01*
X8122805Y6788743D01*
X7850178Y7061846D01*
X7493791Y7209831D01*
X7107902Y7210168D01*
X6751257Y7062805D01*
X6478154Y6790178D01*
X6330169Y6433791D01*
X6329832Y6047902D01*
X420000Y6047902D01*
X420000Y12408686D01*
X429763Y12408686D01*
X637893Y11904971D01*
X1022944Y11519248D01*
X1526295Y11310238D01*
X2071314Y11309763D01*
X2575029Y11517893D01*
X2960752Y11902944D01*
X3169762Y12406295D01*
X3169764Y12408686D01*
X3429763Y12408686D01*
X3637893Y11904971D01*
X4022944Y11519248D01*
X4526295Y11310238D01*
X5071314Y11309763D01*
X5575029Y11517893D01*
X5960752Y11902944D01*
X6169762Y12406295D01*
X6170237Y12951314D01*
X5962107Y13455029D01*
X5577056Y13840752D01*
X5193545Y14000000D01*
X6064390Y14000000D01*
X6706513Y10771832D01*
X8535123Y8035123D01*
X11271832Y6206513D01*
X14500000Y5564390D01*
X17728168Y6206513D01*
X18762731Y6897786D01*
X24004942Y6897786D01*
X24830000Y6072728D01*
X25655058Y6897786D01*
X26544942Y6897786D01*
X27370000Y6072728D01*
X28195058Y6897786D01*
X28122614Y7111196D01*
X27663050Y7319191D01*
X27158871Y7335486D01*
X26686836Y7157599D01*
X26617386Y7111196D01*
X26544942Y6897786D01*
X25655058Y6897786D01*
X25582614Y7111196D01*
X25123050Y7319191D01*
X24618871Y7335486D01*
X24146836Y7157599D01*
X24077386Y7111196D01*
X24004942Y6897786D01*
X18762731Y6897786D01*
X20056439Y7762214D01*
X24004942Y7762214D01*
X24077386Y7548804D01*
X24536950Y7340809D01*
X25041129Y7324514D01*
X25513164Y7502401D01*
X25582614Y7548804D01*
X25655058Y7762214D01*
X26544942Y7762214D01*
X26617386Y7548804D01*
X27076950Y7340809D01*
X27581129Y7324514D01*
X28053164Y7502401D01*
X28122614Y7548804D01*
X28195058Y7762214D01*
X27370000Y8587272D01*
X26544942Y7762214D01*
X25655058Y7762214D01*
X24830000Y8587272D01*
X24004942Y7762214D01*
X20056439Y7762214D01*
X20464877Y8035123D01*
X20701243Y8388871D01*
X23554514Y8388871D01*
X23732401Y7916836D01*
X23778804Y7847386D01*
X23992214Y7774942D01*
X24817272Y8600000D01*
X24842728Y8600000D01*
X25667786Y7774942D01*
X25881196Y7847386D01*
X26089191Y8306950D01*
X26091838Y8388871D01*
X26094514Y8388871D01*
X26272401Y7916836D01*
X26318804Y7847386D01*
X26532214Y7774942D01*
X27357272Y8600000D01*
X26532214Y9425058D01*
X26318804Y9352614D01*
X26110809Y8893050D01*
X26094514Y8388871D01*
X26091838Y8388871D01*
X26105486Y8811129D01*
X25927599Y9283164D01*
X25881196Y9352614D01*
X25667786Y9425058D01*
X24842728Y8600000D01*
X24817272Y8600000D01*
X23992214Y9425058D01*
X23778804Y9352614D01*
X23570809Y8893050D01*
X23554514Y8388871D01*
X20701243Y8388871D01*
X21402105Y9437786D01*
X24004942Y9437786D01*
X24830000Y8612728D01*
X25655058Y9437786D01*
X26544942Y9437786D01*
X27370000Y8612728D01*
X28195058Y9437786D01*
X28122614Y9651196D01*
X27663050Y9859191D01*
X27158871Y9875486D01*
X26686836Y9697599D01*
X26617386Y9651196D01*
X26544942Y9437786D01*
X25655058Y9437786D01*
X25582614Y9651196D01*
X25123050Y9859191D01*
X24618871Y9875486D01*
X24146836Y9697599D01*
X24077386Y9651196D01*
X24004942Y9437786D01*
X21402105Y9437786D01*
X21979697Y10302214D01*
X24004942Y10302214D01*
X24077386Y10088804D01*
X24536950Y9880809D01*
X25041129Y9864514D01*
X25513164Y10042401D01*
X25582614Y10088804D01*
X25655058Y10302214D01*
X26544942Y10302214D01*
X26617386Y10088804D01*
X27076950Y9880809D01*
X27581129Y9864514D01*
X28053164Y10042401D01*
X28122614Y10088804D01*
X28195058Y10302214D01*
X27370000Y11127272D01*
X26544942Y10302214D01*
X25655058Y10302214D01*
X24830000Y11127272D01*
X24004942Y10302214D01*
X21979697Y10302214D01*
X22293487Y10771832D01*
X22324724Y10928871D01*
X23554514Y10928871D01*
X23732401Y10456836D01*
X23778804Y10387386D01*
X23992214Y10314942D01*
X24817272Y11140000D01*
X24842728Y11140000D01*
X25667786Y10314942D01*
X25881196Y10387386D01*
X26089191Y10846950D01*
X26091838Y10928871D01*
X26094514Y10928871D01*
X26272401Y10456836D01*
X26318804Y10387386D01*
X26532214Y10314942D01*
X27357272Y11140000D01*
X26532214Y11965058D01*
X26318804Y11892614D01*
X26110809Y11433050D01*
X26094514Y10928871D01*
X26091838Y10928871D01*
X26105486Y11351129D01*
X25927599Y11823164D01*
X25881196Y11892614D01*
X25667786Y11965058D01*
X24842728Y11140000D01*
X24817272Y11140000D01*
X23992214Y11965058D01*
X23778804Y11892614D01*
X23570809Y11433050D01*
X23554514Y10928871D01*
X22324724Y10928871D01*
X22533366Y11977786D01*
X24004942Y11977786D01*
X24830000Y11152728D01*
X25655058Y11977786D01*
X26544942Y11977786D01*
X27370000Y11152728D01*
X28195058Y11977786D01*
X28122614Y12191196D01*
X27663050Y12399191D01*
X27158871Y12415486D01*
X26686836Y12237599D01*
X26617386Y12191196D01*
X26544942Y11977786D01*
X25655058Y11977786D01*
X25582614Y12191196D01*
X25123050Y12399191D01*
X24618871Y12415486D01*
X24146836Y12237599D01*
X24077386Y12191196D01*
X24004942Y11977786D01*
X22533366Y11977786D01*
X22825868Y13448294D01*
X23659797Y13448294D01*
X23837544Y13018114D01*
X24166383Y12688700D01*
X24596252Y12510203D01*
X25061706Y12509797D01*
X25491886Y12687544D01*
X25821300Y13016383D01*
X25999797Y13446252D01*
X25999798Y13448294D01*
X26199797Y13448294D01*
X26377544Y13018114D01*
X26706383Y12688700D01*
X27136252Y12510203D01*
X27601706Y12509797D01*
X28031886Y12687544D01*
X28361300Y13016383D01*
X28539797Y13446252D01*
X28540203Y13911706D01*
X28362456Y14341886D01*
X28033617Y14671300D01*
X27603748Y14849797D01*
X27138294Y14850203D01*
X26708114Y14672456D01*
X26378700Y14343617D01*
X26200203Y13913748D01*
X26199797Y13448294D01*
X25999798Y13448294D01*
X26000203Y13911706D01*
X25822456Y14341886D01*
X25493617Y14671300D01*
X25063748Y14849797D01*
X24598294Y14850203D01*
X24168114Y14672456D01*
X23838700Y14343617D01*
X23660203Y13913748D01*
X23659797Y13448294D01*
X22825868Y13448294D01*
X22935610Y14000000D01*
X22293487Y17228168D01*
X20464877Y19964877D01*
X17728168Y21793487D01*
X17663190Y21806412D01*
X19679140Y21806412D01*
X19727250Y21613783D01*
X20114555Y21439099D01*
X20539228Y21425927D01*
X20936614Y21576274D01*
X20992750Y21613783D01*
X21040860Y21806412D01*
X20360000Y22487272D01*
X19679140Y21806412D01*
X17663190Y21806412D01*
X15077330Y22320772D01*
X19285927Y22320772D01*
X19436274Y21923386D01*
X19473783Y21867250D01*
X19666412Y21819140D01*
X20347272Y22500000D01*
X20372728Y22500000D01*
X21053588Y21819140D01*
X21246217Y21867250D01*
X21420901Y22254555D01*
X21422555Y22307902D01*
X24469832Y22307902D01*
X24617195Y21951257D01*
X24889822Y21678154D01*
X25246209Y21530169D01*
X25632098Y21529832D01*
X25988743Y21677195D01*
X26261846Y21949822D01*
X26409831Y22306209D01*
X26410168Y22692098D01*
X26262805Y23048743D01*
X25990178Y23321846D01*
X25633791Y23469831D01*
X25247902Y23470168D01*
X24891257Y23322805D01*
X24618154Y23050178D01*
X24470169Y22693791D01*
X24469832Y22307902D01*
X21422555Y22307902D01*
X21434073Y22679228D01*
X21283726Y23076614D01*
X21246217Y23132750D01*
X21053588Y23180860D01*
X20372728Y22500000D01*
X20347272Y22500000D01*
X19666412Y23180860D01*
X19473783Y23132750D01*
X19299099Y22745445D01*
X19285927Y22320772D01*
X15077330Y22320772D01*
X14500000Y22435610D01*
X11271832Y21793487D01*
X8535123Y19964877D01*
X6706513Y17228168D01*
X6064390Y14000000D01*
X5193545Y14000000D01*
X5073705Y14049762D01*
X4528686Y14050237D01*
X4024971Y13842107D01*
X3639248Y13457056D01*
X3430238Y12953705D01*
X3429763Y12408686D01*
X3169764Y12408686D01*
X3170237Y12951314D01*
X2962107Y13455029D01*
X2577056Y13840752D01*
X2073705Y14049762D01*
X1528686Y14050237D01*
X1024971Y13842107D01*
X639248Y13457056D01*
X430238Y12953705D01*
X429763Y12408686D01*
X420000Y12408686D01*
X420000Y16234314D01*
X1597042Y16234314D01*
X1657318Y16031293D01*
X2080753Y15839954D01*
X2545178Y15825221D01*
X2979890Y15989337D01*
X3042682Y16031293D01*
X3102958Y16234314D01*
X2350000Y16987272D01*
X1597042Y16234314D01*
X420000Y16234314D01*
X420000Y16804822D01*
X1175221Y16804822D01*
X1339337Y16370110D01*
X1381293Y16307318D01*
X1584314Y16247042D01*
X2337272Y17000000D01*
X2362728Y17000000D01*
X3115686Y16247042D01*
X3318707Y16307318D01*
X3510046Y16730753D01*
X3524779Y17195178D01*
X3360663Y17629890D01*
X3318707Y17692682D01*
X3294059Y17700000D01*
X3772752Y17700000D01*
X3772752Y16300000D01*
X3801468Y16155633D01*
X3883245Y16033245D01*
X4005633Y15951468D01*
X4150000Y15922752D01*
X5550000Y15922752D01*
X5694367Y15951468D01*
X5816755Y16033245D01*
X5898532Y16155633D01*
X5927248Y16300000D01*
X5927248Y17700000D01*
X5898532Y17844367D01*
X5816755Y17966755D01*
X5694367Y18048532D01*
X5550000Y18077248D01*
X4150000Y18077248D01*
X4005633Y18048532D01*
X3883245Y17966755D01*
X3801468Y17844367D01*
X3772752Y17700000D01*
X3294059Y17700000D01*
X3115686Y17752958D01*
X2362728Y17000000D01*
X2337272Y17000000D01*
X1584314Y17752958D01*
X1381293Y17692682D01*
X1189954Y17269247D01*
X1175221Y16804822D01*
X420000Y16804822D01*
X420000Y17765686D01*
X1597042Y17765686D01*
X2350000Y17012728D01*
X3102958Y17765686D01*
X3042682Y17968707D01*
X2619247Y18160046D01*
X2154822Y18174779D01*
X1720110Y18010663D01*
X1657318Y17968707D01*
X1597042Y17765686D01*
X420000Y17765686D01*
X420000Y23374000D01*
X1182000Y23374000D01*
X1182000Y22706909D01*
X1253249Y22534899D01*
X1384899Y22403249D01*
X1556909Y22332000D01*
X2224000Y22332000D01*
X2341000Y22449000D01*
X2341000Y23491000D01*
X2359000Y23491000D01*
X2359000Y22449000D01*
X2476000Y22332000D01*
X3143091Y22332000D01*
X3315101Y22403249D01*
X3446751Y22534899D01*
X3518000Y22706909D01*
X3518000Y23288098D01*
X3779814Y23288098D01*
X3942369Y22894685D01*
X4243102Y22593427D01*
X4636230Y22430186D01*
X5061902Y22429814D01*
X5455315Y22592369D01*
X5756573Y22893102D01*
X5919814Y23286230D01*
X5920186Y23711902D01*
X5757631Y24105315D01*
X5456898Y24406573D01*
X5063770Y24569814D01*
X4638098Y24570186D01*
X4244685Y24407631D01*
X3943427Y24106898D01*
X3780186Y23713770D01*
X3779814Y23288098D01*
X3518000Y23288098D01*
X3518000Y23374000D01*
X3401000Y23491000D01*
X2359000Y23491000D01*
X2341000Y23491000D01*
X1299000Y23491000D01*
X1182000Y23374000D01*
X420000Y23374000D01*
X420000Y24293091D01*
X1182000Y24293091D01*
X1182000Y23626000D01*
X1299000Y23509000D01*
X2341000Y23509000D01*
X2341000Y24551000D01*
X2359000Y24551000D01*
X2359000Y23509000D01*
X3401000Y23509000D01*
X3518000Y23626000D01*
X3518000Y24293091D01*
X3446751Y24465101D01*
X3315101Y24596751D01*
X3235638Y24629666D01*
X9629677Y24629666D01*
X9913767Y23942114D01*
X10439347Y23415616D01*
X11126402Y23130326D01*
X11870334Y23129677D01*
X12557886Y23413767D01*
X13084384Y23939347D01*
X13369674Y24626402D01*
X13369676Y24629666D01*
X15629677Y24629666D01*
X15913767Y23942114D01*
X16439347Y23415616D01*
X17126402Y23130326D01*
X17870334Y23129677D01*
X18025010Y23193588D01*
X19679140Y23193588D01*
X20360000Y22512728D01*
X21040860Y23193588D01*
X20994237Y23380264D01*
X21486440Y23565464D01*
X21562545Y23616315D01*
X21647155Y23840117D01*
X20750000Y24737272D01*
X19852845Y23840117D01*
X19937455Y23616315D01*
X20098960Y23543120D01*
X19783386Y23423726D01*
X19727250Y23386217D01*
X19679140Y23193588D01*
X18025010Y23193588D01*
X18557886Y23413767D01*
X19084384Y23939347D01*
X19326704Y24522920D01*
X19373808Y24522920D01*
X19565464Y24013560D01*
X19616315Y23937455D01*
X19840117Y23852845D01*
X20737272Y24750000D01*
X20762728Y24750000D01*
X21659883Y23852845D01*
X21883685Y23937455D01*
X22108335Y24433148D01*
X22110480Y24498490D01*
X23979780Y24498490D01*
X24172718Y24031542D01*
X24529663Y23673974D01*
X24996273Y23480221D01*
X25501510Y23479780D01*
X25968458Y23672718D01*
X26326026Y24029663D01*
X26519779Y24496273D01*
X26520220Y25001510D01*
X26327282Y25468458D01*
X25970337Y25826026D01*
X25503727Y26019779D01*
X24998490Y26020220D01*
X24531542Y25827282D01*
X24173974Y25470337D01*
X23980221Y25003727D01*
X23979780Y24498490D01*
X22110480Y24498490D01*
X22126192Y24977080D01*
X21934536Y25486440D01*
X21883685Y25562545D01*
X21659883Y25647155D01*
X20762728Y24750000D01*
X20737272Y24750000D01*
X19840117Y25647155D01*
X19616315Y25562545D01*
X19391665Y25066852D01*
X19373808Y24522920D01*
X19326704Y24522920D01*
X19369674Y24626402D01*
X19370323Y25370334D01*
X19250685Y25659883D01*
X19852845Y25659883D01*
X20750000Y24762728D01*
X21647155Y25659883D01*
X21562545Y25883685D01*
X21066852Y26108335D01*
X20522920Y26126192D01*
X20013560Y25934536D01*
X19937455Y25883685D01*
X19852845Y25659883D01*
X19250685Y25659883D01*
X19086233Y26057886D01*
X18560653Y26584384D01*
X17873598Y26869674D01*
X17870241Y26869677D01*
X17961886Y26907544D01*
X18291300Y27236383D01*
X18469797Y27666252D01*
X18470203Y28131706D01*
X18292456Y28561886D01*
X17963617Y28891300D01*
X17533748Y29069797D01*
X17068294Y29070203D01*
X16638114Y28892456D01*
X16308700Y28563617D01*
X16130203Y28133748D01*
X16129797Y27668294D01*
X16307544Y27238114D01*
X16636383Y26908700D01*
X16928741Y26787303D01*
X16442114Y26586233D01*
X15915616Y26060653D01*
X15630326Y25373598D01*
X15629677Y24629666D01*
X13369676Y24629666D01*
X13370323Y25370334D01*
X13086233Y26057886D01*
X12560653Y26584384D01*
X11873598Y26869674D01*
X11129666Y26870323D01*
X10442114Y26586233D01*
X9915616Y26060653D01*
X9630326Y25373598D01*
X9629677Y24629666D01*
X3235638Y24629666D01*
X3143091Y24668000D01*
X2476000Y24668000D01*
X2359000Y24551000D01*
X2341000Y24551000D01*
X2224000Y24668000D01*
X1556909Y24668000D01*
X1384899Y24596751D01*
X1253249Y24465101D01*
X1182000Y24293091D01*
X420000Y24293091D01*
X420000Y27306412D01*
X4049140Y27306412D01*
X4097250Y27113783D01*
X4484555Y26939099D01*
X4909228Y26925927D01*
X5306614Y27076274D01*
X5362750Y27113783D01*
X5410860Y27306412D01*
X4730000Y27987272D01*
X4049140Y27306412D01*
X420000Y27306412D01*
X420000Y27820772D01*
X3655927Y27820772D01*
X3806274Y27423386D01*
X3843783Y27367250D01*
X4036412Y27319140D01*
X4717272Y28000000D01*
X4742728Y28000000D01*
X5423588Y27319140D01*
X5616217Y27367250D01*
X5790901Y27754555D01*
X5804073Y28179228D01*
X5653726Y28576614D01*
X5638100Y28600000D01*
X6292752Y28600000D01*
X6292752Y27400000D01*
X6321468Y27255633D01*
X6403245Y27133245D01*
X6525633Y27051468D01*
X6670000Y27022752D01*
X7870000Y27022752D01*
X8006987Y27050000D01*
X8895330Y27050000D01*
X9036383Y26908700D01*
X9466252Y26730203D01*
X9931706Y26729797D01*
X10361886Y26907544D01*
X10691300Y27236383D01*
X10869797Y27666252D01*
X10870203Y28131706D01*
X10692456Y28561886D01*
X10574548Y28680000D01*
X10999995Y28680000D01*
X11000000Y28679999D01*
X11198995Y28719583D01*
X11367696Y28832304D01*
X12015464Y29480073D01*
X12262393Y29479858D01*
X12563886Y29604432D01*
X12794757Y29834901D01*
X12919858Y30136176D01*
X12920025Y30328686D01*
X16929763Y30328686D01*
X17137893Y29824971D01*
X17522944Y29439248D01*
X18026295Y29230238D01*
X18571314Y29229763D01*
X19075029Y29437893D01*
X19326445Y29688871D01*
X26474514Y29688871D01*
X26652401Y29216836D01*
X26698804Y29147386D01*
X26912214Y29074942D01*
X27737272Y29900000D01*
X26912214Y30725058D01*
X26698804Y30652614D01*
X26490809Y30193050D01*
X26474514Y29688871D01*
X19326445Y29688871D01*
X19460752Y29822944D01*
X19669762Y30326295D01*
X19669774Y30340117D01*
X19852845Y30340117D01*
X19937455Y30116315D01*
X20433148Y29891665D01*
X20977080Y29873808D01*
X21486440Y30065464D01*
X21562545Y30116315D01*
X21647155Y30340117D01*
X20750000Y31237272D01*
X19852845Y30340117D01*
X19669774Y30340117D01*
X19669841Y30417219D01*
X19840117Y30352845D01*
X20737272Y31250000D01*
X20762728Y31250000D01*
X21659883Y30352845D01*
X21883685Y30437455D01*
X22108335Y30933148D01*
X22110480Y30998490D01*
X23979780Y30998490D01*
X24172718Y30531542D01*
X24529663Y30173974D01*
X24996273Y29980221D01*
X25501510Y29979780D01*
X25968458Y30172718D01*
X26326026Y30529663D01*
X26519779Y30996273D01*
X26520220Y31501510D01*
X26327282Y31968458D01*
X25970337Y32326026D01*
X25503727Y32519779D01*
X24998490Y32520220D01*
X24531542Y32327282D01*
X24173974Y31970337D01*
X23980221Y31503727D01*
X23979780Y30998490D01*
X22110480Y30998490D01*
X22126192Y31477080D01*
X21934536Y31986440D01*
X21883685Y32062545D01*
X21659883Y32147155D01*
X20762728Y31250000D01*
X20737272Y31250000D01*
X19840117Y32147155D01*
X19616315Y32062545D01*
X19391665Y31566852D01*
X19387811Y31449455D01*
X19077056Y31760752D01*
X18573705Y31969762D01*
X18028686Y31970237D01*
X17524971Y31762107D01*
X17139248Y31377056D01*
X16930238Y30873705D01*
X16929763Y30328686D01*
X12920025Y30328686D01*
X12920142Y30462393D01*
X12795568Y30763886D01*
X12565099Y30994757D01*
X12263824Y31119858D01*
X11937607Y31120142D01*
X11636114Y30995568D01*
X11405243Y30765099D01*
X11280142Y30463824D01*
X11279926Y30215317D01*
X10784608Y29720000D01*
X9357628Y29720000D01*
X9460752Y29822944D01*
X9669762Y30326295D01*
X9670237Y30871314D01*
X9462107Y31375029D01*
X9077056Y31760752D01*
X8573705Y31969762D01*
X8028686Y31970237D01*
X7524971Y31762107D01*
X7139248Y31377056D01*
X6930238Y30873705D01*
X6929763Y30328686D01*
X7137893Y29824971D01*
X7522944Y29439248D01*
X7841557Y29306948D01*
X7511857Y28977248D01*
X6670000Y28977248D01*
X6525633Y28948532D01*
X6403245Y28866755D01*
X6321468Y28744367D01*
X6292752Y28600000D01*
X5638100Y28600000D01*
X5616217Y28632750D01*
X5423588Y28680860D01*
X4742728Y28000000D01*
X4717272Y28000000D01*
X4036412Y28680860D01*
X3843783Y28632750D01*
X3669099Y28245445D01*
X3655927Y27820772D01*
X420000Y27820772D01*
X420000Y29057269D01*
X424943Y29062212D01*
X497386Y28848804D01*
X956950Y28640809D01*
X1461129Y28624514D01*
X1644421Y28693588D01*
X4049140Y28693588D01*
X4730000Y28012728D01*
X5410860Y28693588D01*
X5362750Y28886217D01*
X4975445Y29060901D01*
X4550772Y29074073D01*
X4153386Y28923726D01*
X4097250Y28886217D01*
X4049140Y28693588D01*
X1644421Y28693588D01*
X1933164Y28802401D01*
X2002614Y28848804D01*
X2075058Y29062214D01*
X1250000Y29887272D01*
X1235858Y29873130D01*
X1223130Y29885858D01*
X1237272Y29900000D01*
X1223130Y29914142D01*
X1235858Y29926870D01*
X1250000Y29912728D01*
X1264142Y29926870D01*
X1276870Y29914142D01*
X1262728Y29900000D01*
X2087786Y29074942D01*
X2301196Y29147386D01*
X2438157Y29450000D01*
X2957375Y29450000D01*
X3004432Y29336114D01*
X3234901Y29105243D01*
X3536176Y28980142D01*
X3862393Y28979858D01*
X4163886Y29104432D01*
X4394757Y29334901D01*
X4519858Y29636176D01*
X4520142Y29962393D01*
X4395568Y30263886D01*
X4320000Y30339586D01*
X4320000Y31643188D01*
X5956812Y33280000D01*
X7900000Y33280000D01*
X8137264Y33327195D01*
X8338406Y33461594D01*
X8545106Y33668294D01*
X17229797Y33668294D01*
X17407544Y33238114D01*
X17736383Y32908700D01*
X18166252Y32730203D01*
X18631706Y32729797D01*
X19061886Y32907544D01*
X19391300Y33236383D01*
X19554198Y33628686D01*
X19629763Y33628686D01*
X19837893Y33124971D01*
X20222944Y32739248D01*
X20508384Y32620723D01*
X20013560Y32434536D01*
X19937455Y32383685D01*
X19852845Y32159883D01*
X20750000Y31262728D01*
X21647155Y32159883D01*
X21562545Y32383685D01*
X21240162Y32529790D01*
X21271314Y32529763D01*
X21775029Y32737893D01*
X22160752Y33122944D01*
X22369762Y33626295D01*
X22369764Y33628686D01*
X22629763Y33628686D01*
X22837893Y33124971D01*
X23222944Y32739248D01*
X23726295Y32530238D01*
X24271314Y32529763D01*
X24775029Y32737893D01*
X25160752Y33122944D01*
X25369762Y33626295D01*
X25370237Y34171314D01*
X25162107Y34675029D01*
X24777056Y35060752D01*
X24273705Y35269762D01*
X23728686Y35270237D01*
X23224971Y35062107D01*
X22839248Y34677056D01*
X22630238Y34173705D01*
X22629763Y33628686D01*
X22369764Y33628686D01*
X22370237Y34171314D01*
X22162107Y34675029D01*
X21777056Y35060752D01*
X21273705Y35269762D01*
X20728686Y35270237D01*
X20224971Y35062107D01*
X19839248Y34677056D01*
X19630238Y34173705D01*
X19629763Y33628686D01*
X19554198Y33628686D01*
X19569797Y33666252D01*
X19570203Y34131706D01*
X19392456Y34561886D01*
X19063617Y34891300D01*
X18633748Y35069797D01*
X18168294Y35070203D01*
X17738114Y34892456D01*
X17408700Y34563617D01*
X17230203Y34133748D01*
X17229797Y33668294D01*
X8545106Y33668294D01*
X10138406Y35261594D01*
X10270976Y35460000D01*
X12797283Y35460000D01*
X12886344Y35012260D01*
X13139968Y34632685D01*
X13519543Y34379061D01*
X13967283Y34290000D01*
X15032717Y34290000D01*
X15480457Y34379061D01*
X15860032Y34632685D01*
X16113656Y35012260D01*
X16202717Y35460000D01*
X16113656Y35907740D01*
X15860032Y36287315D01*
X15480457Y36540939D01*
X15032717Y36630000D01*
X13967283Y36630000D01*
X13519543Y36540939D01*
X13139968Y36287315D01*
X12886344Y35907740D01*
X12797283Y35460000D01*
X10270976Y35460000D01*
X10272805Y35462736D01*
X10290163Y35550001D01*
X10320000Y35700000D01*
X10320000Y37792757D01*
X12749051Y37792757D01*
X12825076Y37523073D01*
X13097024Y37109753D01*
X13506442Y36831965D01*
X13991000Y36732000D01*
X14491000Y36732000D01*
X14491000Y37991000D01*
X14509000Y37991000D01*
X14509000Y36732000D01*
X15009000Y36732000D01*
X15493558Y36831965D01*
X15902976Y37109753D01*
X16174924Y37523073D01*
X16250949Y37792757D01*
X16150965Y37991000D01*
X14509000Y37991000D01*
X14491000Y37991000D01*
X12849035Y37991000D01*
X12749051Y37792757D01*
X10320000Y37792757D01*
X10320000Y38207243D01*
X12749051Y38207243D01*
X12849035Y38009000D01*
X14491000Y38009000D01*
X14491000Y39268000D01*
X14509000Y39268000D01*
X14509000Y38009000D01*
X16150965Y38009000D01*
X16250949Y38207243D01*
X16174924Y38476927D01*
X15902976Y38890247D01*
X15493558Y39168035D01*
X15009000Y39268000D01*
X14509000Y39268000D01*
X14491000Y39268000D01*
X13991000Y39268000D01*
X13506442Y39168035D01*
X13097024Y38890247D01*
X12825076Y38476927D01*
X12749051Y38207243D01*
X10320000Y38207243D01*
X10320000Y39700000D01*
X10272805Y39937264D01*
X10138406Y40138406D01*
X9736812Y40540000D01*
X12797283Y40540000D01*
X12886344Y40092260D01*
X13139968Y39712685D01*
X13519543Y39459061D01*
X13967283Y39370000D01*
X15032717Y39370000D01*
X15480457Y39459061D01*
X15860032Y39712685D01*
X16113656Y40092260D01*
X16202717Y40540000D01*
X16178408Y40662214D01*
X17574942Y40662214D01*
X17647386Y40448804D01*
X18106950Y40240809D01*
X18611129Y40224514D01*
X19083164Y40402401D01*
X19152614Y40448804D01*
X19225058Y40662214D01*
X18400000Y41487272D01*
X17574942Y40662214D01*
X16178408Y40662214D01*
X16113656Y40987740D01*
X15912447Y41288871D01*
X17124514Y41288871D01*
X17302401Y40816836D01*
X17348804Y40747386D01*
X17562214Y40674942D01*
X18387272Y41500000D01*
X18412728Y41500000D01*
X19237786Y40674942D01*
X19451196Y40747386D01*
X19659191Y41206950D01*
X19675486Y41711129D01*
X19497599Y42183164D01*
X19451196Y42252614D01*
X19237786Y42325058D01*
X18412728Y41500000D01*
X18387272Y41500000D01*
X17562214Y42325058D01*
X17348804Y42252614D01*
X17140809Y41793050D01*
X17124514Y41288871D01*
X15912447Y41288871D01*
X15860032Y41367315D01*
X15480457Y41620939D01*
X15032717Y41710000D01*
X13967283Y41710000D01*
X13519543Y41620939D01*
X13139968Y41367315D01*
X12886344Y40987740D01*
X12797283Y40540000D01*
X9736812Y40540000D01*
X8238406Y42038406D01*
X8037264Y42172805D01*
X7800000Y42220000D01*
X4000000Y42220000D01*
X3762736Y42172805D01*
X3561594Y42038406D01*
X2250000Y40726812D01*
X2250000Y41488641D01*
X2316755Y41533245D01*
X2398532Y41655633D01*
X2427248Y41800000D01*
X2427248Y43400000D01*
X2401652Y43528686D01*
X4329763Y43528686D01*
X4537893Y43024971D01*
X4922944Y42639248D01*
X5426295Y42430238D01*
X5971314Y42429763D01*
X6475029Y42637893D01*
X6860752Y43022944D01*
X7069762Y43526295D01*
X7069764Y43528686D01*
X7329763Y43528686D01*
X7537893Y43024971D01*
X7922944Y42639248D01*
X8426295Y42430238D01*
X8971314Y42429763D01*
X9475029Y42637893D01*
X9769013Y42931365D01*
X9807544Y42838114D01*
X10136383Y42508700D01*
X10566252Y42330203D01*
X11031706Y42329797D01*
X11461886Y42507544D01*
X11616826Y42662214D01*
X17574942Y42662214D01*
X17630007Y42500000D01*
X17574942Y42337786D01*
X18400000Y41512728D01*
X19225058Y42337786D01*
X19169993Y42500000D01*
X19225058Y42662214D01*
X18400000Y43487272D01*
X17574942Y42662214D01*
X11616826Y42662214D01*
X11791300Y42836383D01*
X11969797Y43266252D01*
X11969816Y43288871D01*
X17124514Y43288871D01*
X17302401Y42816836D01*
X17348804Y42747386D01*
X17562214Y42674942D01*
X18387272Y43500000D01*
X18412728Y43500000D01*
X19237786Y42674942D01*
X19451196Y42747386D01*
X19659191Y43206950D01*
X19669698Y43532036D01*
X19837893Y43124971D01*
X20222944Y42739248D01*
X20726295Y42530238D01*
X21271314Y42529763D01*
X21775029Y42737893D01*
X22160752Y43122944D01*
X22369762Y43626295D01*
X22369764Y43628686D01*
X22629763Y43628686D01*
X22837893Y43124971D01*
X23222944Y42739248D01*
X23726295Y42530238D01*
X24271314Y42529763D01*
X24775029Y42737893D01*
X25160752Y43122944D01*
X25369762Y43626295D01*
X25370237Y44171314D01*
X25162107Y44675029D01*
X24777056Y45060752D01*
X24273705Y45269762D01*
X23728686Y45270237D01*
X23224971Y45062107D01*
X22839248Y44677056D01*
X22630238Y44173705D01*
X22629763Y43628686D01*
X22369764Y43628686D01*
X22370237Y44171314D01*
X22162107Y44675029D01*
X21777056Y45060752D01*
X21273705Y45269762D01*
X20728686Y45270237D01*
X20224971Y45062107D01*
X19839248Y44677056D01*
X19630238Y44173705D01*
X19629940Y43831988D01*
X19497599Y44183164D01*
X19451196Y44252614D01*
X19237786Y44325058D01*
X18412728Y43500000D01*
X18387272Y43500000D01*
X17562214Y44325058D01*
X17348804Y44252614D01*
X17140809Y43793050D01*
X17124514Y43288871D01*
X11969816Y43288871D01*
X11970203Y43731706D01*
X11792456Y44161886D01*
X11616864Y44337786D01*
X17574942Y44337786D01*
X18400000Y43512728D01*
X19225058Y44337786D01*
X19152614Y44551196D01*
X18693050Y44759191D01*
X18188871Y44775486D01*
X17716836Y44597599D01*
X17647386Y44551196D01*
X17574942Y44337786D01*
X11616864Y44337786D01*
X11463617Y44491300D01*
X11033748Y44669797D01*
X10568294Y44670203D01*
X10138114Y44492456D01*
X9966862Y44321503D01*
X9862107Y44575029D01*
X9477056Y44960752D01*
X8973705Y45169762D01*
X8428686Y45170237D01*
X7924971Y44962107D01*
X7539248Y44577056D01*
X7330238Y44073705D01*
X7329763Y43528686D01*
X7069764Y43528686D01*
X7070237Y44071314D01*
X6862107Y44575029D01*
X6477056Y44960752D01*
X5973705Y45169762D01*
X5428686Y45170237D01*
X4924971Y44962107D01*
X4539248Y44577056D01*
X4330238Y44073705D01*
X4329763Y43528686D01*
X2401652Y43528686D01*
X2398532Y43544367D01*
X2316755Y43666755D01*
X2194367Y43748532D01*
X2050000Y43777248D01*
X450000Y43777248D01*
X420000Y43771281D01*
X420000Y45728686D01*
X10829763Y45728686D01*
X11037893Y45224971D01*
X11422944Y44839248D01*
X11926295Y44630238D01*
X12471314Y44629763D01*
X12975029Y44837893D01*
X13360752Y45222944D01*
X13569762Y45726295D01*
X13569764Y45728686D01*
X13829763Y45728686D01*
X14037893Y45224971D01*
X14422944Y44839248D01*
X14926295Y44630238D01*
X15471314Y44629763D01*
X15975029Y44837893D01*
X16360752Y45222944D01*
X16569762Y45726295D01*
X16570237Y46271314D01*
X16362107Y46775029D01*
X15977056Y47160752D01*
X15473705Y47369762D01*
X14928686Y47370237D01*
X14424971Y47162107D01*
X14039248Y46777056D01*
X13830238Y46273705D01*
X13829763Y45728686D01*
X13569764Y45728686D01*
X13570237Y46271314D01*
X13362107Y46775029D01*
X12977056Y47160752D01*
X12473705Y47369762D01*
X11928686Y47370237D01*
X11424971Y47162107D01*
X11039248Y46777056D01*
X10830238Y46273705D01*
X10829763Y45728686D01*
X420000Y45728686D01*
X420000Y48829674D01*
X900295Y48630238D01*
X1445314Y48629763D01*
X1949029Y48837893D01*
X2334752Y49222944D01*
X2543762Y49726295D01*
X2543764Y49728686D01*
X7931763Y49728686D01*
X8139893Y49224971D01*
X8524944Y48839248D01*
X9028295Y48630238D01*
X9573314Y48629763D01*
X10077029Y48837893D01*
X10257469Y49018019D01*
X11380747Y49018019D01*
X11477524Y48783827D01*
X12009346Y48542521D01*
X12593030Y48523102D01*
X13139715Y48728529D01*
X13222476Y48783827D01*
X13319253Y49018019D01*
X15680747Y49018019D01*
X15777524Y48783827D01*
X16309346Y48542521D01*
X16893030Y48523102D01*
X17439715Y48728529D01*
X17522476Y48783827D01*
X17619253Y49018019D01*
X16650000Y49987272D01*
X15680747Y49018019D01*
X13319253Y49018019D01*
X12350000Y49987272D01*
X11380747Y49018019D01*
X10257469Y49018019D01*
X10462752Y49222944D01*
X10671762Y49726295D01*
X10671788Y49756970D01*
X10873102Y49756970D01*
X11078529Y49210285D01*
X11133827Y49127524D01*
X11368019Y49030747D01*
X12337272Y50000000D01*
X12362728Y50000000D01*
X13331981Y49030747D01*
X13566173Y49127524D01*
X13807479Y49659346D01*
X13810726Y49756970D01*
X15173102Y49756970D01*
X15378529Y49210285D01*
X15433827Y49127524D01*
X15668019Y49030747D01*
X16637272Y50000000D01*
X16662728Y50000000D01*
X17631981Y49030747D01*
X17866173Y49127524D01*
X18107479Y49659346D01*
X18109785Y49728686D01*
X18327763Y49728686D01*
X18535893Y49224971D01*
X18920944Y48839248D01*
X19424295Y48630238D01*
X19969314Y48629763D01*
X20473029Y48837893D01*
X20858752Y49222944D01*
X21067762Y49726295D01*
X21068237Y50271314D01*
X20860107Y50775029D01*
X20475056Y51160752D01*
X19971705Y51369762D01*
X19426686Y51370237D01*
X18922971Y51162107D01*
X18537248Y50777056D01*
X18328238Y50273705D01*
X18327763Y49728686D01*
X18109785Y49728686D01*
X18126898Y50243030D01*
X17921471Y50789715D01*
X17866173Y50872476D01*
X17631981Y50969253D01*
X16662728Y50000000D01*
X16637272Y50000000D01*
X15668019Y50969253D01*
X15433827Y50872476D01*
X15192521Y50340654D01*
X15173102Y49756970D01*
X13810726Y49756970D01*
X13826898Y50243030D01*
X13621471Y50789715D01*
X13566173Y50872476D01*
X13331981Y50969253D01*
X12362728Y50000000D01*
X12337272Y50000000D01*
X11368019Y50969253D01*
X11133827Y50872476D01*
X10892521Y50340654D01*
X10873102Y49756970D01*
X10671788Y49756970D01*
X10672237Y50271314D01*
X10464107Y50775029D01*
X10257516Y50981981D01*
X11380747Y50981981D01*
X12350000Y50012728D01*
X13319253Y50981981D01*
X15680747Y50981981D01*
X16650000Y50012728D01*
X17619253Y50981981D01*
X17522476Y51216173D01*
X16990654Y51457479D01*
X16406970Y51476898D01*
X15860285Y51271471D01*
X15777524Y51216173D01*
X15680747Y50981981D01*
X13319253Y50981981D01*
X13222476Y51216173D01*
X12690654Y51457479D01*
X12106970Y51476898D01*
X11560285Y51271471D01*
X11477524Y51216173D01*
X11380747Y50981981D01*
X10257516Y50981981D01*
X10079056Y51160752D01*
X9575705Y51369762D01*
X9030686Y51370237D01*
X8526971Y51162107D01*
X8141248Y50777056D01*
X7932238Y50273705D01*
X7931763Y49728686D01*
X2543764Y49728686D01*
X2544237Y50271314D01*
X2336107Y50775029D01*
X1951056Y51160752D01*
X1447705Y51369762D01*
X902686Y51370237D01*
X420000Y51170796D01*
X420000Y55806412D01*
X4049140Y55806412D01*
X4097250Y55613783D01*
X4484555Y55439099D01*
X4909228Y55425927D01*
X5306614Y55576274D01*
X5362750Y55613783D01*
X5410860Y55806412D01*
X4730000Y56487272D01*
X4049140Y55806412D01*
X420000Y55806412D01*
X420000Y56320772D01*
X3655927Y56320772D01*
X3806274Y55923386D01*
X3843783Y55867250D01*
X4036412Y55819140D01*
X4717272Y56500000D01*
X4742728Y56500000D01*
X5423588Y55819140D01*
X5616217Y55867250D01*
X5790901Y56254555D01*
X5804073Y56679228D01*
X5653726Y57076614D01*
X5638100Y57100000D01*
X6292752Y57100000D01*
X6292752Y55900000D01*
X6321468Y55755633D01*
X6403245Y55633245D01*
X6525633Y55551468D01*
X6670000Y55522752D01*
X7870000Y55522752D01*
X8014367Y55551468D01*
X8136755Y55633245D01*
X8218532Y55755633D01*
X8247248Y55900000D01*
X8247248Y56062214D01*
X11674942Y56062214D01*
X11747386Y55848804D01*
X12206950Y55640809D01*
X12711129Y55624514D01*
X13183164Y55802401D01*
X13189167Y55806412D01*
X21049140Y55806412D01*
X21097250Y55613783D01*
X21484555Y55439099D01*
X21909228Y55425927D01*
X22306614Y55576274D01*
X22362750Y55613783D01*
X22410860Y55806412D01*
X21730000Y56487272D01*
X21049140Y55806412D01*
X13189167Y55806412D01*
X13252614Y55848804D01*
X13325058Y56062214D01*
X12500000Y56887272D01*
X11674942Y56062214D01*
X8247248Y56062214D01*
X8247248Y56688871D01*
X11224514Y56688871D01*
X11402401Y56216836D01*
X11448804Y56147386D01*
X11662214Y56074942D01*
X12487272Y56900000D01*
X12512728Y56900000D01*
X13337786Y56074942D01*
X13551196Y56147386D01*
X13629669Y56320772D01*
X20655927Y56320772D01*
X20806274Y55923386D01*
X20843783Y55867250D01*
X21036412Y55819140D01*
X21717272Y56500000D01*
X21742728Y56500000D01*
X22423588Y55819140D01*
X22616217Y55867250D01*
X22790901Y56254555D01*
X22804073Y56679228D01*
X22653726Y57076614D01*
X22638100Y57100000D01*
X23292752Y57100000D01*
X23292752Y55900000D01*
X23321468Y55755633D01*
X23403245Y55633245D01*
X23525633Y55551468D01*
X23670000Y55522752D01*
X24870000Y55522752D01*
X25014367Y55551468D01*
X25136755Y55633245D01*
X25218532Y55755633D01*
X25247248Y55900000D01*
X25247248Y57100000D01*
X25218532Y57244367D01*
X25136755Y57366755D01*
X25014367Y57448532D01*
X24870000Y57477248D01*
X23670000Y57477248D01*
X23525633Y57448532D01*
X23403245Y57366755D01*
X23321468Y57244367D01*
X23292752Y57100000D01*
X22638100Y57100000D01*
X22616217Y57132750D01*
X22423588Y57180860D01*
X21742728Y56500000D01*
X21717272Y56500000D01*
X21036412Y57180860D01*
X20843783Y57132750D01*
X20669099Y56745445D01*
X20655927Y56320772D01*
X13629669Y56320772D01*
X13759191Y56606950D01*
X13775486Y57111129D01*
X13744412Y57193588D01*
X21049140Y57193588D01*
X21730000Y56512728D01*
X22410860Y57193588D01*
X22362750Y57386217D01*
X21975445Y57560901D01*
X21550772Y57574073D01*
X21153386Y57423726D01*
X21097250Y57386217D01*
X21049140Y57193588D01*
X13744412Y57193588D01*
X13597599Y57583164D01*
X13551196Y57652614D01*
X13337786Y57725058D01*
X12512728Y56900000D01*
X12487272Y56900000D01*
X11662214Y57725058D01*
X11448804Y57652614D01*
X11240809Y57193050D01*
X11224514Y56688871D01*
X8247248Y56688871D01*
X8247248Y57100000D01*
X8218532Y57244367D01*
X8136755Y57366755D01*
X8014367Y57448532D01*
X7870000Y57477248D01*
X6670000Y57477248D01*
X6525633Y57448532D01*
X6403245Y57366755D01*
X6321468Y57244367D01*
X6292752Y57100000D01*
X5638100Y57100000D01*
X5616217Y57132750D01*
X5423588Y57180860D01*
X4742728Y56500000D01*
X4717272Y56500000D01*
X4036412Y57180860D01*
X3843783Y57132750D01*
X3669099Y56745445D01*
X3655927Y56320772D01*
X420000Y56320772D01*
X420000Y57193588D01*
X4049140Y57193588D01*
X4730000Y56512728D01*
X5410860Y57193588D01*
X5362750Y57386217D01*
X4975445Y57560901D01*
X4550772Y57574073D01*
X4153386Y57423726D01*
X4097250Y57386217D01*
X4049140Y57193588D01*
X420000Y57193588D01*
X420000Y57737786D01*
X11674942Y57737786D01*
X12500000Y56912728D01*
X13325058Y57737786D01*
X13252614Y57951196D01*
X12793050Y58159191D01*
X12288871Y58175486D01*
X11816836Y57997599D01*
X11747386Y57951196D01*
X11674942Y57737786D01*
X420000Y57737786D01*
X420000Y59902686D01*
X4629763Y59902686D01*
X4837893Y59398971D01*
X5222944Y59013248D01*
X5726295Y58804238D01*
X6271314Y58803763D01*
X6775029Y59011893D01*
X7160752Y59396944D01*
X7369762Y59900295D01*
X7369764Y59902686D01*
X21629763Y59902686D01*
X21837893Y59398971D01*
X22222944Y59013248D01*
X22726295Y58804238D01*
X23271314Y58803763D01*
X23775029Y59011893D01*
X24160752Y59396944D01*
X24369762Y59900295D01*
X24370237Y60445314D01*
X24162107Y60949029D01*
X23777056Y61334752D01*
X23273705Y61543762D01*
X22728686Y61544237D01*
X22224971Y61336107D01*
X21839248Y60951056D01*
X21630238Y60447705D01*
X21629763Y59902686D01*
X7369764Y59902686D01*
X7370237Y60445314D01*
X7162107Y60949029D01*
X6777056Y61334752D01*
X6273705Y61543762D01*
X5728686Y61544237D01*
X5224971Y61336107D01*
X4839248Y60951056D01*
X4630238Y60447705D01*
X4629763Y59902686D01*
X420000Y59902686D01*
X420000Y66528686D01*
X11129763Y66528686D01*
X11337893Y66024971D01*
X11722944Y65639248D01*
X11957580Y65541818D01*
X11838114Y65492456D01*
X11508700Y65163617D01*
X11330203Y64733748D01*
X11329797Y64268294D01*
X11507544Y63838114D01*
X11836383Y63508700D01*
X12266252Y63330203D01*
X12731706Y63329797D01*
X13161886Y63507544D01*
X13491300Y63836383D01*
X13669797Y64266252D01*
X13670203Y64731706D01*
X13492456Y65161886D01*
X13163617Y65491300D01*
X13042232Y65541704D01*
X13275029Y65637893D01*
X13660752Y66022944D01*
X13869762Y66526295D01*
X13869764Y66528686D01*
X15129763Y66528686D01*
X15337893Y66024971D01*
X15722944Y65639248D01*
X16226295Y65430238D01*
X16771314Y65429763D01*
X17275029Y65637893D01*
X17660752Y66022944D01*
X17869762Y66526295D01*
X17870237Y67071314D01*
X17662107Y67575029D01*
X17277056Y67960752D01*
X17108637Y68030686D01*
X21629763Y68030686D01*
X21837893Y67526971D01*
X22222944Y67141248D01*
X22726295Y66932238D01*
X23271314Y66931763D01*
X23775029Y67139893D01*
X24160752Y67524944D01*
X24369762Y68028295D01*
X24370237Y68573314D01*
X24162107Y69077029D01*
X23777056Y69462752D01*
X23273705Y69671762D01*
X22728686Y69672237D01*
X22224971Y69464107D01*
X21839248Y69079056D01*
X21630238Y68575705D01*
X21629763Y68030686D01*
X17108637Y68030686D01*
X16773705Y68169762D01*
X16228686Y68170237D01*
X15724971Y67962107D01*
X15339248Y67577056D01*
X15130238Y67073705D01*
X15129763Y66528686D01*
X13869764Y66528686D01*
X13870237Y67071314D01*
X13662107Y67575029D01*
X13277056Y67960752D01*
X12773705Y68169762D01*
X12228686Y68170237D01*
X11724971Y67962107D01*
X11339248Y67577056D01*
X11130238Y67073705D01*
X11129763Y66528686D01*
X420000Y66528686D01*
X420000Y68030686D01*
X4629763Y68030686D01*
X4837893Y67526971D01*
X5222944Y67141248D01*
X5726295Y66932238D01*
X6271314Y66931763D01*
X6775029Y67139893D01*
X7160752Y67524944D01*
X7369762Y68028295D01*
X7370237Y68573314D01*
X7162107Y69077029D01*
X6777056Y69462752D01*
X6273705Y69671762D01*
X5728686Y69672237D01*
X5224971Y69464107D01*
X4839248Y69079056D01*
X4630238Y68575705D01*
X4629763Y68030686D01*
X420000Y68030686D01*
X420000Y70368019D01*
X5030747Y70368019D01*
X5127524Y70133827D01*
X5659346Y69892521D01*
X6243030Y69873102D01*
X6789715Y70078529D01*
X6872476Y70133827D01*
X6969253Y70368019D01*
X22030747Y70368019D01*
X22127524Y70133827D01*
X22659346Y69892521D01*
X23243030Y69873102D01*
X23789715Y70078529D01*
X23872476Y70133827D01*
X23969253Y70368019D01*
X23000000Y71337272D01*
X22030747Y70368019D01*
X6969253Y70368019D01*
X6000000Y71337272D01*
X5030747Y70368019D01*
X420000Y70368019D01*
X420000Y71106970D01*
X4523102Y71106970D01*
X4728529Y70560285D01*
X4783827Y70477524D01*
X5018019Y70380747D01*
X5987272Y71350000D01*
X6012728Y71350000D01*
X6981981Y70380747D01*
X7216173Y70477524D01*
X7457479Y71009346D01*
X7460726Y71106970D01*
X21523102Y71106970D01*
X21728529Y70560285D01*
X21783827Y70477524D01*
X22018019Y70380747D01*
X22987272Y71350000D01*
X23012728Y71350000D01*
X23981981Y70380747D01*
X24216173Y70477524D01*
X24457479Y71009346D01*
X24476898Y71593030D01*
X24271471Y72139715D01*
X24216173Y72222476D01*
X23981981Y72319253D01*
X23012728Y71350000D01*
X22987272Y71350000D01*
X22018019Y72319253D01*
X21783827Y72222476D01*
X21542521Y71690654D01*
X21523102Y71106970D01*
X7460726Y71106970D01*
X7476898Y71593030D01*
X7271471Y72139715D01*
X7216173Y72222476D01*
X6981981Y72319253D01*
X6012728Y71350000D01*
X5987272Y71350000D01*
X5018019Y72319253D01*
X4783827Y72222476D01*
X4542521Y71690654D01*
X4523102Y71106970D01*
X420000Y71106970D01*
X420000Y72668019D01*
X5030747Y72668019D01*
X5100179Y72500000D01*
X5030747Y72331981D01*
X6000000Y71362728D01*
X6969253Y72331981D01*
X6899821Y72500000D01*
X6969253Y72668019D01*
X22030747Y72668019D01*
X22100179Y72500000D01*
X22030747Y72331981D01*
X23000000Y71362728D01*
X23969253Y72331981D01*
X23899821Y72500000D01*
X23969253Y72668019D01*
X23000000Y73637272D01*
X22030747Y72668019D01*
X6969253Y72668019D01*
X6000000Y73637272D01*
X5030747Y72668019D01*
X420000Y72668019D01*
X420000Y73406970D01*
X4523102Y73406970D01*
X4728529Y72860285D01*
X4783827Y72777524D01*
X5018019Y72680747D01*
X5987272Y73650000D01*
X6012728Y73650000D01*
X6981981Y72680747D01*
X7216173Y72777524D01*
X7457479Y73309346D01*
X7460726Y73406970D01*
X21523102Y73406970D01*
X21728529Y72860285D01*
X21783827Y72777524D01*
X22018019Y72680747D01*
X22987272Y73650000D01*
X23012728Y73650000D01*
X23981981Y72680747D01*
X24216173Y72777524D01*
X24457479Y73309346D01*
X24476898Y73893030D01*
X24271471Y74439715D01*
X24216173Y74522476D01*
X23981981Y74619253D01*
X23012728Y73650000D01*
X22987272Y73650000D01*
X22018019Y74619253D01*
X21783827Y74522476D01*
X21542521Y73990654D01*
X21523102Y73406970D01*
X7460726Y73406970D01*
X7476898Y73893030D01*
X7271471Y74439715D01*
X7216173Y74522476D01*
X6981981Y74619253D01*
X6012728Y73650000D01*
X5987272Y73650000D01*
X5018019Y74619253D01*
X4783827Y74522476D01*
X4542521Y73990654D01*
X4523102Y73406970D01*
X420000Y73406970D01*
X420000Y74631981D01*
X5030747Y74631981D01*
X6000000Y73662728D01*
X6969253Y74631981D01*
X22030747Y74631981D01*
X23000000Y73662728D01*
X23969253Y74631981D01*
X23872476Y74866173D01*
X23340654Y75107479D01*
X22756970Y75126898D01*
X22210285Y74921471D01*
X22127524Y74866173D01*
X22030747Y74631981D01*
X6969253Y74631981D01*
X6872476Y74866173D01*
X6340654Y75107479D01*
X5756970Y75126898D01*
X5210285Y74921471D01*
X5127524Y74866173D01*
X5030747Y74631981D01*
X420000Y74631981D01*
X420000Y76426686D01*
X4629763Y76426686D01*
X4837893Y75922971D01*
X5222944Y75537248D01*
X5726295Y75328238D01*
X6271314Y75327763D01*
X6775029Y75535893D01*
X7160752Y75920944D01*
X7369762Y76424295D01*
X7369852Y76528686D01*
X11129763Y76528686D01*
X11337893Y76024971D01*
X11722944Y75639248D01*
X12226295Y75430238D01*
X12771314Y75429763D01*
X13275029Y75637893D01*
X13660752Y76022944D01*
X13869762Y76526295D01*
X13869764Y76528686D01*
X15129763Y76528686D01*
X15337893Y76024971D01*
X15722944Y75639248D01*
X16226295Y75430238D01*
X16771314Y75429763D01*
X17275029Y75637893D01*
X17660752Y76022944D01*
X17828400Y76426686D01*
X21629763Y76426686D01*
X21837893Y75922971D01*
X22222944Y75537248D01*
X22726295Y75328238D01*
X23271314Y75327763D01*
X23775029Y75535893D01*
X24160752Y75920944D01*
X24369762Y76424295D01*
X24370237Y76969314D01*
X24162107Y77473029D01*
X23777056Y77858752D01*
X23273705Y78067762D01*
X22728686Y78068237D01*
X22224971Y77860107D01*
X21839248Y77475056D01*
X21630238Y76971705D01*
X21629763Y76426686D01*
X17828400Y76426686D01*
X17869762Y76526295D01*
X17870237Y77071314D01*
X17662107Y77575029D01*
X17277056Y77960752D01*
X16773705Y78169762D01*
X16228686Y78170237D01*
X15724971Y77962107D01*
X15339248Y77577056D01*
X15130238Y77073705D01*
X15129763Y76528686D01*
X13869764Y76528686D01*
X13870237Y77071314D01*
X13662107Y77575029D01*
X13277056Y77960752D01*
X12773705Y78169762D01*
X12228686Y78170237D01*
X11724971Y77962107D01*
X11339248Y77577056D01*
X11130238Y77073705D01*
X11129763Y76528686D01*
X7369852Y76528686D01*
X7370237Y76969314D01*
X7162107Y77473029D01*
X6777056Y77858752D01*
X6273705Y78067762D01*
X5728686Y78068237D01*
X5224971Y77860107D01*
X4839248Y77475056D01*
X4630238Y76971705D01*
X4629763Y76426686D01*
X420000Y76426686D01*
X420000Y79306412D01*
X12549140Y79306412D01*
X12597250Y79113783D01*
X12984555Y78939099D01*
X13409228Y78925927D01*
X13806614Y79076274D01*
X13862750Y79113783D01*
X13910860Y79306412D01*
X13230000Y79987272D01*
X12549140Y79306412D01*
X420000Y79306412D01*
X420000Y79820772D01*
X12155927Y79820772D01*
X12306274Y79423386D01*
X12343783Y79367250D01*
X12536412Y79319140D01*
X13217272Y80000000D01*
X13242728Y80000000D01*
X13923588Y79319140D01*
X14116217Y79367250D01*
X14290901Y79754555D01*
X14304073Y80179228D01*
X14153726Y80576614D01*
X14138100Y80600000D01*
X14792752Y80600000D01*
X14792752Y79400000D01*
X14821468Y79255633D01*
X14903245Y79133245D01*
X15025633Y79051468D01*
X15170000Y79022752D01*
X16370000Y79022752D01*
X16514367Y79051468D01*
X16636755Y79133245D01*
X16718532Y79255633D01*
X16747248Y79400000D01*
X16747248Y80600000D01*
X16718532Y80744367D01*
X16636755Y80866755D01*
X16514367Y80948532D01*
X16370000Y80977248D01*
X15170000Y80977248D01*
X15025633Y80948532D01*
X14903245Y80866755D01*
X14821468Y80744367D01*
X14792752Y80600000D01*
X14138100Y80600000D01*
X14116217Y80632750D01*
X13923588Y80680860D01*
X13242728Y80000000D01*
X13217272Y80000000D01*
X12536412Y80680860D01*
X12343783Y80632750D01*
X12169099Y80245445D01*
X12155927Y79820772D01*
X420000Y79820772D01*
X420000Y80693588D01*
X12549140Y80693588D01*
X13230000Y80012728D01*
X13910860Y80693588D01*
X13862750Y80886217D01*
X13475445Y81060901D01*
X13050772Y81074073D01*
X12653386Y80923726D01*
X12597250Y80886217D01*
X12549140Y80693588D01*
X420000Y80693588D01*
X420000Y84554686D01*
X4629763Y84554686D01*
X4837893Y84050971D01*
X5222944Y83665248D01*
X5726295Y83456238D01*
X6271314Y83455763D01*
X6775029Y83663893D01*
X7160752Y84048944D01*
X7369762Y84552295D01*
X7369764Y84554686D01*
X21629763Y84554686D01*
X21837893Y84050971D01*
X22222944Y83665248D01*
X22726295Y83456238D01*
X23271314Y83455763D01*
X23775029Y83663893D01*
X24160752Y84048944D01*
X24369762Y84552295D01*
X24370237Y85097314D01*
X24162107Y85601029D01*
X23777056Y85986752D01*
X23273705Y86195762D01*
X22728686Y86196237D01*
X22224971Y85988107D01*
X21839248Y85603056D01*
X21630238Y85099705D01*
X21629763Y84554686D01*
X7369764Y84554686D01*
X7370237Y85097314D01*
X7162107Y85601029D01*
X6777056Y85986752D01*
X6273705Y86195762D01*
X5728686Y86196237D01*
X5224971Y85988107D01*
X4839248Y85603056D01*
X4630238Y85099705D01*
X4629763Y84554686D01*
X420000Y84554686D01*
X420000Y88557269D01*
X424943Y88562212D01*
X497386Y88348804D01*
X956950Y88140809D01*
X1461129Y88124514D01*
X1842658Y88268294D01*
X10829797Y88268294D01*
X11007544Y87838114D01*
X11336383Y87508700D01*
X11766252Y87330203D01*
X12231706Y87329797D01*
X12661886Y87507544D01*
X12991300Y87836383D01*
X13169797Y88266252D01*
X13169798Y88268294D01*
X13329797Y88268294D01*
X13507544Y87838114D01*
X13836383Y87508700D01*
X14266252Y87330203D01*
X14731706Y87329797D01*
X15161886Y87507544D01*
X15491300Y87836383D01*
X15669797Y88266252D01*
X15669798Y88268294D01*
X15829797Y88268294D01*
X16007544Y87838114D01*
X16336383Y87508700D01*
X16766252Y87330203D01*
X17231706Y87329797D01*
X17661886Y87507544D01*
X17991300Y87836383D01*
X18169797Y88266252D01*
X18170203Y88731706D01*
X17992456Y89161886D01*
X17965519Y89188871D01*
X26474514Y89188871D01*
X26652401Y88716836D01*
X26698804Y88647386D01*
X26912214Y88574942D01*
X27737272Y89400000D01*
X26912214Y90225058D01*
X26698804Y90152614D01*
X26490809Y89693050D01*
X26474514Y89188871D01*
X17965519Y89188871D01*
X17663617Y89491300D01*
X17233748Y89669797D01*
X16768294Y89670203D01*
X16338114Y89492456D01*
X16008700Y89163617D01*
X15830203Y88733748D01*
X15829797Y88268294D01*
X15669798Y88268294D01*
X15670203Y88731706D01*
X15492456Y89161886D01*
X15163617Y89491300D01*
X14733748Y89669797D01*
X14268294Y89670203D01*
X13838114Y89492456D01*
X13508700Y89163617D01*
X13330203Y88733748D01*
X13329797Y88268294D01*
X13169798Y88268294D01*
X13170203Y88731706D01*
X12992456Y89161886D01*
X12663617Y89491300D01*
X12233748Y89669797D01*
X11768294Y89670203D01*
X11338114Y89492456D01*
X11008700Y89163617D01*
X10830203Y88733748D01*
X10829797Y88268294D01*
X1842658Y88268294D01*
X1933164Y88302401D01*
X2002614Y88348804D01*
X2075058Y88562214D01*
X1250000Y89387272D01*
X1235858Y89373130D01*
X1223130Y89385858D01*
X1237272Y89400000D01*
X1262728Y89400000D01*
X2087786Y88574942D01*
X2301196Y88647386D01*
X2509191Y89106950D01*
X2525486Y89611129D01*
X2347599Y90083164D01*
X2301196Y90152614D01*
X2087786Y90225058D01*
X1262728Y89400000D01*
X1237272Y89400000D01*
X1223130Y89414142D01*
X1235858Y89426870D01*
X1250000Y89412728D01*
X2075058Y90237786D01*
X2002614Y90451196D01*
X1543050Y90659191D01*
X1038871Y90675486D01*
X566836Y90497599D01*
X497386Y90451196D01*
X424943Y90237788D01*
X420000Y90242731D01*
X420000Y90768294D01*
X10829797Y90768294D01*
X11007544Y90338114D01*
X11336383Y90008700D01*
X11766252Y89830203D01*
X12231706Y89829797D01*
X12661886Y90007544D01*
X12991300Y90336383D01*
X13169797Y90766252D01*
X13169798Y90768294D01*
X13329797Y90768294D01*
X13507544Y90338114D01*
X13836383Y90008700D01*
X14266252Y89830203D01*
X14731706Y89829797D01*
X15161886Y90007544D01*
X15491300Y90336383D01*
X15669797Y90766252D01*
X15669798Y90768294D01*
X15829797Y90768294D01*
X16007544Y90338114D01*
X16336383Y90008700D01*
X16766252Y89830203D01*
X17231706Y89829797D01*
X17661886Y90007544D01*
X17991300Y90336383D01*
X18169797Y90766252D01*
X18170203Y91231706D01*
X17992456Y91661886D01*
X17663617Y91991300D01*
X17233748Y92169797D01*
X16768294Y92170203D01*
X16338114Y91992456D01*
X16008700Y91663617D01*
X15830203Y91233748D01*
X15829797Y90768294D01*
X15669798Y90768294D01*
X15670203Y91231706D01*
X15492456Y91661886D01*
X15163617Y91991300D01*
X14733748Y92169797D01*
X14268294Y92170203D01*
X13838114Y91992456D01*
X13508700Y91663617D01*
X13330203Y91233748D01*
X13329797Y90768294D01*
X13169798Y90768294D01*
X13170203Y91231706D01*
X12992456Y91661886D01*
X12663617Y91991300D01*
X12233748Y92169797D01*
X11768294Y92170203D01*
X11338114Y91992456D01*
X11008700Y91663617D01*
X10830203Y91233748D01*
X10829797Y90768294D01*
X420000Y90768294D01*
X420000Y91115374D01*
X586383Y90948700D01*
X1016252Y90770203D01*
X1481706Y90769797D01*
X1911886Y90947544D01*
X2241300Y91276383D01*
X2419797Y91706252D01*
X2420203Y92171706D01*
X2242456Y92601886D01*
X1913617Y92931300D01*
X1483748Y93109797D01*
X1018294Y93110203D01*
X588114Y92932456D01*
X420000Y92764635D01*
X420000Y93655374D01*
X586383Y93488700D01*
X1016252Y93310203D01*
X1481706Y93309797D01*
X1911886Y93487544D01*
X2241300Y93816383D01*
X2419797Y94246252D01*
X2419816Y94268871D01*
X26474514Y94268871D01*
X26652401Y93796836D01*
X26698804Y93727386D01*
X26912214Y93654942D01*
X27737272Y94480000D01*
X26912214Y95305058D01*
X26698804Y95232614D01*
X26490809Y94773050D01*
X26474514Y94268871D01*
X2419816Y94268871D01*
X2420203Y94711706D01*
X2242456Y95141886D01*
X1913617Y95471300D01*
X1483748Y95649797D01*
X1018294Y95650203D01*
X588114Y95472456D01*
X420000Y95304635D01*
X420000Y96177269D01*
X424943Y96182212D01*
X497386Y95968804D01*
X956950Y95760809D01*
X1461129Y95744514D01*
X1933164Y95922401D01*
X2002614Y95968804D01*
X2075058Y96182214D01*
X1250000Y97007272D01*
X1235858Y96993130D01*
X1223130Y97005858D01*
X1237272Y97020000D01*
X1262728Y97020000D01*
X2087786Y96194942D01*
X2301196Y96267386D01*
X2509191Y96726950D01*
X2525486Y97231129D01*
X2347599Y97703164D01*
X2301196Y97772614D01*
X2087786Y97845058D01*
X1262728Y97020000D01*
X1237272Y97020000D01*
X1223130Y97034142D01*
X1235858Y97046870D01*
X1250000Y97032728D01*
X2075058Y97857786D01*
X2002614Y98071196D01*
X1543050Y98279191D01*
X1038871Y98295486D01*
X566836Y98117599D01*
X497386Y98071196D01*
X424943Y97857788D01*
X420000Y97862731D01*
X420000Y98735374D01*
X586383Y98568700D01*
X1016252Y98390203D01*
X1481706Y98389797D01*
X1726635Y98491000D01*
X8032000Y98491000D01*
X8032000Y97991000D01*
X8147189Y97429906D01*
X8468331Y96955603D01*
X8946536Y96640300D01*
X9261469Y96551509D01*
X9491000Y96649030D01*
X9491000Y98491000D01*
X9509000Y98491000D01*
X9509000Y96649030D01*
X9738531Y96551509D01*
X10053464Y96640300D01*
X10531669Y96955603D01*
X10852811Y97429906D01*
X10968000Y97991000D01*
X10968000Y98491000D01*
X18032000Y98491000D01*
X18032000Y97991000D01*
X18147189Y97429906D01*
X18468331Y96955603D01*
X18946536Y96640300D01*
X19261469Y96551509D01*
X19491000Y96649030D01*
X19491000Y98491000D01*
X19509000Y98491000D01*
X19509000Y96649030D01*
X19738531Y96551509D01*
X20053464Y96640300D01*
X20531669Y96955603D01*
X20852811Y97429906D01*
X20968000Y97991000D01*
X20968000Y98491000D01*
X19509000Y98491000D01*
X19491000Y98491000D01*
X18032000Y98491000D01*
X10968000Y98491000D01*
X9509000Y98491000D01*
X9491000Y98491000D01*
X8032000Y98491000D01*
X1726635Y98491000D01*
X1911886Y98567544D01*
X2241300Y98896383D01*
X2288062Y99009000D01*
X8032000Y99009000D01*
X8032000Y98509000D01*
X9491000Y98509000D01*
X9491000Y100350970D01*
X9509000Y100350970D01*
X9509000Y98509000D01*
X10968000Y98509000D01*
X10968000Y99009000D01*
X18032000Y99009000D01*
X18032000Y98509000D01*
X19491000Y98509000D01*
X19491000Y100350970D01*
X19509000Y100350970D01*
X19509000Y98509000D01*
X20968000Y98509000D01*
X20968000Y99009000D01*
X20898227Y99348871D01*
X26474514Y99348871D01*
X26652401Y98876836D01*
X26698804Y98807386D01*
X26912214Y98734942D01*
X27737272Y99560000D01*
X26912214Y100385058D01*
X26698804Y100312614D01*
X26490809Y99853050D01*
X26474514Y99348871D01*
X20898227Y99348871D01*
X20852811Y99570094D01*
X20531669Y100044397D01*
X20053464Y100359700D01*
X19738531Y100448491D01*
X19509000Y100350970D01*
X19491000Y100350970D01*
X19261469Y100448491D01*
X18946536Y100359700D01*
X18468331Y100044397D01*
X18147189Y99570094D01*
X18032000Y99009000D01*
X10968000Y99009000D01*
X10852811Y99570094D01*
X10531669Y100044397D01*
X10053464Y100359700D01*
X9738531Y100448491D01*
X9509000Y100350970D01*
X9491000Y100350970D01*
X9261469Y100448491D01*
X8946536Y100359700D01*
X8468331Y100044397D01*
X8147189Y99570094D01*
X8032000Y99009000D01*
X2288062Y99009000D01*
X2419797Y99326252D01*
X2420203Y99791706D01*
X2242456Y100221886D01*
X1913617Y100551300D01*
X1483748Y100729797D01*
X1018294Y100730203D01*
X588114Y100552456D01*
X420000Y100384635D01*
X420000Y100928719D01*
X450000Y100922752D01*
X2050000Y100922752D01*
X2194367Y100951468D01*
X2316755Y101033245D01*
X2398532Y101155633D01*
X2427248Y101300000D01*
X2427248Y102900000D01*
X2398532Y103044367D01*
X2316755Y103166755D01*
X2194367Y103248532D01*
X2050000Y103277248D01*
X450000Y103277248D01*
X420000Y103271281D01*
X420000Y105580000D01*
X28580000Y105580000D01*
X28580000Y103271281D01*
X28580000Y103271281D01*
G37*
X28580000Y103271281D02*
X28550000Y103277248D01*
X26950000Y103277248D01*
X26805633Y103248532D01*
X26683245Y103166755D01*
X26601468Y103044367D01*
X26572752Y102900000D01*
X26572752Y101300000D01*
X26601468Y101155633D01*
X26683245Y101033245D01*
X26805633Y100951468D01*
X26950000Y100922752D01*
X28550000Y100922752D01*
X28580000Y100928719D01*
X28580000Y100402731D01*
X28575057Y100397788D01*
X28502614Y100611196D01*
X28043050Y100819191D01*
X27538871Y100835486D01*
X27066836Y100657599D01*
X26997386Y100611196D01*
X26924942Y100397786D01*
X27750000Y99572728D01*
X27764142Y99586870D01*
X27776870Y99574142D01*
X27762728Y99560000D01*
X27776870Y99545858D01*
X27764142Y99533130D01*
X27750000Y99547272D01*
X26924942Y98722214D01*
X26997386Y98508804D01*
X27456950Y98300809D01*
X27961129Y98284514D01*
X28433164Y98462401D01*
X28502614Y98508804D01*
X28575057Y98722212D01*
X28580000Y98717269D01*
X28580000Y97844626D01*
X28413617Y98011300D01*
X27983748Y98189797D01*
X27518294Y98190203D01*
X27088114Y98012456D01*
X26758700Y97683617D01*
X26580203Y97253748D01*
X26579797Y96788294D01*
X26757544Y96358114D01*
X27086383Y96028700D01*
X27516252Y95850203D01*
X27981706Y95849797D01*
X28411886Y96027544D01*
X28580000Y96195365D01*
X28580000Y95322731D01*
X28575057Y95317788D01*
X28502614Y95531196D01*
X28043050Y95739191D01*
X27538871Y95755486D01*
X27066836Y95577599D01*
X26997386Y95531196D01*
X26924942Y95317786D01*
X27750000Y94492728D01*
X27764142Y94506870D01*
X27776870Y94494142D01*
X27762728Y94480000D01*
X27776870Y94465858D01*
X27764142Y94453130D01*
X27750000Y94467272D01*
X26924942Y93642214D01*
X26997386Y93428804D01*
X27456950Y93220809D01*
X27961129Y93204514D01*
X28433164Y93382401D01*
X28502614Y93428804D01*
X28575057Y93642212D01*
X28580000Y93637269D01*
X28580000Y92764626D01*
X28413617Y92931300D01*
X27983748Y93109797D01*
X27518294Y93110203D01*
X27088114Y92932456D01*
X26758700Y92603617D01*
X26580203Y92173748D01*
X26579797Y91708294D01*
X26757544Y91278114D01*
X27086383Y90948700D01*
X27516252Y90770203D01*
X27981706Y90769797D01*
X28411886Y90947544D01*
X28580000Y91115365D01*
X28580000Y90242731D01*
X28575057Y90237788D01*
X28502614Y90451196D01*
X28043050Y90659191D01*
X27538871Y90675486D01*
X27066836Y90497599D01*
X26997386Y90451196D01*
X26924942Y90237786D01*
X27750000Y89412728D01*
X27764142Y89426870D01*
X27776870Y89414142D01*
X27762728Y89400000D01*
X27776870Y89385858D01*
X27764142Y89373130D01*
X27750000Y89387272D01*
X26924942Y88562214D01*
X26997386Y88348804D01*
X27456950Y88140809D01*
X27961129Y88124514D01*
X28433164Y88302401D01*
X28502614Y88348804D01*
X28575057Y88562212D01*
X28580000Y88557269D01*
X28580000Y51170326D01*
X28099705Y51369762D01*
X27554686Y51370237D01*
X27050971Y51162107D01*
X26665248Y50777056D01*
X26558509Y50520000D01*
X25339552Y50520000D01*
X25165099Y50694757D01*
X24863824Y50819858D01*
X24537607Y50820142D01*
X24236114Y50695568D01*
X24005243Y50465099D01*
X23880142Y50163824D01*
X23879858Y49837607D01*
X24004432Y49536114D01*
X24234901Y49305243D01*
X24536176Y49180142D01*
X24862393Y49179858D01*
X25163886Y49304432D01*
X25339760Y49480000D01*
X26558518Y49480000D01*
X26663893Y49224971D01*
X27048944Y48839248D01*
X27552295Y48630238D01*
X28097314Y48629763D01*
X28580000Y48829204D01*
X28580000Y43771281D01*
X28550000Y43777248D01*
X26950000Y43777248D01*
X26805633Y43748532D01*
X26683245Y43666755D01*
X26601468Y43544367D01*
X26572752Y43400000D01*
X26572752Y41800000D01*
X26601468Y41655633D01*
X26683245Y41533245D01*
X26805633Y41451468D01*
X26950000Y41422752D01*
X28550000Y41422752D01*
X28580000Y41428719D01*
X28580000Y40884626D01*
X28413617Y41051300D01*
X27983748Y41229797D01*
X27518294Y41230203D01*
X27088114Y41052456D01*
X26758700Y40723617D01*
X26580203Y40293748D01*
X26579797Y39828294D01*
X26757544Y39398114D01*
X27086383Y39068700D01*
X27516252Y38890203D01*
X27981706Y38889797D01*
X28411886Y39067544D01*
X28580000Y39235365D01*
X28580000Y38344626D01*
X28413617Y38511300D01*
X27983748Y38689797D01*
X27518294Y38690203D01*
X27088114Y38512456D01*
X26758700Y38183617D01*
X26580203Y37753748D01*
X26579797Y37288294D01*
X26757544Y36858114D01*
X27086383Y36528700D01*
X27516252Y36350203D01*
X27981706Y36349797D01*
X28411886Y36527544D01*
X28580000Y36695365D01*
X28580000Y35804626D01*
X28413617Y35971300D01*
X27983748Y36149797D01*
X27518294Y36150203D01*
X27088114Y35972456D01*
X26758700Y35643617D01*
X26580203Y35213748D01*
X26579797Y34748294D01*
X26757544Y34318114D01*
X27086383Y33988700D01*
X27516252Y33810203D01*
X27981706Y33809797D01*
X28411886Y33987544D01*
X28580000Y34155365D01*
X28580000Y33264626D01*
X28413617Y33431300D01*
X27983748Y33609797D01*
X27518294Y33610203D01*
X27088114Y33432456D01*
X26758700Y33103617D01*
X26580203Y32673748D01*
X26579797Y32208294D01*
X26757544Y31778114D01*
X27086383Y31448700D01*
X27516252Y31270203D01*
X27981706Y31269797D01*
X28411886Y31447544D01*
X28580000Y31615365D01*
X28580000Y30742731D01*
X28575057Y30737788D01*
X28502614Y30951196D01*
X28043050Y31159191D01*
X27538871Y31175486D01*
X27066836Y30997599D01*
X26997386Y30951196D01*
X26924942Y30737786D01*
X27750000Y29912728D01*
X27764142Y29926870D01*
X27776870Y29914142D01*
X27762728Y29900000D01*
X27776870Y29885858D01*
X27764142Y29873130D01*
X27750000Y29887272D01*
X26924942Y29062214D01*
X26997386Y28848804D01*
X27456950Y28640809D01*
X27961129Y28624514D01*
X28433164Y28802401D01*
X28502614Y28848804D01*
X28575057Y29062212D01*
X28580000Y29057269D01*
X28580000Y11524900D01*
X28467599Y11823164D01*
X28421196Y11892614D01*
X28207786Y11965058D01*
X27382728Y11140000D01*
X28207786Y10314942D01*
X28421196Y10387386D01*
X28580000Y10738263D01*
X28580000Y8984900D01*
X28467599Y9283164D01*
X28421196Y9352614D01*
X28207786Y9425058D01*
X27382728Y8600000D01*
X28207786Y7774942D01*
X28421196Y7847386D01*
X28580000Y8198263D01*
X28580000Y6444900D01*
X28467599Y6743164D01*
X28421196Y6812614D01*
X28207786Y6885058D01*
X27382728Y6060000D01*
X28207786Y5234942D01*
X28421196Y5307386D01*
X28580000Y5658263D01*
X28580000Y420000D01*
X22811724Y420000D01*
X22855029Y437893D01*
X23240752Y822944D01*
X23449762Y1326295D01*
X23450237Y1871314D01*
X23242107Y2375029D01*
X22857056Y2760752D01*
X22353705Y2969762D01*
X21808686Y2970237D01*
X21304971Y2762107D01*
X20919248Y2377056D01*
X20710238Y1873705D01*
X20709763Y1328686D01*
X20917893Y824971D01*
X21302944Y439248D01*
X21349298Y420000D01*
X12651724Y420000D01*
X12695029Y437893D01*
X13080752Y822944D01*
X13289762Y1326295D01*
X13290237Y1871314D01*
X13082107Y2375029D01*
X12697056Y2760752D01*
X12193705Y2969762D01*
X11648686Y2970237D01*
X11144971Y2762107D01*
X10759248Y2377056D01*
X10550238Y1873705D01*
X10549763Y1328686D01*
X10757893Y824971D01*
X11142944Y439248D01*
X11189298Y420000D01*
X10052731Y420000D01*
X9993590Y479141D01*
X10186217Y527250D01*
X10360901Y914555D01*
X10374073Y1339228D01*
X10223726Y1736614D01*
X10186217Y1792750D01*
X9993588Y1840860D01*
X9312728Y1160000D01*
X9326870Y1145858D01*
X9314142Y1133130D01*
X9300000Y1147272D01*
X9285858Y1133130D01*
X9273130Y1145858D01*
X9287272Y1160000D01*
X8606412Y1840860D01*
X8413783Y1792750D01*
X8298876Y1537982D01*
X8223726Y1736614D01*
X8186217Y1792750D01*
X7993588Y1840860D01*
X7312728Y1160000D01*
X7326870Y1145858D01*
X7314142Y1133130D01*
X7300000Y1147272D01*
X7285858Y1133130D01*
X7273130Y1145858D01*
X7287272Y1160000D01*
X6606412Y1840860D01*
X6413783Y1792750D01*
X6239099Y1405445D01*
X6225927Y980772D01*
X6376274Y583386D01*
X6413783Y527250D01*
X6606410Y479141D01*
X6547269Y420000D01*
X420000Y420000D01*
X420000Y2248686D01*
X429763Y2248686D01*
X637893Y1744971D01*
X1022944Y1359248D01*
X1526295Y1150238D01*
X2071314Y1149763D01*
X2575029Y1357893D01*
X2960752Y1742944D01*
X3169762Y2246295D01*
X3169764Y2248686D01*
X3429763Y2248686D01*
X3637893Y1744971D01*
X4022944Y1359248D01*
X4526295Y1150238D01*
X5071314Y1149763D01*
X5575029Y1357893D01*
X5960752Y1742944D01*
X6006695Y1853588D01*
X6619140Y1853588D01*
X7300000Y1172728D01*
X7980860Y1853588D01*
X8619140Y1853588D01*
X9300000Y1172728D01*
X9980860Y1853588D01*
X9932750Y2046217D01*
X9545445Y2220901D01*
X9120772Y2234073D01*
X8723386Y2083726D01*
X8667250Y2046217D01*
X8619140Y1853588D01*
X7980860Y1853588D01*
X7932750Y2046217D01*
X7545445Y2220901D01*
X7120772Y2234073D01*
X6723386Y2083726D01*
X6667250Y2046217D01*
X6619140Y1853588D01*
X6006695Y1853588D01*
X6169762Y2246295D01*
X6170237Y2791314D01*
X5962107Y3295029D01*
X5577056Y3680752D01*
X5073705Y3889762D01*
X4528686Y3890237D01*
X4024971Y3682107D01*
X3639248Y3297056D01*
X3430238Y2793705D01*
X3429763Y2248686D01*
X3169764Y2248686D01*
X3170237Y2791314D01*
X2962107Y3295029D01*
X2577056Y3680752D01*
X2073705Y3889762D01*
X1528686Y3890237D01*
X1024971Y3682107D01*
X639248Y3297056D01*
X430238Y2793705D01*
X429763Y2248686D01*
X420000Y2248686D01*
X420000Y4228686D01*
X10549763Y4228686D01*
X10757893Y3724971D01*
X11142944Y3339248D01*
X11646295Y3130238D01*
X12191314Y3129763D01*
X12695029Y3337893D01*
X13080752Y3722944D01*
X13289762Y4226295D01*
X13289764Y4228686D01*
X20709763Y4228686D01*
X20917893Y3724971D01*
X21302944Y3339248D01*
X21806295Y3130238D01*
X22351314Y3129763D01*
X22855029Y3337893D01*
X23240752Y3722944D01*
X23449762Y4226295D01*
X23449843Y4320000D01*
X23652752Y4320000D01*
X23652752Y2720000D01*
X23681468Y2575633D01*
X23763245Y2453245D01*
X23885633Y2371468D01*
X24030000Y2342752D01*
X25630000Y2342752D01*
X25774367Y2371468D01*
X25896755Y2453245D01*
X25978532Y2575633D01*
X26007248Y2720000D01*
X26007248Y3288294D01*
X26199797Y3288294D01*
X26377544Y2858114D01*
X26706383Y2528700D01*
X27136252Y2350203D01*
X27601706Y2349797D01*
X28031886Y2527544D01*
X28361300Y2856383D01*
X28539797Y3286252D01*
X28540203Y3751706D01*
X28362456Y4181886D01*
X28033617Y4511300D01*
X27603748Y4689797D01*
X27138294Y4690203D01*
X26708114Y4512456D01*
X26378700Y4183617D01*
X26200203Y3753748D01*
X26199797Y3288294D01*
X26007248Y3288294D01*
X26007248Y4320000D01*
X25978532Y4464367D01*
X25896755Y4586755D01*
X25774367Y4668532D01*
X25630000Y4697248D01*
X24030000Y4697248D01*
X23885633Y4668532D01*
X23763245Y4586755D01*
X23681468Y4464367D01*
X23652752Y4320000D01*
X23449843Y4320000D01*
X23450237Y4771314D01*
X23263930Y5222214D01*
X24004942Y5222214D01*
X24077386Y5008804D01*
X24536950Y4800809D01*
X25041129Y4784514D01*
X25513164Y4962401D01*
X25582614Y5008804D01*
X25655058Y5222214D01*
X26544942Y5222214D01*
X26617386Y5008804D01*
X27076950Y4800809D01*
X27581129Y4784514D01*
X28053164Y4962401D01*
X28122614Y5008804D01*
X28195058Y5222214D01*
X27370000Y6047272D01*
X26544942Y5222214D01*
X25655058Y5222214D01*
X24830000Y6047272D01*
X24004942Y5222214D01*
X23263930Y5222214D01*
X23242107Y5275029D01*
X22857056Y5660752D01*
X22404017Y5848871D01*
X23554514Y5848871D01*
X23732401Y5376836D01*
X23778804Y5307386D01*
X23992214Y5234942D01*
X24817272Y6060000D01*
X24842728Y6060000D01*
X25667786Y5234942D01*
X25881196Y5307386D01*
X26089191Y5766950D01*
X26091838Y5848871D01*
X26094514Y5848871D01*
X26272401Y5376836D01*
X26318804Y5307386D01*
X26532214Y5234942D01*
X27357272Y6060000D01*
X26532214Y6885058D01*
X26318804Y6812614D01*
X26110809Y6353050D01*
X26094514Y5848871D01*
X26091838Y5848871D01*
X26105486Y6271129D01*
X25927599Y6743164D01*
X25881196Y6812614D01*
X25667786Y6885058D01*
X24842728Y6060000D01*
X24817272Y6060000D01*
X23992214Y6885058D01*
X23778804Y6812614D01*
X23570809Y6353050D01*
X23554514Y5848871D01*
X22404017Y5848871D01*
X22353705Y5869762D01*
X21808686Y5870237D01*
X21304971Y5662107D01*
X20919248Y5277056D01*
X20710238Y4773705D01*
X20709763Y4228686D01*
X13289764Y4228686D01*
X13290237Y4771314D01*
X13082107Y5275029D01*
X12697056Y5660752D01*
X12193705Y5869762D01*
X11648686Y5870237D01*
X11144971Y5662107D01*
X10759248Y5277056D01*
X10550238Y4773705D01*
X10549763Y4228686D01*
X420000Y4228686D01*
X420000Y6047902D01*
X6329832Y6047902D01*
X6477195Y5691257D01*
X6749822Y5418154D01*
X7106209Y5270169D01*
X7492098Y5269832D01*
X7848743Y5417195D01*
X8121846Y5689822D01*
X8269831Y6046209D01*
X8269832Y6047902D01*
X8329832Y6047902D01*
X8477195Y5691257D01*
X8749822Y5418154D01*
X9106209Y5270169D01*
X9492098Y5269832D01*
X9848743Y5417195D01*
X10121846Y5689822D01*
X10269831Y6046209D01*
X10270168Y6432098D01*
X10122805Y6788743D01*
X9850178Y7061846D01*
X9493791Y7209831D01*
X9107902Y7210168D01*
X8751257Y7062805D01*
X8478154Y6790178D01*
X8330169Y6433791D01*
X8329832Y6047902D01*
X8269832Y6047902D01*
X8270168Y6432098D01*
X8122805Y6788743D01*
X7850178Y7061846D01*
X7493791Y7209831D01*
X7107902Y7210168D01*
X6751257Y7062805D01*
X6478154Y6790178D01*
X6330169Y6433791D01*
X6329832Y6047902D01*
X420000Y6047902D01*
X420000Y12408686D01*
X429763Y12408686D01*
X637893Y11904971D01*
X1022944Y11519248D01*
X1526295Y11310238D01*
X2071314Y11309763D01*
X2575029Y11517893D01*
X2960752Y11902944D01*
X3169762Y12406295D01*
X3169764Y12408686D01*
X3429763Y12408686D01*
X3637893Y11904971D01*
X4022944Y11519248D01*
X4526295Y11310238D01*
X5071314Y11309763D01*
X5575029Y11517893D01*
X5960752Y11902944D01*
X6169762Y12406295D01*
X6170237Y12951314D01*
X5962107Y13455029D01*
X5577056Y13840752D01*
X5193545Y14000000D01*
X6064390Y14000000D01*
X6706513Y10771832D01*
X8535123Y8035123D01*
X11271832Y6206513D01*
X14500000Y5564390D01*
X17728168Y6206513D01*
X18762731Y6897786D01*
X24004942Y6897786D01*
X24830000Y6072728D01*
X25655058Y6897786D01*
X26544942Y6897786D01*
X27370000Y6072728D01*
X28195058Y6897786D01*
X28122614Y7111196D01*
X27663050Y7319191D01*
X27158871Y7335486D01*
X26686836Y7157599D01*
X26617386Y7111196D01*
X26544942Y6897786D01*
X25655058Y6897786D01*
X25582614Y7111196D01*
X25123050Y7319191D01*
X24618871Y7335486D01*
X24146836Y7157599D01*
X24077386Y7111196D01*
X24004942Y6897786D01*
X18762731Y6897786D01*
X20056439Y7762214D01*
X24004942Y7762214D01*
X24077386Y7548804D01*
X24536950Y7340809D01*
X25041129Y7324514D01*
X25513164Y7502401D01*
X25582614Y7548804D01*
X25655058Y7762214D01*
X26544942Y7762214D01*
X26617386Y7548804D01*
X27076950Y7340809D01*
X27581129Y7324514D01*
X28053164Y7502401D01*
X28122614Y7548804D01*
X28195058Y7762214D01*
X27370000Y8587272D01*
X26544942Y7762214D01*
X25655058Y7762214D01*
X24830000Y8587272D01*
X24004942Y7762214D01*
X20056439Y7762214D01*
X20464877Y8035123D01*
X20701243Y8388871D01*
X23554514Y8388871D01*
X23732401Y7916836D01*
X23778804Y7847386D01*
X23992214Y7774942D01*
X24817272Y8600000D01*
X24842728Y8600000D01*
X25667786Y7774942D01*
X25881196Y7847386D01*
X26089191Y8306950D01*
X26091838Y8388871D01*
X26094514Y8388871D01*
X26272401Y7916836D01*
X26318804Y7847386D01*
X26532214Y7774942D01*
X27357272Y8600000D01*
X26532214Y9425058D01*
X26318804Y9352614D01*
X26110809Y8893050D01*
X26094514Y8388871D01*
X26091838Y8388871D01*
X26105486Y8811129D01*
X25927599Y9283164D01*
X25881196Y9352614D01*
X25667786Y9425058D01*
X24842728Y8600000D01*
X24817272Y8600000D01*
X23992214Y9425058D01*
X23778804Y9352614D01*
X23570809Y8893050D01*
X23554514Y8388871D01*
X20701243Y8388871D01*
X21402105Y9437786D01*
X24004942Y9437786D01*
X24830000Y8612728D01*
X25655058Y9437786D01*
X26544942Y9437786D01*
X27370000Y8612728D01*
X28195058Y9437786D01*
X28122614Y9651196D01*
X27663050Y9859191D01*
X27158871Y9875486D01*
X26686836Y9697599D01*
X26617386Y9651196D01*
X26544942Y9437786D01*
X25655058Y9437786D01*
X25582614Y9651196D01*
X25123050Y9859191D01*
X24618871Y9875486D01*
X24146836Y9697599D01*
X24077386Y9651196D01*
X24004942Y9437786D01*
X21402105Y9437786D01*
X21979697Y10302214D01*
X24004942Y10302214D01*
X24077386Y10088804D01*
X24536950Y9880809D01*
X25041129Y9864514D01*
X25513164Y10042401D01*
X25582614Y10088804D01*
X25655058Y10302214D01*
X26544942Y10302214D01*
X26617386Y10088804D01*
X27076950Y9880809D01*
X27581129Y9864514D01*
X28053164Y10042401D01*
X28122614Y10088804D01*
X28195058Y10302214D01*
X27370000Y11127272D01*
X26544942Y10302214D01*
X25655058Y10302214D01*
X24830000Y11127272D01*
X24004942Y10302214D01*
X21979697Y10302214D01*
X22293487Y10771832D01*
X22324724Y10928871D01*
X23554514Y10928871D01*
X23732401Y10456836D01*
X23778804Y10387386D01*
X23992214Y10314942D01*
X24817272Y11140000D01*
X24842728Y11140000D01*
X25667786Y10314942D01*
X25881196Y10387386D01*
X26089191Y10846950D01*
X26091838Y10928871D01*
X26094514Y10928871D01*
X26272401Y10456836D01*
X26318804Y10387386D01*
X26532214Y10314942D01*
X27357272Y11140000D01*
X26532214Y11965058D01*
X26318804Y11892614D01*
X26110809Y11433050D01*
X26094514Y10928871D01*
X26091838Y10928871D01*
X26105486Y11351129D01*
X25927599Y11823164D01*
X25881196Y11892614D01*
X25667786Y11965058D01*
X24842728Y11140000D01*
X24817272Y11140000D01*
X23992214Y11965058D01*
X23778804Y11892614D01*
X23570809Y11433050D01*
X23554514Y10928871D01*
X22324724Y10928871D01*
X22533366Y11977786D01*
X24004942Y11977786D01*
X24830000Y11152728D01*
X25655058Y11977786D01*
X26544942Y11977786D01*
X27370000Y11152728D01*
X28195058Y11977786D01*
X28122614Y12191196D01*
X27663050Y12399191D01*
X27158871Y12415486D01*
X26686836Y12237599D01*
X26617386Y12191196D01*
X26544942Y11977786D01*
X25655058Y11977786D01*
X25582614Y12191196D01*
X25123050Y12399191D01*
X24618871Y12415486D01*
X24146836Y12237599D01*
X24077386Y12191196D01*
X24004942Y11977786D01*
X22533366Y11977786D01*
X22825868Y13448294D01*
X23659797Y13448294D01*
X23837544Y13018114D01*
X24166383Y12688700D01*
X24596252Y12510203D01*
X25061706Y12509797D01*
X25491886Y12687544D01*
X25821300Y13016383D01*
X25999797Y13446252D01*
X25999798Y13448294D01*
X26199797Y13448294D01*
X26377544Y13018114D01*
X26706383Y12688700D01*
X27136252Y12510203D01*
X27601706Y12509797D01*
X28031886Y12687544D01*
X28361300Y13016383D01*
X28539797Y13446252D01*
X28540203Y13911706D01*
X28362456Y14341886D01*
X28033617Y14671300D01*
X27603748Y14849797D01*
X27138294Y14850203D01*
X26708114Y14672456D01*
X26378700Y14343617D01*
X26200203Y13913748D01*
X26199797Y13448294D01*
X25999798Y13448294D01*
X26000203Y13911706D01*
X25822456Y14341886D01*
X25493617Y14671300D01*
X25063748Y14849797D01*
X24598294Y14850203D01*
X24168114Y14672456D01*
X23838700Y14343617D01*
X23660203Y13913748D01*
X23659797Y13448294D01*
X22825868Y13448294D01*
X22935610Y14000000D01*
X22293487Y17228168D01*
X20464877Y19964877D01*
X17728168Y21793487D01*
X17663190Y21806412D01*
X19679140Y21806412D01*
X19727250Y21613783D01*
X20114555Y21439099D01*
X20539228Y21425927D01*
X20936614Y21576274D01*
X20992750Y21613783D01*
X21040860Y21806412D01*
X20360000Y22487272D01*
X19679140Y21806412D01*
X17663190Y21806412D01*
X15077330Y22320772D01*
X19285927Y22320772D01*
X19436274Y21923386D01*
X19473783Y21867250D01*
X19666412Y21819140D01*
X20347272Y22500000D01*
X20372728Y22500000D01*
X21053588Y21819140D01*
X21246217Y21867250D01*
X21420901Y22254555D01*
X21422555Y22307902D01*
X24469832Y22307902D01*
X24617195Y21951257D01*
X24889822Y21678154D01*
X25246209Y21530169D01*
X25632098Y21529832D01*
X25988743Y21677195D01*
X26261846Y21949822D01*
X26409831Y22306209D01*
X26410168Y22692098D01*
X26262805Y23048743D01*
X25990178Y23321846D01*
X25633791Y23469831D01*
X25247902Y23470168D01*
X24891257Y23322805D01*
X24618154Y23050178D01*
X24470169Y22693791D01*
X24469832Y22307902D01*
X21422555Y22307902D01*
X21434073Y22679228D01*
X21283726Y23076614D01*
X21246217Y23132750D01*
X21053588Y23180860D01*
X20372728Y22500000D01*
X20347272Y22500000D01*
X19666412Y23180860D01*
X19473783Y23132750D01*
X19299099Y22745445D01*
X19285927Y22320772D01*
X15077330Y22320772D01*
X14500000Y22435610D01*
X11271832Y21793487D01*
X8535123Y19964877D01*
X6706513Y17228168D01*
X6064390Y14000000D01*
X5193545Y14000000D01*
X5073705Y14049762D01*
X4528686Y14050237D01*
X4024971Y13842107D01*
X3639248Y13457056D01*
X3430238Y12953705D01*
X3429763Y12408686D01*
X3169764Y12408686D01*
X3170237Y12951314D01*
X2962107Y13455029D01*
X2577056Y13840752D01*
X2073705Y14049762D01*
X1528686Y14050237D01*
X1024971Y13842107D01*
X639248Y13457056D01*
X430238Y12953705D01*
X429763Y12408686D01*
X420000Y12408686D01*
X420000Y16234314D01*
X1597042Y16234314D01*
X1657318Y16031293D01*
X2080753Y15839954D01*
X2545178Y15825221D01*
X2979890Y15989337D01*
X3042682Y16031293D01*
X3102958Y16234314D01*
X2350000Y16987272D01*
X1597042Y16234314D01*
X420000Y16234314D01*
X420000Y16804822D01*
X1175221Y16804822D01*
X1339337Y16370110D01*
X1381293Y16307318D01*
X1584314Y16247042D01*
X2337272Y17000000D01*
X2362728Y17000000D01*
X3115686Y16247042D01*
X3318707Y16307318D01*
X3510046Y16730753D01*
X3524779Y17195178D01*
X3360663Y17629890D01*
X3318707Y17692682D01*
X3294059Y17700000D01*
X3772752Y17700000D01*
X3772752Y16300000D01*
X3801468Y16155633D01*
X3883245Y16033245D01*
X4005633Y15951468D01*
X4150000Y15922752D01*
X5550000Y15922752D01*
X5694367Y15951468D01*
X5816755Y16033245D01*
X5898532Y16155633D01*
X5927248Y16300000D01*
X5927248Y17700000D01*
X5898532Y17844367D01*
X5816755Y17966755D01*
X5694367Y18048532D01*
X5550000Y18077248D01*
X4150000Y18077248D01*
X4005633Y18048532D01*
X3883245Y17966755D01*
X3801468Y17844367D01*
X3772752Y17700000D01*
X3294059Y17700000D01*
X3115686Y17752958D01*
X2362728Y17000000D01*
X2337272Y17000000D01*
X1584314Y17752958D01*
X1381293Y17692682D01*
X1189954Y17269247D01*
X1175221Y16804822D01*
X420000Y16804822D01*
X420000Y17765686D01*
X1597042Y17765686D01*
X2350000Y17012728D01*
X3102958Y17765686D01*
X3042682Y17968707D01*
X2619247Y18160046D01*
X2154822Y18174779D01*
X1720110Y18010663D01*
X1657318Y17968707D01*
X1597042Y17765686D01*
X420000Y17765686D01*
X420000Y23374000D01*
X1182000Y23374000D01*
X1182000Y22706909D01*
X1253249Y22534899D01*
X1384899Y22403249D01*
X1556909Y22332000D01*
X2224000Y22332000D01*
X2341000Y22449000D01*
X2341000Y23491000D01*
X2359000Y23491000D01*
X2359000Y22449000D01*
X2476000Y22332000D01*
X3143091Y22332000D01*
X3315101Y22403249D01*
X3446751Y22534899D01*
X3518000Y22706909D01*
X3518000Y23288098D01*
X3779814Y23288098D01*
X3942369Y22894685D01*
X4243102Y22593427D01*
X4636230Y22430186D01*
X5061902Y22429814D01*
X5455315Y22592369D01*
X5756573Y22893102D01*
X5919814Y23286230D01*
X5920186Y23711902D01*
X5757631Y24105315D01*
X5456898Y24406573D01*
X5063770Y24569814D01*
X4638098Y24570186D01*
X4244685Y24407631D01*
X3943427Y24106898D01*
X3780186Y23713770D01*
X3779814Y23288098D01*
X3518000Y23288098D01*
X3518000Y23374000D01*
X3401000Y23491000D01*
X2359000Y23491000D01*
X2341000Y23491000D01*
X1299000Y23491000D01*
X1182000Y23374000D01*
X420000Y23374000D01*
X420000Y24293091D01*
X1182000Y24293091D01*
X1182000Y23626000D01*
X1299000Y23509000D01*
X2341000Y23509000D01*
X2341000Y24551000D01*
X2359000Y24551000D01*
X2359000Y23509000D01*
X3401000Y23509000D01*
X3518000Y23626000D01*
X3518000Y24293091D01*
X3446751Y24465101D01*
X3315101Y24596751D01*
X3235638Y24629666D01*
X9629677Y24629666D01*
X9913767Y23942114D01*
X10439347Y23415616D01*
X11126402Y23130326D01*
X11870334Y23129677D01*
X12557886Y23413767D01*
X13084384Y23939347D01*
X13369674Y24626402D01*
X13369676Y24629666D01*
X15629677Y24629666D01*
X15913767Y23942114D01*
X16439347Y23415616D01*
X17126402Y23130326D01*
X17870334Y23129677D01*
X18025010Y23193588D01*
X19679140Y23193588D01*
X20360000Y22512728D01*
X21040860Y23193588D01*
X20994237Y23380264D01*
X21486440Y23565464D01*
X21562545Y23616315D01*
X21647155Y23840117D01*
X20750000Y24737272D01*
X19852845Y23840117D01*
X19937455Y23616315D01*
X20098960Y23543120D01*
X19783386Y23423726D01*
X19727250Y23386217D01*
X19679140Y23193588D01*
X18025010Y23193588D01*
X18557886Y23413767D01*
X19084384Y23939347D01*
X19326704Y24522920D01*
X19373808Y24522920D01*
X19565464Y24013560D01*
X19616315Y23937455D01*
X19840117Y23852845D01*
X20737272Y24750000D01*
X20762728Y24750000D01*
X21659883Y23852845D01*
X21883685Y23937455D01*
X22108335Y24433148D01*
X22110480Y24498490D01*
X23979780Y24498490D01*
X24172718Y24031542D01*
X24529663Y23673974D01*
X24996273Y23480221D01*
X25501510Y23479780D01*
X25968458Y23672718D01*
X26326026Y24029663D01*
X26519779Y24496273D01*
X26520220Y25001510D01*
X26327282Y25468458D01*
X25970337Y25826026D01*
X25503727Y26019779D01*
X24998490Y26020220D01*
X24531542Y25827282D01*
X24173974Y25470337D01*
X23980221Y25003727D01*
X23979780Y24498490D01*
X22110480Y24498490D01*
X22126192Y24977080D01*
X21934536Y25486440D01*
X21883685Y25562545D01*
X21659883Y25647155D01*
X20762728Y24750000D01*
X20737272Y24750000D01*
X19840117Y25647155D01*
X19616315Y25562545D01*
X19391665Y25066852D01*
X19373808Y24522920D01*
X19326704Y24522920D01*
X19369674Y24626402D01*
X19370323Y25370334D01*
X19250685Y25659883D01*
X19852845Y25659883D01*
X20750000Y24762728D01*
X21647155Y25659883D01*
X21562545Y25883685D01*
X21066852Y26108335D01*
X20522920Y26126192D01*
X20013560Y25934536D01*
X19937455Y25883685D01*
X19852845Y25659883D01*
X19250685Y25659883D01*
X19086233Y26057886D01*
X18560653Y26584384D01*
X17873598Y26869674D01*
X17870241Y26869677D01*
X17961886Y26907544D01*
X18291300Y27236383D01*
X18469797Y27666252D01*
X18470203Y28131706D01*
X18292456Y28561886D01*
X17963617Y28891300D01*
X17533748Y29069797D01*
X17068294Y29070203D01*
X16638114Y28892456D01*
X16308700Y28563617D01*
X16130203Y28133748D01*
X16129797Y27668294D01*
X16307544Y27238114D01*
X16636383Y26908700D01*
X16928741Y26787303D01*
X16442114Y26586233D01*
X15915616Y26060653D01*
X15630326Y25373598D01*
X15629677Y24629666D01*
X13369676Y24629666D01*
X13370323Y25370334D01*
X13086233Y26057886D01*
X12560653Y26584384D01*
X11873598Y26869674D01*
X11129666Y26870323D01*
X10442114Y26586233D01*
X9915616Y26060653D01*
X9630326Y25373598D01*
X9629677Y24629666D01*
X3235638Y24629666D01*
X3143091Y24668000D01*
X2476000Y24668000D01*
X2359000Y24551000D01*
X2341000Y24551000D01*
X2224000Y24668000D01*
X1556909Y24668000D01*
X1384899Y24596751D01*
X1253249Y24465101D01*
X1182000Y24293091D01*
X420000Y24293091D01*
X420000Y27306412D01*
X4049140Y27306412D01*
X4097250Y27113783D01*
X4484555Y26939099D01*
X4909228Y26925927D01*
X5306614Y27076274D01*
X5362750Y27113783D01*
X5410860Y27306412D01*
X4730000Y27987272D01*
X4049140Y27306412D01*
X420000Y27306412D01*
X420000Y27820772D01*
X3655927Y27820772D01*
X3806274Y27423386D01*
X3843783Y27367250D01*
X4036412Y27319140D01*
X4717272Y28000000D01*
X4742728Y28000000D01*
X5423588Y27319140D01*
X5616217Y27367250D01*
X5790901Y27754555D01*
X5804073Y28179228D01*
X5653726Y28576614D01*
X5638100Y28600000D01*
X6292752Y28600000D01*
X6292752Y27400000D01*
X6321468Y27255633D01*
X6403245Y27133245D01*
X6525633Y27051468D01*
X6670000Y27022752D01*
X7870000Y27022752D01*
X8006987Y27050000D01*
X8895330Y27050000D01*
X9036383Y26908700D01*
X9466252Y26730203D01*
X9931706Y26729797D01*
X10361886Y26907544D01*
X10691300Y27236383D01*
X10869797Y27666252D01*
X10870203Y28131706D01*
X10692456Y28561886D01*
X10574548Y28680000D01*
X10999995Y28680000D01*
X11000000Y28679999D01*
X11198995Y28719583D01*
X11367696Y28832304D01*
X12015464Y29480073D01*
X12262393Y29479858D01*
X12563886Y29604432D01*
X12794757Y29834901D01*
X12919858Y30136176D01*
X12920025Y30328686D01*
X16929763Y30328686D01*
X17137893Y29824971D01*
X17522944Y29439248D01*
X18026295Y29230238D01*
X18571314Y29229763D01*
X19075029Y29437893D01*
X19326445Y29688871D01*
X26474514Y29688871D01*
X26652401Y29216836D01*
X26698804Y29147386D01*
X26912214Y29074942D01*
X27737272Y29900000D01*
X26912214Y30725058D01*
X26698804Y30652614D01*
X26490809Y30193050D01*
X26474514Y29688871D01*
X19326445Y29688871D01*
X19460752Y29822944D01*
X19669762Y30326295D01*
X19669774Y30340117D01*
X19852845Y30340117D01*
X19937455Y30116315D01*
X20433148Y29891665D01*
X20977080Y29873808D01*
X21486440Y30065464D01*
X21562545Y30116315D01*
X21647155Y30340117D01*
X20750000Y31237272D01*
X19852845Y30340117D01*
X19669774Y30340117D01*
X19669841Y30417219D01*
X19840117Y30352845D01*
X20737272Y31250000D01*
X20762728Y31250000D01*
X21659883Y30352845D01*
X21883685Y30437455D01*
X22108335Y30933148D01*
X22110480Y30998490D01*
X23979780Y30998490D01*
X24172718Y30531542D01*
X24529663Y30173974D01*
X24996273Y29980221D01*
X25501510Y29979780D01*
X25968458Y30172718D01*
X26326026Y30529663D01*
X26519779Y30996273D01*
X26520220Y31501510D01*
X26327282Y31968458D01*
X25970337Y32326026D01*
X25503727Y32519779D01*
X24998490Y32520220D01*
X24531542Y32327282D01*
X24173974Y31970337D01*
X23980221Y31503727D01*
X23979780Y30998490D01*
X22110480Y30998490D01*
X22126192Y31477080D01*
X21934536Y31986440D01*
X21883685Y32062545D01*
X21659883Y32147155D01*
X20762728Y31250000D01*
X20737272Y31250000D01*
X19840117Y32147155D01*
X19616315Y32062545D01*
X19391665Y31566852D01*
X19387811Y31449455D01*
X19077056Y31760752D01*
X18573705Y31969762D01*
X18028686Y31970237D01*
X17524971Y31762107D01*
X17139248Y31377056D01*
X16930238Y30873705D01*
X16929763Y30328686D01*
X12920025Y30328686D01*
X12920142Y30462393D01*
X12795568Y30763886D01*
X12565099Y30994757D01*
X12263824Y31119858D01*
X11937607Y31120142D01*
X11636114Y30995568D01*
X11405243Y30765099D01*
X11280142Y30463824D01*
X11279926Y30215317D01*
X10784608Y29720000D01*
X9357628Y29720000D01*
X9460752Y29822944D01*
X9669762Y30326295D01*
X9670237Y30871314D01*
X9462107Y31375029D01*
X9077056Y31760752D01*
X8573705Y31969762D01*
X8028686Y31970237D01*
X7524971Y31762107D01*
X7139248Y31377056D01*
X6930238Y30873705D01*
X6929763Y30328686D01*
X7137893Y29824971D01*
X7522944Y29439248D01*
X7841557Y29306948D01*
X7511857Y28977248D01*
X6670000Y28977248D01*
X6525633Y28948532D01*
X6403245Y28866755D01*
X6321468Y28744367D01*
X6292752Y28600000D01*
X5638100Y28600000D01*
X5616217Y28632750D01*
X5423588Y28680860D01*
X4742728Y28000000D01*
X4717272Y28000000D01*
X4036412Y28680860D01*
X3843783Y28632750D01*
X3669099Y28245445D01*
X3655927Y27820772D01*
X420000Y27820772D01*
X420000Y29057269D01*
X424943Y29062212D01*
X497386Y28848804D01*
X956950Y28640809D01*
X1461129Y28624514D01*
X1644421Y28693588D01*
X4049140Y28693588D01*
X4730000Y28012728D01*
X5410860Y28693588D01*
X5362750Y28886217D01*
X4975445Y29060901D01*
X4550772Y29074073D01*
X4153386Y28923726D01*
X4097250Y28886217D01*
X4049140Y28693588D01*
X1644421Y28693588D01*
X1933164Y28802401D01*
X2002614Y28848804D01*
X2075058Y29062214D01*
X1250000Y29887272D01*
X1235858Y29873130D01*
X1223130Y29885858D01*
X1237272Y29900000D01*
X1223130Y29914142D01*
X1235858Y29926870D01*
X1250000Y29912728D01*
X1264142Y29926870D01*
X1276870Y29914142D01*
X1262728Y29900000D01*
X2087786Y29074942D01*
X2301196Y29147386D01*
X2438157Y29450000D01*
X2957375Y29450000D01*
X3004432Y29336114D01*
X3234901Y29105243D01*
X3536176Y28980142D01*
X3862393Y28979858D01*
X4163886Y29104432D01*
X4394757Y29334901D01*
X4519858Y29636176D01*
X4520142Y29962393D01*
X4395568Y30263886D01*
X4320000Y30339586D01*
X4320000Y31643188D01*
X5956812Y33280000D01*
X7900000Y33280000D01*
X8137264Y33327195D01*
X8338406Y33461594D01*
X8545106Y33668294D01*
X17229797Y33668294D01*
X17407544Y33238114D01*
X17736383Y32908700D01*
X18166252Y32730203D01*
X18631706Y32729797D01*
X19061886Y32907544D01*
X19391300Y33236383D01*
X19554198Y33628686D01*
X19629763Y33628686D01*
X19837893Y33124971D01*
X20222944Y32739248D01*
X20508384Y32620723D01*
X20013560Y32434536D01*
X19937455Y32383685D01*
X19852845Y32159883D01*
X20750000Y31262728D01*
X21647155Y32159883D01*
X21562545Y32383685D01*
X21240162Y32529790D01*
X21271314Y32529763D01*
X21775029Y32737893D01*
X22160752Y33122944D01*
X22369762Y33626295D01*
X22369764Y33628686D01*
X22629763Y33628686D01*
X22837893Y33124971D01*
X23222944Y32739248D01*
X23726295Y32530238D01*
X24271314Y32529763D01*
X24775029Y32737893D01*
X25160752Y33122944D01*
X25369762Y33626295D01*
X25370237Y34171314D01*
X25162107Y34675029D01*
X24777056Y35060752D01*
X24273705Y35269762D01*
X23728686Y35270237D01*
X23224971Y35062107D01*
X22839248Y34677056D01*
X22630238Y34173705D01*
X22629763Y33628686D01*
X22369764Y33628686D01*
X22370237Y34171314D01*
X22162107Y34675029D01*
X21777056Y35060752D01*
X21273705Y35269762D01*
X20728686Y35270237D01*
X20224971Y35062107D01*
X19839248Y34677056D01*
X19630238Y34173705D01*
X19629763Y33628686D01*
X19554198Y33628686D01*
X19569797Y33666252D01*
X19570203Y34131706D01*
X19392456Y34561886D01*
X19063617Y34891300D01*
X18633748Y35069797D01*
X18168294Y35070203D01*
X17738114Y34892456D01*
X17408700Y34563617D01*
X17230203Y34133748D01*
X17229797Y33668294D01*
X8545106Y33668294D01*
X10138406Y35261594D01*
X10270976Y35460000D01*
X12797283Y35460000D01*
X12886344Y35012260D01*
X13139968Y34632685D01*
X13519543Y34379061D01*
X13967283Y34290000D01*
X15032717Y34290000D01*
X15480457Y34379061D01*
X15860032Y34632685D01*
X16113656Y35012260D01*
X16202717Y35460000D01*
X16113656Y35907740D01*
X15860032Y36287315D01*
X15480457Y36540939D01*
X15032717Y36630000D01*
X13967283Y36630000D01*
X13519543Y36540939D01*
X13139968Y36287315D01*
X12886344Y35907740D01*
X12797283Y35460000D01*
X10270976Y35460000D01*
X10272805Y35462736D01*
X10290163Y35550001D01*
X10320000Y35700000D01*
X10320000Y37792757D01*
X12749051Y37792757D01*
X12825076Y37523073D01*
X13097024Y37109753D01*
X13506442Y36831965D01*
X13991000Y36732000D01*
X14491000Y36732000D01*
X14491000Y37991000D01*
X14509000Y37991000D01*
X14509000Y36732000D01*
X15009000Y36732000D01*
X15493558Y36831965D01*
X15902976Y37109753D01*
X16174924Y37523073D01*
X16250949Y37792757D01*
X16150965Y37991000D01*
X14509000Y37991000D01*
X14491000Y37991000D01*
X12849035Y37991000D01*
X12749051Y37792757D01*
X10320000Y37792757D01*
X10320000Y38207243D01*
X12749051Y38207243D01*
X12849035Y38009000D01*
X14491000Y38009000D01*
X14491000Y39268000D01*
X14509000Y39268000D01*
X14509000Y38009000D01*
X16150965Y38009000D01*
X16250949Y38207243D01*
X16174924Y38476927D01*
X15902976Y38890247D01*
X15493558Y39168035D01*
X15009000Y39268000D01*
X14509000Y39268000D01*
X14491000Y39268000D01*
X13991000Y39268000D01*
X13506442Y39168035D01*
X13097024Y38890247D01*
X12825076Y38476927D01*
X12749051Y38207243D01*
X10320000Y38207243D01*
X10320000Y39700000D01*
X10272805Y39937264D01*
X10138406Y40138406D01*
X9736812Y40540000D01*
X12797283Y40540000D01*
X12886344Y40092260D01*
X13139968Y39712685D01*
X13519543Y39459061D01*
X13967283Y39370000D01*
X15032717Y39370000D01*
X15480457Y39459061D01*
X15860032Y39712685D01*
X16113656Y40092260D01*
X16202717Y40540000D01*
X16178408Y40662214D01*
X17574942Y40662214D01*
X17647386Y40448804D01*
X18106950Y40240809D01*
X18611129Y40224514D01*
X19083164Y40402401D01*
X19152614Y40448804D01*
X19225058Y40662214D01*
X18400000Y41487272D01*
X17574942Y40662214D01*
X16178408Y40662214D01*
X16113656Y40987740D01*
X15912447Y41288871D01*
X17124514Y41288871D01*
X17302401Y40816836D01*
X17348804Y40747386D01*
X17562214Y40674942D01*
X18387272Y41500000D01*
X18412728Y41500000D01*
X19237786Y40674942D01*
X19451196Y40747386D01*
X19659191Y41206950D01*
X19675486Y41711129D01*
X19497599Y42183164D01*
X19451196Y42252614D01*
X19237786Y42325058D01*
X18412728Y41500000D01*
X18387272Y41500000D01*
X17562214Y42325058D01*
X17348804Y42252614D01*
X17140809Y41793050D01*
X17124514Y41288871D01*
X15912447Y41288871D01*
X15860032Y41367315D01*
X15480457Y41620939D01*
X15032717Y41710000D01*
X13967283Y41710000D01*
X13519543Y41620939D01*
X13139968Y41367315D01*
X12886344Y40987740D01*
X12797283Y40540000D01*
X9736812Y40540000D01*
X8238406Y42038406D01*
X8037264Y42172805D01*
X7800000Y42220000D01*
X4000000Y42220000D01*
X3762736Y42172805D01*
X3561594Y42038406D01*
X2250000Y40726812D01*
X2250000Y41488641D01*
X2316755Y41533245D01*
X2398532Y41655633D01*
X2427248Y41800000D01*
X2427248Y43400000D01*
X2401652Y43528686D01*
X4329763Y43528686D01*
X4537893Y43024971D01*
X4922944Y42639248D01*
X5426295Y42430238D01*
X5971314Y42429763D01*
X6475029Y42637893D01*
X6860752Y43022944D01*
X7069762Y43526295D01*
X7069764Y43528686D01*
X7329763Y43528686D01*
X7537893Y43024971D01*
X7922944Y42639248D01*
X8426295Y42430238D01*
X8971314Y42429763D01*
X9475029Y42637893D01*
X9769013Y42931365D01*
X9807544Y42838114D01*
X10136383Y42508700D01*
X10566252Y42330203D01*
X11031706Y42329797D01*
X11461886Y42507544D01*
X11616826Y42662214D01*
X17574942Y42662214D01*
X17630007Y42500000D01*
X17574942Y42337786D01*
X18400000Y41512728D01*
X19225058Y42337786D01*
X19169993Y42500000D01*
X19225058Y42662214D01*
X18400000Y43487272D01*
X17574942Y42662214D01*
X11616826Y42662214D01*
X11791300Y42836383D01*
X11969797Y43266252D01*
X11969816Y43288871D01*
X17124514Y43288871D01*
X17302401Y42816836D01*
X17348804Y42747386D01*
X17562214Y42674942D01*
X18387272Y43500000D01*
X18412728Y43500000D01*
X19237786Y42674942D01*
X19451196Y42747386D01*
X19659191Y43206950D01*
X19669698Y43532036D01*
X19837893Y43124971D01*
X20222944Y42739248D01*
X20726295Y42530238D01*
X21271314Y42529763D01*
X21775029Y42737893D01*
X22160752Y43122944D01*
X22369762Y43626295D01*
X22369764Y43628686D01*
X22629763Y43628686D01*
X22837893Y43124971D01*
X23222944Y42739248D01*
X23726295Y42530238D01*
X24271314Y42529763D01*
X24775029Y42737893D01*
X25160752Y43122944D01*
X25369762Y43626295D01*
X25370237Y44171314D01*
X25162107Y44675029D01*
X24777056Y45060752D01*
X24273705Y45269762D01*
X23728686Y45270237D01*
X23224971Y45062107D01*
X22839248Y44677056D01*
X22630238Y44173705D01*
X22629763Y43628686D01*
X22369764Y43628686D01*
X22370237Y44171314D01*
X22162107Y44675029D01*
X21777056Y45060752D01*
X21273705Y45269762D01*
X20728686Y45270237D01*
X20224971Y45062107D01*
X19839248Y44677056D01*
X19630238Y44173705D01*
X19629940Y43831988D01*
X19497599Y44183164D01*
X19451196Y44252614D01*
X19237786Y44325058D01*
X18412728Y43500000D01*
X18387272Y43500000D01*
X17562214Y44325058D01*
X17348804Y44252614D01*
X17140809Y43793050D01*
X17124514Y43288871D01*
X11969816Y43288871D01*
X11970203Y43731706D01*
X11792456Y44161886D01*
X11616864Y44337786D01*
X17574942Y44337786D01*
X18400000Y43512728D01*
X19225058Y44337786D01*
X19152614Y44551196D01*
X18693050Y44759191D01*
X18188871Y44775486D01*
X17716836Y44597599D01*
X17647386Y44551196D01*
X17574942Y44337786D01*
X11616864Y44337786D01*
X11463617Y44491300D01*
X11033748Y44669797D01*
X10568294Y44670203D01*
X10138114Y44492456D01*
X9966862Y44321503D01*
X9862107Y44575029D01*
X9477056Y44960752D01*
X8973705Y45169762D01*
X8428686Y45170237D01*
X7924971Y44962107D01*
X7539248Y44577056D01*
X7330238Y44073705D01*
X7329763Y43528686D01*
X7069764Y43528686D01*
X7070237Y44071314D01*
X6862107Y44575029D01*
X6477056Y44960752D01*
X5973705Y45169762D01*
X5428686Y45170237D01*
X4924971Y44962107D01*
X4539248Y44577056D01*
X4330238Y44073705D01*
X4329763Y43528686D01*
X2401652Y43528686D01*
X2398532Y43544367D01*
X2316755Y43666755D01*
X2194367Y43748532D01*
X2050000Y43777248D01*
X450000Y43777248D01*
X420000Y43771281D01*
X420000Y45728686D01*
X10829763Y45728686D01*
X11037893Y45224971D01*
X11422944Y44839248D01*
X11926295Y44630238D01*
X12471314Y44629763D01*
X12975029Y44837893D01*
X13360752Y45222944D01*
X13569762Y45726295D01*
X13569764Y45728686D01*
X13829763Y45728686D01*
X14037893Y45224971D01*
X14422944Y44839248D01*
X14926295Y44630238D01*
X15471314Y44629763D01*
X15975029Y44837893D01*
X16360752Y45222944D01*
X16569762Y45726295D01*
X16570237Y46271314D01*
X16362107Y46775029D01*
X15977056Y47160752D01*
X15473705Y47369762D01*
X14928686Y47370237D01*
X14424971Y47162107D01*
X14039248Y46777056D01*
X13830238Y46273705D01*
X13829763Y45728686D01*
X13569764Y45728686D01*
X13570237Y46271314D01*
X13362107Y46775029D01*
X12977056Y47160752D01*
X12473705Y47369762D01*
X11928686Y47370237D01*
X11424971Y47162107D01*
X11039248Y46777056D01*
X10830238Y46273705D01*
X10829763Y45728686D01*
X420000Y45728686D01*
X420000Y48829674D01*
X900295Y48630238D01*
X1445314Y48629763D01*
X1949029Y48837893D01*
X2334752Y49222944D01*
X2543762Y49726295D01*
X2543764Y49728686D01*
X7931763Y49728686D01*
X8139893Y49224971D01*
X8524944Y48839248D01*
X9028295Y48630238D01*
X9573314Y48629763D01*
X10077029Y48837893D01*
X10257469Y49018019D01*
X11380747Y49018019D01*
X11477524Y48783827D01*
X12009346Y48542521D01*
X12593030Y48523102D01*
X13139715Y48728529D01*
X13222476Y48783827D01*
X13319253Y49018019D01*
X15680747Y49018019D01*
X15777524Y48783827D01*
X16309346Y48542521D01*
X16893030Y48523102D01*
X17439715Y48728529D01*
X17522476Y48783827D01*
X17619253Y49018019D01*
X16650000Y49987272D01*
X15680747Y49018019D01*
X13319253Y49018019D01*
X12350000Y49987272D01*
X11380747Y49018019D01*
X10257469Y49018019D01*
X10462752Y49222944D01*
X10671762Y49726295D01*
X10671788Y49756970D01*
X10873102Y49756970D01*
X11078529Y49210285D01*
X11133827Y49127524D01*
X11368019Y49030747D01*
X12337272Y50000000D01*
X12362728Y50000000D01*
X13331981Y49030747D01*
X13566173Y49127524D01*
X13807479Y49659346D01*
X13810726Y49756970D01*
X15173102Y49756970D01*
X15378529Y49210285D01*
X15433827Y49127524D01*
X15668019Y49030747D01*
X16637272Y50000000D01*
X16662728Y50000000D01*
X17631981Y49030747D01*
X17866173Y49127524D01*
X18107479Y49659346D01*
X18109785Y49728686D01*
X18327763Y49728686D01*
X18535893Y49224971D01*
X18920944Y48839248D01*
X19424295Y48630238D01*
X19969314Y48629763D01*
X20473029Y48837893D01*
X20858752Y49222944D01*
X21067762Y49726295D01*
X21068237Y50271314D01*
X20860107Y50775029D01*
X20475056Y51160752D01*
X19971705Y51369762D01*
X19426686Y51370237D01*
X18922971Y51162107D01*
X18537248Y50777056D01*
X18328238Y50273705D01*
X18327763Y49728686D01*
X18109785Y49728686D01*
X18126898Y50243030D01*
X17921471Y50789715D01*
X17866173Y50872476D01*
X17631981Y50969253D01*
X16662728Y50000000D01*
X16637272Y50000000D01*
X15668019Y50969253D01*
X15433827Y50872476D01*
X15192521Y50340654D01*
X15173102Y49756970D01*
X13810726Y49756970D01*
X13826898Y50243030D01*
X13621471Y50789715D01*
X13566173Y50872476D01*
X13331981Y50969253D01*
X12362728Y50000000D01*
X12337272Y50000000D01*
X11368019Y50969253D01*
X11133827Y50872476D01*
X10892521Y50340654D01*
X10873102Y49756970D01*
X10671788Y49756970D01*
X10672237Y50271314D01*
X10464107Y50775029D01*
X10257516Y50981981D01*
X11380747Y50981981D01*
X12350000Y50012728D01*
X13319253Y50981981D01*
X15680747Y50981981D01*
X16650000Y50012728D01*
X17619253Y50981981D01*
X17522476Y51216173D01*
X16990654Y51457479D01*
X16406970Y51476898D01*
X15860285Y51271471D01*
X15777524Y51216173D01*
X15680747Y50981981D01*
X13319253Y50981981D01*
X13222476Y51216173D01*
X12690654Y51457479D01*
X12106970Y51476898D01*
X11560285Y51271471D01*
X11477524Y51216173D01*
X11380747Y50981981D01*
X10257516Y50981981D01*
X10079056Y51160752D01*
X9575705Y51369762D01*
X9030686Y51370237D01*
X8526971Y51162107D01*
X8141248Y50777056D01*
X7932238Y50273705D01*
X7931763Y49728686D01*
X2543764Y49728686D01*
X2544237Y50271314D01*
X2336107Y50775029D01*
X1951056Y51160752D01*
X1447705Y51369762D01*
X902686Y51370237D01*
X420000Y51170796D01*
X420000Y55806412D01*
X4049140Y55806412D01*
X4097250Y55613783D01*
X4484555Y55439099D01*
X4909228Y55425927D01*
X5306614Y55576274D01*
X5362750Y55613783D01*
X5410860Y55806412D01*
X4730000Y56487272D01*
X4049140Y55806412D01*
X420000Y55806412D01*
X420000Y56320772D01*
X3655927Y56320772D01*
X3806274Y55923386D01*
X3843783Y55867250D01*
X4036412Y55819140D01*
X4717272Y56500000D01*
X4742728Y56500000D01*
X5423588Y55819140D01*
X5616217Y55867250D01*
X5790901Y56254555D01*
X5804073Y56679228D01*
X5653726Y57076614D01*
X5638100Y57100000D01*
X6292752Y57100000D01*
X6292752Y55900000D01*
X6321468Y55755633D01*
X6403245Y55633245D01*
X6525633Y55551468D01*
X6670000Y55522752D01*
X7870000Y55522752D01*
X8014367Y55551468D01*
X8136755Y55633245D01*
X8218532Y55755633D01*
X8247248Y55900000D01*
X8247248Y56062214D01*
X11674942Y56062214D01*
X11747386Y55848804D01*
X12206950Y55640809D01*
X12711129Y55624514D01*
X13183164Y55802401D01*
X13189167Y55806412D01*
X21049140Y55806412D01*
X21097250Y55613783D01*
X21484555Y55439099D01*
X21909228Y55425927D01*
X22306614Y55576274D01*
X22362750Y55613783D01*
X22410860Y55806412D01*
X21730000Y56487272D01*
X21049140Y55806412D01*
X13189167Y55806412D01*
X13252614Y55848804D01*
X13325058Y56062214D01*
X12500000Y56887272D01*
X11674942Y56062214D01*
X8247248Y56062214D01*
X8247248Y56688871D01*
X11224514Y56688871D01*
X11402401Y56216836D01*
X11448804Y56147386D01*
X11662214Y56074942D01*
X12487272Y56900000D01*
X12512728Y56900000D01*
X13337786Y56074942D01*
X13551196Y56147386D01*
X13629669Y56320772D01*
X20655927Y56320772D01*
X20806274Y55923386D01*
X20843783Y55867250D01*
X21036412Y55819140D01*
X21717272Y56500000D01*
X21742728Y56500000D01*
X22423588Y55819140D01*
X22616217Y55867250D01*
X22790901Y56254555D01*
X22804073Y56679228D01*
X22653726Y57076614D01*
X22638100Y57100000D01*
X23292752Y57100000D01*
X23292752Y55900000D01*
X23321468Y55755633D01*
X23403245Y55633245D01*
X23525633Y55551468D01*
X23670000Y55522752D01*
X24870000Y55522752D01*
X25014367Y55551468D01*
X25136755Y55633245D01*
X25218532Y55755633D01*
X25247248Y55900000D01*
X25247248Y57100000D01*
X25218532Y57244367D01*
X25136755Y57366755D01*
X25014367Y57448532D01*
X24870000Y57477248D01*
X23670000Y57477248D01*
X23525633Y57448532D01*
X23403245Y57366755D01*
X23321468Y57244367D01*
X23292752Y57100000D01*
X22638100Y57100000D01*
X22616217Y57132750D01*
X22423588Y57180860D01*
X21742728Y56500000D01*
X21717272Y56500000D01*
X21036412Y57180860D01*
X20843783Y57132750D01*
X20669099Y56745445D01*
X20655927Y56320772D01*
X13629669Y56320772D01*
X13759191Y56606950D01*
X13775486Y57111129D01*
X13744412Y57193588D01*
X21049140Y57193588D01*
X21730000Y56512728D01*
X22410860Y57193588D01*
X22362750Y57386217D01*
X21975445Y57560901D01*
X21550772Y57574073D01*
X21153386Y57423726D01*
X21097250Y57386217D01*
X21049140Y57193588D01*
X13744412Y57193588D01*
X13597599Y57583164D01*
X13551196Y57652614D01*
X13337786Y57725058D01*
X12512728Y56900000D01*
X12487272Y56900000D01*
X11662214Y57725058D01*
X11448804Y57652614D01*
X11240809Y57193050D01*
X11224514Y56688871D01*
X8247248Y56688871D01*
X8247248Y57100000D01*
X8218532Y57244367D01*
X8136755Y57366755D01*
X8014367Y57448532D01*
X7870000Y57477248D01*
X6670000Y57477248D01*
X6525633Y57448532D01*
X6403245Y57366755D01*
X6321468Y57244367D01*
X6292752Y57100000D01*
X5638100Y57100000D01*
X5616217Y57132750D01*
X5423588Y57180860D01*
X4742728Y56500000D01*
X4717272Y56500000D01*
X4036412Y57180860D01*
X3843783Y57132750D01*
X3669099Y56745445D01*
X3655927Y56320772D01*
X420000Y56320772D01*
X420000Y57193588D01*
X4049140Y57193588D01*
X4730000Y56512728D01*
X5410860Y57193588D01*
X5362750Y57386217D01*
X4975445Y57560901D01*
X4550772Y57574073D01*
X4153386Y57423726D01*
X4097250Y57386217D01*
X4049140Y57193588D01*
X420000Y57193588D01*
X420000Y57737786D01*
X11674942Y57737786D01*
X12500000Y56912728D01*
X13325058Y57737786D01*
X13252614Y57951196D01*
X12793050Y58159191D01*
X12288871Y58175486D01*
X11816836Y57997599D01*
X11747386Y57951196D01*
X11674942Y57737786D01*
X420000Y57737786D01*
X420000Y59902686D01*
X4629763Y59902686D01*
X4837893Y59398971D01*
X5222944Y59013248D01*
X5726295Y58804238D01*
X6271314Y58803763D01*
X6775029Y59011893D01*
X7160752Y59396944D01*
X7369762Y59900295D01*
X7369764Y59902686D01*
X21629763Y59902686D01*
X21837893Y59398971D01*
X22222944Y59013248D01*
X22726295Y58804238D01*
X23271314Y58803763D01*
X23775029Y59011893D01*
X24160752Y59396944D01*
X24369762Y59900295D01*
X24370237Y60445314D01*
X24162107Y60949029D01*
X23777056Y61334752D01*
X23273705Y61543762D01*
X22728686Y61544237D01*
X22224971Y61336107D01*
X21839248Y60951056D01*
X21630238Y60447705D01*
X21629763Y59902686D01*
X7369764Y59902686D01*
X7370237Y60445314D01*
X7162107Y60949029D01*
X6777056Y61334752D01*
X6273705Y61543762D01*
X5728686Y61544237D01*
X5224971Y61336107D01*
X4839248Y60951056D01*
X4630238Y60447705D01*
X4629763Y59902686D01*
X420000Y59902686D01*
X420000Y66528686D01*
X11129763Y66528686D01*
X11337893Y66024971D01*
X11722944Y65639248D01*
X11957580Y65541818D01*
X11838114Y65492456D01*
X11508700Y65163617D01*
X11330203Y64733748D01*
X11329797Y64268294D01*
X11507544Y63838114D01*
X11836383Y63508700D01*
X12266252Y63330203D01*
X12731706Y63329797D01*
X13161886Y63507544D01*
X13491300Y63836383D01*
X13669797Y64266252D01*
X13670203Y64731706D01*
X13492456Y65161886D01*
X13163617Y65491300D01*
X13042232Y65541704D01*
X13275029Y65637893D01*
X13660752Y66022944D01*
X13869762Y66526295D01*
X13869764Y66528686D01*
X15129763Y66528686D01*
X15337893Y66024971D01*
X15722944Y65639248D01*
X16226295Y65430238D01*
X16771314Y65429763D01*
X17275029Y65637893D01*
X17660752Y66022944D01*
X17869762Y66526295D01*
X17870237Y67071314D01*
X17662107Y67575029D01*
X17277056Y67960752D01*
X17108637Y68030686D01*
X21629763Y68030686D01*
X21837893Y67526971D01*
X22222944Y67141248D01*
X22726295Y66932238D01*
X23271314Y66931763D01*
X23775029Y67139893D01*
X24160752Y67524944D01*
X24369762Y68028295D01*
X24370237Y68573314D01*
X24162107Y69077029D01*
X23777056Y69462752D01*
X23273705Y69671762D01*
X22728686Y69672237D01*
X22224971Y69464107D01*
X21839248Y69079056D01*
X21630238Y68575705D01*
X21629763Y68030686D01*
X17108637Y68030686D01*
X16773705Y68169762D01*
X16228686Y68170237D01*
X15724971Y67962107D01*
X15339248Y67577056D01*
X15130238Y67073705D01*
X15129763Y66528686D01*
X13869764Y66528686D01*
X13870237Y67071314D01*
X13662107Y67575029D01*
X13277056Y67960752D01*
X12773705Y68169762D01*
X12228686Y68170237D01*
X11724971Y67962107D01*
X11339248Y67577056D01*
X11130238Y67073705D01*
X11129763Y66528686D01*
X420000Y66528686D01*
X420000Y68030686D01*
X4629763Y68030686D01*
X4837893Y67526971D01*
X5222944Y67141248D01*
X5726295Y66932238D01*
X6271314Y66931763D01*
X6775029Y67139893D01*
X7160752Y67524944D01*
X7369762Y68028295D01*
X7370237Y68573314D01*
X7162107Y69077029D01*
X6777056Y69462752D01*
X6273705Y69671762D01*
X5728686Y69672237D01*
X5224971Y69464107D01*
X4839248Y69079056D01*
X4630238Y68575705D01*
X4629763Y68030686D01*
X420000Y68030686D01*
X420000Y70368019D01*
X5030747Y70368019D01*
X5127524Y70133827D01*
X5659346Y69892521D01*
X6243030Y69873102D01*
X6789715Y70078529D01*
X6872476Y70133827D01*
X6969253Y70368019D01*
X22030747Y70368019D01*
X22127524Y70133827D01*
X22659346Y69892521D01*
X23243030Y69873102D01*
X23789715Y70078529D01*
X23872476Y70133827D01*
X23969253Y70368019D01*
X23000000Y71337272D01*
X22030747Y70368019D01*
X6969253Y70368019D01*
X6000000Y71337272D01*
X5030747Y70368019D01*
X420000Y70368019D01*
X420000Y71106970D01*
X4523102Y71106970D01*
X4728529Y70560285D01*
X4783827Y70477524D01*
X5018019Y70380747D01*
X5987272Y71350000D01*
X6012728Y71350000D01*
X6981981Y70380747D01*
X7216173Y70477524D01*
X7457479Y71009346D01*
X7460726Y71106970D01*
X21523102Y71106970D01*
X21728529Y70560285D01*
X21783827Y70477524D01*
X22018019Y70380747D01*
X22987272Y71350000D01*
X23012728Y71350000D01*
X23981981Y70380747D01*
X24216173Y70477524D01*
X24457479Y71009346D01*
X24476898Y71593030D01*
X24271471Y72139715D01*
X24216173Y72222476D01*
X23981981Y72319253D01*
X23012728Y71350000D01*
X22987272Y71350000D01*
X22018019Y72319253D01*
X21783827Y72222476D01*
X21542521Y71690654D01*
X21523102Y71106970D01*
X7460726Y71106970D01*
X7476898Y71593030D01*
X7271471Y72139715D01*
X7216173Y72222476D01*
X6981981Y72319253D01*
X6012728Y71350000D01*
X5987272Y71350000D01*
X5018019Y72319253D01*
X4783827Y72222476D01*
X4542521Y71690654D01*
X4523102Y71106970D01*
X420000Y71106970D01*
X420000Y72668019D01*
X5030747Y72668019D01*
X5100179Y72500000D01*
X5030747Y72331981D01*
X6000000Y71362728D01*
X6969253Y72331981D01*
X6899821Y72500000D01*
X6969253Y72668019D01*
X22030747Y72668019D01*
X22100179Y72500000D01*
X22030747Y72331981D01*
X23000000Y71362728D01*
X23969253Y72331981D01*
X23899821Y72500000D01*
X23969253Y72668019D01*
X23000000Y73637272D01*
X22030747Y72668019D01*
X6969253Y72668019D01*
X6000000Y73637272D01*
X5030747Y72668019D01*
X420000Y72668019D01*
X420000Y73406970D01*
X4523102Y73406970D01*
X4728529Y72860285D01*
X4783827Y72777524D01*
X5018019Y72680747D01*
X5987272Y73650000D01*
X6012728Y73650000D01*
X6981981Y72680747D01*
X7216173Y72777524D01*
X7457479Y73309346D01*
X7460726Y73406970D01*
X21523102Y73406970D01*
X21728529Y72860285D01*
X21783827Y72777524D01*
X22018019Y72680747D01*
X22987272Y73650000D01*
X23012728Y73650000D01*
X23981981Y72680747D01*
X24216173Y72777524D01*
X24457479Y73309346D01*
X24476898Y73893030D01*
X24271471Y74439715D01*
X24216173Y74522476D01*
X23981981Y74619253D01*
X23012728Y73650000D01*
X22987272Y73650000D01*
X22018019Y74619253D01*
X21783827Y74522476D01*
X21542521Y73990654D01*
X21523102Y73406970D01*
X7460726Y73406970D01*
X7476898Y73893030D01*
X7271471Y74439715D01*
X7216173Y74522476D01*
X6981981Y74619253D01*
X6012728Y73650000D01*
X5987272Y73650000D01*
X5018019Y74619253D01*
X4783827Y74522476D01*
X4542521Y73990654D01*
X4523102Y73406970D01*
X420000Y73406970D01*
X420000Y74631981D01*
X5030747Y74631981D01*
X6000000Y73662728D01*
X6969253Y74631981D01*
X22030747Y74631981D01*
X23000000Y73662728D01*
X23969253Y74631981D01*
X23872476Y74866173D01*
X23340654Y75107479D01*
X22756970Y75126898D01*
X22210285Y74921471D01*
X22127524Y74866173D01*
X22030747Y74631981D01*
X6969253Y74631981D01*
X6872476Y74866173D01*
X6340654Y75107479D01*
X5756970Y75126898D01*
X5210285Y74921471D01*
X5127524Y74866173D01*
X5030747Y74631981D01*
X420000Y74631981D01*
X420000Y76426686D01*
X4629763Y76426686D01*
X4837893Y75922971D01*
X5222944Y75537248D01*
X5726295Y75328238D01*
X6271314Y75327763D01*
X6775029Y75535893D01*
X7160752Y75920944D01*
X7369762Y76424295D01*
X7369852Y76528686D01*
X11129763Y76528686D01*
X11337893Y76024971D01*
X11722944Y75639248D01*
X12226295Y75430238D01*
X12771314Y75429763D01*
X13275029Y75637893D01*
X13660752Y76022944D01*
X13869762Y76526295D01*
X13869764Y76528686D01*
X15129763Y76528686D01*
X15337893Y76024971D01*
X15722944Y75639248D01*
X16226295Y75430238D01*
X16771314Y75429763D01*
X17275029Y75637893D01*
X17660752Y76022944D01*
X17828400Y76426686D01*
X21629763Y76426686D01*
X21837893Y75922971D01*
X22222944Y75537248D01*
X22726295Y75328238D01*
X23271314Y75327763D01*
X23775029Y75535893D01*
X24160752Y75920944D01*
X24369762Y76424295D01*
X24370237Y76969314D01*
X24162107Y77473029D01*
X23777056Y77858752D01*
X23273705Y78067762D01*
X22728686Y78068237D01*
X22224971Y77860107D01*
X21839248Y77475056D01*
X21630238Y76971705D01*
X21629763Y76426686D01*
X17828400Y76426686D01*
X17869762Y76526295D01*
X17870237Y77071314D01*
X17662107Y77575029D01*
X17277056Y77960752D01*
X16773705Y78169762D01*
X16228686Y78170237D01*
X15724971Y77962107D01*
X15339248Y77577056D01*
X15130238Y77073705D01*
X15129763Y76528686D01*
X13869764Y76528686D01*
X13870237Y77071314D01*
X13662107Y77575029D01*
X13277056Y77960752D01*
X12773705Y78169762D01*
X12228686Y78170237D01*
X11724971Y77962107D01*
X11339248Y77577056D01*
X11130238Y77073705D01*
X11129763Y76528686D01*
X7369852Y76528686D01*
X7370237Y76969314D01*
X7162107Y77473029D01*
X6777056Y77858752D01*
X6273705Y78067762D01*
X5728686Y78068237D01*
X5224971Y77860107D01*
X4839248Y77475056D01*
X4630238Y76971705D01*
X4629763Y76426686D01*
X420000Y76426686D01*
X420000Y79306412D01*
X12549140Y79306412D01*
X12597250Y79113783D01*
X12984555Y78939099D01*
X13409228Y78925927D01*
X13806614Y79076274D01*
X13862750Y79113783D01*
X13910860Y79306412D01*
X13230000Y79987272D01*
X12549140Y79306412D01*
X420000Y79306412D01*
X420000Y79820772D01*
X12155927Y79820772D01*
X12306274Y79423386D01*
X12343783Y79367250D01*
X12536412Y79319140D01*
X13217272Y80000000D01*
X13242728Y80000000D01*
X13923588Y79319140D01*
X14116217Y79367250D01*
X14290901Y79754555D01*
X14304073Y80179228D01*
X14153726Y80576614D01*
X14138100Y80600000D01*
X14792752Y80600000D01*
X14792752Y79400000D01*
X14821468Y79255633D01*
X14903245Y79133245D01*
X15025633Y79051468D01*
X15170000Y79022752D01*
X16370000Y79022752D01*
X16514367Y79051468D01*
X16636755Y79133245D01*
X16718532Y79255633D01*
X16747248Y79400000D01*
X16747248Y80600000D01*
X16718532Y80744367D01*
X16636755Y80866755D01*
X16514367Y80948532D01*
X16370000Y80977248D01*
X15170000Y80977248D01*
X15025633Y80948532D01*
X14903245Y80866755D01*
X14821468Y80744367D01*
X14792752Y80600000D01*
X14138100Y80600000D01*
X14116217Y80632750D01*
X13923588Y80680860D01*
X13242728Y80000000D01*
X13217272Y80000000D01*
X12536412Y80680860D01*
X12343783Y80632750D01*
X12169099Y80245445D01*
X12155927Y79820772D01*
X420000Y79820772D01*
X420000Y80693588D01*
X12549140Y80693588D01*
X13230000Y80012728D01*
X13910860Y80693588D01*
X13862750Y80886217D01*
X13475445Y81060901D01*
X13050772Y81074073D01*
X12653386Y80923726D01*
X12597250Y80886217D01*
X12549140Y80693588D01*
X420000Y80693588D01*
X420000Y84554686D01*
X4629763Y84554686D01*
X4837893Y84050971D01*
X5222944Y83665248D01*
X5726295Y83456238D01*
X6271314Y83455763D01*
X6775029Y83663893D01*
X7160752Y84048944D01*
X7369762Y84552295D01*
X7369764Y84554686D01*
X21629763Y84554686D01*
X21837893Y84050971D01*
X22222944Y83665248D01*
X22726295Y83456238D01*
X23271314Y83455763D01*
X23775029Y83663893D01*
X24160752Y84048944D01*
X24369762Y84552295D01*
X24370237Y85097314D01*
X24162107Y85601029D01*
X23777056Y85986752D01*
X23273705Y86195762D01*
X22728686Y86196237D01*
X22224971Y85988107D01*
X21839248Y85603056D01*
X21630238Y85099705D01*
X21629763Y84554686D01*
X7369764Y84554686D01*
X7370237Y85097314D01*
X7162107Y85601029D01*
X6777056Y85986752D01*
X6273705Y86195762D01*
X5728686Y86196237D01*
X5224971Y85988107D01*
X4839248Y85603056D01*
X4630238Y85099705D01*
X4629763Y84554686D01*
X420000Y84554686D01*
X420000Y88557269D01*
X424943Y88562212D01*
X497386Y88348804D01*
X956950Y88140809D01*
X1461129Y88124514D01*
X1842658Y88268294D01*
X10829797Y88268294D01*
X11007544Y87838114D01*
X11336383Y87508700D01*
X11766252Y87330203D01*
X12231706Y87329797D01*
X12661886Y87507544D01*
X12991300Y87836383D01*
X13169797Y88266252D01*
X13169798Y88268294D01*
X13329797Y88268294D01*
X13507544Y87838114D01*
X13836383Y87508700D01*
X14266252Y87330203D01*
X14731706Y87329797D01*
X15161886Y87507544D01*
X15491300Y87836383D01*
X15669797Y88266252D01*
X15669798Y88268294D01*
X15829797Y88268294D01*
X16007544Y87838114D01*
X16336383Y87508700D01*
X16766252Y87330203D01*
X17231706Y87329797D01*
X17661886Y87507544D01*
X17991300Y87836383D01*
X18169797Y88266252D01*
X18170203Y88731706D01*
X17992456Y89161886D01*
X17965519Y89188871D01*
X26474514Y89188871D01*
X26652401Y88716836D01*
X26698804Y88647386D01*
X26912214Y88574942D01*
X27737272Y89400000D01*
X26912214Y90225058D01*
X26698804Y90152614D01*
X26490809Y89693050D01*
X26474514Y89188871D01*
X17965519Y89188871D01*
X17663617Y89491300D01*
X17233748Y89669797D01*
X16768294Y89670203D01*
X16338114Y89492456D01*
X16008700Y89163617D01*
X15830203Y88733748D01*
X15829797Y88268294D01*
X15669798Y88268294D01*
X15670203Y88731706D01*
X15492456Y89161886D01*
X15163617Y89491300D01*
X14733748Y89669797D01*
X14268294Y89670203D01*
X13838114Y89492456D01*
X13508700Y89163617D01*
X13330203Y88733748D01*
X13329797Y88268294D01*
X13169798Y88268294D01*
X13170203Y88731706D01*
X12992456Y89161886D01*
X12663617Y89491300D01*
X12233748Y89669797D01*
X11768294Y89670203D01*
X11338114Y89492456D01*
X11008700Y89163617D01*
X10830203Y88733748D01*
X10829797Y88268294D01*
X1842658Y88268294D01*
X1933164Y88302401D01*
X2002614Y88348804D01*
X2075058Y88562214D01*
X1250000Y89387272D01*
X1235858Y89373130D01*
X1223130Y89385858D01*
X1237272Y89400000D01*
X1262728Y89400000D01*
X2087786Y88574942D01*
X2301196Y88647386D01*
X2509191Y89106950D01*
X2525486Y89611129D01*
X2347599Y90083164D01*
X2301196Y90152614D01*
X2087786Y90225058D01*
X1262728Y89400000D01*
X1237272Y89400000D01*
X1223130Y89414142D01*
X1235858Y89426870D01*
X1250000Y89412728D01*
X2075058Y90237786D01*
X2002614Y90451196D01*
X1543050Y90659191D01*
X1038871Y90675486D01*
X566836Y90497599D01*
X497386Y90451196D01*
X424943Y90237788D01*
X420000Y90242731D01*
X420000Y90768294D01*
X10829797Y90768294D01*
X11007544Y90338114D01*
X11336383Y90008700D01*
X11766252Y89830203D01*
X12231706Y89829797D01*
X12661886Y90007544D01*
X12991300Y90336383D01*
X13169797Y90766252D01*
X13169798Y90768294D01*
X13329797Y90768294D01*
X13507544Y90338114D01*
X13836383Y90008700D01*
X14266252Y89830203D01*
X14731706Y89829797D01*
X15161886Y90007544D01*
X15491300Y90336383D01*
X15669797Y90766252D01*
X15669798Y90768294D01*
X15829797Y90768294D01*
X16007544Y90338114D01*
X16336383Y90008700D01*
X16766252Y89830203D01*
X17231706Y89829797D01*
X17661886Y90007544D01*
X17991300Y90336383D01*
X18169797Y90766252D01*
X18170203Y91231706D01*
X17992456Y91661886D01*
X17663617Y91991300D01*
X17233748Y92169797D01*
X16768294Y92170203D01*
X16338114Y91992456D01*
X16008700Y91663617D01*
X15830203Y91233748D01*
X15829797Y90768294D01*
X15669798Y90768294D01*
X15670203Y91231706D01*
X15492456Y91661886D01*
X15163617Y91991300D01*
X14733748Y92169797D01*
X14268294Y92170203D01*
X13838114Y91992456D01*
X13508700Y91663617D01*
X13330203Y91233748D01*
X13329797Y90768294D01*
X13169798Y90768294D01*
X13170203Y91231706D01*
X12992456Y91661886D01*
X12663617Y91991300D01*
X12233748Y92169797D01*
X11768294Y92170203D01*
X11338114Y91992456D01*
X11008700Y91663617D01*
X10830203Y91233748D01*
X10829797Y90768294D01*
X420000Y90768294D01*
X420000Y91115374D01*
X586383Y90948700D01*
X1016252Y90770203D01*
X1481706Y90769797D01*
X1911886Y90947544D01*
X2241300Y91276383D01*
X2419797Y91706252D01*
X2420203Y92171706D01*
X2242456Y92601886D01*
X1913617Y92931300D01*
X1483748Y93109797D01*
X1018294Y93110203D01*
X588114Y92932456D01*
X420000Y92764635D01*
X420000Y93655374D01*
X586383Y93488700D01*
X1016252Y93310203D01*
X1481706Y93309797D01*
X1911886Y93487544D01*
X2241300Y93816383D01*
X2419797Y94246252D01*
X2419816Y94268871D01*
X26474514Y94268871D01*
X26652401Y93796836D01*
X26698804Y93727386D01*
X26912214Y93654942D01*
X27737272Y94480000D01*
X26912214Y95305058D01*
X26698804Y95232614D01*
X26490809Y94773050D01*
X26474514Y94268871D01*
X2419816Y94268871D01*
X2420203Y94711706D01*
X2242456Y95141886D01*
X1913617Y95471300D01*
X1483748Y95649797D01*
X1018294Y95650203D01*
X588114Y95472456D01*
X420000Y95304635D01*
X420000Y96177269D01*
X424943Y96182212D01*
X497386Y95968804D01*
X956950Y95760809D01*
X1461129Y95744514D01*
X1933164Y95922401D01*
X2002614Y95968804D01*
X2075058Y96182214D01*
X1250000Y97007272D01*
X1235858Y96993130D01*
X1223130Y97005858D01*
X1237272Y97020000D01*
X1262728Y97020000D01*
X2087786Y96194942D01*
X2301196Y96267386D01*
X2509191Y96726950D01*
X2525486Y97231129D01*
X2347599Y97703164D01*
X2301196Y97772614D01*
X2087786Y97845058D01*
X1262728Y97020000D01*
X1237272Y97020000D01*
X1223130Y97034142D01*
X1235858Y97046870D01*
X1250000Y97032728D01*
X2075058Y97857786D01*
X2002614Y98071196D01*
X1543050Y98279191D01*
X1038871Y98295486D01*
X566836Y98117599D01*
X497386Y98071196D01*
X424943Y97857788D01*
X420000Y97862731D01*
X420000Y98735374D01*
X586383Y98568700D01*
X1016252Y98390203D01*
X1481706Y98389797D01*
X1726635Y98491000D01*
X8032000Y98491000D01*
X8032000Y97991000D01*
X8147189Y97429906D01*
X8468331Y96955603D01*
X8946536Y96640300D01*
X9261469Y96551509D01*
X9491000Y96649030D01*
X9491000Y98491000D01*
X9509000Y98491000D01*
X9509000Y96649030D01*
X9738531Y96551509D01*
X10053464Y96640300D01*
X10531669Y96955603D01*
X10852811Y97429906D01*
X10968000Y97991000D01*
X10968000Y98491000D01*
X18032000Y98491000D01*
X18032000Y97991000D01*
X18147189Y97429906D01*
X18468331Y96955603D01*
X18946536Y96640300D01*
X19261469Y96551509D01*
X19491000Y96649030D01*
X19491000Y98491000D01*
X19509000Y98491000D01*
X19509000Y96649030D01*
X19738531Y96551509D01*
X20053464Y96640300D01*
X20531669Y96955603D01*
X20852811Y97429906D01*
X20968000Y97991000D01*
X20968000Y98491000D01*
X19509000Y98491000D01*
X19491000Y98491000D01*
X18032000Y98491000D01*
X10968000Y98491000D01*
X9509000Y98491000D01*
X9491000Y98491000D01*
X8032000Y98491000D01*
X1726635Y98491000D01*
X1911886Y98567544D01*
X2241300Y98896383D01*
X2288062Y99009000D01*
X8032000Y99009000D01*
X8032000Y98509000D01*
X9491000Y98509000D01*
X9491000Y100350970D01*
X9509000Y100350970D01*
X9509000Y98509000D01*
X10968000Y98509000D01*
X10968000Y99009000D01*
X18032000Y99009000D01*
X18032000Y98509000D01*
X19491000Y98509000D01*
X19491000Y100350970D01*
X19509000Y100350970D01*
X19509000Y98509000D01*
X20968000Y98509000D01*
X20968000Y99009000D01*
X20898227Y99348871D01*
X26474514Y99348871D01*
X26652401Y98876836D01*
X26698804Y98807386D01*
X26912214Y98734942D01*
X27737272Y99560000D01*
X26912214Y100385058D01*
X26698804Y100312614D01*
X26490809Y99853050D01*
X26474514Y99348871D01*
X20898227Y99348871D01*
X20852811Y99570094D01*
X20531669Y100044397D01*
X20053464Y100359700D01*
X19738531Y100448491D01*
X19509000Y100350970D01*
X19491000Y100350970D01*
X19261469Y100448491D01*
X18946536Y100359700D01*
X18468331Y100044397D01*
X18147189Y99570094D01*
X18032000Y99009000D01*
X10968000Y99009000D01*
X10852811Y99570094D01*
X10531669Y100044397D01*
X10053464Y100359700D01*
X9738531Y100448491D01*
X9509000Y100350970D01*
X9491000Y100350970D01*
X9261469Y100448491D01*
X8946536Y100359700D01*
X8468331Y100044397D01*
X8147189Y99570094D01*
X8032000Y99009000D01*
X2288062Y99009000D01*
X2419797Y99326252D01*
X2420203Y99791706D01*
X2242456Y100221886D01*
X1913617Y100551300D01*
X1483748Y100729797D01*
X1018294Y100730203D01*
X588114Y100552456D01*
X420000Y100384635D01*
X420000Y100928719D01*
X450000Y100922752D01*
X2050000Y100922752D01*
X2194367Y100951468D01*
X2316755Y101033245D01*
X2398532Y101155633D01*
X2427248Y101300000D01*
X2427248Y102900000D01*
X2398532Y103044367D01*
X2316755Y103166755D01*
X2194367Y103248532D01*
X2050000Y103277248D01*
X450000Y103277248D01*
X420000Y103271281D01*
X420000Y105580000D01*
X28580000Y105580000D01*
X28580000Y103271281D01*
G36*
X5826870Y37814142D02*
X5812728Y37800000D01*
X5826870Y37785858D01*
X5814142Y37773130D01*
X5800000Y37787272D01*
X5785858Y37773130D01*
X5773130Y37785858D01*
X5787272Y37800000D01*
X5773130Y37814142D01*
X5785858Y37826870D01*
X5800000Y37812728D01*
X5814142Y37826870D01*
X5826870Y37814142D01*
X5826870Y37814142D01*
G37*
X5826870Y37814142D02*
X5812728Y37800000D01*
X5826870Y37785858D01*
X5814142Y37773130D01*
X5800000Y37787272D01*
X5785858Y37773130D01*
X5773130Y37785858D01*
X5787272Y37800000D01*
X5773130Y37814142D01*
X5785858Y37826870D01*
X5800000Y37812728D01*
X5814142Y37826870D01*
X5826870Y37814142D01*
M02*
