G04 #@! TF.FileFunction,Soldermask,Top*
%FSLAX46Y46*%
G04 Gerber Fmt 4.6, Leading zero omitted, Abs format (unit mm)*
G04 Created by KiCad (PCBNEW (2016-08-20 BZR 7083)-product) date Sun Feb  5 21:12:02 2017*
%MOMM*%
%LPD*%
G01*
G04 APERTURE LIST*
%ADD10C,0.100000*%
%ADD11C,6.140000*%
%ADD12C,1.340000*%
%ADD13R,1.340000X1.340000*%
%ADD14R,1.540000X1.540000*%
%ADD15C,1.540000*%
%ADD16C,2.140000*%
%ADD17O,2.140000X3.140000*%
%ADD18C,1.740000*%
%ADD19C,1.940000*%
%ADD20R,1.740000X1.740000*%
%ADD21O,2.740000X1.740000*%
%ADD22C,3.140000*%
G04 APERTURE END LIST*
D10*
D11*
X5800000Y37800000D03*
D12*
X4730000Y28000000D03*
D13*
X7270000Y28000000D03*
D14*
X4850000Y17000000D03*
D15*
X2350000Y17000000D03*
D14*
X2350000Y23500000D03*
D15*
X4850000Y23500000D03*
D12*
X9300000Y6240000D03*
X9300000Y1160000D03*
X7300000Y1160000D03*
X7300000Y6240000D03*
X25440000Y22500000D03*
X20360000Y22500000D03*
D16*
X4800000Y2520000D03*
X4800000Y12680000D03*
X1800000Y2520000D03*
X1800000Y12680000D03*
X18300000Y30600000D03*
X8300000Y30600000D03*
X21000000Y33900000D03*
X21000000Y43900000D03*
X24000000Y33900000D03*
X24000000Y43900000D03*
X16500000Y66800000D03*
X16500000Y76800000D03*
X12500000Y66800000D03*
X12500000Y76800000D03*
D17*
X19500000Y98500000D03*
X9500000Y98500000D03*
D18*
X17000000Y91000000D03*
X14500000Y91000000D03*
X12000000Y91000000D03*
X12000000Y88500000D03*
X14500000Y88500000D03*
X17000000Y88500000D03*
D19*
X25250000Y31250000D03*
X25250000Y24750000D03*
X20750000Y31250000D03*
X20750000Y24750000D03*
D18*
X17300000Y27900000D03*
X9700000Y27900000D03*
X10800000Y43500000D03*
X18400000Y43500000D03*
X18400000Y33900000D03*
X18400000Y41500000D03*
X12500000Y64500000D03*
X12500000Y56900000D03*
D12*
X4730000Y56500000D03*
D13*
X7270000Y56500000D03*
D12*
X21730000Y56500000D03*
D13*
X24270000Y56500000D03*
D12*
X13230000Y80000000D03*
D13*
X15770000Y80000000D03*
D18*
X24830000Y13680000D03*
X27370000Y13680000D03*
X27370000Y11140000D03*
D20*
X24830000Y3520000D03*
D18*
X27370000Y3520000D03*
X24830000Y6060000D03*
X27370000Y6060000D03*
X24830000Y8600000D03*
X27370000Y8600000D03*
X24830000Y11140000D03*
D21*
X14500000Y35460000D03*
X14500000Y40540000D03*
X14500000Y38000000D03*
D16*
X11920000Y4500000D03*
X22080000Y4500000D03*
X22080000Y1600000D03*
X11920000Y1600000D03*
D18*
X1250000Y89400000D03*
X1250000Y91940000D03*
X1250000Y94480000D03*
X1250000Y97020000D03*
D20*
X1250000Y102100000D03*
D18*
X1250000Y99560000D03*
X1250000Y29900000D03*
X1250000Y32440000D03*
X1250000Y34980000D03*
X1250000Y37520000D03*
D20*
X1250000Y42600000D03*
D18*
X1250000Y40060000D03*
X27750000Y29900000D03*
X27750000Y32440000D03*
X27750000Y34980000D03*
X27750000Y37520000D03*
D20*
X27750000Y42600000D03*
D18*
X27750000Y40060000D03*
X27750000Y89400000D03*
X27750000Y91940000D03*
X27750000Y94480000D03*
X27750000Y97020000D03*
D20*
X27750000Y102100000D03*
D18*
X27750000Y99560000D03*
D16*
X9302000Y50000000D03*
X1174000Y50000000D03*
X12350000Y50000000D03*
X19698000Y50000000D03*
X27826000Y50000000D03*
X16650000Y50000000D03*
X6000000Y76698000D03*
X6000000Y84826000D03*
X6000000Y73650000D03*
X6000000Y68302000D03*
X6000000Y60174000D03*
X6000000Y71350000D03*
X23000000Y68302000D03*
X23000000Y60174000D03*
X23000000Y71350000D03*
X23000000Y76698000D03*
X23000000Y84826000D03*
X23000000Y73650000D03*
D22*
X17500000Y25000000D03*
X11500000Y25000000D03*
D16*
X15200000Y46000000D03*
X12200000Y46000000D03*
X5700000Y43800000D03*
X8700000Y43800000D03*
M02*
