G04 #@! TF.FileFunction,Legend,Top*
%FSLAX46Y46*%
G04 Gerber Fmt 4.6, Leading zero omitted, Abs format (unit mm)*
G04 Created by KiCad (PCBNEW (2016-08-20 BZR 7083)-product) date Sun Feb  5 21:12:02 2017*
%MOMM*%
%LPD*%
G01*
G04 APERTURE LIST*
%ADD10C,0.100000*%
%ADD11C,0.200000*%
%ADD12C,0.120000*%
G04 APERTURE END LIST*
D10*
X17550000Y104750000D02*
X17683333Y104283334D01*
X17816666Y104616667D01*
X17950000Y104283334D01*
X18083333Y104750000D01*
X18283333Y104750000D02*
X18416666Y104283334D01*
X18550000Y104616667D01*
X18683333Y104283334D01*
X18816666Y104750000D01*
X19016666Y104750000D02*
X19150000Y104283334D01*
X19283333Y104616667D01*
X19416666Y104283334D01*
X19550000Y104750000D01*
X19816666Y104350000D02*
X19850000Y104316667D01*
X19816666Y104283334D01*
X19783333Y104316667D01*
X19816666Y104350000D01*
X19816666Y104283334D01*
X20416666Y104316667D02*
X20350000Y104283334D01*
X20216666Y104283334D01*
X20150000Y104316667D01*
X20116666Y104383334D01*
X20116666Y104650000D01*
X20150000Y104716667D01*
X20216666Y104750000D01*
X20350000Y104750000D01*
X20416666Y104716667D01*
X20450000Y104650000D01*
X20450000Y104583334D01*
X20116666Y104516667D01*
X20750000Y104283334D02*
X20750000Y104750000D01*
X20750000Y104616667D02*
X20783333Y104683334D01*
X20816666Y104716667D01*
X20883333Y104750000D01*
X20950000Y104750000D01*
X21183333Y104283334D02*
X21183333Y104750000D01*
X21183333Y104983334D02*
X21150000Y104950000D01*
X21183333Y104916667D01*
X21216666Y104950000D01*
X21183333Y104983334D01*
X21183333Y104916667D01*
X21816666Y104316667D02*
X21750000Y104283334D01*
X21616666Y104283334D01*
X21550000Y104316667D01*
X21516666Y104350000D01*
X21483333Y104416667D01*
X21483333Y104616667D01*
X21516666Y104683334D01*
X21550000Y104716667D01*
X21616666Y104750000D01*
X21750000Y104750000D01*
X21816666Y104716667D01*
X22416666Y104283334D02*
X22416666Y104650000D01*
X22383333Y104716667D01*
X22316666Y104750000D01*
X22183333Y104750000D01*
X22116666Y104716667D01*
X22416666Y104316667D02*
X22350000Y104283334D01*
X22183333Y104283334D01*
X22116666Y104316667D01*
X22083333Y104383334D01*
X22083333Y104450000D01*
X22116666Y104516667D01*
X22183333Y104550000D01*
X22350000Y104550000D01*
X22416666Y104583334D01*
X22716666Y104316667D02*
X22783333Y104283334D01*
X22916666Y104283334D01*
X22983333Y104316667D01*
X23016666Y104383334D01*
X23016666Y104416667D01*
X22983333Y104483334D01*
X22916666Y104516667D01*
X22816666Y104516667D01*
X22750000Y104550000D01*
X22716666Y104616667D01*
X22716666Y104650000D01*
X22750000Y104716667D01*
X22816666Y104750000D01*
X22916666Y104750000D01*
X22983333Y104716667D01*
X23250000Y104750000D02*
X23416666Y104283334D01*
X23583333Y104750000D02*
X23416666Y104283334D01*
X23350000Y104116667D01*
X23316666Y104083334D01*
X23250000Y104050000D01*
X23850000Y104750000D02*
X23850000Y104283334D01*
X23850000Y104683334D02*
X23883333Y104716667D01*
X23950000Y104750000D01*
X24050000Y104750000D01*
X24116666Y104716667D01*
X24150000Y104650000D01*
X24150000Y104283334D01*
X24383333Y104750000D02*
X24650000Y104750000D01*
X24483333Y104983334D02*
X24483333Y104383334D01*
X24516666Y104316667D01*
X24583333Y104283334D01*
X24650000Y104283334D01*
X24883333Y104283334D02*
X24883333Y104983334D01*
X25183333Y104283334D02*
X25183333Y104650000D01*
X25150000Y104716667D01*
X25083333Y104750000D01*
X24983333Y104750000D01*
X24916666Y104716667D01*
X24883333Y104683334D01*
X25483333Y104316667D02*
X25550000Y104283334D01*
X25683333Y104283334D01*
X25750000Y104316667D01*
X25783333Y104383334D01*
X25783333Y104416667D01*
X25750000Y104483334D01*
X25683333Y104516667D01*
X25583333Y104516667D01*
X25516666Y104550000D01*
X25483333Y104616667D01*
X25483333Y104650000D01*
X25516666Y104716667D01*
X25583333Y104750000D01*
X25683333Y104750000D01*
X25750000Y104716667D01*
X26083333Y104350000D02*
X26116666Y104316667D01*
X26083333Y104283334D01*
X26050000Y104316667D01*
X26083333Y104350000D01*
X26083333Y104283334D01*
X26516666Y104283334D02*
X26450000Y104316667D01*
X26416666Y104383334D01*
X26416666Y104983334D01*
X26716666Y104750000D02*
X26883333Y104283334D01*
X27050000Y104750000D01*
D11*
X23238095Y16392858D02*
X24000000Y16392858D01*
X23619047Y15821429D02*
X23619047Y16964286D01*
X25000000Y15821429D02*
X24428571Y15821429D01*
X24714285Y15821429D02*
X24714285Y17321429D01*
X24619047Y17107143D01*
X24523809Y16964286D01*
X24428571Y16892858D01*
X25380952Y17178572D02*
X25428571Y17250000D01*
X25523809Y17321429D01*
X25761904Y17321429D01*
X25857142Y17250000D01*
X25904761Y17178572D01*
X25952380Y17035715D01*
X25952380Y16892858D01*
X25904761Y16678572D01*
X25333333Y15821429D01*
X25952380Y15821429D01*
X26238095Y17321429D02*
X26571428Y15821429D01*
X26904761Y17321429D01*
D12*
X17719047Y56000000D02*
X17642857Y56057143D01*
X17528571Y56057143D01*
X17414285Y56000000D01*
X17338095Y55885715D01*
X17300000Y55771429D01*
X17261904Y55542858D01*
X17261904Y55371429D01*
X17300000Y55142858D01*
X17338095Y55028572D01*
X17414285Y54914286D01*
X17528571Y54857143D01*
X17604761Y54857143D01*
X17719047Y54914286D01*
X17757142Y54971429D01*
X17757142Y55371429D01*
X17604761Y55371429D01*
X18061904Y55200000D02*
X18442857Y55200000D01*
X17985714Y54857143D02*
X18252380Y56057143D01*
X18519047Y54857143D01*
X18671428Y56057143D02*
X19128571Y56057143D01*
X18900000Y54857143D02*
X18900000Y56057143D01*
X19395238Y55485715D02*
X19661904Y55485715D01*
X19776190Y54857143D02*
X19395238Y54857143D01*
X19395238Y56057143D01*
X19776190Y56057143D01*
X20080952Y55942858D02*
X20119047Y56000000D01*
X20195238Y56057143D01*
X20385714Y56057143D01*
X20461904Y56000000D01*
X20500000Y55942858D01*
X20538095Y55828572D01*
X20538095Y55714286D01*
X20500000Y55542858D01*
X20042857Y54857143D01*
X20538095Y54857143D01*
X1119047Y56100000D02*
X1042857Y56157143D01*
X928571Y56157143D01*
X814285Y56100000D01*
X738095Y55985715D01*
X700000Y55871429D01*
X661904Y55642858D01*
X661904Y55471429D01*
X700000Y55242858D01*
X738095Y55128572D01*
X814285Y55014286D01*
X928571Y54957143D01*
X1004761Y54957143D01*
X1119047Y55014286D01*
X1157142Y55071429D01*
X1157142Y55471429D01*
X1004761Y55471429D01*
X1461904Y55300000D02*
X1842857Y55300000D01*
X1385714Y54957143D02*
X1652380Y56157143D01*
X1919047Y54957143D01*
X2071428Y56157143D02*
X2528571Y56157143D01*
X2300000Y54957143D02*
X2300000Y56157143D01*
X2795238Y55585715D02*
X3061904Y55585715D01*
X3176190Y54957143D02*
X2795238Y54957143D01*
X2795238Y56157143D01*
X3176190Y56157143D01*
X3938095Y54957143D02*
X3480952Y54957143D01*
X3709523Y54957143D02*
X3709523Y56157143D01*
X3633333Y55985715D01*
X3557142Y55871429D01*
X3480952Y55814286D01*
D11*
X4314285Y89390477D02*
X4314285Y89657143D01*
X4942857Y89771429D02*
X4942857Y89390477D01*
X3742857Y89390477D01*
X3742857Y89771429D01*
X4942857Y90114286D02*
X4142857Y90114286D01*
X4371428Y90114286D02*
X4257142Y90152381D01*
X4200000Y90190477D01*
X4142857Y90266667D01*
X4142857Y90342858D01*
X4942857Y90609524D02*
X4142857Y90609524D01*
X3742857Y90609524D02*
X3800000Y90571429D01*
X3857142Y90609524D01*
X3800000Y90647620D01*
X3742857Y90609524D01*
X3857142Y90609524D01*
X4885714Y91333334D02*
X4942857Y91257143D01*
X4942857Y91104762D01*
X4885714Y91028572D01*
X4828571Y90990477D01*
X4714285Y90952381D01*
X4371428Y90952381D01*
X4257142Y90990477D01*
X4200000Y91028572D01*
X4142857Y91104762D01*
X4142857Y91257143D01*
X4200000Y91333334D01*
X4942857Y92019048D02*
X4314285Y92019048D01*
X4200000Y91980953D01*
X4142857Y91904762D01*
X4142857Y91752381D01*
X4200000Y91676191D01*
X4885714Y92019048D02*
X4942857Y91942858D01*
X4942857Y91752381D01*
X4885714Y91676191D01*
X4771428Y91638096D01*
X4657142Y91638096D01*
X4542857Y91676191D01*
X4485714Y91752381D01*
X4485714Y91942858D01*
X4428571Y92019048D01*
X4885714Y92971429D02*
X4942857Y93085715D01*
X4942857Y93276191D01*
X4885714Y93352381D01*
X4828571Y93390477D01*
X4714285Y93428572D01*
X4600000Y93428572D01*
X4485714Y93390477D01*
X4428571Y93352381D01*
X4371428Y93276191D01*
X4314285Y93123810D01*
X4257142Y93047620D01*
X4200000Y93009524D01*
X4085714Y92971429D01*
X3971428Y92971429D01*
X3857142Y93009524D01*
X3800000Y93047620D01*
X3742857Y93123810D01*
X3742857Y93314286D01*
X3800000Y93428572D01*
X4142857Y93695239D02*
X4942857Y93885715D01*
X4142857Y94076191D02*
X4942857Y93885715D01*
X5228571Y93809524D01*
X5285714Y93771429D01*
X5342857Y93695239D01*
X4142857Y94380953D02*
X4942857Y94380953D01*
X4257142Y94380953D02*
X4200000Y94419048D01*
X4142857Y94495239D01*
X4142857Y94609524D01*
X4200000Y94685715D01*
X4314285Y94723810D01*
X4942857Y94723810D01*
X4142857Y94990477D02*
X4142857Y95295239D01*
X3742857Y95104762D02*
X4771428Y95104762D01*
X4885714Y95142858D01*
X4942857Y95219048D01*
X4942857Y95295239D01*
X4942857Y95561905D02*
X3742857Y95561905D01*
X4942857Y95904762D02*
X4314285Y95904762D01*
X4200000Y95866667D01*
X4142857Y95790477D01*
X4142857Y95676191D01*
X4200000Y95600000D01*
X4257142Y95561905D01*
X4885714Y96247620D02*
X4942857Y96323810D01*
X4942857Y96476191D01*
X4885714Y96552381D01*
X4771428Y96590477D01*
X4714285Y96590477D01*
X4600000Y96552381D01*
X4542857Y96476191D01*
X4542857Y96361905D01*
X4485714Y96285715D01*
X4371428Y96247620D01*
X4314285Y96247620D01*
X4200000Y96285715D01*
X4142857Y96361905D01*
X4142857Y96476191D01*
X4200000Y96552381D01*
X4942857Y97542858D02*
X3742857Y97542858D01*
X3742857Y97733334D01*
X3800000Y97847620D01*
X3914285Y97923810D01*
X4028571Y97961905D01*
X4257142Y98000000D01*
X4428571Y98000000D01*
X4657142Y97961905D01*
X4771428Y97923810D01*
X4885714Y97847620D01*
X4942857Y97733334D01*
X4942857Y97542858D01*
X4942857Y98342858D02*
X3742857Y98342858D01*
X4371428Y98876191D02*
X4942857Y98876191D01*
X3742857Y98609524D02*
X4371428Y98876191D01*
X3742857Y99142858D01*
X4942857Y100019048D02*
X3742857Y100019048D01*
X4600000Y100285715D01*
X3742857Y100552381D01*
X4942857Y100552381D01*
X4942857Y100933334D02*
X3742857Y100933334D01*
X4942857Y101314286D02*
X3742857Y101314286D01*
X3742857Y101504762D01*
X3800000Y101619048D01*
X3914285Y101695239D01*
X4028571Y101733334D01*
X4257142Y101771429D01*
X4428571Y101771429D01*
X4657142Y101733334D01*
X4771428Y101695239D01*
X4885714Y101619048D01*
X4942857Y101504762D01*
X4942857Y101314286D01*
X4942857Y102114286D02*
X3742857Y102114286D01*
X4828571Y103561905D02*
X4885714Y103523810D01*
X4942857Y103409524D01*
X4942857Y103333334D01*
X4885714Y103219048D01*
X4771428Y103142858D01*
X4657142Y103104762D01*
X4428571Y103066667D01*
X4257142Y103066667D01*
X4028571Y103104762D01*
X3914285Y103142858D01*
X3800000Y103219048D01*
X3742857Y103333334D01*
X3742857Y103409524D01*
X3800000Y103523810D01*
X3857142Y103561905D01*
X3742857Y103790477D02*
X4942857Y104057143D01*
X3742857Y104323810D01*
X6142857Y92285715D02*
X6942857Y92476191D01*
X6142857Y92666667D01*
X6942857Y93390477D02*
X6942857Y92933334D01*
X6942857Y93161905D02*
X5742857Y93161905D01*
X5914285Y93085715D01*
X6028571Y93009524D01*
X6085714Y92933334D01*
X6828571Y93733334D02*
X6885714Y93771429D01*
X6942857Y93733334D01*
X6885714Y93695239D01*
X6828571Y93733334D01*
X6942857Y93733334D01*
X6942857Y94533334D02*
X6942857Y94076191D01*
X6942857Y94304762D02*
X5742857Y94304762D01*
X5914285Y94228572D01*
X6028571Y94152381D01*
X6085714Y94076191D01*
X6314285Y95752381D02*
X6314285Y95485715D01*
X6942857Y95485715D02*
X5742857Y95485715D01*
X5742857Y95866667D01*
X6885714Y96476191D02*
X6942857Y96400000D01*
X6942857Y96247620D01*
X6885714Y96171429D01*
X6771428Y96133334D01*
X6314285Y96133334D01*
X6200000Y96171429D01*
X6142857Y96247620D01*
X6142857Y96400000D01*
X6200000Y96476191D01*
X6314285Y96514286D01*
X6428571Y96514286D01*
X6542857Y96133334D01*
X6942857Y96857143D02*
X5742857Y96857143D01*
X6200000Y96857143D02*
X6142857Y96933334D01*
X6142857Y97085715D01*
X6200000Y97161905D01*
X6257142Y97200000D01*
X6371428Y97238096D01*
X6714285Y97238096D01*
X6828571Y97200000D01*
X6885714Y97161905D01*
X6942857Y97085715D01*
X6942857Y96933334D01*
X6885714Y96857143D01*
X6828571Y97580953D02*
X6885714Y97619048D01*
X6942857Y97580953D01*
X6885714Y97542858D01*
X6828571Y97580953D01*
X6942857Y97580953D01*
X5857142Y98533334D02*
X5800000Y98571429D01*
X5742857Y98647620D01*
X5742857Y98838096D01*
X5800000Y98914286D01*
X5857142Y98952381D01*
X5971428Y98990477D01*
X6085714Y98990477D01*
X6257142Y98952381D01*
X6942857Y98495239D01*
X6942857Y98990477D01*
X5742857Y99485715D02*
X5742857Y99561905D01*
X5800000Y99638096D01*
X5857142Y99676191D01*
X5971428Y99714286D01*
X6200000Y99752381D01*
X6485714Y99752381D01*
X6714285Y99714286D01*
X6828571Y99676191D01*
X6885714Y99638096D01*
X6942857Y99561905D01*
X6942857Y99485715D01*
X6885714Y99409524D01*
X6828571Y99371429D01*
X6714285Y99333334D01*
X6485714Y99295239D01*
X6200000Y99295239D01*
X5971428Y99333334D01*
X5857142Y99371429D01*
X5800000Y99409524D01*
X5742857Y99485715D01*
X6942857Y100514286D02*
X6942857Y100057143D01*
X6942857Y100285715D02*
X5742857Y100285715D01*
X5914285Y100209524D01*
X6028571Y100133334D01*
X6085714Y100057143D01*
X5742857Y100780953D02*
X5742857Y101314286D01*
X6942857Y100971429D01*
D12*
X8566666Y22057143D02*
X8566666Y23257143D01*
X8833333Y22400000D01*
X9100000Y23257143D01*
X9100000Y22057143D01*
X9480952Y22057143D02*
X9480952Y23257143D01*
X9861904Y22057143D02*
X9861904Y23257143D01*
X10052380Y23257143D01*
X10166666Y23200000D01*
X10242857Y23085715D01*
X10280952Y22971429D01*
X10319047Y22742858D01*
X10319047Y22571429D01*
X10280952Y22342858D01*
X10242857Y22228572D01*
X10166666Y22114286D01*
X10052380Y22057143D01*
X9861904Y22057143D01*
X10661904Y22057143D02*
X10661904Y23257143D01*
X12033333Y23257143D02*
X11652380Y23257143D01*
X11614285Y22685715D01*
X11652380Y22742858D01*
X11728571Y22800000D01*
X11919047Y22800000D01*
X11995238Y22742858D01*
X12033333Y22685715D01*
X12071428Y22571429D01*
X12071428Y22285715D01*
X12033333Y22171429D01*
X11995238Y22114286D01*
X11919047Y22057143D01*
X11728571Y22057143D01*
X11652380Y22114286D01*
X11614285Y22171429D01*
X15766666Y22157143D02*
X15766666Y23357143D01*
X16033333Y22500000D01*
X16300000Y23357143D01*
X16300000Y22157143D01*
X16680952Y22157143D02*
X16680952Y23357143D01*
X17061904Y22157143D02*
X17061904Y23357143D01*
X17252380Y23357143D01*
X17366666Y23300000D01*
X17442857Y23185715D01*
X17480952Y23071429D01*
X17519047Y22842858D01*
X17519047Y22671429D01*
X17480952Y22442858D01*
X17442857Y22328572D01*
X17366666Y22214286D01*
X17252380Y22157143D01*
X17061904Y22157143D01*
X17861904Y22157143D02*
X17861904Y23357143D01*
X19195238Y22957143D02*
X19195238Y22157143D01*
X19004761Y23414286D02*
X18814285Y22557143D01*
X19309523Y22557143D01*
X8214285Y40857143D02*
X7757142Y40857143D01*
X7985714Y40857143D02*
X7985714Y42057143D01*
X7909523Y41885715D01*
X7833333Y41771429D01*
X7757142Y41714286D01*
X8442857Y42057143D02*
X8709523Y40857143D01*
X8976190Y42057143D01*
X9395238Y42057143D02*
X9547619Y42057143D01*
X9623809Y42000000D01*
X9700000Y41885715D01*
X9738095Y41657143D01*
X9738095Y41257143D01*
X9700000Y41028572D01*
X9623809Y40914286D01*
X9547619Y40857143D01*
X9395238Y40857143D01*
X9319047Y40914286D01*
X9242857Y41028572D01*
X9204761Y41257143D01*
X9204761Y41657143D01*
X9242857Y41885715D01*
X9319047Y42000000D01*
X9395238Y42057143D01*
X10080952Y40857143D02*
X10080952Y42057143D01*
X10919047Y40971429D02*
X10880952Y40914286D01*
X10766666Y40857143D01*
X10690476Y40857143D01*
X10576190Y40914286D01*
X10500000Y41028572D01*
X10461904Y41142858D01*
X10423809Y41371429D01*
X10423809Y41542858D01*
X10461904Y41771429D01*
X10500000Y41885715D01*
X10576190Y42000000D01*
X10690476Y42057143D01*
X10766666Y42057143D01*
X10880952Y42000000D01*
X10919047Y41942858D01*
X11261904Y41485715D02*
X11528571Y41485715D01*
X11642857Y40857143D02*
X11261904Y40857143D01*
X11261904Y42057143D01*
X11642857Y42057143D01*
X12657142Y33642858D02*
X12695238Y33700000D01*
X12771428Y33757143D01*
X12961904Y33757143D01*
X13038095Y33700000D01*
X13076190Y33642858D01*
X13114285Y33528572D01*
X13114285Y33414286D01*
X13076190Y33242858D01*
X12619047Y32557143D01*
X13114285Y32557143D01*
X13342857Y33757143D02*
X13609523Y32557143D01*
X13876190Y33757143D01*
X14295238Y33757143D02*
X14447619Y33757143D01*
X14523809Y33700000D01*
X14600000Y33585715D01*
X14638095Y33357143D01*
X14638095Y32957143D01*
X14600000Y32728572D01*
X14523809Y32614286D01*
X14447619Y32557143D01*
X14295238Y32557143D01*
X14219047Y32614286D01*
X14142857Y32728572D01*
X14104761Y32957143D01*
X14104761Y33357143D01*
X14142857Y33585715D01*
X14219047Y33700000D01*
X14295238Y33757143D01*
X14980952Y32557143D02*
X14980952Y33757143D01*
X15819047Y32671429D02*
X15780952Y32614286D01*
X15666666Y32557143D01*
X15590476Y32557143D01*
X15476190Y32614286D01*
X15400000Y32728572D01*
X15361904Y32842858D01*
X15323809Y33071429D01*
X15323809Y33242858D01*
X15361904Y33471429D01*
X15400000Y33585715D01*
X15476190Y33700000D01*
X15590476Y33757143D01*
X15666666Y33757143D01*
X15780952Y33700000D01*
X15819047Y33642858D01*
X16161904Y33185715D02*
X16428571Y33185715D01*
X16542857Y32557143D02*
X16161904Y32557143D01*
X16161904Y33757143D01*
X16542857Y33757143D01*
X19623809Y69971429D02*
X19585714Y69914286D01*
X19471428Y69857143D01*
X19395238Y69857143D01*
X19280952Y69914286D01*
X19204761Y70028572D01*
X19166666Y70142858D01*
X19128571Y70371429D01*
X19128571Y70542858D01*
X19166666Y70771429D01*
X19204761Y70885715D01*
X19280952Y71000000D01*
X19395238Y71057143D01*
X19471428Y71057143D01*
X19585714Y71000000D01*
X19623809Y70942858D01*
X19852380Y71057143D02*
X20119047Y69857143D01*
X20385714Y71057143D01*
X20614285Y70942858D02*
X20652380Y71000000D01*
X20728571Y71057143D01*
X20919047Y71057143D01*
X20995238Y71000000D01*
X21033333Y70942858D01*
X21071428Y70828572D01*
X21071428Y70714286D01*
X21033333Y70542858D01*
X20576190Y69857143D01*
X21071428Y69857143D01*
X8623809Y70071429D02*
X8585714Y70014286D01*
X8471428Y69957143D01*
X8395238Y69957143D01*
X8280952Y70014286D01*
X8204761Y70128572D01*
X8166666Y70242858D01*
X8128571Y70471429D01*
X8128571Y70642858D01*
X8166666Y70871429D01*
X8204761Y70985715D01*
X8280952Y71100000D01*
X8395238Y71157143D01*
X8471428Y71157143D01*
X8585714Y71100000D01*
X8623809Y71042858D01*
X8852380Y71157143D02*
X9119047Y69957143D01*
X9385714Y71157143D01*
X10071428Y69957143D02*
X9614285Y69957143D01*
X9842857Y69957143D02*
X9842857Y71157143D01*
X9766666Y70985715D01*
X9690476Y70871429D01*
X9614285Y70814286D01*
X15714285Y84757143D02*
X15714285Y85957143D01*
X15980952Y85100000D01*
X16247619Y85957143D01*
X16247619Y84757143D01*
X16780952Y85957143D02*
X16933333Y85957143D01*
X17009523Y85900000D01*
X17085714Y85785715D01*
X17123809Y85557143D01*
X17123809Y85157143D01*
X17085714Y84928572D01*
X17009523Y84814286D01*
X16933333Y84757143D01*
X16780952Y84757143D01*
X16704761Y84814286D01*
X16628571Y84928572D01*
X16590476Y85157143D01*
X16590476Y85557143D01*
X16628571Y85785715D01*
X16704761Y85900000D01*
X16780952Y85957143D01*
X17466666Y84757143D02*
X17466666Y85957143D01*
X17657142Y85957143D01*
X17771428Y85900000D01*
X17847619Y85785715D01*
X17885714Y85671429D01*
X17923809Y85442858D01*
X17923809Y85271429D01*
X17885714Y85042858D01*
X17847619Y84928572D01*
X17771428Y84814286D01*
X17657142Y84757143D01*
X17466666Y84757143D01*
X4076190Y86571429D02*
X4038095Y86514286D01*
X3923809Y86457143D01*
X3847619Y86457143D01*
X3733333Y86514286D01*
X3657142Y86628572D01*
X3619047Y86742858D01*
X3580952Y86971429D01*
X3580952Y87142858D01*
X3619047Y87371429D01*
X3657142Y87485715D01*
X3733333Y87600000D01*
X3847619Y87657143D01*
X3923809Y87657143D01*
X4038095Y87600000D01*
X4076190Y87542858D01*
X4800000Y86457143D02*
X4419047Y86457143D01*
X4419047Y87657143D01*
X5066666Y86457143D02*
X5066666Y87657143D01*
X5523809Y86457143D02*
X5180952Y87142858D01*
X5523809Y87657143D02*
X5066666Y86971429D01*
X6628571Y87657143D02*
X6780952Y87657143D01*
X6857142Y87600000D01*
X6933333Y87485715D01*
X6971428Y87257143D01*
X6971428Y86857143D01*
X6933333Y86628572D01*
X6857142Y86514286D01*
X6780952Y86457143D01*
X6628571Y86457143D01*
X6552380Y86514286D01*
X6476190Y86628572D01*
X6438095Y86857143D01*
X6438095Y87257143D01*
X6476190Y87485715D01*
X6552380Y87600000D01*
X6628571Y87657143D01*
X7314285Y87657143D02*
X7314285Y86685715D01*
X7352380Y86571429D01*
X7390476Y86514286D01*
X7466666Y86457143D01*
X7619047Y86457143D01*
X7695238Y86514286D01*
X7733333Y86571429D01*
X7771428Y86685715D01*
X7771428Y87657143D01*
X8038095Y87657143D02*
X8495238Y87657143D01*
X8266666Y86457143D02*
X8266666Y87657143D01*
X13433333Y105100000D02*
X13357142Y105157143D01*
X13242857Y105157143D01*
X13128571Y105100000D01*
X13052380Y104985715D01*
X13014285Y104871429D01*
X12976190Y104642858D01*
X12976190Y104471429D01*
X13014285Y104242858D01*
X13052380Y104128572D01*
X13128571Y104014286D01*
X13242857Y103957143D01*
X13319047Y103957143D01*
X13433333Y104014286D01*
X13471428Y104071429D01*
X13471428Y104471429D01*
X13319047Y104471429D01*
X14195238Y103957143D02*
X13814285Y103957143D01*
X13814285Y105157143D01*
X14461904Y103957143D02*
X14461904Y105157143D01*
X14842857Y103957143D02*
X14842857Y105157143D01*
X15033333Y105157143D01*
X15147619Y105100000D01*
X15223809Y104985715D01*
X15261904Y104871429D01*
X15300000Y104642858D01*
X15300000Y104471429D01*
X15261904Y104242858D01*
X15223809Y104128572D01*
X15147619Y104014286D01*
X15033333Y103957143D01*
X14842857Y103957143D01*
X15642857Y104585715D02*
X15909523Y104585715D01*
X16023809Y103957143D02*
X15642857Y103957143D01*
X15642857Y105157143D01*
X16023809Y105157143D01*
D11*
X23938095Y1392858D02*
X24700000Y1392858D01*
X25700000Y821429D02*
X25128571Y821429D01*
X25414285Y821429D02*
X25414285Y2321429D01*
X25319047Y2107143D01*
X25223809Y1964286D01*
X25128571Y1892858D01*
X26080952Y2178572D02*
X26128571Y2250000D01*
X26223809Y2321429D01*
X26461904Y2321429D01*
X26557142Y2250000D01*
X26604761Y2178572D01*
X26652380Y2035715D01*
X26652380Y1892858D01*
X26604761Y1678572D01*
X26033333Y821429D01*
X26652380Y821429D01*
X26938095Y2321429D02*
X27271428Y821429D01*
X27604761Y2321429D01*
D10*
X4505100Y26981876D02*
G75*
G03X7680000Y27330000I1494900J1018124D01*
G01*
X7667827Y28684364D02*
G75*
G03X4500000Y29000000I-1667827J-684364D01*
G01*
X4500000Y27000000D02*
X4500000Y27350000D01*
X4500000Y29000000D02*
X4500000Y28650000D01*
X9300000Y3900000D02*
X9300000Y5400000D01*
X9300000Y3500000D02*
X9300000Y2000000D01*
X9900000Y3500000D02*
X8700000Y3500000D01*
X9900000Y3900000D02*
X8700000Y3900000D01*
X10200000Y7000000D02*
X10200000Y400000D01*
X10200000Y400000D02*
X8400000Y400000D01*
X8400000Y400000D02*
X8400000Y7000000D01*
X8400000Y7000000D02*
X10200000Y7000000D01*
X7300000Y3500000D02*
X7300000Y2000000D01*
X7300000Y3900000D02*
X7300000Y5400000D01*
X6700000Y3900000D02*
X7900000Y3900000D01*
X6700000Y3500000D02*
X7900000Y3500000D01*
X6400000Y400000D02*
X6400000Y7000000D01*
X6400000Y7000000D02*
X8200000Y7000000D01*
X8200000Y7000000D02*
X8200000Y400000D01*
X8200000Y400000D02*
X6400000Y400000D01*
X23100000Y22500000D02*
X24600000Y22500000D01*
X22700000Y22500000D02*
X21200000Y22500000D01*
X22700000Y21900000D02*
X22700000Y23100000D01*
X23100000Y21900000D02*
X23100000Y23100000D01*
X26200000Y21600000D02*
X19600000Y21600000D01*
X19600000Y21600000D02*
X19600000Y23400000D01*
X19600000Y23400000D02*
X26200000Y23400000D01*
X26200000Y23400000D02*
X26200000Y21600000D01*
X6197000Y3663000D02*
X6197000Y4933000D01*
X6197000Y4933000D02*
X5943000Y4933000D01*
X5943000Y4933000D02*
X5943000Y10267000D01*
X5943000Y10267000D02*
X6197000Y10267000D01*
X6197000Y10267000D02*
X6197000Y11537000D01*
X6197000Y11537000D02*
X5308000Y11537000D01*
X5308000Y3663000D02*
X6197000Y3663000D01*
X3403000Y3663000D02*
X4292000Y3663000D01*
X3403000Y3663000D02*
X3403000Y4933000D01*
X3403000Y4933000D02*
X3657000Y4933000D01*
X3657000Y4933000D02*
X3657000Y10267000D01*
X3657000Y10267000D02*
X3403000Y10267000D01*
X3403000Y10267000D02*
X3403000Y11537000D01*
X3403000Y11537000D02*
X4292000Y11537000D01*
X3197000Y3663000D02*
X3197000Y4933000D01*
X3197000Y4933000D02*
X2943000Y4933000D01*
X2943000Y4933000D02*
X2943000Y10267000D01*
X2943000Y10267000D02*
X3197000Y10267000D01*
X3197000Y10267000D02*
X3197000Y11537000D01*
X3197000Y11537000D02*
X2308000Y11537000D01*
X2308000Y3663000D02*
X3197000Y3663000D01*
X403000Y3663000D02*
X1292000Y3663000D01*
X403000Y3663000D02*
X403000Y4933000D01*
X403000Y4933000D02*
X657000Y4933000D01*
X657000Y4933000D02*
X657000Y10267000D01*
X657000Y10267000D02*
X403000Y10267000D01*
X403000Y10267000D02*
X403000Y11537000D01*
X403000Y11537000D02*
X1292000Y11537000D01*
X10300000Y30600000D02*
X9500000Y30600000D01*
X16300000Y30600000D02*
X17100000Y30600000D01*
X10300000Y29200000D02*
X10300000Y32000000D01*
X10300000Y32000000D02*
X16300000Y32000000D01*
X16300000Y32000000D02*
X16300000Y29200000D01*
X16300000Y29200000D02*
X10300000Y29200000D01*
X21000000Y41900000D02*
X21000000Y42700000D01*
X21000000Y35900000D02*
X21000000Y35100000D01*
X19600000Y41900000D02*
X22400000Y41900000D01*
X22400000Y41900000D02*
X22400000Y35900000D01*
X22400000Y35900000D02*
X19600000Y35900000D01*
X19600000Y35900000D02*
X19600000Y41900000D01*
X24000000Y41900000D02*
X24000000Y42700000D01*
X24000000Y35900000D02*
X24000000Y35100000D01*
X22600000Y41900000D02*
X25400000Y41900000D01*
X25400000Y41900000D02*
X25400000Y35900000D01*
X25400000Y35900000D02*
X22600000Y35900000D01*
X22600000Y35900000D02*
X22600000Y41900000D01*
X16500000Y74800000D02*
X16500000Y75600000D01*
X16500000Y68800000D02*
X16500000Y68000000D01*
X15100000Y74800000D02*
X17900000Y74800000D01*
X17900000Y74800000D02*
X17900000Y68800000D01*
X17900000Y68800000D02*
X15100000Y68800000D01*
X15100000Y68800000D02*
X15100000Y74800000D01*
X12500000Y74800000D02*
X12500000Y75600000D01*
X12500000Y68800000D02*
X12500000Y68000000D01*
X11100000Y74800000D02*
X13900000Y74800000D01*
X13900000Y74800000D02*
X13900000Y68800000D01*
X13900000Y68800000D02*
X11100000Y68800000D01*
X11100000Y68800000D02*
X11100000Y74800000D01*
X17929000Y91769000D02*
X19453000Y91769000D01*
X19453000Y91769000D02*
X19453000Y97357000D01*
X9547000Y97357000D02*
X9547000Y91769000D01*
X9547000Y91769000D02*
X11071000Y91769000D01*
X19453000Y99643000D02*
X19453000Y103580000D01*
X19453000Y103580000D02*
X9547000Y103580000D01*
X9547000Y103580000D02*
X9547000Y99643000D01*
X24587500Y28000000D02*
G75*
G03X24587500Y28000000I-1587500J0D01*
G01*
X26175000Y30794000D02*
X26175000Y25206000D01*
X19825000Y25206000D02*
X19825000Y30794000D01*
X21793500Y24825000D02*
X24206500Y24825000D01*
X24206500Y31175000D02*
X21793500Y31175000D01*
X14770000Y28852500D02*
X14770000Y26947500D01*
X15087500Y28852500D02*
X15087500Y26947500D01*
X11277500Y27900000D02*
X10600000Y27900000D01*
X15722500Y27900000D02*
X16400000Y27900000D01*
X11277500Y28852500D02*
X15722500Y28852500D01*
X15722500Y28852500D02*
X15722500Y26947500D01*
X15722500Y26947500D02*
X11277500Y26947500D01*
X11277500Y26947500D02*
X11277500Y28852500D01*
X13330000Y42547500D02*
X13330000Y44452500D01*
X13012500Y42547500D02*
X13012500Y44452500D01*
X16822500Y43500000D02*
X17500000Y43500000D01*
X12377500Y43500000D02*
X11700000Y43500000D01*
X16822500Y42547500D02*
X12377500Y42547500D01*
X12377500Y42547500D02*
X12377500Y44452500D01*
X12377500Y44452500D02*
X16822500Y44452500D01*
X16822500Y44452500D02*
X16822500Y42547500D01*
X19352500Y36430000D02*
X17447500Y36430000D01*
X19352500Y36112500D02*
X17447500Y36112500D01*
X18400000Y39922500D02*
X18400000Y40600000D01*
X18400000Y35477500D02*
X18400000Y34800000D01*
X19352500Y39922500D02*
X19352500Y35477500D01*
X19352500Y35477500D02*
X17447500Y35477500D01*
X17447500Y35477500D02*
X17447500Y39922500D01*
X17447500Y39922500D02*
X19352500Y39922500D01*
X11547500Y61970000D02*
X13452500Y61970000D01*
X11547500Y62287500D02*
X13452500Y62287500D01*
X12500000Y58477500D02*
X12500000Y57800000D01*
X12500000Y62922500D02*
X12500000Y63600000D01*
X11547500Y58477500D02*
X11547500Y62922500D01*
X11547500Y62922500D02*
X13452500Y62922500D01*
X13452500Y62922500D02*
X13452500Y58477500D01*
X13452500Y58477500D02*
X11547500Y58477500D01*
X4505100Y55481876D02*
G75*
G03X7680000Y55830000I1494900J1018124D01*
G01*
X7667827Y57184364D02*
G75*
G03X4500000Y57500000I-1667827J-684364D01*
G01*
X4500000Y55500000D02*
X4500000Y55850000D01*
X4500000Y57500000D02*
X4500000Y57150000D01*
X21505100Y55481876D02*
G75*
G03X24680000Y55830000I1494900J1018124D01*
G01*
X24667827Y57184364D02*
G75*
G03X21500000Y57500000I-1667827J-684364D01*
G01*
X21500000Y55500000D02*
X21500000Y55850000D01*
X21500000Y57500000D02*
X21500000Y57150000D01*
X13005100Y78981876D02*
G75*
G03X16180000Y79330000I1494900J1018124D01*
G01*
X16167827Y80684364D02*
G75*
G03X13000000Y81000000I-1667827J-684364D01*
G01*
X13000000Y79000000D02*
X13000000Y79350000D01*
X13000000Y81000000D02*
X13000000Y80650000D01*
X17103500Y42127500D02*
X11896500Y42127500D01*
X11896500Y42127500D02*
X11896500Y33872500D01*
X11896500Y33872500D02*
X17103500Y33872500D01*
X17103500Y33872500D02*
X17103500Y42127500D01*
X14333000Y5008000D02*
X14333000Y5897000D01*
X14333000Y3103000D02*
X14333000Y3992000D01*
X19667000Y5008000D02*
X19667000Y5897000D01*
X19667000Y3103000D02*
X19667000Y3992000D01*
X15222000Y3103000D02*
X15222000Y5897000D01*
X14968000Y3103000D02*
X14968000Y5897000D01*
X19667000Y3103000D02*
X14333000Y3103000D01*
X14333000Y5897000D02*
X19667000Y5897000D01*
X19667000Y1092000D02*
X19667000Y203000D01*
X19667000Y2997000D02*
X19667000Y2108000D01*
X14333000Y1092000D02*
X14333000Y203000D01*
X14333000Y2997000D02*
X14333000Y2108000D01*
X18778000Y2997000D02*
X18778000Y203000D01*
X19032000Y2997000D02*
X19032000Y203000D01*
X14333000Y2997000D02*
X19667000Y2997000D01*
X19667000Y203000D02*
X14333000Y203000D01*
X10699000Y49111000D02*
X10699000Y45301000D01*
X10699000Y45301000D02*
X-223000Y45301000D01*
X-223000Y45301000D02*
X-223000Y54699000D01*
X-223000Y54699000D02*
X10699000Y54699000D01*
X10699000Y54699000D02*
X10699000Y50889000D01*
X18301000Y50889000D02*
X18301000Y54699000D01*
X18301000Y54699000D02*
X29223000Y54699000D01*
X29223000Y54699000D02*
X29223000Y45301000D01*
X29223000Y45301000D02*
X18301000Y45301000D01*
X18301000Y45301000D02*
X18301000Y49111000D01*
X5111000Y75301000D02*
X1301000Y75301000D01*
X1301000Y75301000D02*
X1301000Y86223000D01*
X1301000Y86223000D02*
X10699000Y86223000D01*
X10699000Y86223000D02*
X10699000Y75301000D01*
X10699000Y75301000D02*
X6889000Y75301000D01*
X6889000Y69699000D02*
X10699000Y69699000D01*
X10699000Y69699000D02*
X10699000Y58777000D01*
X10699000Y58777000D02*
X1301000Y58777000D01*
X1301000Y58777000D02*
X1301000Y69699000D01*
X1301000Y69699000D02*
X5111000Y69699000D01*
X23889000Y69699000D02*
X27699000Y69699000D01*
X27699000Y69699000D02*
X27699000Y58777000D01*
X27699000Y58777000D02*
X18301000Y58777000D01*
X18301000Y58777000D02*
X18301000Y69699000D01*
X18301000Y69699000D02*
X22111000Y69699000D01*
X22111000Y75301000D02*
X18301000Y75301000D01*
X18301000Y75301000D02*
X18301000Y86223000D01*
X18301000Y86223000D02*
X27699000Y86223000D01*
X27699000Y86223000D02*
X27699000Y75301000D01*
X27699000Y75301000D02*
X23889000Y75301000D01*
G36*
X21367218Y87673353D02*
X21365400Y87503799D01*
X21356789Y87200886D01*
X21341861Y86980944D01*
X21318401Y86825429D01*
X21284192Y86715795D01*
X21267067Y86680751D01*
X21125096Y86519142D01*
X20916068Y86402781D01*
X20667910Y86340846D01*
X20408549Y86342517D01*
X20303906Y86364144D01*
X20127716Y86437983D01*
X20013744Y86537637D01*
X19978721Y86646498D01*
X19986410Y86679254D01*
X20032030Y86743717D01*
X20113507Y86756413D01*
X20251822Y86717482D01*
X20341853Y86681633D01*
X20502882Y86631146D01*
X20646384Y86636654D01*
X20723031Y86656466D01*
X20892123Y86725683D01*
X20991903Y86824488D01*
X21045688Y86951671D01*
X21061524Y87025415D01*
X21028718Y87041343D01*
X20924397Y87010023D01*
X20921547Y87009030D01*
X20709759Y86970459D01*
X20478460Y86982511D01*
X20267454Y87039427D01*
X20128277Y87123803D01*
X20017583Y87239707D01*
X19947431Y87355741D01*
X19905673Y87503226D01*
X19880163Y87713484D01*
X19875122Y87776596D01*
X19871375Y88047405D01*
X19906856Y88231332D01*
X19980700Y88325303D01*
X20033000Y88337600D01*
X20121884Y88292567D01*
X20179912Y88155903D01*
X20207845Y87925264D01*
X20210800Y87790014D01*
X20217267Y87584762D01*
X20240379Y87454443D01*
X20285700Y87372992D01*
X20303700Y87354874D01*
X20440915Y87289000D01*
X20622839Y87272327D01*
X20805781Y87303978D01*
X20928469Y87367424D01*
X20989434Y87428921D01*
X21027773Y87509807D01*
X21050457Y87635897D01*
X21064458Y87833011D01*
X21066645Y87879148D01*
X21081832Y88101418D01*
X21105316Y88239166D01*
X21140790Y88309364D01*
X21163494Y88324178D01*
X21243504Y88332381D01*
X21301634Y88280530D01*
X21340132Y88159494D01*
X21361244Y87960145D01*
X21367218Y87673353D01*
X21367218Y87673353D01*
X21367218Y87673353D01*
G37*
X21367218Y87673353D02*
X21365400Y87503799D01*
X21356789Y87200886D01*
X21341861Y86980944D01*
X21318401Y86825429D01*
X21284192Y86715795D01*
X21267067Y86680751D01*
X21125096Y86519142D01*
X20916068Y86402781D01*
X20667910Y86340846D01*
X20408549Y86342517D01*
X20303906Y86364144D01*
X20127716Y86437983D01*
X20013744Y86537637D01*
X19978721Y86646498D01*
X19986410Y86679254D01*
X20032030Y86743717D01*
X20113507Y86756413D01*
X20251822Y86717482D01*
X20341853Y86681633D01*
X20502882Y86631146D01*
X20646384Y86636654D01*
X20723031Y86656466D01*
X20892123Y86725683D01*
X20991903Y86824488D01*
X21045688Y86951671D01*
X21061524Y87025415D01*
X21028718Y87041343D01*
X20924397Y87010023D01*
X20921547Y87009030D01*
X20709759Y86970459D01*
X20478460Y86982511D01*
X20267454Y87039427D01*
X20128277Y87123803D01*
X20017583Y87239707D01*
X19947431Y87355741D01*
X19905673Y87503226D01*
X19880163Y87713484D01*
X19875122Y87776596D01*
X19871375Y88047405D01*
X19906856Y88231332D01*
X19980700Y88325303D01*
X20033000Y88337600D01*
X20121884Y88292567D01*
X20179912Y88155903D01*
X20207845Y87925264D01*
X20210800Y87790014D01*
X20217267Y87584762D01*
X20240379Y87454443D01*
X20285700Y87372992D01*
X20303700Y87354874D01*
X20440915Y87289000D01*
X20622839Y87272327D01*
X20805781Y87303978D01*
X20928469Y87367424D01*
X20989434Y87428921D01*
X21027773Y87509807D01*
X21050457Y87635897D01*
X21064458Y87833011D01*
X21066645Y87879148D01*
X21081832Y88101418D01*
X21105316Y88239166D01*
X21140790Y88309364D01*
X21163494Y88324178D01*
X21243504Y88332381D01*
X21301634Y88280530D01*
X21340132Y88159494D01*
X21361244Y87960145D01*
X21367218Y87673353D01*
X21367218Y87673353D01*
G36*
X19803460Y87421686D02*
X19762360Y87244341D01*
X19641543Y87095084D01*
X19448250Y86992140D01*
X19202828Y86940515D01*
X18925625Y86945211D01*
X18715519Y86986904D01*
X18514120Y87062646D01*
X18394862Y87151306D01*
X18364715Y87245506D01*
X18405026Y87315599D01*
X18487277Y87363248D01*
X18594666Y87338054D01*
X18602103Y87334715D01*
X18781940Y87275597D01*
X18980399Y87245455D01*
X19173081Y87243133D01*
X19335589Y87267474D01*
X19443525Y87317321D01*
X19474200Y87376055D01*
X19447329Y87415732D01*
X19356795Y87444497D01*
X19187715Y87465903D01*
X19056429Y87475790D01*
X18747443Y87515048D01*
X18529111Y87588529D01*
X18395357Y87699364D01*
X18340768Y87844812D01*
X18362398Y88032632D01*
X18471398Y88179863D01*
X18659796Y88281024D01*
X18919620Y88330635D01*
X19053468Y88334733D01*
X19292294Y88314999D01*
X19494058Y88266483D01*
X19645458Y88197112D01*
X19733188Y88114808D01*
X19743946Y88027497D01*
X19686177Y87957856D01*
X19606197Y87917173D01*
X19512814Y87926552D01*
X19421108Y87960832D01*
X19243173Y88011308D01*
X19045643Y88031747D01*
X18861803Y88022516D01*
X18724937Y87983980D01*
X18683586Y87952729D01*
X18650175Y87875900D01*
X18701554Y87822798D01*
X18842651Y87791415D01*
X19078392Y87779741D01*
X19108422Y87779578D01*
X19400948Y87754358D01*
X19618039Y87683240D01*
X19754080Y87570818D01*
X19803460Y87421686D01*
X19803460Y87421686D01*
X19803460Y87421686D01*
G37*
X19803460Y87421686D02*
X19762360Y87244341D01*
X19641543Y87095084D01*
X19448250Y86992140D01*
X19202828Y86940515D01*
X18925625Y86945211D01*
X18715519Y86986904D01*
X18514120Y87062646D01*
X18394862Y87151306D01*
X18364715Y87245506D01*
X18405026Y87315599D01*
X18487277Y87363248D01*
X18594666Y87338054D01*
X18602103Y87334715D01*
X18781940Y87275597D01*
X18980399Y87245455D01*
X19173081Y87243133D01*
X19335589Y87267474D01*
X19443525Y87317321D01*
X19474200Y87376055D01*
X19447329Y87415732D01*
X19356795Y87444497D01*
X19187715Y87465903D01*
X19056429Y87475790D01*
X18747443Y87515048D01*
X18529111Y87588529D01*
X18395357Y87699364D01*
X18340768Y87844812D01*
X18362398Y88032632D01*
X18471398Y88179863D01*
X18659796Y88281024D01*
X18919620Y88330635D01*
X19053468Y88334733D01*
X19292294Y88314999D01*
X19494058Y88266483D01*
X19645458Y88197112D01*
X19733188Y88114808D01*
X19743946Y88027497D01*
X19686177Y87957856D01*
X19606197Y87917173D01*
X19512814Y87926552D01*
X19421108Y87960832D01*
X19243173Y88011308D01*
X19045643Y88031747D01*
X18861803Y88022516D01*
X18724937Y87983980D01*
X18683586Y87952729D01*
X18650175Y87875900D01*
X18701554Y87822798D01*
X18842651Y87791415D01*
X19078392Y87779741D01*
X19108422Y87779578D01*
X19400948Y87754358D01*
X19618039Y87683240D01*
X19754080Y87570818D01*
X19803460Y87421686D01*
X19803460Y87421686D01*
G36*
X27067860Y87421686D02*
X27026760Y87244341D01*
X26905572Y87094735D01*
X26710785Y86991782D01*
X26461737Y86941083D01*
X26177766Y86948237D01*
X26067864Y86966639D01*
X25837520Y87029851D01*
X25700136Y87107461D01*
X25647508Y87204468D01*
X25646400Y87223382D01*
X25673176Y87317222D01*
X25760249Y87352602D01*
X25917734Y87331363D01*
X26041160Y87295192D01*
X26229845Y87253482D01*
X26419463Y87243979D01*
X26584456Y87263795D01*
X26699265Y87310042D01*
X26738600Y87374007D01*
X26713828Y87414561D01*
X26628893Y87443481D01*
X26467869Y87464699D01*
X26327854Y87475384D01*
X26028933Y87510924D01*
X25817646Y87575863D01*
X25682944Y87675442D01*
X25613995Y87814023D01*
X25617354Y87990626D01*
X25707179Y88146693D01*
X25868393Y88258300D01*
X25902114Y88271233D01*
X26110787Y88320100D01*
X26329660Y88333485D01*
X26542506Y88316269D01*
X26733098Y88273335D01*
X26885210Y88209563D01*
X26982614Y88129837D01*
X27009084Y88039037D01*
X26959954Y87952983D01*
X26895020Y87902304D01*
X26825634Y87904372D01*
X26722038Y87952030D01*
X26553032Y88007418D01*
X26350025Y88029884D01*
X26152779Y88019134D01*
X26001057Y87974875D01*
X25973609Y87957566D01*
X25914830Y87884056D01*
X25954524Y87829525D01*
X26091234Y87794623D01*
X26323500Y87780001D01*
X26372822Y87779578D01*
X26665348Y87754358D01*
X26882439Y87683240D01*
X27018480Y87570818D01*
X27067860Y87421686D01*
X27067860Y87421686D01*
X27067860Y87421686D01*
G37*
X27067860Y87421686D02*
X27026760Y87244341D01*
X26905572Y87094735D01*
X26710785Y86991782D01*
X26461737Y86941083D01*
X26177766Y86948237D01*
X26067864Y86966639D01*
X25837520Y87029851D01*
X25700136Y87107461D01*
X25647508Y87204468D01*
X25646400Y87223382D01*
X25673176Y87317222D01*
X25760249Y87352602D01*
X25917734Y87331363D01*
X26041160Y87295192D01*
X26229845Y87253482D01*
X26419463Y87243979D01*
X26584456Y87263795D01*
X26699265Y87310042D01*
X26738600Y87374007D01*
X26713828Y87414561D01*
X26628893Y87443481D01*
X26467869Y87464699D01*
X26327854Y87475384D01*
X26028933Y87510924D01*
X25817646Y87575863D01*
X25682944Y87675442D01*
X25613995Y87814023D01*
X25617354Y87990626D01*
X25707179Y88146693D01*
X25868393Y88258300D01*
X25902114Y88271233D01*
X26110787Y88320100D01*
X26329660Y88333485D01*
X26542506Y88316269D01*
X26733098Y88273335D01*
X26885210Y88209563D01*
X26982614Y88129837D01*
X27009084Y88039037D01*
X26959954Y87952983D01*
X26895020Y87902304D01*
X26825634Y87904372D01*
X26722038Y87952030D01*
X26553032Y88007418D01*
X26350025Y88029884D01*
X26152779Y88019134D01*
X26001057Y87974875D01*
X25973609Y87957566D01*
X25914830Y87884056D01*
X25954524Y87829525D01*
X26091234Y87794623D01*
X26323500Y87780001D01*
X26372822Y87779578D01*
X26665348Y87754358D01*
X26882439Y87683240D01*
X27018480Y87570818D01*
X27067860Y87421686D01*
X27067860Y87421686D01*
G36*
X23003259Y87282829D02*
X22984798Y87100841D01*
X22934348Y87000598D01*
X22849781Y86974102D01*
X22837904Y86975403D01*
X22782243Y86991586D01*
X22746265Y87034773D01*
X22723356Y87125801D01*
X22706899Y87285511D01*
X22697770Y87416794D01*
X22667616Y87683589D01*
X22611093Y87864242D01*
X22517808Y87972947D01*
X22377370Y88023897D01*
X22246751Y88032800D01*
X22060048Y88007450D01*
X21935240Y87923669D01*
X21863777Y87769859D01*
X21837110Y87534426D01*
X21836400Y87476176D01*
X21831260Y87240709D01*
X21811728Y87089331D01*
X21771633Y87004864D01*
X21704807Y86970131D01*
X21653164Y86966000D01*
X21531600Y86966000D01*
X21531600Y87627995D01*
X21533540Y87907121D01*
X21540514Y88100277D01*
X21554254Y88223037D01*
X21576490Y88290976D01*
X21608446Y88319478D01*
X21709539Y88315543D01*
X21757599Y88288959D01*
X21851712Y88255478D01*
X21931413Y88283275D01*
X22101416Y88330462D01*
X22313651Y88331260D01*
X22521551Y88288658D01*
X22633739Y88238236D01*
X22805592Y88101124D01*
X22915796Y87926064D01*
X22976915Y87689069D01*
X22991854Y87554559D01*
X23003259Y87282829D01*
X23003259Y87282829D01*
X23003259Y87282829D01*
G37*
X23003259Y87282829D02*
X22984798Y87100841D01*
X22934348Y87000598D01*
X22849781Y86974102D01*
X22837904Y86975403D01*
X22782243Y86991586D01*
X22746265Y87034773D01*
X22723356Y87125801D01*
X22706899Y87285511D01*
X22697770Y87416794D01*
X22667616Y87683589D01*
X22611093Y87864242D01*
X22517808Y87972947D01*
X22377370Y88023897D01*
X22246751Y88032800D01*
X22060048Y88007450D01*
X21935240Y87923669D01*
X21863777Y87769859D01*
X21837110Y87534426D01*
X21836400Y87476176D01*
X21831260Y87240709D01*
X21811728Y87089331D01*
X21771633Y87004864D01*
X21704807Y86970131D01*
X21653164Y86966000D01*
X21531600Y86966000D01*
X21531600Y87627995D01*
X21533540Y87907121D01*
X21540514Y88100277D01*
X21554254Y88223037D01*
X21576490Y88290976D01*
X21608446Y88319478D01*
X21709539Y88315543D01*
X21757599Y88288959D01*
X21851712Y88255478D01*
X21931413Y88283275D01*
X22101416Y88330462D01*
X22313651Y88331260D01*
X22521551Y88288658D01*
X22633739Y88238236D01*
X22805592Y88101124D01*
X22915796Y87926064D01*
X22976915Y87689069D01*
X22991854Y87554559D01*
X23003259Y87282829D01*
X23003259Y87282829D01*
G36*
X23944012Y87143561D02*
X23940041Y87048639D01*
X23868047Y86987297D01*
X23737902Y86965348D01*
X23584705Y86981853D01*
X23443556Y87035874D01*
X23404127Y87062960D01*
X23343025Y87124791D01*
X23303675Y87207014D01*
X23278986Y87335044D01*
X23261864Y87534296D01*
X23258800Y87583660D01*
X23243135Y87794122D01*
X23223981Y87920868D01*
X23196655Y87981779D01*
X23156471Y87994731D01*
X23151276Y87994030D01*
X23047784Y88019834D01*
X22982418Y88106483D01*
X22982818Y88201191D01*
X23053235Y88272212D01*
X23123395Y88296530D01*
X23186496Y88318513D01*
X23224418Y88378196D01*
X23247491Y88499999D01*
X23258800Y88616554D01*
X23279630Y88793331D01*
X23310504Y88891440D01*
X23360014Y88933802D01*
X23379712Y88939052D01*
X23473854Y88928072D01*
X23531995Y88844823D01*
X23559210Y88678718D01*
X23562822Y88557034D01*
X23568284Y88400704D01*
X23590855Y88318915D01*
X23641604Y88284790D01*
X23677900Y88277634D01*
X23775273Y88229873D01*
X23813501Y88146874D01*
X23788447Y88065559D01*
X23706318Y88024029D01*
X23644810Y88007882D01*
X23609636Y87965873D01*
X23593501Y87874865D01*
X23589116Y87711720D01*
X23589000Y87651800D01*
X23590860Y87465770D01*
X23602098Y87358169D01*
X23631198Y87305831D01*
X23686643Y87285589D01*
X23724982Y87280485D01*
X23869441Y87233158D01*
X23944012Y87143561D01*
X23944012Y87143561D01*
X23944012Y87143561D01*
G37*
X23944012Y87143561D02*
X23940041Y87048639D01*
X23868047Y86987297D01*
X23737902Y86965348D01*
X23584705Y86981853D01*
X23443556Y87035874D01*
X23404127Y87062960D01*
X23343025Y87124791D01*
X23303675Y87207014D01*
X23278986Y87335044D01*
X23261864Y87534296D01*
X23258800Y87583660D01*
X23243135Y87794122D01*
X23223981Y87920868D01*
X23196655Y87981779D01*
X23156471Y87994731D01*
X23151276Y87994030D01*
X23047784Y88019834D01*
X22982418Y88106483D01*
X22982818Y88201191D01*
X23053235Y88272212D01*
X23123395Y88296530D01*
X23186496Y88318513D01*
X23224418Y88378196D01*
X23247491Y88499999D01*
X23258800Y88616554D01*
X23279630Y88793331D01*
X23310504Y88891440D01*
X23360014Y88933802D01*
X23379712Y88939052D01*
X23473854Y88928072D01*
X23531995Y88844823D01*
X23559210Y88678718D01*
X23562822Y88557034D01*
X23568284Y88400704D01*
X23590855Y88318915D01*
X23641604Y88284790D01*
X23677900Y88277634D01*
X23775273Y88229873D01*
X23813501Y88146874D01*
X23788447Y88065559D01*
X23706318Y88024029D01*
X23644810Y88007882D01*
X23609636Y87965873D01*
X23593501Y87874865D01*
X23589116Y87711720D01*
X23589000Y87651800D01*
X23590860Y87465770D01*
X23602098Y87358169D01*
X23631198Y87305831D01*
X23686643Y87285589D01*
X23724982Y87280485D01*
X23869441Y87233158D01*
X23944012Y87143561D01*
X23944012Y87143561D01*
G36*
X25523494Y87263459D02*
X25493866Y87086294D01*
X25429060Y86990098D01*
X25345737Y86966000D01*
X25273334Y86992366D01*
X25225680Y87080015D01*
X25199115Y87241779D01*
X25189976Y87490487D01*
X25189893Y87512100D01*
X25169736Y87755294D01*
X25104469Y87915272D01*
X24985008Y88003815D01*
X24802270Y88032706D01*
X24788427Y88032800D01*
X24605575Y88014480D01*
X24478431Y87949877D01*
X24396181Y87824530D01*
X24348012Y87623976D01*
X24327829Y87416794D01*
X24311880Y87207570D01*
X24293118Y87079180D01*
X24265179Y87010920D01*
X24221699Y86982086D01*
X24192365Y86976015D01*
X24088932Y86997937D01*
X24052665Y87043669D01*
X24041863Y87120870D01*
X24032628Y87280442D01*
X24025637Y87503160D01*
X24021563Y87769798D01*
X24020800Y87951046D01*
X24024253Y88310880D01*
X24036125Y88579356D01*
X24058685Y88766529D01*
X24094202Y88882453D01*
X24144944Y88937185D01*
X24213181Y88940779D01*
X24242053Y88931649D01*
X24289090Y88891153D01*
X24315100Y88800554D01*
X24325017Y88638040D01*
X24325600Y88562360D01*
X24328264Y88383521D01*
X24340075Y88287075D01*
X24366756Y88253874D01*
X24414032Y88264767D01*
X24414500Y88264976D01*
X24613995Y88315911D01*
X24846909Y88320971D01*
X25061598Y88281168D01*
X25134788Y88250858D01*
X25308734Y88135816D01*
X25422561Y87992579D01*
X25488956Y87797421D01*
X25520430Y87529612D01*
X25523494Y87263459D01*
X25523494Y87263459D01*
X25523494Y87263459D01*
G37*
X25523494Y87263459D02*
X25493866Y87086294D01*
X25429060Y86990098D01*
X25345737Y86966000D01*
X25273334Y86992366D01*
X25225680Y87080015D01*
X25199115Y87241779D01*
X25189976Y87490487D01*
X25189893Y87512100D01*
X25169736Y87755294D01*
X25104469Y87915272D01*
X24985008Y88003815D01*
X24802270Y88032706D01*
X24788427Y88032800D01*
X24605575Y88014480D01*
X24478431Y87949877D01*
X24396181Y87824530D01*
X24348012Y87623976D01*
X24327829Y87416794D01*
X24311880Y87207570D01*
X24293118Y87079180D01*
X24265179Y87010920D01*
X24221699Y86982086D01*
X24192365Y86976015D01*
X24088932Y86997937D01*
X24052665Y87043669D01*
X24041863Y87120870D01*
X24032628Y87280442D01*
X24025637Y87503160D01*
X24021563Y87769798D01*
X24020800Y87951046D01*
X24024253Y88310880D01*
X24036125Y88579356D01*
X24058685Y88766529D01*
X24094202Y88882453D01*
X24144944Y88937185D01*
X24213181Y88940779D01*
X24242053Y88931649D01*
X24289090Y88891153D01*
X24315100Y88800554D01*
X24325017Y88638040D01*
X24325600Y88562360D01*
X24328264Y88383521D01*
X24340075Y88287075D01*
X24366756Y88253874D01*
X24414032Y88264767D01*
X24414500Y88264976D01*
X24613995Y88315911D01*
X24846909Y88320971D01*
X25061598Y88281168D01*
X25134788Y88250858D01*
X25308734Y88135816D01*
X25422561Y87992579D01*
X25488956Y87797421D01*
X25520430Y87529612D01*
X25523494Y87263459D01*
X25523494Y87263459D01*
G36*
X20849639Y90320121D02*
X20846759Y90170767D01*
X20785647Y90022795D01*
X20669472Y89920890D01*
X20548277Y89879969D01*
X20548277Y90192447D01*
X20545498Y90293005D01*
X20466786Y90368017D01*
X20335504Y90413455D01*
X20175014Y90425292D01*
X20008678Y90399501D01*
X19859860Y90332056D01*
X19836650Y90315113D01*
X19745229Y90230422D01*
X19703116Y90166207D01*
X19702800Y90162713D01*
X19749585Y90140874D01*
X19873950Y90124411D01*
X20051908Y90116093D01*
X20110794Y90115600D01*
X20326896Y90120074D01*
X20460289Y90135672D01*
X20529558Y90165659D01*
X20548277Y90192447D01*
X20548277Y89879969D01*
X20484865Y89858558D01*
X20218459Y89829303D01*
X20138117Y89826411D01*
X19902375Y89813083D01*
X19763350Y89785862D01*
X19716799Y89742248D01*
X19758479Y89679742D01*
X19816601Y89636977D01*
X20058734Y89534621D01*
X20320422Y89531933D01*
X20489944Y89579403D01*
X20665957Y89632506D01*
X20770558Y89625031D01*
X20815993Y89554051D01*
X20820400Y89500410D01*
X20774135Y89405726D01*
X20650802Y89331024D01*
X20473592Y89279836D01*
X20265696Y89255696D01*
X20050304Y89262134D01*
X19850609Y89302684D01*
X19759771Y89338864D01*
X19573619Y89481435D01*
X19453882Y89677481D01*
X19400818Y89903569D01*
X19414682Y90136267D01*
X19495732Y90352141D01*
X19644224Y90527759D01*
X19746020Y90594281D01*
X19983573Y90680675D01*
X20222709Y90705372D01*
X20446156Y90675020D01*
X20636641Y90596264D01*
X20776893Y90475749D01*
X20849639Y90320121D01*
X20849639Y90320121D01*
X20849639Y90320121D01*
G37*
X20849639Y90320121D02*
X20846759Y90170767D01*
X20785647Y90022795D01*
X20669472Y89920890D01*
X20548277Y89879969D01*
X20548277Y90192447D01*
X20545498Y90293005D01*
X20466786Y90368017D01*
X20335504Y90413455D01*
X20175014Y90425292D01*
X20008678Y90399501D01*
X19859860Y90332056D01*
X19836650Y90315113D01*
X19745229Y90230422D01*
X19703116Y90166207D01*
X19702800Y90162713D01*
X19749585Y90140874D01*
X19873950Y90124411D01*
X20051908Y90116093D01*
X20110794Y90115600D01*
X20326896Y90120074D01*
X20460289Y90135672D01*
X20529558Y90165659D01*
X20548277Y90192447D01*
X20548277Y89879969D01*
X20484865Y89858558D01*
X20218459Y89829303D01*
X20138117Y89826411D01*
X19902375Y89813083D01*
X19763350Y89785862D01*
X19716799Y89742248D01*
X19758479Y89679742D01*
X19816601Y89636977D01*
X20058734Y89534621D01*
X20320422Y89531933D01*
X20489944Y89579403D01*
X20665957Y89632506D01*
X20770558Y89625031D01*
X20815993Y89554051D01*
X20820400Y89500410D01*
X20774135Y89405726D01*
X20650802Y89331024D01*
X20473592Y89279836D01*
X20265696Y89255696D01*
X20050304Y89262134D01*
X19850609Y89302684D01*
X19759771Y89338864D01*
X19573619Y89481435D01*
X19453882Y89677481D01*
X19400818Y89903569D01*
X19414682Y90136267D01*
X19495732Y90352141D01*
X19644224Y90527759D01*
X19746020Y90594281D01*
X19983573Y90680675D01*
X20222709Y90705372D01*
X20446156Y90675020D01*
X20636641Y90596264D01*
X20776893Y90475749D01*
X20849639Y90320121D01*
X20849639Y90320121D01*
G36*
X22435365Y90434090D02*
X22419009Y90374541D01*
X22385419Y90338049D01*
X22321421Y90289333D01*
X22250725Y90293125D01*
X22150038Y90339630D01*
X21958211Y90401601D01*
X21748950Y90411565D01*
X21551213Y90374693D01*
X21393962Y90296154D01*
X21309156Y90189525D01*
X21292165Y90096590D01*
X21280434Y89939898D01*
X21276906Y89793946D01*
X21271634Y89606253D01*
X21258718Y89445216D01*
X21245581Y89366300D01*
X21181934Y89277337D01*
X21082829Y89250528D01*
X21006666Y89285867D01*
X20994103Y89346633D01*
X20983649Y89489016D01*
X20976263Y89693040D01*
X20972904Y89938728D01*
X20972800Y89991632D01*
X20974232Y90268090D01*
X20979896Y90459488D01*
X20991842Y90582342D01*
X21012119Y90653167D01*
X21042777Y90688481D01*
X21060359Y90697130D01*
X21163427Y90689033D01*
X21208596Y90647750D01*
X21285919Y90592734D01*
X21362336Y90613686D01*
X21574542Y90684266D01*
X21817805Y90703054D01*
X22059003Y90673345D01*
X22265016Y90598434D01*
X22378286Y90512623D01*
X22435365Y90434090D01*
X22435365Y90434090D01*
X22435365Y90434090D01*
G37*
X22435365Y90434090D02*
X22419009Y90374541D01*
X22385419Y90338049D01*
X22321421Y90289333D01*
X22250725Y90293125D01*
X22150038Y90339630D01*
X21958211Y90401601D01*
X21748950Y90411565D01*
X21551213Y90374693D01*
X21393962Y90296154D01*
X21309156Y90189525D01*
X21292165Y90096590D01*
X21280434Y89939898D01*
X21276906Y89793946D01*
X21271634Y89606253D01*
X21258718Y89445216D01*
X21245581Y89366300D01*
X21181934Y89277337D01*
X21082829Y89250528D01*
X21006666Y89285867D01*
X20994103Y89346633D01*
X20983649Y89489016D01*
X20976263Y89693040D01*
X20972904Y89938728D01*
X20972800Y89991632D01*
X20974232Y90268090D01*
X20979896Y90459488D01*
X20991842Y90582342D01*
X21012119Y90653167D01*
X21042777Y90688481D01*
X21060359Y90697130D01*
X21163427Y90689033D01*
X21208596Y90647750D01*
X21285919Y90592734D01*
X21362336Y90613686D01*
X21574542Y90684266D01*
X21817805Y90703054D01*
X22059003Y90673345D01*
X22265016Y90598434D01*
X22378286Y90512623D01*
X22435365Y90434090D01*
X22435365Y90434090D01*
G36*
X22794819Y90389917D02*
X22793850Y90169225D01*
X22790294Y89969930D01*
X22783855Y89692636D01*
X22775924Y89500726D01*
X22763714Y89377992D01*
X22744435Y89308228D01*
X22715301Y89275225D01*
X22673522Y89262776D01*
X22668521Y89262035D01*
X22572529Y89282538D01*
X22529515Y89363635D01*
X22516328Y89462255D01*
X22505735Y89635003D01*
X22499081Y89854418D01*
X22497493Y90016991D01*
X22504382Y90318682D01*
X22527813Y90528400D01*
X22570573Y90654834D01*
X22635450Y90706677D01*
X22715434Y90696595D01*
X22751151Y90673509D01*
X22775160Y90625644D01*
X22789152Y90536584D01*
X22794819Y90389917D01*
X22794819Y90389917D01*
X22794819Y90389917D01*
G37*
X22794819Y90389917D02*
X22793850Y90169225D01*
X22790294Y89969930D01*
X22783855Y89692636D01*
X22775924Y89500726D01*
X22763714Y89377992D01*
X22744435Y89308228D01*
X22715301Y89275225D01*
X22673522Y89262776D01*
X22668521Y89262035D01*
X22572529Y89282538D01*
X22529515Y89363635D01*
X22516328Y89462255D01*
X22505735Y89635003D01*
X22499081Y89854418D01*
X22497493Y90016991D01*
X22504382Y90318682D01*
X22527813Y90528400D01*
X22570573Y90654834D01*
X22635450Y90706677D01*
X22715434Y90696595D01*
X22751151Y90673509D01*
X22775160Y90625644D01*
X22789152Y90536584D01*
X22794819Y90389917D01*
X22794819Y90389917D01*
G36*
X24325600Y89500410D02*
X24279466Y89405315D01*
X24157067Y89330166D01*
X23982405Y89278512D01*
X23779482Y89253897D01*
X23572301Y89259870D01*
X23384863Y89299978D01*
X23284200Y89346517D01*
X23090076Y89492469D01*
X22976431Y89653491D01*
X22923445Y89860870D01*
X22917186Y89925888D01*
X22938243Y90201065D01*
X23042107Y90420844D01*
X23223104Y90579760D01*
X23475558Y90672349D01*
X23716000Y90695008D01*
X23955666Y90674044D01*
X24149473Y90615801D01*
X24277301Y90528391D01*
X24317042Y90452718D01*
X24309895Y90338118D01*
X24235841Y90295897D01*
X24102453Y90329327D01*
X24069024Y90345532D01*
X23889142Y90399999D01*
X23677629Y90409569D01*
X23475273Y90376939D01*
X23322861Y90304799D01*
X23311964Y90295541D01*
X23199813Y90135789D01*
X23172830Y89956685D01*
X23224333Y89782314D01*
X23347644Y89636762D01*
X23519025Y89548933D01*
X23665953Y89515590D01*
X23795413Y89521186D01*
X23959425Y89568659D01*
X23976863Y89574804D01*
X24158905Y89628234D01*
X24267632Y89627636D01*
X24317650Y89569895D01*
X24325600Y89500410D01*
X24325600Y89500410D01*
X24325600Y89500410D01*
G37*
X24325600Y89500410D02*
X24279466Y89405315D01*
X24157067Y89330166D01*
X23982405Y89278512D01*
X23779482Y89253897D01*
X23572301Y89259870D01*
X23384863Y89299978D01*
X23284200Y89346517D01*
X23090076Y89492469D01*
X22976431Y89653491D01*
X22923445Y89860870D01*
X22917186Y89925888D01*
X22938243Y90201065D01*
X23042107Y90420844D01*
X23223104Y90579760D01*
X23475558Y90672349D01*
X23716000Y90695008D01*
X23955666Y90674044D01*
X24149473Y90615801D01*
X24277301Y90528391D01*
X24317042Y90452718D01*
X24309895Y90338118D01*
X24235841Y90295897D01*
X24102453Y90329327D01*
X24069024Y90345532D01*
X23889142Y90399999D01*
X23677629Y90409569D01*
X23475273Y90376939D01*
X23322861Y90304799D01*
X23311964Y90295541D01*
X23199813Y90135789D01*
X23172830Y89956685D01*
X23224333Y89782314D01*
X23347644Y89636762D01*
X23519025Y89548933D01*
X23665953Y89515590D01*
X23795413Y89521186D01*
X23959425Y89568659D01*
X23976863Y89574804D01*
X24158905Y89628234D01*
X24267632Y89627636D01*
X24317650Y89569895D01*
X24325600Y89500410D01*
X24325600Y89500410D01*
G36*
X26009824Y90070202D02*
X26008400Y89835073D01*
X25998220Y89614329D01*
X25979318Y89431090D01*
X25951729Y89308474D01*
X25925153Y89270123D01*
X25825353Y89274666D01*
X25771248Y89304586D01*
X25720663Y89326790D01*
X25720663Y90026940D01*
X25663512Y90197334D01*
X25533390Y90332094D01*
X25494000Y90354665D01*
X25286282Y90417857D01*
X25074679Y90413185D01*
X24881836Y90350071D01*
X24730397Y90237935D01*
X24643011Y90086198D01*
X24630400Y89995388D01*
X24673323Y89787032D01*
X24791147Y89631435D01*
X24967446Y89536828D01*
X25185800Y89511442D01*
X25429784Y89563507D01*
X25464669Y89577284D01*
X25620202Y89689381D01*
X25705879Y89848444D01*
X25720663Y90026940D01*
X25720663Y89326790D01*
X25684411Y89342701D01*
X25569273Y89311615D01*
X25566305Y89310269D01*
X25415398Y89272197D01*
X25210408Y89257273D01*
X24996194Y89265566D01*
X24817618Y89297144D01*
X24782826Y89309072D01*
X24565649Y89447798D01*
X24415650Y89656089D01*
X24372726Y89773643D01*
X24343988Y90031729D01*
X24409434Y90263846D01*
X24535595Y90445778D01*
X24724491Y90590365D01*
X24968692Y90677642D01*
X25236415Y90702631D01*
X25495877Y90660352D01*
X25609499Y90614016D01*
X25716171Y90602957D01*
X25776069Y90644413D01*
X25869503Y90694537D01*
X25927270Y90692207D01*
X25961215Y90630720D01*
X25986266Y90491144D01*
X26002457Y90296599D01*
X26009824Y90070202D01*
X26009824Y90070202D01*
X26009824Y90070202D01*
G37*
X26009824Y90070202D02*
X26008400Y89835073D01*
X25998220Y89614329D01*
X25979318Y89431090D01*
X25951729Y89308474D01*
X25925153Y89270123D01*
X25825353Y89274666D01*
X25771248Y89304586D01*
X25720663Y89326790D01*
X25720663Y90026940D01*
X25663512Y90197334D01*
X25533390Y90332094D01*
X25494000Y90354665D01*
X25286282Y90417857D01*
X25074679Y90413185D01*
X24881836Y90350071D01*
X24730397Y90237935D01*
X24643011Y90086198D01*
X24630400Y89995388D01*
X24673323Y89787032D01*
X24791147Y89631435D01*
X24967446Y89536828D01*
X25185800Y89511442D01*
X25429784Y89563507D01*
X25464669Y89577284D01*
X25620202Y89689381D01*
X25705879Y89848444D01*
X25720663Y90026940D01*
X25720663Y89326790D01*
X25684411Y89342701D01*
X25569273Y89311615D01*
X25566305Y89310269D01*
X25415398Y89272197D01*
X25210408Y89257273D01*
X24996194Y89265566D01*
X24817618Y89297144D01*
X24782826Y89309072D01*
X24565649Y89447798D01*
X24415650Y89656089D01*
X24372726Y89773643D01*
X24343988Y90031729D01*
X24409434Y90263846D01*
X24535595Y90445778D01*
X24724491Y90590365D01*
X24968692Y90677642D01*
X25236415Y90702631D01*
X25495877Y90660352D01*
X25609499Y90614016D01*
X25716171Y90602957D01*
X25776069Y90644413D01*
X25869503Y90694537D01*
X25927270Y90692207D01*
X25961215Y90630720D01*
X25986266Y90491144D01*
X26002457Y90296599D01*
X26009824Y90070202D01*
X26009824Y90070202D01*
G36*
X22797689Y91128262D02*
X22758054Y91035025D01*
X22721245Y91010036D01*
X22642918Y90983474D01*
X22598167Y91000578D01*
X22557760Y91040160D01*
X22507177Y91143711D01*
X22530902Y91243901D01*
X22609071Y91308110D01*
X22718961Y91304842D01*
X22784529Y91234809D01*
X22797689Y91128262D01*
X22797689Y91128262D01*
X22797689Y91128262D01*
G37*
X22797689Y91128262D02*
X22758054Y91035025D01*
X22721245Y91010036D01*
X22642918Y90983474D01*
X22598167Y91000578D01*
X22557760Y91040160D01*
X22507177Y91143711D01*
X22530902Y91243901D01*
X22609071Y91308110D01*
X22718961Y91304842D01*
X22784529Y91234809D01*
X22797689Y91128262D01*
X22797689Y91128262D01*
G36*
X25063510Y96403810D02*
X25053688Y95964971D01*
X25036517Y95854440D01*
X24916045Y95442098D01*
X24717571Y95074293D01*
X24609283Y94948480D01*
X24609283Y96079063D01*
X24556680Y96413784D01*
X24436473Y96737085D01*
X24253548Y97025283D01*
X24147088Y97142078D01*
X23838902Y97373805D01*
X23470437Y97539732D01*
X23060576Y97637747D01*
X22628203Y97665733D01*
X22192201Y97621577D01*
X21771455Y97503165D01*
X21597232Y97427582D01*
X21275268Y97221709D01*
X21023859Y96960538D01*
X20846026Y96658744D01*
X20744792Y96331000D01*
X20723177Y95991981D01*
X20784203Y95656360D01*
X20930891Y95338811D01*
X21118225Y95101161D01*
X21482641Y94788418D01*
X21874751Y94564787D01*
X22284802Y94432435D01*
X22703037Y94393527D01*
X23119701Y94450230D01*
X23472074Y94578422D01*
X23749490Y94737683D01*
X24020863Y94940432D01*
X24259989Y95163762D01*
X24440664Y95384767D01*
X24492129Y95470083D01*
X24589395Y95756602D01*
X24609283Y96079063D01*
X24609283Y94948480D01*
X24451679Y94765368D01*
X24128954Y94529665D01*
X24016884Y94472724D01*
X23878464Y94404883D01*
X23787645Y94352051D01*
X23766800Y94332211D01*
X23807695Y94296068D01*
X23912675Y94231019D01*
X24003331Y94180946D01*
X24189342Y94074286D01*
X24376366Y93955010D01*
X24435131Y93914015D01*
X24558577Y93811917D01*
X24615796Y93716826D01*
X24630367Y93588234D01*
X24630400Y93578537D01*
X24588611Y93383668D01*
X24475322Y93240683D01*
X24308649Y93169100D01*
X24246125Y93164467D01*
X24119268Y93190804D01*
X23953173Y93257534D01*
X23843000Y93316000D01*
X23698302Y93397752D01*
X23587676Y93452826D01*
X23544686Y93467534D01*
X23527415Y93421097D01*
X23518801Y93296180D01*
X23519917Y93115619D01*
X23523796Y93023900D01*
X23548487Y92741882D01*
X23592846Y92526739D01*
X23663961Y92344530D01*
X23666949Y92338478D01*
X23744635Y92121952D01*
X23735047Y91946087D01*
X23635270Y91794923D01*
X23555322Y91727073D01*
X23410192Y91663371D01*
X23410192Y93446794D01*
X23407976Y93647996D01*
X23394215Y93827920D01*
X23368641Y93955981D01*
X23358612Y93979740D01*
X23327650Y94021192D01*
X23275271Y94049094D01*
X23183396Y94066074D01*
X23033946Y94074762D01*
X22808843Y94077786D01*
X22682972Y94078000D01*
X22361545Y94072639D01*
X22140376Y94056509D01*
X22018689Y94029541D01*
X21998959Y94017040D01*
X21972345Y93941588D01*
X21952450Y93794308D01*
X21940188Y93604805D01*
X21936472Y93402686D01*
X21942217Y93217557D01*
X21958335Y93079024D01*
X21968835Y93040755D01*
X21996618Y93006812D01*
X22060085Y92983738D01*
X22175479Y92969600D01*
X22359047Y92962466D01*
X22627034Y92960405D01*
X22644475Y92960400D01*
X22969351Y92965400D01*
X23194961Y92980506D01*
X23323151Y93005877D01*
X23350239Y93021360D01*
X23381056Y93102892D01*
X23401130Y93254898D01*
X23410192Y93446794D01*
X23410192Y91663371D01*
X23388429Y91653818D01*
X23223164Y91676485D01*
X23066746Y91789548D01*
X22926391Y91987483D01*
X22809319Y92264765D01*
X22795475Y92308688D01*
X22729419Y92499141D01*
X22671123Y92618097D01*
X22626540Y92658086D01*
X22601625Y92611639D01*
X22598400Y92555906D01*
X22569714Y92389286D01*
X22495847Y92184545D01*
X22395087Y91981409D01*
X22285718Y91819604D01*
X22236041Y91768709D01*
X22086268Y91669116D01*
X21946542Y91649329D01*
X21801620Y91690755D01*
X21660003Y91795778D01*
X21593553Y91957900D01*
X21604633Y92163353D01*
X21684000Y92376200D01*
X21738676Y92511482D01*
X21770468Y92671963D01*
X21784108Y92887939D01*
X21785600Y93026791D01*
X21785600Y93478099D01*
X21506969Y93320850D01*
X21246294Y93202220D01*
X21035396Y93169788D01*
X20870748Y93223262D01*
X20821692Y93263908D01*
X20703981Y93424887D01*
X20679216Y93583367D01*
X20749271Y93743336D01*
X20916020Y93908783D01*
X21181337Y94083699D01*
X21216104Y94103400D01*
X21383409Y94199914D01*
X21509851Y94278398D01*
X21574526Y94325676D01*
X21578766Y94332000D01*
X21536430Y94365419D01*
X21427420Y94425679D01*
X21313617Y94481512D01*
X20967343Y94697537D01*
X20683719Y94983990D01*
X20468879Y95326868D01*
X20328957Y95712169D01*
X20270086Y96125890D01*
X20298401Y96554029D01*
X20333592Y96718746D01*
X20487723Y97122779D01*
X20725958Y97476435D01*
X21039676Y97770867D01*
X21420257Y97997232D01*
X21676151Y98096391D01*
X22019064Y98177088D01*
X22412000Y98223593D01*
X22814926Y98234094D01*
X23187807Y98206778D01*
X23373100Y98173232D01*
X23834363Y98021185D01*
X24231476Y97801316D01*
X24558692Y97521636D01*
X24810267Y97190152D01*
X24980454Y96814874D01*
X25063510Y96403810D01*
X25063510Y96403810D01*
X25063510Y96403810D01*
G37*
X25063510Y96403810D02*
X25053688Y95964971D01*
X25036517Y95854440D01*
X24916045Y95442098D01*
X24717571Y95074293D01*
X24609283Y94948480D01*
X24609283Y96079063D01*
X24556680Y96413784D01*
X24436473Y96737085D01*
X24253548Y97025283D01*
X24147088Y97142078D01*
X23838902Y97373805D01*
X23470437Y97539732D01*
X23060576Y97637747D01*
X22628203Y97665733D01*
X22192201Y97621577D01*
X21771455Y97503165D01*
X21597232Y97427582D01*
X21275268Y97221709D01*
X21023859Y96960538D01*
X20846026Y96658744D01*
X20744792Y96331000D01*
X20723177Y95991981D01*
X20784203Y95656360D01*
X20930891Y95338811D01*
X21118225Y95101161D01*
X21482641Y94788418D01*
X21874751Y94564787D01*
X22284802Y94432435D01*
X22703037Y94393527D01*
X23119701Y94450230D01*
X23472074Y94578422D01*
X23749490Y94737683D01*
X24020863Y94940432D01*
X24259989Y95163762D01*
X24440664Y95384767D01*
X24492129Y95470083D01*
X24589395Y95756602D01*
X24609283Y96079063D01*
X24609283Y94948480D01*
X24451679Y94765368D01*
X24128954Y94529665D01*
X24016884Y94472724D01*
X23878464Y94404883D01*
X23787645Y94352051D01*
X23766800Y94332211D01*
X23807695Y94296068D01*
X23912675Y94231019D01*
X24003331Y94180946D01*
X24189342Y94074286D01*
X24376366Y93955010D01*
X24435131Y93914015D01*
X24558577Y93811917D01*
X24615796Y93716826D01*
X24630367Y93588234D01*
X24630400Y93578537D01*
X24588611Y93383668D01*
X24475322Y93240683D01*
X24308649Y93169100D01*
X24246125Y93164467D01*
X24119268Y93190804D01*
X23953173Y93257534D01*
X23843000Y93316000D01*
X23698302Y93397752D01*
X23587676Y93452826D01*
X23544686Y93467534D01*
X23527415Y93421097D01*
X23518801Y93296180D01*
X23519917Y93115619D01*
X23523796Y93023900D01*
X23548487Y92741882D01*
X23592846Y92526739D01*
X23663961Y92344530D01*
X23666949Y92338478D01*
X23744635Y92121952D01*
X23735047Y91946087D01*
X23635270Y91794923D01*
X23555322Y91727073D01*
X23410192Y91663371D01*
X23410192Y93446794D01*
X23407976Y93647996D01*
X23394215Y93827920D01*
X23368641Y93955981D01*
X23358612Y93979740D01*
X23327650Y94021192D01*
X23275271Y94049094D01*
X23183396Y94066074D01*
X23033946Y94074762D01*
X22808843Y94077786D01*
X22682972Y94078000D01*
X22361545Y94072639D01*
X22140376Y94056509D01*
X22018689Y94029541D01*
X21998959Y94017040D01*
X21972345Y93941588D01*
X21952450Y93794308D01*
X21940188Y93604805D01*
X21936472Y93402686D01*
X21942217Y93217557D01*
X21958335Y93079024D01*
X21968835Y93040755D01*
X21996618Y93006812D01*
X22060085Y92983738D01*
X22175479Y92969600D01*
X22359047Y92962466D01*
X22627034Y92960405D01*
X22644475Y92960400D01*
X22969351Y92965400D01*
X23194961Y92980506D01*
X23323151Y93005877D01*
X23350239Y93021360D01*
X23381056Y93102892D01*
X23401130Y93254898D01*
X23410192Y93446794D01*
X23410192Y91663371D01*
X23388429Y91653818D01*
X23223164Y91676485D01*
X23066746Y91789548D01*
X22926391Y91987483D01*
X22809319Y92264765D01*
X22795475Y92308688D01*
X22729419Y92499141D01*
X22671123Y92618097D01*
X22626540Y92658086D01*
X22601625Y92611639D01*
X22598400Y92555906D01*
X22569714Y92389286D01*
X22495847Y92184545D01*
X22395087Y91981409D01*
X22285718Y91819604D01*
X22236041Y91768709D01*
X22086268Y91669116D01*
X21946542Y91649329D01*
X21801620Y91690755D01*
X21660003Y91795778D01*
X21593553Y91957900D01*
X21604633Y92163353D01*
X21684000Y92376200D01*
X21738676Y92511482D01*
X21770468Y92671963D01*
X21784108Y92887939D01*
X21785600Y93026791D01*
X21785600Y93478099D01*
X21506969Y93320850D01*
X21246294Y93202220D01*
X21035396Y93169788D01*
X20870748Y93223262D01*
X20821692Y93263908D01*
X20703981Y93424887D01*
X20679216Y93583367D01*
X20749271Y93743336D01*
X20916020Y93908783D01*
X21181337Y94083699D01*
X21216104Y94103400D01*
X21383409Y94199914D01*
X21509851Y94278398D01*
X21574526Y94325676D01*
X21578766Y94332000D01*
X21536430Y94365419D01*
X21427420Y94425679D01*
X21313617Y94481512D01*
X20967343Y94697537D01*
X20683719Y94983990D01*
X20468879Y95326868D01*
X20328957Y95712169D01*
X20270086Y96125890D01*
X20298401Y96554029D01*
X20333592Y96718746D01*
X20487723Y97122779D01*
X20725958Y97476435D01*
X21039676Y97770867D01*
X21420257Y97997232D01*
X21676151Y98096391D01*
X22019064Y98177088D01*
X22412000Y98223593D01*
X22814926Y98234094D01*
X23187807Y98206778D01*
X23373100Y98173232D01*
X23834363Y98021185D01*
X24231476Y97801316D01*
X24558692Y97521636D01*
X24810267Y97190152D01*
X24980454Y96814874D01*
X25063510Y96403810D01*
X25063510Y96403810D01*
G36*
X22826580Y94795116D02*
X22819583Y94762791D01*
X22743573Y94678765D01*
X22630832Y94676683D01*
X22569683Y94709144D01*
X22510758Y94801206D01*
X22534426Y94902686D01*
X22629993Y94976407D01*
X22721640Y94966443D01*
X22798163Y94893624D01*
X22826580Y94795116D01*
X22826580Y94795116D01*
X22826580Y94795116D01*
G37*
X22826580Y94795116D02*
X22819583Y94762791D01*
X22743573Y94678765D01*
X22630832Y94676683D01*
X22569683Y94709144D01*
X22510758Y94801206D01*
X22534426Y94902686D01*
X22629993Y94976407D01*
X22721640Y94966443D01*
X22798163Y94893624D01*
X22826580Y94795116D01*
X22826580Y94795116D01*
G36*
X22251019Y95669528D02*
X22195692Y95466707D01*
X22172686Y95426360D01*
X22050850Y95317743D01*
X21898423Y95296641D01*
X21734944Y95362197D01*
X21632817Y95450010D01*
X21470678Y95686780D01*
X21370010Y95967506D01*
X21337341Y96260234D01*
X21379203Y96533014D01*
X21399962Y96589337D01*
X21499715Y96741779D01*
X21633247Y96798627D01*
X21803384Y96760878D01*
X21838325Y96744005D01*
X21988851Y96615340D01*
X22112561Y96415277D01*
X22202277Y96172097D01*
X22250822Y95914086D01*
X22251019Y95669528D01*
X22251019Y95669528D01*
X22251019Y95669528D01*
G37*
X22251019Y95669528D02*
X22195692Y95466707D01*
X22172686Y95426360D01*
X22050850Y95317743D01*
X21898423Y95296641D01*
X21734944Y95362197D01*
X21632817Y95450010D01*
X21470678Y95686780D01*
X21370010Y95967506D01*
X21337341Y96260234D01*
X21379203Y96533014D01*
X21399962Y96589337D01*
X21499715Y96741779D01*
X21633247Y96798627D01*
X21803384Y96760878D01*
X21838325Y96744005D01*
X21988851Y96615340D01*
X22112561Y96415277D01*
X22202277Y96172097D01*
X22250822Y95914086D01*
X22251019Y95669528D01*
X22251019Y95669528D01*
G36*
X23990465Y96306460D02*
X23950162Y95946549D01*
X23830830Y95644748D01*
X23705359Y95470643D01*
X23545099Y95338632D01*
X23384168Y95297294D01*
X23237061Y95348745D01*
X23186168Y95394858D01*
X23097337Y95562826D01*
X23068688Y95782160D01*
X23092987Y96028211D01*
X23163000Y96276333D01*
X23271492Y96501880D01*
X23411231Y96680205D01*
X23574981Y96786661D01*
X23596723Y96793671D01*
X23724943Y96783121D01*
X23848909Y96702003D01*
X23934807Y96613692D01*
X23977185Y96515725D01*
X23990188Y96368577D01*
X23990465Y96306460D01*
X23990465Y96306460D01*
X23990465Y96306460D01*
G37*
X23990465Y96306460D02*
X23950162Y95946549D01*
X23830830Y95644748D01*
X23705359Y95470643D01*
X23545099Y95338632D01*
X23384168Y95297294D01*
X23237061Y95348745D01*
X23186168Y95394858D01*
X23097337Y95562826D01*
X23068688Y95782160D01*
X23092987Y96028211D01*
X23163000Y96276333D01*
X23271492Y96501880D01*
X23411231Y96680205D01*
X23574981Y96786661D01*
X23596723Y96793671D01*
X23724943Y96783121D01*
X23848909Y96702003D01*
X23934807Y96613692D01*
X23977185Y96515725D01*
X23990188Y96368577D01*
X23990465Y96306460D01*
X23990465Y96306460D01*
X5019833Y30732834D02*
X5253166Y30032834D01*
X5486500Y30732834D01*
X5719833Y30032834D02*
X5719833Y30732834D01*
X5886500Y30732834D01*
X5986500Y30699500D01*
X6053166Y30632834D01*
X6086500Y30566167D01*
X6119833Y30432834D01*
X6119833Y30332834D01*
X6086500Y30199500D01*
X6053166Y30132834D01*
X5986500Y30066167D01*
X5886500Y30032834D01*
X5719833Y30032834D01*
X6719833Y30499500D02*
X6719833Y30032834D01*
X6553166Y30766167D02*
X6386500Y30266167D01*
X6819833Y30266167D01*
X7116666Y7250000D02*
X7116666Y7316667D01*
X7150000Y7383334D01*
X7183333Y7416667D01*
X7250000Y7450000D01*
X7383333Y7483334D01*
X7550000Y7483334D01*
X7683333Y7450000D01*
X7750000Y7416667D01*
X7783333Y7383334D01*
X7816666Y7316667D01*
X7816666Y7250000D01*
X7783333Y7183334D01*
X7750000Y7150000D01*
X7683333Y7116667D01*
X7550000Y7083334D01*
X7383333Y7083334D01*
X7250000Y7116667D01*
X7183333Y7150000D01*
X7150000Y7183334D01*
X7116666Y7250000D01*
X7750000Y7783334D02*
X7783333Y7816667D01*
X7816666Y7783334D01*
X7783333Y7750000D01*
X7750000Y7783334D01*
X7816666Y7783334D01*
X7816666Y8483334D02*
X7816666Y8083334D01*
X7816666Y8283334D02*
X7116666Y8283334D01*
X7216666Y8216667D01*
X7283333Y8150000D01*
X7316666Y8083334D01*
X7350000Y9083334D02*
X7816666Y9083334D01*
X7350000Y8783334D02*
X7716666Y8783334D01*
X7783333Y8816667D01*
X7816666Y8883334D01*
X7816666Y8983334D01*
X7783333Y9050000D01*
X7750000Y9083334D01*
X7450000Y9650000D02*
X7450000Y9416667D01*
X7816666Y9416667D02*
X7116666Y9416667D01*
X7116666Y9750000D01*
X10783333Y2850000D02*
X10750000Y2816667D01*
X10650000Y2783334D01*
X10583333Y2783334D01*
X10483333Y2816667D01*
X10416666Y2883334D01*
X10383333Y2950000D01*
X10350000Y3083334D01*
X10350000Y3183334D01*
X10383333Y3316667D01*
X10416666Y3383334D01*
X10483333Y3450000D01*
X10583333Y3483334D01*
X10650000Y3483334D01*
X10750000Y3450000D01*
X10783333Y3416667D01*
X11383333Y3483334D02*
X11250000Y3483334D01*
X11183333Y3450000D01*
X11150000Y3416667D01*
X11083333Y3316667D01*
X11050000Y3183334D01*
X11050000Y2916667D01*
X11083333Y2850000D01*
X11116666Y2816667D01*
X11183333Y2783334D01*
X11316666Y2783334D01*
X11383333Y2816667D01*
X11416666Y2850000D01*
X11450000Y2916667D01*
X11450000Y3083334D01*
X11416666Y3150000D01*
X11383333Y3183334D01*
X11316666Y3216667D01*
X11183333Y3216667D01*
X11116666Y3183334D01*
X11083333Y3150000D01*
X11050000Y3083334D01*
X6216666Y7250000D02*
X6216666Y7316667D01*
X6250000Y7383334D01*
X6283333Y7416667D01*
X6350000Y7450000D01*
X6483333Y7483334D01*
X6650000Y7483334D01*
X6783333Y7450000D01*
X6850000Y7416667D01*
X6883333Y7383334D01*
X6916666Y7316667D01*
X6916666Y7250000D01*
X6883333Y7183334D01*
X6850000Y7150000D01*
X6783333Y7116667D01*
X6650000Y7083334D01*
X6483333Y7083334D01*
X6350000Y7116667D01*
X6283333Y7150000D01*
X6250000Y7183334D01*
X6216666Y7250000D01*
X6850000Y7783334D02*
X6883333Y7816667D01*
X6916666Y7783334D01*
X6883333Y7750000D01*
X6850000Y7783334D01*
X6916666Y7783334D01*
X6916666Y8483334D02*
X6916666Y8083334D01*
X6916666Y8283334D02*
X6216666Y8283334D01*
X6316666Y8216667D01*
X6383333Y8150000D01*
X6416666Y8083334D01*
X6450000Y9083334D02*
X6916666Y9083334D01*
X6450000Y8783334D02*
X6816666Y8783334D01*
X6883333Y8816667D01*
X6916666Y8883334D01*
X6916666Y8983334D01*
X6883333Y9050000D01*
X6850000Y9083334D01*
X6550000Y9650000D02*
X6550000Y9416667D01*
X6916666Y9416667D02*
X6216666Y9416667D01*
X6216666Y9750000D01*
X5583333Y650000D02*
X5550000Y616667D01*
X5450000Y583334D01*
X5383333Y583334D01*
X5283333Y616667D01*
X5216666Y683334D01*
X5183333Y750000D01*
X5150000Y883334D01*
X5150000Y983334D01*
X5183333Y1116667D01*
X5216666Y1183334D01*
X5283333Y1250000D01*
X5383333Y1283334D01*
X5450000Y1283334D01*
X5550000Y1250000D01*
X5583333Y1216667D01*
X5816666Y1283334D02*
X6283333Y1283334D01*
X5983333Y583334D01*
X20435500Y20786334D02*
X20035500Y20786334D01*
X20235500Y20786334D02*
X20235500Y21486334D01*
X20168833Y21386334D01*
X20102166Y21319667D01*
X20035500Y21286334D01*
X20868833Y21486334D02*
X20935500Y21486334D01*
X21002166Y21453000D01*
X21035500Y21419667D01*
X21068833Y21353000D01*
X21102166Y21219667D01*
X21102166Y21053000D01*
X21068833Y20919667D01*
X21035500Y20853000D01*
X21002166Y20819667D01*
X20935500Y20786334D01*
X20868833Y20786334D01*
X20802166Y20819667D01*
X20768833Y20853000D01*
X20735500Y20919667D01*
X20702166Y21053000D01*
X20702166Y21219667D01*
X20735500Y21353000D01*
X20768833Y21419667D01*
X20802166Y21453000D01*
X20868833Y21486334D01*
X21402166Y21253000D02*
X21402166Y20786334D01*
X21402166Y21186334D02*
X21435500Y21219667D01*
X21502166Y21253000D01*
X21602166Y21253000D01*
X21668833Y21219667D01*
X21702166Y21153000D01*
X21702166Y20786334D01*
X22268833Y21153000D02*
X22035500Y21153000D01*
X22035500Y20786334D02*
X22035500Y21486334D01*
X22368833Y21486334D01*
X24672500Y20853000D02*
X24639166Y20819667D01*
X24539166Y20786334D01*
X24472500Y20786334D01*
X24372500Y20819667D01*
X24305833Y20886334D01*
X24272500Y20953000D01*
X24239166Y21086334D01*
X24239166Y21186334D01*
X24272500Y21319667D01*
X24305833Y21386334D01*
X24372500Y21453000D01*
X24472500Y21486334D01*
X24539166Y21486334D01*
X24639166Y21453000D01*
X24672500Y21419667D01*
X25339166Y20786334D02*
X24939166Y20786334D01*
X25139166Y20786334D02*
X25139166Y21486334D01*
X25072500Y21386334D01*
X25005833Y21319667D01*
X24939166Y21286334D01*
X25605833Y21419667D02*
X25639166Y21453000D01*
X25705833Y21486334D01*
X25872500Y21486334D01*
X25939166Y21453000D01*
X25972500Y21419667D01*
X26005833Y21353000D01*
X26005833Y21286334D01*
X25972500Y21186334D01*
X25572500Y20786334D01*
X26005833Y20786334D01*
X5116666Y6450000D02*
X5116666Y6050000D01*
X5116666Y6250000D02*
X4416666Y6250000D01*
X4516666Y6183334D01*
X4583333Y6116667D01*
X4616666Y6050000D01*
X4416666Y6883334D02*
X4416666Y6950000D01*
X4450000Y7016667D01*
X4483333Y7050000D01*
X4550000Y7083334D01*
X4683333Y7116667D01*
X4850000Y7116667D01*
X4983333Y7083334D01*
X5050000Y7050000D01*
X5083333Y7016667D01*
X5116666Y6950000D01*
X5116666Y6883334D01*
X5083333Y6816667D01*
X5050000Y6783334D01*
X4983333Y6750000D01*
X4850000Y6716667D01*
X4683333Y6716667D01*
X4550000Y6750000D01*
X4483333Y6783334D01*
X4450000Y6816667D01*
X4416666Y6883334D01*
X4416666Y7550000D02*
X4416666Y7616667D01*
X4450000Y7683334D01*
X4483333Y7716667D01*
X4550000Y7750000D01*
X4683333Y7783334D01*
X4850000Y7783334D01*
X4983333Y7750000D01*
X5050000Y7716667D01*
X5083333Y7683334D01*
X5116666Y7616667D01*
X5116666Y7550000D01*
X5083333Y7483334D01*
X5050000Y7450000D01*
X4983333Y7416667D01*
X4850000Y7383334D01*
X4683333Y7383334D01*
X4550000Y7416667D01*
X4483333Y7450000D01*
X4450000Y7483334D01*
X4416666Y7550000D01*
X4650000Y8383334D02*
X5116666Y8383334D01*
X4650000Y8083334D02*
X5016666Y8083334D01*
X5083333Y8116667D01*
X5116666Y8183334D01*
X5116666Y8283334D01*
X5083333Y8350000D01*
X5050000Y8383334D01*
X5116666Y8716667D02*
X4416666Y8716667D01*
X4750000Y8716667D02*
X4750000Y9116667D01*
X5116666Y9116667D02*
X4416666Y9116667D01*
X4083333Y583334D02*
X3750000Y583334D01*
X3750000Y1283334D01*
X4283333Y1216667D02*
X4316666Y1250000D01*
X4383333Y1283334D01*
X4550000Y1283334D01*
X4616666Y1250000D01*
X4650000Y1216667D01*
X4683333Y1150000D01*
X4683333Y1083334D01*
X4650000Y983334D01*
X4250000Y583334D01*
X4683333Y583334D01*
X2116666Y6450000D02*
X2116666Y6050000D01*
X2116666Y6250000D02*
X1416666Y6250000D01*
X1516666Y6183334D01*
X1583333Y6116667D01*
X1616666Y6050000D01*
X1416666Y6883334D02*
X1416666Y6950000D01*
X1450000Y7016667D01*
X1483333Y7050000D01*
X1550000Y7083334D01*
X1683333Y7116667D01*
X1850000Y7116667D01*
X1983333Y7083334D01*
X2050000Y7050000D01*
X2083333Y7016667D01*
X2116666Y6950000D01*
X2116666Y6883334D01*
X2083333Y6816667D01*
X2050000Y6783334D01*
X1983333Y6750000D01*
X1850000Y6716667D01*
X1683333Y6716667D01*
X1550000Y6750000D01*
X1483333Y6783334D01*
X1450000Y6816667D01*
X1416666Y6883334D01*
X1416666Y7550000D02*
X1416666Y7616667D01*
X1450000Y7683334D01*
X1483333Y7716667D01*
X1550000Y7750000D01*
X1683333Y7783334D01*
X1850000Y7783334D01*
X1983333Y7750000D01*
X2050000Y7716667D01*
X2083333Y7683334D01*
X2116666Y7616667D01*
X2116666Y7550000D01*
X2083333Y7483334D01*
X2050000Y7450000D01*
X1983333Y7416667D01*
X1850000Y7383334D01*
X1683333Y7383334D01*
X1550000Y7416667D01*
X1483333Y7450000D01*
X1450000Y7483334D01*
X1416666Y7550000D01*
X1650000Y8383334D02*
X2116666Y8383334D01*
X1650000Y8083334D02*
X2016666Y8083334D01*
X2083333Y8116667D01*
X2116666Y8183334D01*
X2116666Y8283334D01*
X2083333Y8350000D01*
X2050000Y8383334D01*
X2116666Y8716667D02*
X1416666Y8716667D01*
X1750000Y8716667D02*
X1750000Y9116667D01*
X2116666Y9116667D02*
X1416666Y9116667D01*
X1483333Y483334D02*
X1150000Y483334D01*
X1150000Y1183334D01*
X1650000Y1183334D02*
X2083333Y1183334D01*
X1850000Y916667D01*
X1950000Y916667D01*
X2016666Y883334D01*
X2050000Y850000D01*
X2083333Y783334D01*
X2083333Y616667D01*
X2050000Y550000D01*
X2016666Y516667D01*
X1950000Y483334D01*
X1750000Y483334D01*
X1683333Y516667D01*
X1650000Y550000D01*
X6883333Y31683334D02*
X6650000Y32016667D01*
X6483333Y31683334D02*
X6483333Y32383334D01*
X6750000Y32383334D01*
X6816666Y32350000D01*
X6850000Y32316667D01*
X6883333Y32250000D01*
X6883333Y32150000D01*
X6850000Y32083334D01*
X6816666Y32050000D01*
X6750000Y32016667D01*
X6483333Y32016667D01*
X7550000Y31683334D02*
X7150000Y31683334D01*
X7350000Y31683334D02*
X7350000Y32383334D01*
X7283333Y32283334D01*
X7216666Y32216667D01*
X7150000Y32183334D01*
X12433333Y30916667D02*
X12466666Y30950000D01*
X12533333Y30983334D01*
X12700000Y30983334D01*
X12766666Y30950000D01*
X12800000Y30916667D01*
X12833333Y30850000D01*
X12833333Y30783334D01*
X12800000Y30683334D01*
X12400000Y30283334D01*
X12833333Y30283334D01*
X13100000Y30916667D02*
X13133333Y30950000D01*
X13200000Y30983334D01*
X13366666Y30983334D01*
X13433333Y30950000D01*
X13466666Y30916667D01*
X13500000Y30850000D01*
X13500000Y30783334D01*
X13466666Y30683334D01*
X13066666Y30283334D01*
X13500000Y30283334D01*
X13933333Y30983334D02*
X14000000Y30983334D01*
X14066666Y30950000D01*
X14100000Y30916667D01*
X14133333Y30850000D01*
X14166666Y30716667D01*
X14166666Y30550000D01*
X14133333Y30416667D01*
X14100000Y30350000D01*
X14066666Y30316667D01*
X14000000Y30283334D01*
X13933333Y30283334D01*
X13866666Y30316667D01*
X13833333Y30350000D01*
X13800000Y30416667D01*
X13766666Y30550000D01*
X13766666Y30716667D01*
X13800000Y30850000D01*
X13833333Y30916667D01*
X13866666Y30950000D01*
X13933333Y30983334D01*
X19883333Y42083334D02*
X19650000Y42416667D01*
X19483333Y42083334D02*
X19483333Y42783334D01*
X19750000Y42783334D01*
X19816666Y42750000D01*
X19850000Y42716667D01*
X19883333Y42650000D01*
X19883333Y42550000D01*
X19850000Y42483334D01*
X19816666Y42450000D01*
X19750000Y42416667D01*
X19483333Y42416667D01*
X20216666Y42083334D02*
X20350000Y42083334D01*
X20416666Y42116667D01*
X20450000Y42150000D01*
X20516666Y42250000D01*
X20550000Y42383334D01*
X20550000Y42650000D01*
X20516666Y42716667D01*
X20483333Y42750000D01*
X20416666Y42783334D01*
X20283333Y42783334D01*
X20216666Y42750000D01*
X20183333Y42716667D01*
X20150000Y42650000D01*
X20150000Y42483334D01*
X20183333Y42416667D01*
X20216666Y42383334D01*
X20283333Y42350000D01*
X20416666Y42350000D01*
X20483333Y42383334D01*
X20516666Y42416667D01*
X20550000Y42483334D01*
X21316666Y38816667D02*
X21316666Y38416667D01*
X21316666Y38616667D02*
X20616666Y38616667D01*
X20716666Y38550000D01*
X20783333Y38483334D01*
X20816666Y38416667D01*
X21316666Y39116667D02*
X20616666Y39116667D01*
X21050000Y39183334D02*
X21316666Y39383334D01*
X20850000Y39383334D02*
X21116666Y39116667D01*
X25650000Y44183334D02*
X25416666Y44516667D01*
X25250000Y44183334D02*
X25250000Y44883334D01*
X25516666Y44883334D01*
X25583333Y44850000D01*
X25616666Y44816667D01*
X25650000Y44750000D01*
X25650000Y44650000D01*
X25616666Y44583334D01*
X25583333Y44550000D01*
X25516666Y44516667D01*
X25250000Y44516667D01*
X26316666Y44183334D02*
X25916666Y44183334D01*
X26116666Y44183334D02*
X26116666Y44883334D01*
X26050000Y44783334D01*
X25983333Y44716667D01*
X25916666Y44683334D01*
X26750000Y44883334D02*
X26816666Y44883334D01*
X26883333Y44850000D01*
X26916666Y44816667D01*
X26950000Y44750000D01*
X26983333Y44616667D01*
X26983333Y44450000D01*
X26950000Y44316667D01*
X26916666Y44250000D01*
X26883333Y44216667D01*
X26816666Y44183334D01*
X26750000Y44183334D01*
X26683333Y44216667D01*
X26650000Y44250000D01*
X26616666Y44316667D01*
X26583333Y44450000D01*
X26583333Y44616667D01*
X26616666Y44750000D01*
X26650000Y44816667D01*
X26683333Y44850000D01*
X26750000Y44883334D01*
X24316666Y38816667D02*
X24316666Y38416667D01*
X24316666Y38616667D02*
X23616666Y38616667D01*
X23716666Y38550000D01*
X23783333Y38483334D01*
X23816666Y38416667D01*
X24316666Y39116667D02*
X23616666Y39116667D01*
X24050000Y39183334D02*
X24316666Y39383334D01*
X23850000Y39383334D02*
X24116666Y39116667D01*
X18650000Y73183334D02*
X18416666Y73516667D01*
X18250000Y73183334D02*
X18250000Y73883334D01*
X18516666Y73883334D01*
X18583333Y73850000D01*
X18616666Y73816667D01*
X18650000Y73750000D01*
X18650000Y73650000D01*
X18616666Y73583334D01*
X18583333Y73550000D01*
X18516666Y73516667D01*
X18250000Y73516667D01*
X19316666Y73183334D02*
X18916666Y73183334D01*
X19116666Y73183334D02*
X19116666Y73883334D01*
X19050000Y73783334D01*
X18983333Y73716667D01*
X18916666Y73683334D01*
X19983333Y73183334D02*
X19583333Y73183334D01*
X19783333Y73183334D02*
X19783333Y73883334D01*
X19716666Y73783334D01*
X19650000Y73716667D01*
X19583333Y73683334D01*
X16816666Y71716667D02*
X16816666Y71316667D01*
X16816666Y71516667D02*
X16116666Y71516667D01*
X16216666Y71450000D01*
X16283333Y71383334D01*
X16316666Y71316667D01*
X16816666Y72016667D02*
X16116666Y72016667D01*
X16550000Y72083334D02*
X16816666Y72283334D01*
X16350000Y72283334D02*
X16616666Y72016667D01*
X9450000Y72283334D02*
X9216666Y72616667D01*
X9050000Y72283334D02*
X9050000Y72983334D01*
X9316666Y72983334D01*
X9383333Y72950000D01*
X9416666Y72916667D01*
X9450000Y72850000D01*
X9450000Y72750000D01*
X9416666Y72683334D01*
X9383333Y72650000D01*
X9316666Y72616667D01*
X9050000Y72616667D01*
X10116666Y72283334D02*
X9716666Y72283334D01*
X9916666Y72283334D02*
X9916666Y72983334D01*
X9850000Y72883334D01*
X9783333Y72816667D01*
X9716666Y72783334D01*
X10383333Y72916667D02*
X10416666Y72950000D01*
X10483333Y72983334D01*
X10650000Y72983334D01*
X10716666Y72950000D01*
X10750000Y72916667D01*
X10783333Y72850000D01*
X10783333Y72783334D01*
X10750000Y72683334D01*
X10350000Y72283334D01*
X10783333Y72283334D01*
X12816666Y71716667D02*
X12816666Y71316667D01*
X12816666Y71516667D02*
X12116666Y71516667D01*
X12216666Y71450000D01*
X12283333Y71383334D01*
X12316666Y71316667D01*
X12816666Y72016667D02*
X12116666Y72016667D01*
X12550000Y72083334D02*
X12816666Y72283334D01*
X12350000Y72283334D02*
X12616666Y72016667D01*
X21683333Y99083334D02*
X21283333Y99083334D01*
X21483333Y99083334D02*
X21483333Y99783334D01*
X21416666Y99683334D01*
X21350000Y99616667D01*
X21283333Y99583334D01*
X22116666Y99783334D02*
X22183333Y99783334D01*
X22250000Y99750000D01*
X22283333Y99716667D01*
X22316666Y99650000D01*
X22350000Y99516667D01*
X22350000Y99350000D01*
X22316666Y99216667D01*
X22283333Y99150000D01*
X22250000Y99116667D01*
X22183333Y99083334D01*
X22116666Y99083334D01*
X22050000Y99116667D01*
X22016666Y99150000D01*
X21983333Y99216667D01*
X21950000Y99350000D01*
X21950000Y99516667D01*
X21983333Y99650000D01*
X22016666Y99716667D01*
X22050000Y99750000D01*
X22116666Y99783334D01*
X22650000Y99083334D02*
X22650000Y99783334D01*
X22716666Y99350000D02*
X22916666Y99083334D01*
X22916666Y99550000D02*
X22650000Y99283334D01*
X21450000Y99983334D02*
X21216666Y100316667D01*
X21050000Y99983334D02*
X21050000Y100683334D01*
X21316666Y100683334D01*
X21383333Y100650000D01*
X21416666Y100616667D01*
X21450000Y100550000D01*
X21450000Y100450000D01*
X21416666Y100383334D01*
X21383333Y100350000D01*
X21316666Y100316667D01*
X21050000Y100316667D01*
X22116666Y99983334D02*
X21716666Y99983334D01*
X21916666Y99983334D02*
X21916666Y100683334D01*
X21850000Y100583334D01*
X21783333Y100516667D01*
X21716666Y100483334D01*
X22750000Y100683334D02*
X22416666Y100683334D01*
X22383333Y100350000D01*
X22416666Y100383334D01*
X22483333Y100416667D01*
X22650000Y100416667D01*
X22716666Y100383334D01*
X22750000Y100350000D01*
X22783333Y100283334D01*
X22783333Y100116667D01*
X22750000Y100050000D01*
X22716666Y100016667D01*
X22650000Y99983334D01*
X22483333Y99983334D01*
X22416666Y100016667D01*
X22383333Y100050000D01*
X26266666Y26716667D02*
X26366666Y26683334D01*
X26533333Y26683334D01*
X26600000Y26716667D01*
X26633333Y26750000D01*
X26666666Y26816667D01*
X26666666Y26883334D01*
X26633333Y26950000D01*
X26600000Y26983334D01*
X26533333Y27016667D01*
X26400000Y27050000D01*
X26333333Y27083334D01*
X26300000Y27116667D01*
X26266666Y27183334D01*
X26266666Y27250000D01*
X26300000Y27316667D01*
X26333333Y27350000D01*
X26400000Y27383334D01*
X26566666Y27383334D01*
X26666666Y27350000D01*
X26900000Y27383334D02*
X27066666Y26683334D01*
X27200000Y27183334D01*
X27333333Y26683334D01*
X27500000Y27383334D01*
X28133333Y26683334D02*
X27733333Y26683334D01*
X27933333Y26683334D02*
X27933333Y27383334D01*
X27866666Y27283334D01*
X27800000Y27216667D01*
X27733333Y27183334D01*
X13000000Y26083334D02*
X12600000Y26083334D01*
X12800000Y26083334D02*
X12800000Y26783334D01*
X12733333Y26683334D01*
X12666666Y26616667D01*
X12600000Y26583334D01*
X13300000Y26083334D02*
X13300000Y26783334D01*
X13700000Y26083334D01*
X13700000Y26783334D01*
X14333333Y26550000D02*
X14333333Y26083334D01*
X14166666Y26816667D02*
X14000000Y26316667D01*
X14433333Y26316667D01*
X15066666Y26083334D02*
X14666666Y26083334D01*
X14866666Y26083334D02*
X14866666Y26783334D01*
X14800000Y26683334D01*
X14733333Y26616667D01*
X14666666Y26583334D01*
X15666666Y26550000D02*
X15666666Y26083334D01*
X15500000Y26816667D02*
X15333333Y26316667D01*
X15766666Y26316667D01*
X16133333Y26483334D02*
X16066666Y26516667D01*
X16033333Y26550000D01*
X16000000Y26616667D01*
X16000000Y26650000D01*
X16033333Y26716667D01*
X16066666Y26750000D01*
X16133333Y26783334D01*
X16266666Y26783334D01*
X16333333Y26750000D01*
X16366666Y26716667D01*
X16400000Y26650000D01*
X16400000Y26616667D01*
X16366666Y26550000D01*
X16333333Y26516667D01*
X16266666Y26483334D01*
X16133333Y26483334D01*
X16066666Y26450000D01*
X16033333Y26416667D01*
X16000000Y26350000D01*
X16000000Y26216667D01*
X16033333Y26150000D01*
X16066666Y26116667D01*
X16133333Y26083334D01*
X16266666Y26083334D01*
X16333333Y26116667D01*
X16366666Y26150000D01*
X16400000Y26216667D01*
X16400000Y26350000D01*
X16366666Y26416667D01*
X16333333Y26450000D01*
X16266666Y26483334D01*
X8383333Y26883334D02*
X8616666Y26183334D01*
X8850000Y26883334D01*
X9083333Y26183334D02*
X9083333Y26883334D01*
X9250000Y26883334D01*
X9350000Y26850000D01*
X9416666Y26783334D01*
X9450000Y26716667D01*
X9483333Y26583334D01*
X9483333Y26483334D01*
X9450000Y26350000D01*
X9416666Y26283334D01*
X9350000Y26216667D01*
X9250000Y26183334D01*
X9083333Y26183334D01*
X9750000Y26816667D02*
X9783333Y26850000D01*
X9850000Y26883334D01*
X10016666Y26883334D01*
X10083333Y26850000D01*
X10116666Y26816667D01*
X10150000Y26750000D01*
X10150000Y26683334D01*
X10116666Y26583334D01*
X9716666Y26183334D01*
X10150000Y26183334D01*
X13716666Y43550000D02*
X13816666Y43516667D01*
X13850000Y43483334D01*
X13883333Y43416667D01*
X13883333Y43316667D01*
X13850000Y43250000D01*
X13816666Y43216667D01*
X13750000Y43183334D01*
X13483333Y43183334D01*
X13483333Y43883334D01*
X13716666Y43883334D01*
X13783333Y43850000D01*
X13816666Y43816667D01*
X13850000Y43750000D01*
X13850000Y43683334D01*
X13816666Y43616667D01*
X13783333Y43583334D01*
X13716666Y43550000D01*
X13483333Y43550000D01*
X14150000Y43383334D02*
X14483333Y43383334D01*
X14083333Y43183334D02*
X14316666Y43883334D01*
X14550000Y43183334D01*
X14683333Y43883334D02*
X15083333Y43883334D01*
X14883333Y43183334D02*
X14883333Y43883334D01*
X15416666Y43583334D02*
X15350000Y43616667D01*
X15316666Y43650000D01*
X15283333Y43716667D01*
X15283333Y43750000D01*
X15316666Y43816667D01*
X15350000Y43850000D01*
X15416666Y43883334D01*
X15550000Y43883334D01*
X15616666Y43850000D01*
X15650000Y43816667D01*
X15683333Y43750000D01*
X15683333Y43716667D01*
X15650000Y43650000D01*
X15616666Y43616667D01*
X15550000Y43583334D01*
X15416666Y43583334D01*
X15350000Y43550000D01*
X15316666Y43516667D01*
X15283333Y43450000D01*
X15283333Y43316667D01*
X15316666Y43250000D01*
X15350000Y43216667D01*
X15416666Y43183334D01*
X15550000Y43183334D01*
X15616666Y43216667D01*
X15650000Y43250000D01*
X15683333Y43316667D01*
X15683333Y43450000D01*
X15650000Y43516667D01*
X15616666Y43550000D01*
X15550000Y43583334D01*
X16316666Y43883334D02*
X15983333Y43883334D01*
X15950000Y43550000D01*
X15983333Y43583334D01*
X16050000Y43616667D01*
X16216666Y43616667D01*
X16283333Y43583334D01*
X16316666Y43550000D01*
X16350000Y43483334D01*
X16350000Y43316667D01*
X16316666Y43250000D01*
X16283333Y43216667D01*
X16216666Y43183334D01*
X16050000Y43183334D01*
X15983333Y43216667D01*
X15950000Y43250000D01*
X16383333Y45283334D02*
X16616666Y44583334D01*
X16850000Y45283334D01*
X17083333Y44583334D02*
X17083333Y45283334D01*
X17250000Y45283334D01*
X17350000Y45250000D01*
X17416666Y45183334D01*
X17450000Y45116667D01*
X17483333Y44983334D01*
X17483333Y44883334D01*
X17450000Y44750000D01*
X17416666Y44683334D01*
X17350000Y44616667D01*
X17250000Y44583334D01*
X17083333Y44583334D01*
X17816666Y44583334D02*
X17950000Y44583334D01*
X18016666Y44616667D01*
X18050000Y44650000D01*
X18116666Y44750000D01*
X18150000Y44883334D01*
X18150000Y45150000D01*
X18116666Y45216667D01*
X18083333Y45250000D01*
X18016666Y45283334D01*
X17883333Y45283334D01*
X17816666Y45250000D01*
X17783333Y45216667D01*
X17750000Y45150000D01*
X17750000Y44983334D01*
X17783333Y44916667D01*
X17816666Y44883334D01*
X17883333Y44850000D01*
X18016666Y44850000D01*
X18083333Y44883334D01*
X18116666Y44916667D01*
X18150000Y44983334D01*
X18350000Y36916667D02*
X18383333Y37016667D01*
X18416666Y37050000D01*
X18483333Y37083334D01*
X18583333Y37083334D01*
X18650000Y37050000D01*
X18683333Y37016667D01*
X18716666Y36950000D01*
X18716666Y36683334D01*
X18016666Y36683334D01*
X18016666Y36916667D01*
X18050000Y36983334D01*
X18083333Y37016667D01*
X18150000Y37050000D01*
X18216666Y37050000D01*
X18283333Y37016667D01*
X18316666Y36983334D01*
X18350000Y36916667D01*
X18350000Y36683334D01*
X18516666Y37350000D02*
X18516666Y37683334D01*
X18716666Y37283334D02*
X18016666Y37516667D01*
X18716666Y37750000D01*
X18016666Y37883334D02*
X18016666Y38283334D01*
X18716666Y38083334D02*
X18016666Y38083334D01*
X18316666Y38616667D02*
X18283333Y38550000D01*
X18250000Y38516667D01*
X18183333Y38483334D01*
X18150000Y38483334D01*
X18083333Y38516667D01*
X18050000Y38550000D01*
X18016666Y38616667D01*
X18016666Y38750000D01*
X18050000Y38816667D01*
X18083333Y38850000D01*
X18150000Y38883334D01*
X18183333Y38883334D01*
X18250000Y38850000D01*
X18283333Y38816667D01*
X18316666Y38750000D01*
X18316666Y38616667D01*
X18350000Y38550000D01*
X18383333Y38516667D01*
X18450000Y38483334D01*
X18583333Y38483334D01*
X18650000Y38516667D01*
X18683333Y38550000D01*
X18716666Y38616667D01*
X18716666Y38750000D01*
X18683333Y38816667D01*
X18650000Y38850000D01*
X18583333Y38883334D01*
X18450000Y38883334D01*
X18383333Y38850000D01*
X18350000Y38816667D01*
X18316666Y38750000D01*
X18016666Y39516667D02*
X18016666Y39183334D01*
X18350000Y39150000D01*
X18316666Y39183334D01*
X18283333Y39250000D01*
X18283333Y39416667D01*
X18316666Y39483334D01*
X18350000Y39516667D01*
X18416666Y39550000D01*
X18583333Y39550000D01*
X18650000Y39516667D01*
X18683333Y39483334D01*
X18716666Y39416667D01*
X18716666Y39250000D01*
X18683333Y39183334D01*
X18650000Y39150000D01*
X17150000Y32883334D02*
X17383333Y32183334D01*
X17616666Y32883334D01*
X17850000Y32183334D02*
X17850000Y32883334D01*
X18016666Y32883334D01*
X18116666Y32850000D01*
X18183333Y32783334D01*
X18216666Y32716667D01*
X18250000Y32583334D01*
X18250000Y32483334D01*
X18216666Y32350000D01*
X18183333Y32283334D01*
X18116666Y32216667D01*
X18016666Y32183334D01*
X17850000Y32183334D01*
X18916666Y32183334D02*
X18516666Y32183334D01*
X18716666Y32183334D02*
X18716666Y32883334D01*
X18650000Y32783334D01*
X18583333Y32716667D01*
X18516666Y32683334D01*
X19350000Y32883334D02*
X19416666Y32883334D01*
X19483333Y32850000D01*
X19516666Y32816667D01*
X19550000Y32750000D01*
X19583333Y32616667D01*
X19583333Y32450000D01*
X19550000Y32316667D01*
X19516666Y32250000D01*
X19483333Y32216667D01*
X19416666Y32183334D01*
X19350000Y32183334D01*
X19283333Y32216667D01*
X19250000Y32250000D01*
X19216666Y32316667D01*
X19183333Y32450000D01*
X19183333Y32616667D01*
X19216666Y32750000D01*
X19250000Y32816667D01*
X19283333Y32850000D01*
X19350000Y32883334D01*
X13916666Y63550000D02*
X14016666Y63516667D01*
X14050000Y63483334D01*
X14083333Y63416667D01*
X14083333Y63316667D01*
X14050000Y63250000D01*
X14016666Y63216667D01*
X13950000Y63183334D01*
X13683333Y63183334D01*
X13683333Y63883334D01*
X13916666Y63883334D01*
X13983333Y63850000D01*
X14016666Y63816667D01*
X14050000Y63750000D01*
X14050000Y63683334D01*
X14016666Y63616667D01*
X13983333Y63583334D01*
X13916666Y63550000D01*
X13683333Y63550000D01*
X14350000Y63383334D02*
X14683333Y63383334D01*
X14283333Y63183334D02*
X14516666Y63883334D01*
X14750000Y63183334D01*
X14883333Y63883334D02*
X15283333Y63883334D01*
X15083333Y63183334D02*
X15083333Y63883334D01*
X15616666Y63583334D02*
X15550000Y63616667D01*
X15516666Y63650000D01*
X15483333Y63716667D01*
X15483333Y63750000D01*
X15516666Y63816667D01*
X15550000Y63850000D01*
X15616666Y63883334D01*
X15750000Y63883334D01*
X15816666Y63850000D01*
X15850000Y63816667D01*
X15883333Y63750000D01*
X15883333Y63716667D01*
X15850000Y63650000D01*
X15816666Y63616667D01*
X15750000Y63583334D01*
X15616666Y63583334D01*
X15550000Y63550000D01*
X15516666Y63516667D01*
X15483333Y63450000D01*
X15483333Y63316667D01*
X15516666Y63250000D01*
X15550000Y63216667D01*
X15616666Y63183334D01*
X15750000Y63183334D01*
X15816666Y63216667D01*
X15850000Y63250000D01*
X15883333Y63316667D01*
X15883333Y63450000D01*
X15850000Y63516667D01*
X15816666Y63550000D01*
X15750000Y63583334D01*
X16516666Y63883334D02*
X16183333Y63883334D01*
X16150000Y63550000D01*
X16183333Y63583334D01*
X16250000Y63616667D01*
X16416666Y63616667D01*
X16483333Y63583334D01*
X16516666Y63550000D01*
X16550000Y63483334D01*
X16550000Y63316667D01*
X16516666Y63250000D01*
X16483333Y63216667D01*
X16416666Y63183334D01*
X16250000Y63183334D01*
X16183333Y63216667D01*
X16150000Y63250000D01*
X13550000Y65083334D02*
X13783333Y64383334D01*
X14016666Y65083334D01*
X14250000Y64383334D02*
X14250000Y65083334D01*
X14416666Y65083334D01*
X14516666Y65050000D01*
X14583333Y64983334D01*
X14616666Y64916667D01*
X14650000Y64783334D01*
X14650000Y64683334D01*
X14616666Y64550000D01*
X14583333Y64483334D01*
X14516666Y64416667D01*
X14416666Y64383334D01*
X14250000Y64383334D01*
X15316666Y64383334D02*
X14916666Y64383334D01*
X15116666Y64383334D02*
X15116666Y65083334D01*
X15050000Y64983334D01*
X14983333Y64916667D01*
X14916666Y64883334D01*
X15983333Y64383334D02*
X15583333Y64383334D01*
X15783333Y64383334D02*
X15783333Y65083334D01*
X15716666Y64983334D01*
X15650000Y64916667D01*
X15583333Y64883334D01*
X7850000Y58083334D02*
X8083333Y57383334D01*
X8316666Y58083334D01*
X8550000Y57383334D02*
X8550000Y58083334D01*
X8716666Y58083334D01*
X8816666Y58050000D01*
X8883333Y57983334D01*
X8916666Y57916667D01*
X8950000Y57783334D01*
X8950000Y57683334D01*
X8916666Y57550000D01*
X8883333Y57483334D01*
X8816666Y57416667D01*
X8716666Y57383334D01*
X8550000Y57383334D01*
X9616666Y57383334D02*
X9216666Y57383334D01*
X9416666Y57383334D02*
X9416666Y58083334D01*
X9350000Y57983334D01*
X9283333Y57916667D01*
X9216666Y57883334D01*
X9883333Y58016667D02*
X9916666Y58050000D01*
X9983333Y58083334D01*
X10150000Y58083334D01*
X10216666Y58050000D01*
X10250000Y58016667D01*
X10283333Y57950000D01*
X10283333Y57883334D01*
X10250000Y57783334D01*
X9850000Y57383334D01*
X10283333Y57383334D01*
X18450000Y57883334D02*
X18683333Y57183334D01*
X18916666Y57883334D01*
X19150000Y57183334D02*
X19150000Y57883334D01*
X19316666Y57883334D01*
X19416666Y57850000D01*
X19483333Y57783334D01*
X19516666Y57716667D01*
X19550000Y57583334D01*
X19550000Y57483334D01*
X19516666Y57350000D01*
X19483333Y57283334D01*
X19416666Y57216667D01*
X19316666Y57183334D01*
X19150000Y57183334D01*
X20216666Y57183334D02*
X19816666Y57183334D01*
X20016666Y57183334D02*
X20016666Y57883334D01*
X19950000Y57783334D01*
X19883333Y57716667D01*
X19816666Y57683334D01*
X20450000Y57883334D02*
X20883333Y57883334D01*
X20650000Y57616667D01*
X20750000Y57616667D01*
X20816666Y57583334D01*
X20850000Y57550000D01*
X20883333Y57483334D01*
X20883333Y57316667D01*
X20850000Y57250000D01*
X20816666Y57216667D01*
X20750000Y57183334D01*
X20550000Y57183334D01*
X20483333Y57216667D01*
X20450000Y57250000D01*
X13186500Y82732834D02*
X13419833Y82032834D01*
X13653166Y82732834D01*
X13886500Y82032834D02*
X13886500Y82732834D01*
X14053166Y82732834D01*
X14153166Y82699500D01*
X14219833Y82632834D01*
X14253166Y82566167D01*
X14286500Y82432834D01*
X14286500Y82332834D01*
X14253166Y82199500D01*
X14219833Y82132834D01*
X14153166Y82066167D01*
X14053166Y82032834D01*
X13886500Y82032834D01*
X14953166Y82032834D02*
X14553166Y82032834D01*
X14753166Y82032834D02*
X14753166Y82732834D01*
X14686500Y82632834D01*
X14619833Y82566167D01*
X14553166Y82532834D01*
X15553166Y82499500D02*
X15553166Y82032834D01*
X15386500Y82766167D02*
X15219833Y82266167D01*
X15653166Y82266167D01*
X9766666Y37816667D02*
X9866666Y37783334D01*
X10033333Y37783334D01*
X10100000Y37816667D01*
X10133333Y37850000D01*
X10166666Y37916667D01*
X10166666Y37983334D01*
X10133333Y38050000D01*
X10100000Y38083334D01*
X10033333Y38116667D01*
X9900000Y38150000D01*
X9833333Y38183334D01*
X9800000Y38216667D01*
X9766666Y38283334D01*
X9766666Y38350000D01*
X9800000Y38416667D01*
X9833333Y38450000D01*
X9900000Y38483334D01*
X10066666Y38483334D01*
X10166666Y38450000D01*
X10400000Y38483334D02*
X10566666Y37783334D01*
X10700000Y38283334D01*
X10833333Y37783334D01*
X11000000Y38483334D01*
X11233333Y38416667D02*
X11266666Y38450000D01*
X11333333Y38483334D01*
X11500000Y38483334D01*
X11566666Y38450000D01*
X11600000Y38416667D01*
X11633333Y38350000D01*
X11633333Y38283334D01*
X11600000Y38183334D01*
X11200000Y37783334D01*
X11633333Y37783334D01*
X15900000Y4183334D02*
X15500000Y4183334D01*
X15700000Y4183334D02*
X15700000Y4883334D01*
X15633333Y4783334D01*
X15566666Y4716667D01*
X15500000Y4683334D01*
X16200000Y4183334D02*
X16200000Y4883334D01*
X16600000Y4183334D01*
X16600000Y4883334D01*
X17233333Y4650000D02*
X17233333Y4183334D01*
X17066666Y4916667D02*
X16900000Y4416667D01*
X17333333Y4416667D01*
X17733333Y4883334D02*
X17800000Y4883334D01*
X17866666Y4850000D01*
X17900000Y4816667D01*
X17933333Y4750000D01*
X17966666Y4616667D01*
X17966666Y4450000D01*
X17933333Y4316667D01*
X17900000Y4250000D01*
X17866666Y4216667D01*
X17800000Y4183334D01*
X17733333Y4183334D01*
X17666666Y4216667D01*
X17633333Y4250000D01*
X17600000Y4316667D01*
X17566666Y4450000D01*
X17566666Y4616667D01*
X17600000Y4750000D01*
X17633333Y4816667D01*
X17666666Y4850000D01*
X17733333Y4883334D01*
X18400000Y4883334D02*
X18466666Y4883334D01*
X18533333Y4850000D01*
X18566666Y4816667D01*
X18600000Y4750000D01*
X18633333Y4616667D01*
X18633333Y4450000D01*
X18600000Y4316667D01*
X18566666Y4250000D01*
X18533333Y4216667D01*
X18466666Y4183334D01*
X18400000Y4183334D01*
X18333333Y4216667D01*
X18300000Y4250000D01*
X18266666Y4316667D01*
X18233333Y4450000D01*
X18233333Y4616667D01*
X18266666Y4750000D01*
X18300000Y4816667D01*
X18333333Y4850000D01*
X18400000Y4883334D01*
X19300000Y4183334D02*
X18900000Y4183334D01*
X19100000Y4183334D02*
X19100000Y4883334D01*
X19033333Y4783334D01*
X18966666Y4716667D01*
X18900000Y4683334D01*
X19183333Y6883334D02*
X19416666Y6183334D01*
X19650000Y6883334D01*
X19883333Y6183334D02*
X19883333Y6883334D01*
X20050000Y6883334D01*
X20150000Y6850000D01*
X20216666Y6783334D01*
X20250000Y6716667D01*
X20283333Y6583334D01*
X20283333Y6483334D01*
X20250000Y6350000D01*
X20216666Y6283334D01*
X20150000Y6216667D01*
X20050000Y6183334D01*
X19883333Y6183334D01*
X20950000Y6183334D02*
X20550000Y6183334D01*
X20750000Y6183334D02*
X20750000Y6883334D01*
X20683333Y6783334D01*
X20616666Y6716667D01*
X20550000Y6683334D01*
X15200000Y1283334D02*
X14800000Y1283334D01*
X15000000Y1283334D02*
X15000000Y1983334D01*
X14933333Y1883334D01*
X14866666Y1816667D01*
X14800000Y1783334D01*
X15500000Y1283334D02*
X15500000Y1983334D01*
X15900000Y1283334D01*
X15900000Y1983334D01*
X16533333Y1750000D02*
X16533333Y1283334D01*
X16366666Y2016667D02*
X16200000Y1516667D01*
X16633333Y1516667D01*
X17033333Y1983334D02*
X17100000Y1983334D01*
X17166666Y1950000D01*
X17200000Y1916667D01*
X17233333Y1850000D01*
X17266666Y1716667D01*
X17266666Y1550000D01*
X17233333Y1416667D01*
X17200000Y1350000D01*
X17166666Y1316667D01*
X17100000Y1283334D01*
X17033333Y1283334D01*
X16966666Y1316667D01*
X16933333Y1350000D01*
X16900000Y1416667D01*
X16866666Y1550000D01*
X16866666Y1716667D01*
X16900000Y1850000D01*
X16933333Y1916667D01*
X16966666Y1950000D01*
X17033333Y1983334D01*
X17700000Y1983334D02*
X17766666Y1983334D01*
X17833333Y1950000D01*
X17866666Y1916667D01*
X17900000Y1850000D01*
X17933333Y1716667D01*
X17933333Y1550000D01*
X17900000Y1416667D01*
X17866666Y1350000D01*
X17833333Y1316667D01*
X17766666Y1283334D01*
X17700000Y1283334D01*
X17633333Y1316667D01*
X17600000Y1350000D01*
X17566666Y1416667D01*
X17533333Y1550000D01*
X17533333Y1716667D01*
X17566666Y1850000D01*
X17600000Y1916667D01*
X17633333Y1950000D01*
X17700000Y1983334D01*
X18600000Y1283334D02*
X18200000Y1283334D01*
X18400000Y1283334D02*
X18400000Y1983334D01*
X18333333Y1883334D01*
X18266666Y1816667D01*
X18200000Y1783334D01*
X19783333Y3383334D02*
X20016666Y2683334D01*
X20250000Y3383334D01*
X20483333Y2683334D02*
X20483333Y3383334D01*
X20650000Y3383334D01*
X20750000Y3350000D01*
X20816666Y3283334D01*
X20850000Y3216667D01*
X20883333Y3083334D01*
X20883333Y2983334D01*
X20850000Y2850000D01*
X20816666Y2783334D01*
X20750000Y2716667D01*
X20650000Y2683334D01*
X20483333Y2683334D01*
X21116666Y3383334D02*
X21550000Y3383334D01*
X21316666Y3116667D01*
X21416666Y3116667D01*
X21483333Y3083334D01*
X21516666Y3050000D01*
X21550000Y2983334D01*
X21550000Y2816667D01*
X21516666Y2750000D01*
X21483333Y2716667D01*
X21416666Y2683334D01*
X21216666Y2683334D01*
X21150000Y2716667D01*
X21116666Y2750000D01*
X11000000Y53483334D02*
X11466666Y52783334D01*
X11466666Y53483334D02*
X11000000Y52783334D01*
X11700000Y52816667D02*
X11800000Y52783334D01*
X11966666Y52783334D01*
X12033333Y52816667D01*
X12066666Y52850000D01*
X12100000Y52916667D01*
X12100000Y52983334D01*
X12066666Y53050000D01*
X12033333Y53083334D01*
X11966666Y53116667D01*
X11833333Y53150000D01*
X11766666Y53183334D01*
X11733333Y53216667D01*
X11700000Y53283334D01*
X11700000Y53350000D01*
X11733333Y53416667D01*
X11766666Y53450000D01*
X11833333Y53483334D01*
X12000000Y53483334D01*
X12100000Y53450000D01*
X12333333Y53483334D02*
X12766666Y53483334D01*
X12533333Y53216667D01*
X12633333Y53216667D01*
X12700000Y53183334D01*
X12733333Y53150000D01*
X12766666Y53083334D01*
X12766666Y52916667D01*
X12733333Y52850000D01*
X12700000Y52816667D01*
X12633333Y52783334D01*
X12433333Y52783334D01*
X12366666Y52816667D01*
X12333333Y52850000D01*
X16200000Y53283334D02*
X16666666Y52583334D01*
X16666666Y53283334D02*
X16200000Y52583334D01*
X16900000Y52616667D02*
X17000000Y52583334D01*
X17166666Y52583334D01*
X17233333Y52616667D01*
X17266666Y52650000D01*
X17300000Y52716667D01*
X17300000Y52783334D01*
X17266666Y52850000D01*
X17233333Y52883334D01*
X17166666Y52916667D01*
X17033333Y52950000D01*
X16966666Y52983334D01*
X16933333Y53016667D01*
X16900000Y53083334D01*
X16900000Y53150000D01*
X16933333Y53216667D01*
X16966666Y53250000D01*
X17033333Y53283334D01*
X17200000Y53283334D01*
X17300000Y53250000D01*
X17900000Y53050000D02*
X17900000Y52583334D01*
X17733333Y53316667D02*
X17566666Y52816667D01*
X18000000Y52816667D01*
X8402000Y75049334D02*
X8868666Y74349334D01*
X8868666Y75049334D02*
X8402000Y74349334D01*
X9102000Y74382667D02*
X9202000Y74349334D01*
X9368666Y74349334D01*
X9435333Y74382667D01*
X9468666Y74416000D01*
X9502000Y74482667D01*
X9502000Y74549334D01*
X9468666Y74616000D01*
X9435333Y74649334D01*
X9368666Y74682667D01*
X9235333Y74716000D01*
X9168666Y74749334D01*
X9135333Y74782667D01*
X9102000Y74849334D01*
X9102000Y74916000D01*
X9135333Y74982667D01*
X9168666Y75016000D01*
X9235333Y75049334D01*
X9402000Y75049334D01*
X9502000Y75016000D01*
X10135333Y75049334D02*
X9802000Y75049334D01*
X9768666Y74716000D01*
X9802000Y74749334D01*
X9868666Y74782667D01*
X10035333Y74782667D01*
X10102000Y74749334D01*
X10135333Y74716000D01*
X10168666Y74649334D01*
X10168666Y74482667D01*
X10135333Y74416000D01*
X10102000Y74382667D01*
X10035333Y74349334D01*
X9868666Y74349334D01*
X9802000Y74382667D01*
X9768666Y74416000D01*
X1798000Y70717334D02*
X2264666Y70017334D01*
X2264666Y70717334D02*
X1798000Y70017334D01*
X2498000Y70050667D02*
X2598000Y70017334D01*
X2764666Y70017334D01*
X2831333Y70050667D01*
X2864666Y70084000D01*
X2898000Y70150667D01*
X2898000Y70217334D01*
X2864666Y70284000D01*
X2831333Y70317334D01*
X2764666Y70350667D01*
X2631333Y70384000D01*
X2564666Y70417334D01*
X2531333Y70450667D01*
X2498000Y70517334D01*
X2498000Y70584000D01*
X2531333Y70650667D01*
X2564666Y70684000D01*
X2631333Y70717334D01*
X2798000Y70717334D01*
X2898000Y70684000D01*
X3498000Y70717334D02*
X3364666Y70717334D01*
X3298000Y70684000D01*
X3264666Y70650667D01*
X3198000Y70550667D01*
X3164666Y70417334D01*
X3164666Y70150667D01*
X3198000Y70084000D01*
X3231333Y70050667D01*
X3298000Y70017334D01*
X3431333Y70017334D01*
X3498000Y70050667D01*
X3531333Y70084000D01*
X3564666Y70150667D01*
X3564666Y70317334D01*
X3531333Y70384000D01*
X3498000Y70417334D01*
X3431333Y70450667D01*
X3298000Y70450667D01*
X3231333Y70417334D01*
X3198000Y70384000D01*
X3164666Y70317334D01*
X24800000Y70783334D02*
X25266666Y70083334D01*
X25266666Y70783334D02*
X24800000Y70083334D01*
X25500000Y70116667D02*
X25600000Y70083334D01*
X25766666Y70083334D01*
X25833333Y70116667D01*
X25866666Y70150000D01*
X25900000Y70216667D01*
X25900000Y70283334D01*
X25866666Y70350000D01*
X25833333Y70383334D01*
X25766666Y70416667D01*
X25633333Y70450000D01*
X25566666Y70483334D01*
X25533333Y70516667D01*
X25500000Y70583334D01*
X25500000Y70650000D01*
X25533333Y70716667D01*
X25566666Y70750000D01*
X25633333Y70783334D01*
X25800000Y70783334D01*
X25900000Y70750000D01*
X26133333Y70783334D02*
X26600000Y70783334D01*
X26300000Y70083334D01*
X25402000Y75049334D02*
X25868666Y74349334D01*
X25868666Y75049334D02*
X25402000Y74349334D01*
X26102000Y74382667D02*
X26202000Y74349334D01*
X26368666Y74349334D01*
X26435333Y74382667D01*
X26468666Y74416000D01*
X26502000Y74482667D01*
X26502000Y74549334D01*
X26468666Y74616000D01*
X26435333Y74649334D01*
X26368666Y74682667D01*
X26235333Y74716000D01*
X26168666Y74749334D01*
X26135333Y74782667D01*
X26102000Y74849334D01*
X26102000Y74916000D01*
X26135333Y74982667D01*
X26168666Y75016000D01*
X26235333Y75049334D01*
X26402000Y75049334D01*
X26502000Y75016000D01*
X26902000Y74749334D02*
X26835333Y74782667D01*
X26802000Y74816000D01*
X26768666Y74882667D01*
X26768666Y74916000D01*
X26802000Y74982667D01*
X26835333Y75016000D01*
X26902000Y75049334D01*
X27035333Y75049334D01*
X27102000Y75016000D01*
X27135333Y74982667D01*
X27168666Y74916000D01*
X27168666Y74882667D01*
X27135333Y74816000D01*
X27102000Y74782667D01*
X27035333Y74749334D01*
X26902000Y74749334D01*
X26835333Y74716000D01*
X26802000Y74682667D01*
X26768666Y74616000D01*
X26768666Y74482667D01*
X26802000Y74416000D01*
X26835333Y74382667D01*
X26902000Y74349334D01*
X27035333Y74349334D01*
X27102000Y74382667D01*
X27135333Y74416000D01*
X27168666Y74482667D01*
X27168666Y74616000D01*
X27135333Y74682667D01*
X27102000Y74716000D01*
X27035333Y74749334D01*
M02*
