M48
;DRILL file {KiCad (2016-08-20 BZR 7083)-product} date Sun Feb  5 21:12:04 2017
;FORMAT={3:3/ absolute / metric / suppress leading zeros}
FMAT,2
METRIC,TZ
T1C0.500
T2C0.700
T3C0.800
T4C0.900
T5C1.000
T6C1.100
T7C1.400
T8C1.500
T9C3.200
%
G90
G05
M71
T1
X1100Y4300
X1200Y104700
X1200Y10700
X1300Y52500
X1400Y77900
X1700Y65000
X2600Y93200
X2600Y30900
X2800Y100700
X2800Y48600
X3000Y44000
X3700Y29800
X4300Y82800
X5300Y5000
X5900Y31900
X6400Y45800
X6500Y95300
X7600Y88400
X7600Y83500
X7900Y60400
X8600Y21600
X8700Y51900
X9300Y75300
X9600Y66700
X10300Y91500
X10300Y88900
X10400Y46500
X10800Y39600
X11000Y103200
X11500Y92700
X11500Y27600
X11700Y42100
X12100Y30300
X12500Y32800
X13600Y29100
X13800Y3200
X14500Y24000
X14600Y68900
X14600Y65000
X14800Y98400
X15700Y26600
X16400Y59200
X16700Y33000
X17000Y54300
X17300Y86500
X18400Y92500
X18800Y66300
X19600Y72700
X19700Y81500
X19800Y90500
X19800Y3500
X20800Y36500
X21000Y58900
X21300Y51300
X21800Y89100
X21800Y8700
X22400Y35500
X22900Y27800
X23100Y45800
X23400Y50400
X23900Y82400
X24100Y1200
X24200Y86400
X24300Y18300
X24400Y61900
X24700Y50000
X24800Y95500
X24900Y54500
X24900Y48600
X25600Y42000
X25600Y38900
X26100Y36200
X26100Y33200
X26800Y48500
X27400Y104500
X27400Y67000
X27500Y52000
X27600Y23000
X27700Y77800
X28000Y1200
X28100Y45900
T2
X7300Y6240
X7300Y1160
X9300Y6240
X9300Y1160
X20360Y22500
X25440Y22500
T3
X4730Y56500
X4730Y28000
X7270Y56500
X7270Y28000
X9700Y27900
X10800Y43500
X12500Y64500
X12500Y56900
X13230Y80000
X15770Y80000
X17300Y27900
X18400Y43500
X18400Y41500
X18400Y33900
X21730Y56500
X24270Y56500
T4
X2350Y23500
X2350Y17000
X4850Y23500
X4850Y17000
T5
X1250Y102100
X1250Y99560
X1250Y97020
X1250Y94480
X1250Y91940
X1250Y89400
X1250Y42600
X1250Y40060
X1250Y37520
X1250Y34980
X1250Y32440
X1250Y29900
X1800Y12680
X1800Y2520
X4800Y12680
X4800Y2520
X5700Y43800
X8300Y30600
X8700Y43800
X11920Y4500
X11920Y1600
X12000Y91000
X12000Y88500
X12200Y46000
X12500Y76800
X12500Y66800
X14500Y91000
X14500Y88500
X15200Y46000
X16500Y76800
X16500Y66800
X17000Y91000
X17000Y88500
X18300Y30600
X20750Y31250
X20750Y24750
X21000Y43900
X21000Y33900
X22080Y4500
X22080Y1600
X24000Y43900
X24000Y33900
X24830Y13680
X24830Y11140
X24830Y8600
X24830Y6060
X24830Y3520
X25250Y31250
X25250Y24750
X27370Y13680
X27370Y11140
X27370Y8600
X27370Y6060
X27370Y3520
X27750Y102100
X27750Y99560
X27750Y97020
X27750Y94480
X27750Y91940
X27750Y89400
X27750Y42600
X27750Y40060
X27750Y37520
X27750Y34980
X27750Y32440
X27750Y29900
T6
X1174Y50000
X6000Y84826
X6000Y76698
X6000Y73650
X6000Y71350
X6000Y68302
X6000Y60174
X9302Y50000
X12350Y50000
X16650Y50000
X19698Y50000
X23000Y84826
X23000Y76698
X23000Y73650
X23000Y71350
X23000Y68302
X23000Y60174
X27826Y50000
T7
X9500Y98500
X19500Y98500
T8
X11500Y25000
X17500Y25000
T9
X5800Y37800
T4
X14100Y40540G85X14900Y40540
G05
X14100Y38000G85X14900Y38000
G05
X14100Y35460G85X14900Y35460
G05
T0
M30
