G04 #@! TF.GenerationSoftware,KiCad,Pcbnew,(5.0.0-rc2)*
G04 #@! TF.CreationDate,2020-07-08T18:40:00+03:00*
G04 #@! TF.ProjectId,MIDIPNL2,4D494449504E4C322E6B696361645F70,rev?*
G04 #@! TF.SameCoordinates,PX23c3460PY84157a0*
G04 #@! TF.FileFunction,Profile,NP*
%FSLAX46Y46*%
G04 Gerber Fmt 4.6, Leading zero omitted, Abs format (unit mm)*
G04 Created by KiCad (PCBNEW (5.0.0-rc2)) date Wed Jul  8 18:40:00 2020*
%MOMM*%
%LPD*%
G01*
G04 APERTURE LIST*
%ADD10C,0.100000*%
G04 #@! TA.AperFunction,NonConductor*
%ADD11C,0.120000*%
G04 #@! TD*
G04 APERTURE END LIST*
D10*
X0Y128500000D02*
X0Y0D01*
X30000000Y128500000D02*
X0Y128500000D01*
X30000000Y0D02*
X30000000Y128500000D01*
X0Y0D02*
X30000000Y0D01*
D11*
G04 #@! TO.C,Ref\002A\002A*
X18250000Y46500000D02*
G75*
G03X18250000Y46500000I-3250000J0D01*
G01*
X18750000Y107000000D02*
G75*
G03X18750000Y107000000I-3750000J0D01*
G01*
G04 #@! TO.C,X*
X6600000Y127100000D02*
X8400000Y127100000D01*
X6600000Y123900000D02*
X8400000Y123900000D01*
X5000000Y125500000D02*
G75*
G03X6600000Y123900000I1600000J0D01*
G01*
X6600000Y127100000D02*
G75*
G03X5000000Y125500000I0J-1600000D01*
G01*
X8400000Y123900000D02*
G75*
G03X10000000Y125500000I0J1600000D01*
G01*
X10000000Y125500000D02*
G75*
G03X8400000Y127100000I-1600000J0D01*
G01*
X10000000Y3000000D02*
G75*
G03X8400000Y4600000I-1600000J0D01*
G01*
X8400000Y1400000D02*
G75*
G03X10000000Y3000000I0J1600000D01*
G01*
X6600000Y4600000D02*
G75*
G03X5000000Y3000000I0J-1600000D01*
G01*
X5000000Y3000000D02*
G75*
G03X6600000Y1400000I1600000J0D01*
G01*
X6600000Y1400000D02*
X8400000Y1400000D01*
X6600000Y4600000D02*
X8400000Y4600000D01*
G04 #@! TO.C,Ref\002A\002A*
X8100000Y36500000D02*
G75*
G03X8100000Y36500000I-1600000J0D01*
G01*
X25100000Y36500000D02*
G75*
G03X25100000Y36500000I-1600000J0D01*
G01*
X8100000Y65000000D02*
G75*
G03X8100000Y65000000I-1600000J0D01*
G01*
X25100000Y65000000D02*
G75*
G03X25100000Y65000000I-1600000J0D01*
G01*
X16600000Y88500000D02*
G75*
G03X16600000Y88500000I-1600000J0D01*
G01*
X9750000Y88500000D02*
G75*
G03X9750000Y88500000I-3250000J0D01*
G01*
X26750000Y88500000D02*
G75*
G03X26750000Y88500000I-3250000J0D01*
G01*
X9750000Y73500000D02*
G75*
G03X9750000Y73500000I-3250000J0D01*
G01*
X26750000Y73500000D02*
G75*
G03X26750000Y73500000I-3250000J0D01*
G01*
X9750000Y58500000D02*
G75*
G03X9750000Y58500000I-3250000J0D01*
G01*
X26750000Y58500000D02*
G75*
G03X26750000Y58500000I-3250000J0D01*
G01*
X23000000Y22500000D02*
G75*
G03X23000000Y22500000I-8000000J0D01*
G01*
X5600000Y22500000D02*
G75*
G03X5600000Y22500000I-1600000J0D01*
G01*
X27600000Y22500000D02*
G75*
G03X27600000Y22500000I-1600000J0D01*
G01*
G04 #@! TD*
M02*
