%FSLAX45Y45*%
G04 Gerber Fmt 4.5, Leading zero omitted, Abs format (unit mm)*
G04 Created by KiCad (PCBNEW (5.0.0-rc2)) date Wed Jul  8 18:40:03 2020*
%MOMM*%
%LPD*%
G01*
G04 APERTURE LIST*
%ADD10C,0.100000*%
%ADD11C,0.200000*%
%ADD12C,0.300000*%
G04 APERTURE END LIST*
D10*
X0Y12850000D02*
X0Y0D01*
X3000000Y12850000D02*
X0Y12850000D01*
X3000000Y0D02*
X3000000Y12850000D01*
X0Y0D02*
X3000000Y0D01*
D11*
X1340000Y9010000D02*
X1660000Y8690000D01*
X1660000Y9010000D02*
X1340000Y8690000D01*
X490000Y6660000D02*
X810000Y6340000D01*
X810000Y6660000D02*
X490000Y6340000D01*
X2190000Y3810000D02*
X2510000Y3490000D01*
X2510000Y3810000D02*
X2190000Y3490000D01*
X240000Y2410000D02*
X560000Y2090000D01*
X560000Y2410000D02*
X240000Y2090000D01*
X590000Y12710000D02*
X910000Y12390000D01*
X910000Y12710000D02*
X590000Y12390000D01*
X660000Y12400000D02*
X840000Y12400000D01*
X660000Y12700000D02*
X840000Y12700000D01*
X840000Y12400000D02*
G75*
G03X840000Y12700000I0J150000D01*
G01*
X660000Y12700000D02*
G75*
G03X660000Y12400000I0J-150000D01*
G01*
X590000Y460000D02*
X910000Y140000D01*
X910000Y460000D02*
X590000Y140000D01*
X660000Y150000D02*
X840000Y150000D01*
X660000Y450000D02*
X840000Y450000D01*
X840000Y150000D02*
G75*
G03X840000Y450000I0J150000D01*
G01*
X660000Y450000D02*
G75*
G03X660000Y150000I0J-150000D01*
G01*
X490000Y3810000D02*
X810000Y3490000D01*
X810000Y3810000D02*
X490000Y3490000D01*
X2190000Y6660000D02*
X2510000Y6340000D01*
X2510000Y6660000D02*
X2190000Y6340000D01*
X2440000Y2410000D02*
X2760000Y2090000D01*
X2760000Y2410000D02*
X2440000Y2090000D01*
X975000Y7350000D02*
G75*
G03X975000Y7350000I-325000J0D01*
G01*
X2675000Y5850000D02*
G75*
G03X2675000Y5850000I-325000J0D01*
G01*
X2675000Y8850000D02*
G75*
G03X2675000Y8850000I-325000J0D01*
G01*
X1825000Y4650000D02*
G75*
G03X1825000Y4650000I-325000J0D01*
G01*
X2675000Y7350000D02*
G75*
G03X2675000Y7350000I-325000J0D01*
G01*
X975000Y8850000D02*
G75*
G03X975000Y8850000I-325000J0D01*
G01*
X975000Y5850000D02*
G75*
G03X975000Y5850000I-325000J0D01*
G01*
X1500000Y11075000D02*
X1500000Y10325000D01*
X1125000Y10700000D02*
X1875000Y10700000D01*
X2065691Y1684309D02*
X2065691Y2815691D01*
X934309Y2815691D01*
X934309Y1684309D01*
X2065691Y1684309D01*
D12*
X281428Y-470714D02*
X281428Y-170714D01*
X352857Y-170714D01*
X395714Y-185000D01*
X424286Y-213571D01*
X438571Y-242143D01*
X452857Y-299286D01*
X452857Y-342143D01*
X438571Y-399286D01*
X424286Y-427857D01*
X395714Y-456429D01*
X352857Y-470714D01*
X281428Y-470714D01*
X581428Y-470714D02*
X581428Y-270714D01*
X581428Y-327857D02*
X595714Y-299286D01*
X610000Y-285000D01*
X638571Y-270714D01*
X667143Y-270714D01*
X767143Y-470714D02*
X767143Y-270714D01*
X767143Y-170714D02*
X752857Y-185000D01*
X767143Y-199286D01*
X781428Y-185000D01*
X767143Y-170714D01*
X767143Y-199286D01*
X952857Y-470714D02*
X924286Y-456429D01*
X910000Y-427857D01*
X910000Y-170714D01*
X1110000Y-470714D02*
X1081428Y-456429D01*
X1067143Y-427857D01*
X1067143Y-170714D01*
X1452857Y-470714D02*
X1452857Y-170714D01*
X1552857Y-385000D01*
X1652857Y-170714D01*
X1652857Y-470714D01*
X1924286Y-470714D02*
X1924286Y-313572D01*
X1910000Y-285000D01*
X1881428Y-270714D01*
X1824286Y-270714D01*
X1795714Y-285000D01*
X1924286Y-456429D02*
X1895714Y-470714D01*
X1824286Y-470714D01*
X1795714Y-456429D01*
X1781428Y-427857D01*
X1781428Y-399286D01*
X1795714Y-370714D01*
X1824286Y-356429D01*
X1895714Y-356429D01*
X1924286Y-342143D01*
X2067143Y-270714D02*
X2067143Y-570714D01*
X2067143Y-285000D02*
X2095714Y-270714D01*
X2152857Y-270714D01*
X2181428Y-285000D01*
X2195714Y-299286D01*
X2210000Y-327857D01*
X2210000Y-413571D01*
X2195714Y-442143D01*
X2181428Y-456429D01*
X2152857Y-470714D01*
X2095714Y-470714D01*
X2067143Y-456429D01*
X2338571Y-442143D02*
X2352857Y-456429D01*
X2338571Y-470714D01*
X2324286Y-456429D01*
X2338571Y-442143D01*
X2338571Y-470714D01*
X2338571Y-285000D02*
X2352857Y-299286D01*
X2338571Y-313572D01*
X2324286Y-299286D01*
X2338571Y-285000D01*
X2338571Y-313572D01*
X-325000Y-805000D02*
X-5000Y-1125000D01*
X-5000Y-805000D02*
X-325000Y-1125000D01*
X252857Y-800714D02*
X438571Y-800714D01*
X338571Y-915000D01*
X381428Y-915000D01*
X410000Y-929286D01*
X424286Y-943571D01*
X438571Y-972143D01*
X438571Y-1043571D01*
X424286Y-1072143D01*
X410000Y-1086429D01*
X381428Y-1100714D01*
X295714Y-1100714D01*
X267143Y-1086429D01*
X252857Y-1072143D01*
X567143Y-1072143D02*
X581428Y-1086429D01*
X567143Y-1100714D01*
X552857Y-1086429D01*
X567143Y-1072143D01*
X567143Y-1100714D01*
X695714Y-829286D02*
X710000Y-815000D01*
X738571Y-800714D01*
X810000Y-800714D01*
X838571Y-815000D01*
X852857Y-829286D01*
X867143Y-857857D01*
X867143Y-886429D01*
X852857Y-929286D01*
X681428Y-1100714D01*
X867143Y-1100714D01*
X1052857Y-800714D02*
X1081428Y-800714D01*
X1110000Y-815000D01*
X1124286Y-829286D01*
X1138571Y-857857D01*
X1152857Y-915000D01*
X1152857Y-986429D01*
X1138571Y-1043571D01*
X1124286Y-1072143D01*
X1110000Y-1086429D01*
X1081428Y-1100714D01*
X1052857Y-1100714D01*
X1024286Y-1086429D01*
X1010000Y-1072143D01*
X995714Y-1043571D01*
X981428Y-986429D01*
X981428Y-915000D01*
X995714Y-857857D01*
X1010000Y-829286D01*
X1024286Y-815000D01*
X1052857Y-800714D01*
X1281428Y-1100714D02*
X1281428Y-900714D01*
X1281428Y-929286D02*
X1295714Y-915000D01*
X1324286Y-900714D01*
X1367143Y-900714D01*
X1395714Y-915000D01*
X1410000Y-943571D01*
X1410000Y-1100714D01*
X1410000Y-943571D02*
X1424286Y-915000D01*
X1452857Y-900714D01*
X1495714Y-900714D01*
X1524286Y-915000D01*
X1538571Y-943571D01*
X1538571Y-1100714D01*
X1681428Y-1100714D02*
X1681428Y-900714D01*
X1681428Y-929286D02*
X1695714Y-915000D01*
X1724286Y-900714D01*
X1767143Y-900714D01*
X1795714Y-915000D01*
X1810000Y-943571D01*
X1810000Y-1100714D01*
X1810000Y-943571D02*
X1824286Y-915000D01*
X1852857Y-900714D01*
X1895714Y-900714D01*
X1924286Y-915000D01*
X1938571Y-943571D01*
X1938571Y-1100714D01*
X2524286Y-786429D02*
X2267143Y-1172143D01*
X2910000Y-800714D02*
X2938571Y-800714D01*
X2967143Y-815000D01*
X2981428Y-829286D01*
X2995714Y-857857D01*
X3010000Y-915000D01*
X3010000Y-986429D01*
X2995714Y-1043571D01*
X2981428Y-1072143D01*
X2967143Y-1086429D01*
X2938571Y-1100714D01*
X2910000Y-1100714D01*
X2881428Y-1086429D01*
X2867143Y-1072143D01*
X2852857Y-1043571D01*
X2838571Y-986429D01*
X2838571Y-915000D01*
X2852857Y-857857D01*
X2867143Y-829286D01*
X2881428Y-815000D01*
X2910000Y-800714D01*
X3138571Y-1072143D02*
X3152857Y-1086429D01*
X3138571Y-1100714D01*
X3124286Y-1086429D01*
X3138571Y-1072143D01*
X3138571Y-1100714D01*
X3438571Y-1100714D02*
X3267143Y-1100714D01*
X3352857Y-1100714D02*
X3352857Y-800714D01*
X3324286Y-843571D01*
X3295714Y-872143D01*
X3267143Y-886429D01*
X3552857Y-829286D02*
X3567143Y-815000D01*
X3595714Y-800714D01*
X3667143Y-800714D01*
X3695714Y-815000D01*
X3710000Y-829286D01*
X3724286Y-857857D01*
X3724286Y-886429D01*
X3710000Y-929286D01*
X3538571Y-1100714D01*
X3724286Y-1100714D01*
X3981428Y-800714D02*
X3924286Y-800714D01*
X3895714Y-815000D01*
X3881428Y-829286D01*
X3852857Y-872143D01*
X3838571Y-929286D01*
X3838571Y-1043571D01*
X3852857Y-1072143D01*
X3867143Y-1086429D01*
X3895714Y-1100714D01*
X3952857Y-1100714D01*
X3981428Y-1086429D01*
X3995714Y-1072143D01*
X4010000Y-1043571D01*
X4010000Y-972143D01*
X3995714Y-943571D01*
X3981428Y-929286D01*
X3952857Y-915000D01*
X3895714Y-915000D01*
X3867143Y-929286D01*
X3852857Y-943571D01*
X3838571Y-972143D01*
X4124286Y-800714D02*
X4124286Y-857857D01*
X4238571Y-800714D02*
X4238571Y-857857D01*
X4681428Y-1215000D02*
X4667143Y-1200714D01*
X4638571Y-1157857D01*
X4624286Y-1129286D01*
X4610000Y-1086429D01*
X4595714Y-1015000D01*
X4595714Y-957857D01*
X4610000Y-886429D01*
X4624286Y-843571D01*
X4638571Y-815000D01*
X4667143Y-772143D01*
X4681428Y-757857D01*
X4767143Y-800714D02*
X4967143Y-800714D01*
X4838571Y-1100714D01*
X5310000Y-1100714D02*
X5310000Y-800714D01*
X5438571Y-1100714D02*
X5438571Y-943571D01*
X5424286Y-915000D01*
X5395714Y-900714D01*
X5352857Y-900714D01*
X5324286Y-915000D01*
X5310000Y-929286D01*
X5624286Y-1100714D02*
X5595714Y-1086429D01*
X5581428Y-1072143D01*
X5567143Y-1043571D01*
X5567143Y-957857D01*
X5581428Y-929286D01*
X5595714Y-915000D01*
X5624286Y-900714D01*
X5667143Y-900714D01*
X5695714Y-915000D01*
X5710000Y-929286D01*
X5724286Y-957857D01*
X5724286Y-1043571D01*
X5710000Y-1072143D01*
X5695714Y-1086429D01*
X5667143Y-1100714D01*
X5624286Y-1100714D01*
X5895714Y-1100714D02*
X5867143Y-1086429D01*
X5852857Y-1057857D01*
X5852857Y-800714D01*
X6124286Y-1086429D02*
X6095714Y-1100714D01*
X6038571Y-1100714D01*
X6010000Y-1086429D01*
X5995714Y-1057857D01*
X5995714Y-943571D01*
X6010000Y-915000D01*
X6038571Y-900714D01*
X6095714Y-900714D01*
X6124286Y-915000D01*
X6138571Y-943571D01*
X6138571Y-972143D01*
X5995714Y-1000714D01*
X6252857Y-1086429D02*
X6281428Y-1100714D01*
X6338571Y-1100714D01*
X6367143Y-1086429D01*
X6381428Y-1057857D01*
X6381428Y-1043571D01*
X6367143Y-1015000D01*
X6338571Y-1000714D01*
X6295714Y-1000714D01*
X6267143Y-986429D01*
X6252857Y-957857D01*
X6252857Y-943571D01*
X6267143Y-915000D01*
X6295714Y-900714D01*
X6338571Y-900714D01*
X6367143Y-915000D01*
X6738571Y-986429D02*
X6967143Y-986429D01*
X6852857Y-1100714D02*
X6852857Y-872143D01*
X7324286Y-829286D02*
X7338571Y-815000D01*
X7367143Y-800714D01*
X7438571Y-800714D01*
X7467143Y-815000D01*
X7481428Y-829286D01*
X7495714Y-857857D01*
X7495714Y-886429D01*
X7481428Y-929286D01*
X7310000Y-1100714D01*
X7495714Y-1100714D01*
X7838571Y-1086429D02*
X7867143Y-1100714D01*
X7924286Y-1100714D01*
X7952857Y-1086429D01*
X7967143Y-1057857D01*
X7967143Y-1043571D01*
X7952857Y-1015000D01*
X7924286Y-1000714D01*
X7881428Y-1000714D01*
X7852857Y-986429D01*
X7838571Y-957857D01*
X7838571Y-943571D01*
X7852857Y-915000D01*
X7881428Y-900714D01*
X7924286Y-900714D01*
X7952857Y-915000D01*
X8138571Y-1100714D02*
X8110000Y-1086429D01*
X8095714Y-1057857D01*
X8095714Y-800714D01*
X8295714Y-1100714D02*
X8267143Y-1086429D01*
X8252857Y-1072143D01*
X8238571Y-1043571D01*
X8238571Y-957857D01*
X8252857Y-929286D01*
X8267143Y-915000D01*
X8295714Y-900714D01*
X8338571Y-900714D01*
X8367143Y-915000D01*
X8381428Y-929286D01*
X8395714Y-957857D01*
X8395714Y-1043571D01*
X8381428Y-1072143D01*
X8367143Y-1086429D01*
X8338571Y-1100714D01*
X8295714Y-1100714D01*
X8481428Y-900714D02*
X8595714Y-900714D01*
X8524286Y-800714D02*
X8524286Y-1057857D01*
X8538571Y-1086429D01*
X8567143Y-1100714D01*
X8595714Y-1100714D01*
X8681428Y-1086429D02*
X8710000Y-1100714D01*
X8767143Y-1100714D01*
X8795714Y-1086429D01*
X8810000Y-1057857D01*
X8810000Y-1043571D01*
X8795714Y-1015000D01*
X8767143Y-1000714D01*
X8724286Y-1000714D01*
X8695714Y-986429D01*
X8681428Y-957857D01*
X8681428Y-943571D01*
X8695714Y-915000D01*
X8724286Y-900714D01*
X8767143Y-900714D01*
X8795714Y-915000D01*
X8910000Y-1215000D02*
X8924286Y-1200714D01*
X8952857Y-1157857D01*
X8967143Y-1129286D01*
X8981428Y-1086429D01*
X8995714Y-1015000D01*
X8995714Y-957857D01*
X8981428Y-886429D01*
X8967143Y-843571D01*
X8952857Y-815000D01*
X8924286Y-772143D01*
X8910000Y-757857D01*
X9452857Y-1215000D02*
X9438571Y-1200714D01*
X9410000Y-1157857D01*
X9395714Y-1129286D01*
X9381428Y-1086429D01*
X9367143Y-1015000D01*
X9367143Y-957857D01*
X9381428Y-886429D01*
X9395714Y-843571D01*
X9410000Y-815000D01*
X9438571Y-772143D01*
X9452857Y-757857D01*
X9567143Y-900714D02*
X9567143Y-1100714D01*
X9567143Y-929286D02*
X9581428Y-915000D01*
X9610000Y-900714D01*
X9652857Y-900714D01*
X9681428Y-915000D01*
X9695714Y-943571D01*
X9695714Y-1100714D01*
X9881428Y-1100714D02*
X9852857Y-1086429D01*
X9838571Y-1072143D01*
X9824286Y-1043571D01*
X9824286Y-957857D01*
X9838571Y-929286D01*
X9852857Y-915000D01*
X9881428Y-900714D01*
X9924286Y-900714D01*
X9952857Y-915000D01*
X9967143Y-929286D01*
X9981428Y-957857D01*
X9981428Y-1043571D01*
X9967143Y-1072143D01*
X9952857Y-1086429D01*
X9924286Y-1100714D01*
X9881428Y-1100714D01*
X10067143Y-900714D02*
X10181428Y-900714D01*
X10110000Y-800714D02*
X10110000Y-1057857D01*
X10124286Y-1086429D01*
X10152857Y-1100714D01*
X10181428Y-1100714D01*
X10510000Y-900714D02*
X10510000Y-1200714D01*
X10510000Y-915000D02*
X10538571Y-900714D01*
X10595714Y-900714D01*
X10624286Y-915000D01*
X10638571Y-929286D01*
X10652857Y-957857D01*
X10652857Y-1043571D01*
X10638571Y-1072143D01*
X10624286Y-1086429D01*
X10595714Y-1100714D01*
X10538571Y-1100714D01*
X10510000Y-1086429D01*
X10824286Y-1100714D02*
X10795714Y-1086429D01*
X10781428Y-1057857D01*
X10781428Y-800714D01*
X11067143Y-1100714D02*
X11067143Y-943571D01*
X11052857Y-915000D01*
X11024286Y-900714D01*
X10967143Y-900714D01*
X10938571Y-915000D01*
X11067143Y-1086429D02*
X11038571Y-1100714D01*
X10967143Y-1100714D01*
X10938571Y-1086429D01*
X10924286Y-1057857D01*
X10924286Y-1029286D01*
X10938571Y-1000714D01*
X10967143Y-986429D01*
X11038571Y-986429D01*
X11067143Y-972143D01*
X11167143Y-900714D02*
X11281428Y-900714D01*
X11210000Y-800714D02*
X11210000Y-1057857D01*
X11224286Y-1086429D01*
X11252857Y-1100714D01*
X11281428Y-1100714D01*
X11495714Y-1086429D02*
X11467143Y-1100714D01*
X11410000Y-1100714D01*
X11381428Y-1086429D01*
X11367143Y-1057857D01*
X11367143Y-943571D01*
X11381428Y-915000D01*
X11410000Y-900714D01*
X11467143Y-900714D01*
X11495714Y-915000D01*
X11510000Y-943571D01*
X11510000Y-972143D01*
X11367143Y-1000714D01*
X11767143Y-1100714D02*
X11767143Y-800714D01*
X11767143Y-1086429D02*
X11738571Y-1100714D01*
X11681428Y-1100714D01*
X11652857Y-1086429D01*
X11638571Y-1072143D01*
X11624286Y-1043571D01*
X11624286Y-957857D01*
X11638571Y-929286D01*
X11652857Y-915000D01*
X11681428Y-900714D01*
X11738571Y-900714D01*
X11767143Y-915000D01*
X11881428Y-1215000D02*
X11895714Y-1200714D01*
X11924286Y-1157857D01*
X11938571Y-1129286D01*
X11952857Y-1086429D01*
X11967143Y-1015000D01*
X11967143Y-957857D01*
X11952857Y-886429D01*
X11938571Y-843571D01*
X11924286Y-815000D01*
X11895714Y-772143D01*
X11881428Y-757857D01*
X-5000Y-1415000D02*
G75*
G03X-5000Y-1415000I-325000J0D01*
G01*
X410000Y-1250714D02*
X352857Y-1250714D01*
X324286Y-1265000D01*
X310000Y-1279286D01*
X281428Y-1322143D01*
X267143Y-1379286D01*
X267143Y-1493571D01*
X281428Y-1522143D01*
X295714Y-1536429D01*
X324286Y-1550714D01*
X381428Y-1550714D01*
X410000Y-1536429D01*
X424286Y-1522143D01*
X438571Y-1493571D01*
X438571Y-1422143D01*
X424286Y-1393572D01*
X410000Y-1379286D01*
X381428Y-1365000D01*
X324286Y-1365000D01*
X295714Y-1379286D01*
X281428Y-1393572D01*
X267143Y-1422143D01*
X567143Y-1522143D02*
X581428Y-1536429D01*
X567143Y-1550714D01*
X552857Y-1536429D01*
X567143Y-1522143D01*
X567143Y-1550714D01*
X852857Y-1250714D02*
X710000Y-1250714D01*
X695714Y-1393572D01*
X710000Y-1379286D01*
X738571Y-1365000D01*
X810000Y-1365000D01*
X838571Y-1379286D01*
X852857Y-1393572D01*
X867143Y-1422143D01*
X867143Y-1493571D01*
X852857Y-1522143D01*
X838571Y-1536429D01*
X810000Y-1550714D01*
X738571Y-1550714D01*
X710000Y-1536429D01*
X695714Y-1522143D01*
X1052857Y-1250714D02*
X1081428Y-1250714D01*
X1110000Y-1265000D01*
X1124286Y-1279286D01*
X1138571Y-1307857D01*
X1152857Y-1365000D01*
X1152857Y-1436429D01*
X1138571Y-1493571D01*
X1124286Y-1522143D01*
X1110000Y-1536429D01*
X1081428Y-1550714D01*
X1052857Y-1550714D01*
X1024286Y-1536429D01*
X1010000Y-1522143D01*
X995714Y-1493571D01*
X981428Y-1436429D01*
X981428Y-1365000D01*
X995714Y-1307857D01*
X1010000Y-1279286D01*
X1024286Y-1265000D01*
X1052857Y-1250714D01*
X1281428Y-1550714D02*
X1281428Y-1350714D01*
X1281428Y-1379286D02*
X1295714Y-1365000D01*
X1324286Y-1350714D01*
X1367143Y-1350714D01*
X1395714Y-1365000D01*
X1410000Y-1393572D01*
X1410000Y-1550714D01*
X1410000Y-1393572D02*
X1424286Y-1365000D01*
X1452857Y-1350714D01*
X1495714Y-1350714D01*
X1524286Y-1365000D01*
X1538571Y-1393572D01*
X1538571Y-1550714D01*
X1681428Y-1550714D02*
X1681428Y-1350714D01*
X1681428Y-1379286D02*
X1695714Y-1365000D01*
X1724286Y-1350714D01*
X1767143Y-1350714D01*
X1795714Y-1365000D01*
X1810000Y-1393572D01*
X1810000Y-1550714D01*
X1810000Y-1393572D02*
X1824286Y-1365000D01*
X1852857Y-1350714D01*
X1895714Y-1350714D01*
X1924286Y-1365000D01*
X1938571Y-1393572D01*
X1938571Y-1550714D01*
X2524286Y-1236429D02*
X2267143Y-1622143D01*
X2910000Y-1250714D02*
X2938571Y-1250714D01*
X2967143Y-1265000D01*
X2981428Y-1279286D01*
X2995714Y-1307857D01*
X3010000Y-1365000D01*
X3010000Y-1436429D01*
X2995714Y-1493571D01*
X2981428Y-1522143D01*
X2967143Y-1536429D01*
X2938571Y-1550714D01*
X2910000Y-1550714D01*
X2881428Y-1536429D01*
X2867143Y-1522143D01*
X2852857Y-1493571D01*
X2838571Y-1436429D01*
X2838571Y-1365000D01*
X2852857Y-1307857D01*
X2867143Y-1279286D01*
X2881428Y-1265000D01*
X2910000Y-1250714D01*
X3138571Y-1522143D02*
X3152857Y-1536429D01*
X3138571Y-1550714D01*
X3124286Y-1536429D01*
X3138571Y-1522143D01*
X3138571Y-1550714D01*
X3267143Y-1279286D02*
X3281428Y-1265000D01*
X3310000Y-1250714D01*
X3381428Y-1250714D01*
X3410000Y-1265000D01*
X3424286Y-1279286D01*
X3438571Y-1307857D01*
X3438571Y-1336429D01*
X3424286Y-1379286D01*
X3252857Y-1550714D01*
X3438571Y-1550714D01*
X3710000Y-1250714D02*
X3567143Y-1250714D01*
X3552857Y-1393572D01*
X3567143Y-1379286D01*
X3595714Y-1365000D01*
X3667143Y-1365000D01*
X3695714Y-1379286D01*
X3710000Y-1393572D01*
X3724286Y-1422143D01*
X3724286Y-1493571D01*
X3710000Y-1522143D01*
X3695714Y-1536429D01*
X3667143Y-1550714D01*
X3595714Y-1550714D01*
X3567143Y-1536429D01*
X3552857Y-1522143D01*
X3981428Y-1250714D02*
X3924286Y-1250714D01*
X3895714Y-1265000D01*
X3881428Y-1279286D01*
X3852857Y-1322143D01*
X3838571Y-1379286D01*
X3838571Y-1493571D01*
X3852857Y-1522143D01*
X3867143Y-1536429D01*
X3895714Y-1550714D01*
X3952857Y-1550714D01*
X3981428Y-1536429D01*
X3995714Y-1522143D01*
X4010000Y-1493571D01*
X4010000Y-1422143D01*
X3995714Y-1393572D01*
X3981428Y-1379286D01*
X3952857Y-1365000D01*
X3895714Y-1365000D01*
X3867143Y-1379286D01*
X3852857Y-1393572D01*
X3838571Y-1422143D01*
X4124286Y-1250714D02*
X4124286Y-1307857D01*
X4238571Y-1250714D02*
X4238571Y-1307857D01*
X4681428Y-1665000D02*
X4667143Y-1650714D01*
X4638571Y-1607857D01*
X4624286Y-1579286D01*
X4610000Y-1536429D01*
X4595714Y-1465000D01*
X4595714Y-1407857D01*
X4610000Y-1336429D01*
X4624286Y-1293572D01*
X4638571Y-1265000D01*
X4667143Y-1222143D01*
X4681428Y-1207857D01*
X4767143Y-1250714D02*
X4967143Y-1250714D01*
X4838571Y-1550714D01*
X5310000Y-1550714D02*
X5310000Y-1250714D01*
X5438571Y-1550714D02*
X5438571Y-1393572D01*
X5424286Y-1365000D01*
X5395714Y-1350714D01*
X5352857Y-1350714D01*
X5324286Y-1365000D01*
X5310000Y-1379286D01*
X5624286Y-1550714D02*
X5595714Y-1536429D01*
X5581428Y-1522143D01*
X5567143Y-1493571D01*
X5567143Y-1407857D01*
X5581428Y-1379286D01*
X5595714Y-1365000D01*
X5624286Y-1350714D01*
X5667143Y-1350714D01*
X5695714Y-1365000D01*
X5710000Y-1379286D01*
X5724286Y-1407857D01*
X5724286Y-1493571D01*
X5710000Y-1522143D01*
X5695714Y-1536429D01*
X5667143Y-1550714D01*
X5624286Y-1550714D01*
X5895714Y-1550714D02*
X5867143Y-1536429D01*
X5852857Y-1507857D01*
X5852857Y-1250714D01*
X6124286Y-1536429D02*
X6095714Y-1550714D01*
X6038571Y-1550714D01*
X6010000Y-1536429D01*
X5995714Y-1507857D01*
X5995714Y-1393572D01*
X6010000Y-1365000D01*
X6038571Y-1350714D01*
X6095714Y-1350714D01*
X6124286Y-1365000D01*
X6138571Y-1393572D01*
X6138571Y-1422143D01*
X5995714Y-1450714D01*
X6252857Y-1536429D02*
X6281428Y-1550714D01*
X6338571Y-1550714D01*
X6367143Y-1536429D01*
X6381428Y-1507857D01*
X6381428Y-1493571D01*
X6367143Y-1465000D01*
X6338571Y-1450714D01*
X6295714Y-1450714D01*
X6267143Y-1436429D01*
X6252857Y-1407857D01*
X6252857Y-1393572D01*
X6267143Y-1365000D01*
X6295714Y-1350714D01*
X6338571Y-1350714D01*
X6367143Y-1365000D01*
X6481428Y-1665000D02*
X6495714Y-1650714D01*
X6524286Y-1607857D01*
X6538571Y-1579286D01*
X6552857Y-1536429D01*
X6567143Y-1465000D01*
X6567143Y-1407857D01*
X6552857Y-1336429D01*
X6538571Y-1293572D01*
X6524286Y-1265000D01*
X6495714Y-1222143D01*
X6481428Y-1207857D01*
X7024286Y-1665000D02*
X7010000Y-1650714D01*
X6981428Y-1607857D01*
X6967143Y-1579286D01*
X6952857Y-1536429D01*
X6938571Y-1465000D01*
X6938571Y-1407857D01*
X6952857Y-1336429D01*
X6967143Y-1293572D01*
X6981428Y-1265000D01*
X7010000Y-1222143D01*
X7024286Y-1207857D01*
X7138571Y-1350714D02*
X7138571Y-1550714D01*
X7138571Y-1379286D02*
X7152857Y-1365000D01*
X7181428Y-1350714D01*
X7224286Y-1350714D01*
X7252857Y-1365000D01*
X7267143Y-1393572D01*
X7267143Y-1550714D01*
X7452857Y-1550714D02*
X7424286Y-1536429D01*
X7410000Y-1522143D01*
X7395714Y-1493571D01*
X7395714Y-1407857D01*
X7410000Y-1379286D01*
X7424286Y-1365000D01*
X7452857Y-1350714D01*
X7495714Y-1350714D01*
X7524286Y-1365000D01*
X7538571Y-1379286D01*
X7552857Y-1407857D01*
X7552857Y-1493571D01*
X7538571Y-1522143D01*
X7524286Y-1536429D01*
X7495714Y-1550714D01*
X7452857Y-1550714D01*
X7638571Y-1350714D02*
X7752857Y-1350714D01*
X7681428Y-1250714D02*
X7681428Y-1507857D01*
X7695714Y-1536429D01*
X7724286Y-1550714D01*
X7752857Y-1550714D01*
X8081428Y-1350714D02*
X8081428Y-1650714D01*
X8081428Y-1365000D02*
X8110000Y-1350714D01*
X8167143Y-1350714D01*
X8195714Y-1365000D01*
X8210000Y-1379286D01*
X8224286Y-1407857D01*
X8224286Y-1493571D01*
X8210000Y-1522143D01*
X8195714Y-1536429D01*
X8167143Y-1550714D01*
X8110000Y-1550714D01*
X8081428Y-1536429D01*
X8395714Y-1550714D02*
X8367143Y-1536429D01*
X8352857Y-1507857D01*
X8352857Y-1250714D01*
X8638571Y-1550714D02*
X8638571Y-1393572D01*
X8624286Y-1365000D01*
X8595714Y-1350714D01*
X8538571Y-1350714D01*
X8510000Y-1365000D01*
X8638571Y-1536429D02*
X8610000Y-1550714D01*
X8538571Y-1550714D01*
X8510000Y-1536429D01*
X8495714Y-1507857D01*
X8495714Y-1479286D01*
X8510000Y-1450714D01*
X8538571Y-1436429D01*
X8610000Y-1436429D01*
X8638571Y-1422143D01*
X8738571Y-1350714D02*
X8852857Y-1350714D01*
X8781428Y-1250714D02*
X8781428Y-1507857D01*
X8795714Y-1536429D01*
X8824286Y-1550714D01*
X8852857Y-1550714D01*
X9067143Y-1536429D02*
X9038571Y-1550714D01*
X8981428Y-1550714D01*
X8952857Y-1536429D01*
X8938571Y-1507857D01*
X8938571Y-1393572D01*
X8952857Y-1365000D01*
X8981428Y-1350714D01*
X9038571Y-1350714D01*
X9067143Y-1365000D01*
X9081428Y-1393572D01*
X9081428Y-1422143D01*
X8938571Y-1450714D01*
X9338571Y-1550714D02*
X9338571Y-1250714D01*
X9338571Y-1536429D02*
X9310000Y-1550714D01*
X9252857Y-1550714D01*
X9224286Y-1536429D01*
X9210000Y-1522143D01*
X9195714Y-1493571D01*
X9195714Y-1407857D01*
X9210000Y-1379286D01*
X9224286Y-1365000D01*
X9252857Y-1350714D01*
X9310000Y-1350714D01*
X9338571Y-1365000D01*
X9452857Y-1665000D02*
X9467143Y-1650714D01*
X9495714Y-1607857D01*
X9510000Y-1579286D01*
X9524286Y-1536429D01*
X9538571Y-1465000D01*
X9538571Y-1407857D01*
X9524286Y-1336429D01*
X9510000Y-1293572D01*
X9495714Y-1265000D01*
X9467143Y-1222143D01*
X9452857Y-1207857D01*
X-380000Y-1820000D02*
X-380000Y-2570000D01*
X-755000Y-2195000D02*
X-5000Y-2195000D01*
X252857Y-2030714D02*
X452857Y-2030714D01*
X324286Y-2330714D01*
X567143Y-2302143D02*
X581428Y-2316429D01*
X567143Y-2330714D01*
X552857Y-2316429D01*
X567143Y-2302143D01*
X567143Y-2330714D01*
X852857Y-2030714D02*
X710000Y-2030714D01*
X695714Y-2173572D01*
X710000Y-2159286D01*
X738571Y-2145000D01*
X810000Y-2145000D01*
X838571Y-2159286D01*
X852857Y-2173572D01*
X867143Y-2202143D01*
X867143Y-2273572D01*
X852857Y-2302143D01*
X838571Y-2316429D01*
X810000Y-2330714D01*
X738571Y-2330714D01*
X710000Y-2316429D01*
X695714Y-2302143D01*
X1052857Y-2030714D02*
X1081428Y-2030714D01*
X1110000Y-2045000D01*
X1124286Y-2059286D01*
X1138571Y-2087857D01*
X1152857Y-2145000D01*
X1152857Y-2216429D01*
X1138571Y-2273572D01*
X1124286Y-2302143D01*
X1110000Y-2316429D01*
X1081428Y-2330714D01*
X1052857Y-2330714D01*
X1024286Y-2316429D01*
X1010000Y-2302143D01*
X995714Y-2273572D01*
X981428Y-2216429D01*
X981428Y-2145000D01*
X995714Y-2087857D01*
X1010000Y-2059286D01*
X1024286Y-2045000D01*
X1052857Y-2030714D01*
X1281428Y-2330714D02*
X1281428Y-2130714D01*
X1281428Y-2159286D02*
X1295714Y-2145000D01*
X1324286Y-2130714D01*
X1367143Y-2130714D01*
X1395714Y-2145000D01*
X1410000Y-2173572D01*
X1410000Y-2330714D01*
X1410000Y-2173572D02*
X1424286Y-2145000D01*
X1452857Y-2130714D01*
X1495714Y-2130714D01*
X1524286Y-2145000D01*
X1538571Y-2173572D01*
X1538571Y-2330714D01*
X1681428Y-2330714D02*
X1681428Y-2130714D01*
X1681428Y-2159286D02*
X1695714Y-2145000D01*
X1724286Y-2130714D01*
X1767143Y-2130714D01*
X1795714Y-2145000D01*
X1810000Y-2173572D01*
X1810000Y-2330714D01*
X1810000Y-2173572D02*
X1824286Y-2145000D01*
X1852857Y-2130714D01*
X1895714Y-2130714D01*
X1924286Y-2145000D01*
X1938571Y-2173572D01*
X1938571Y-2330714D01*
X2524286Y-2016429D02*
X2267143Y-2402143D01*
X2910000Y-2030714D02*
X2938571Y-2030714D01*
X2967143Y-2045000D01*
X2981428Y-2059286D01*
X2995714Y-2087857D01*
X3010000Y-2145000D01*
X3010000Y-2216429D01*
X2995714Y-2273572D01*
X2981428Y-2302143D01*
X2967143Y-2316429D01*
X2938571Y-2330714D01*
X2910000Y-2330714D01*
X2881428Y-2316429D01*
X2867143Y-2302143D01*
X2852857Y-2273572D01*
X2838571Y-2216429D01*
X2838571Y-2145000D01*
X2852857Y-2087857D01*
X2867143Y-2059286D01*
X2881428Y-2045000D01*
X2910000Y-2030714D01*
X3138571Y-2302143D02*
X3152857Y-2316429D01*
X3138571Y-2330714D01*
X3124286Y-2316429D01*
X3138571Y-2302143D01*
X3138571Y-2330714D01*
X3267143Y-2059286D02*
X3281428Y-2045000D01*
X3310000Y-2030714D01*
X3381428Y-2030714D01*
X3410000Y-2045000D01*
X3424286Y-2059286D01*
X3438571Y-2087857D01*
X3438571Y-2116429D01*
X3424286Y-2159286D01*
X3252857Y-2330714D01*
X3438571Y-2330714D01*
X3581428Y-2330714D02*
X3638571Y-2330714D01*
X3667143Y-2316429D01*
X3681428Y-2302143D01*
X3710000Y-2259286D01*
X3724286Y-2202143D01*
X3724286Y-2087857D01*
X3710000Y-2059286D01*
X3695714Y-2045000D01*
X3667143Y-2030714D01*
X3610000Y-2030714D01*
X3581428Y-2045000D01*
X3567143Y-2059286D01*
X3552857Y-2087857D01*
X3552857Y-2159286D01*
X3567143Y-2187857D01*
X3581428Y-2202143D01*
X3610000Y-2216429D01*
X3667143Y-2216429D01*
X3695714Y-2202143D01*
X3710000Y-2187857D01*
X3724286Y-2159286D01*
X3995714Y-2030714D02*
X3852857Y-2030714D01*
X3838571Y-2173572D01*
X3852857Y-2159286D01*
X3881428Y-2145000D01*
X3952857Y-2145000D01*
X3981428Y-2159286D01*
X3995714Y-2173572D01*
X4010000Y-2202143D01*
X4010000Y-2273572D01*
X3995714Y-2302143D01*
X3981428Y-2316429D01*
X3952857Y-2330714D01*
X3881428Y-2330714D01*
X3852857Y-2316429D01*
X3838571Y-2302143D01*
X4124286Y-2030714D02*
X4124286Y-2087857D01*
X4238571Y-2030714D02*
X4238571Y-2087857D01*
X4681428Y-2445000D02*
X4667143Y-2430714D01*
X4638571Y-2387857D01*
X4624286Y-2359286D01*
X4610000Y-2316429D01*
X4595714Y-2245000D01*
X4595714Y-2187857D01*
X4610000Y-2116429D01*
X4624286Y-2073571D01*
X4638571Y-2045000D01*
X4667143Y-2002143D01*
X4681428Y-1987857D01*
X4952857Y-2330714D02*
X4781428Y-2330714D01*
X4867143Y-2330714D02*
X4867143Y-2030714D01*
X4838571Y-2073571D01*
X4810000Y-2102143D01*
X4781428Y-2116429D01*
X5310000Y-2330714D02*
X5310000Y-2030714D01*
X5438571Y-2330714D02*
X5438571Y-2173572D01*
X5424286Y-2145000D01*
X5395714Y-2130714D01*
X5352857Y-2130714D01*
X5324286Y-2145000D01*
X5310000Y-2159286D01*
X5624286Y-2330714D02*
X5595714Y-2316429D01*
X5581428Y-2302143D01*
X5567143Y-2273572D01*
X5567143Y-2187857D01*
X5581428Y-2159286D01*
X5595714Y-2145000D01*
X5624286Y-2130714D01*
X5667143Y-2130714D01*
X5695714Y-2145000D01*
X5710000Y-2159286D01*
X5724286Y-2187857D01*
X5724286Y-2273572D01*
X5710000Y-2302143D01*
X5695714Y-2316429D01*
X5667143Y-2330714D01*
X5624286Y-2330714D01*
X5895714Y-2330714D02*
X5867143Y-2316429D01*
X5852857Y-2287857D01*
X5852857Y-2030714D01*
X6124286Y-2316429D02*
X6095714Y-2330714D01*
X6038571Y-2330714D01*
X6010000Y-2316429D01*
X5995714Y-2287857D01*
X5995714Y-2173572D01*
X6010000Y-2145000D01*
X6038571Y-2130714D01*
X6095714Y-2130714D01*
X6124286Y-2145000D01*
X6138571Y-2173572D01*
X6138571Y-2202143D01*
X5995714Y-2230714D01*
X6238571Y-2445000D02*
X6252857Y-2430714D01*
X6281428Y-2387857D01*
X6295714Y-2359286D01*
X6310000Y-2316429D01*
X6324286Y-2245000D01*
X6324286Y-2187857D01*
X6310000Y-2116429D01*
X6295714Y-2073571D01*
X6281428Y-2045000D01*
X6252857Y-2002143D01*
X6238571Y-1987857D01*
X6781428Y-2445000D02*
X6767143Y-2430714D01*
X6738571Y-2387857D01*
X6724286Y-2359286D01*
X6710000Y-2316429D01*
X6695714Y-2245000D01*
X6695714Y-2187857D01*
X6710000Y-2116429D01*
X6724286Y-2073571D01*
X6738571Y-2045000D01*
X6767143Y-2002143D01*
X6781428Y-1987857D01*
X6895714Y-2130714D02*
X6895714Y-2330714D01*
X6895714Y-2159286D02*
X6910000Y-2145000D01*
X6938571Y-2130714D01*
X6981428Y-2130714D01*
X7010000Y-2145000D01*
X7024286Y-2173572D01*
X7024286Y-2330714D01*
X7210000Y-2330714D02*
X7181428Y-2316429D01*
X7167143Y-2302143D01*
X7152857Y-2273572D01*
X7152857Y-2187857D01*
X7167143Y-2159286D01*
X7181428Y-2145000D01*
X7210000Y-2130714D01*
X7252857Y-2130714D01*
X7281428Y-2145000D01*
X7295714Y-2159286D01*
X7310000Y-2187857D01*
X7310000Y-2273572D01*
X7295714Y-2302143D01*
X7281428Y-2316429D01*
X7252857Y-2330714D01*
X7210000Y-2330714D01*
X7395714Y-2130714D02*
X7510000Y-2130714D01*
X7438571Y-2030714D02*
X7438571Y-2287857D01*
X7452857Y-2316429D01*
X7481428Y-2330714D01*
X7510000Y-2330714D01*
X7838571Y-2130714D02*
X7838571Y-2430714D01*
X7838571Y-2145000D02*
X7867143Y-2130714D01*
X7924286Y-2130714D01*
X7952857Y-2145000D01*
X7967143Y-2159286D01*
X7981428Y-2187857D01*
X7981428Y-2273572D01*
X7967143Y-2302143D01*
X7952857Y-2316429D01*
X7924286Y-2330714D01*
X7867143Y-2330714D01*
X7838571Y-2316429D01*
X8152857Y-2330714D02*
X8124286Y-2316429D01*
X8110000Y-2287857D01*
X8110000Y-2030714D01*
X8395714Y-2330714D02*
X8395714Y-2173572D01*
X8381428Y-2145000D01*
X8352857Y-2130714D01*
X8295714Y-2130714D01*
X8267143Y-2145000D01*
X8395714Y-2316429D02*
X8367143Y-2330714D01*
X8295714Y-2330714D01*
X8267143Y-2316429D01*
X8252857Y-2287857D01*
X8252857Y-2259286D01*
X8267143Y-2230714D01*
X8295714Y-2216429D01*
X8367143Y-2216429D01*
X8395714Y-2202143D01*
X8495714Y-2130714D02*
X8610000Y-2130714D01*
X8538571Y-2030714D02*
X8538571Y-2287857D01*
X8552857Y-2316429D01*
X8581428Y-2330714D01*
X8610000Y-2330714D01*
X8824286Y-2316429D02*
X8795714Y-2330714D01*
X8738571Y-2330714D01*
X8710000Y-2316429D01*
X8695714Y-2287857D01*
X8695714Y-2173572D01*
X8710000Y-2145000D01*
X8738571Y-2130714D01*
X8795714Y-2130714D01*
X8824286Y-2145000D01*
X8838571Y-2173572D01*
X8838571Y-2202143D01*
X8695714Y-2230714D01*
X9095714Y-2330714D02*
X9095714Y-2030714D01*
X9095714Y-2316429D02*
X9067143Y-2330714D01*
X9010000Y-2330714D01*
X8981428Y-2316429D01*
X8967143Y-2302143D01*
X8952857Y-2273572D01*
X8952857Y-2187857D01*
X8967143Y-2159286D01*
X8981428Y-2145000D01*
X9010000Y-2130714D01*
X9067143Y-2130714D01*
X9095714Y-2145000D01*
X9210000Y-2445000D02*
X9224286Y-2430714D01*
X9252857Y-2387857D01*
X9267143Y-2359286D01*
X9281428Y-2316429D01*
X9295714Y-2245000D01*
X9295714Y-2187857D01*
X9281428Y-2116429D01*
X9267143Y-2073571D01*
X9252857Y-2045000D01*
X9224286Y-2002143D01*
X9210000Y-1987857D01*
X-239309Y-3640691D02*
X-239309Y-2509309D01*
X-1370691Y-2509309D01*
X-1370691Y-3640691D01*
X-239309Y-3640691D01*
X438571Y-3210714D02*
X267143Y-3210714D01*
X352857Y-3210714D02*
X352857Y-2910714D01*
X324286Y-2953571D01*
X295714Y-2982143D01*
X267143Y-2996429D01*
X695714Y-2910714D02*
X638571Y-2910714D01*
X610000Y-2925000D01*
X595714Y-2939286D01*
X567143Y-2982143D01*
X552857Y-3039286D01*
X552857Y-3153571D01*
X567143Y-3182143D01*
X581428Y-3196429D01*
X610000Y-3210714D01*
X667143Y-3210714D01*
X695714Y-3196429D01*
X710000Y-3182143D01*
X724286Y-3153571D01*
X724286Y-3082143D01*
X710000Y-3053571D01*
X695714Y-3039286D01*
X667143Y-3025000D01*
X610000Y-3025000D01*
X581428Y-3039286D01*
X567143Y-3053571D01*
X552857Y-3082143D01*
X852857Y-3182143D02*
X867143Y-3196429D01*
X852857Y-3210714D01*
X838571Y-3196429D01*
X852857Y-3182143D01*
X852857Y-3210714D01*
X1052857Y-2910714D02*
X1081428Y-2910714D01*
X1110000Y-2925000D01*
X1124286Y-2939286D01*
X1138571Y-2967857D01*
X1152857Y-3025000D01*
X1152857Y-3096429D01*
X1138571Y-3153571D01*
X1124286Y-3182143D01*
X1110000Y-3196429D01*
X1081428Y-3210714D01*
X1052857Y-3210714D01*
X1024286Y-3196429D01*
X1010000Y-3182143D01*
X995714Y-3153571D01*
X981428Y-3096429D01*
X981428Y-3025000D01*
X995714Y-2967857D01*
X1010000Y-2939286D01*
X1024286Y-2925000D01*
X1052857Y-2910714D01*
X1338571Y-2910714D02*
X1367143Y-2910714D01*
X1395714Y-2925000D01*
X1410000Y-2939286D01*
X1424286Y-2967857D01*
X1438571Y-3025000D01*
X1438571Y-3096429D01*
X1424286Y-3153571D01*
X1410000Y-3182143D01*
X1395714Y-3196429D01*
X1367143Y-3210714D01*
X1338571Y-3210714D01*
X1310000Y-3196429D01*
X1295714Y-3182143D01*
X1281428Y-3153571D01*
X1267143Y-3096429D01*
X1267143Y-3025000D01*
X1281428Y-2967857D01*
X1295714Y-2939286D01*
X1310000Y-2925000D01*
X1338571Y-2910714D01*
X1567143Y-3210714D02*
X1567143Y-3010714D01*
X1567143Y-3039286D02*
X1581428Y-3025000D01*
X1610000Y-3010714D01*
X1652857Y-3010714D01*
X1681428Y-3025000D01*
X1695714Y-3053571D01*
X1695714Y-3210714D01*
X1695714Y-3053571D02*
X1710000Y-3025000D01*
X1738571Y-3010714D01*
X1781428Y-3010714D01*
X1810000Y-3025000D01*
X1824286Y-3053571D01*
X1824286Y-3210714D01*
X1967143Y-3210714D02*
X1967143Y-3010714D01*
X1967143Y-3039286D02*
X1981428Y-3025000D01*
X2010000Y-3010714D01*
X2052857Y-3010714D01*
X2081428Y-3025000D01*
X2095714Y-3053571D01*
X2095714Y-3210714D01*
X2095714Y-3053571D02*
X2110000Y-3025000D01*
X2138571Y-3010714D01*
X2181428Y-3010714D01*
X2210000Y-3025000D01*
X2224286Y-3053571D01*
X2224286Y-3210714D01*
X2810000Y-2896429D02*
X2552857Y-3282143D01*
X3195714Y-2910714D02*
X3224286Y-2910714D01*
X3252857Y-2925000D01*
X3267143Y-2939286D01*
X3281428Y-2967857D01*
X3295714Y-3025000D01*
X3295714Y-3096429D01*
X3281428Y-3153571D01*
X3267143Y-3182143D01*
X3252857Y-3196429D01*
X3224286Y-3210714D01*
X3195714Y-3210714D01*
X3167143Y-3196429D01*
X3152857Y-3182143D01*
X3138571Y-3153571D01*
X3124286Y-3096429D01*
X3124286Y-3025000D01*
X3138571Y-2967857D01*
X3152857Y-2939286D01*
X3167143Y-2925000D01*
X3195714Y-2910714D01*
X3424286Y-3182143D02*
X3438571Y-3196429D01*
X3424286Y-3210714D01*
X3410000Y-3196429D01*
X3424286Y-3182143D01*
X3424286Y-3210714D01*
X3695714Y-2910714D02*
X3638571Y-2910714D01*
X3610000Y-2925000D01*
X3595714Y-2939286D01*
X3567143Y-2982143D01*
X3552857Y-3039286D01*
X3552857Y-3153571D01*
X3567143Y-3182143D01*
X3581428Y-3196429D01*
X3610000Y-3210714D01*
X3667143Y-3210714D01*
X3695714Y-3196429D01*
X3710000Y-3182143D01*
X3724286Y-3153571D01*
X3724286Y-3082143D01*
X3710000Y-3053571D01*
X3695714Y-3039286D01*
X3667143Y-3025000D01*
X3610000Y-3025000D01*
X3581428Y-3039286D01*
X3567143Y-3053571D01*
X3552857Y-3082143D01*
X3824286Y-2910714D02*
X4010000Y-2910714D01*
X3910000Y-3025000D01*
X3952857Y-3025000D01*
X3981428Y-3039286D01*
X3995714Y-3053571D01*
X4010000Y-3082143D01*
X4010000Y-3153571D01*
X3995714Y-3182143D01*
X3981428Y-3196429D01*
X3952857Y-3210714D01*
X3867143Y-3210714D01*
X3838571Y-3196429D01*
X3824286Y-3182143D01*
X4195714Y-2910714D02*
X4224286Y-2910714D01*
X4252857Y-2925000D01*
X4267143Y-2939286D01*
X4281428Y-2967857D01*
X4295714Y-3025000D01*
X4295714Y-3096429D01*
X4281428Y-3153571D01*
X4267143Y-3182143D01*
X4252857Y-3196429D01*
X4224286Y-3210714D01*
X4195714Y-3210714D01*
X4167143Y-3196429D01*
X4152857Y-3182143D01*
X4138571Y-3153571D01*
X4124286Y-3096429D01*
X4124286Y-3025000D01*
X4138571Y-2967857D01*
X4152857Y-2939286D01*
X4167143Y-2925000D01*
X4195714Y-2910714D01*
X4410000Y-2910714D02*
X4410000Y-2967857D01*
X4524286Y-2910714D02*
X4524286Y-2967857D01*
X4967143Y-3325000D02*
X4952857Y-3310714D01*
X4924286Y-3267857D01*
X4910000Y-3239286D01*
X4895714Y-3196429D01*
X4881428Y-3125000D01*
X4881428Y-3067857D01*
X4895714Y-2996429D01*
X4910000Y-2953571D01*
X4924286Y-2925000D01*
X4952857Y-2882143D01*
X4967143Y-2867857D01*
X5238571Y-3210714D02*
X5067143Y-3210714D01*
X5152857Y-3210714D02*
X5152857Y-2910714D01*
X5124286Y-2953571D01*
X5095714Y-2982143D01*
X5067143Y-2996429D01*
X5595714Y-3210714D02*
X5595714Y-2910714D01*
X5724286Y-3210714D02*
X5724286Y-3053571D01*
X5710000Y-3025000D01*
X5681428Y-3010714D01*
X5638571Y-3010714D01*
X5610000Y-3025000D01*
X5595714Y-3039286D01*
X5910000Y-3210714D02*
X5881428Y-3196429D01*
X5867143Y-3182143D01*
X5852857Y-3153571D01*
X5852857Y-3067857D01*
X5867143Y-3039286D01*
X5881428Y-3025000D01*
X5910000Y-3010714D01*
X5952857Y-3010714D01*
X5981428Y-3025000D01*
X5995714Y-3039286D01*
X6010000Y-3067857D01*
X6010000Y-3153571D01*
X5995714Y-3182143D01*
X5981428Y-3196429D01*
X5952857Y-3210714D01*
X5910000Y-3210714D01*
X6181428Y-3210714D02*
X6152857Y-3196429D01*
X6138571Y-3167857D01*
X6138571Y-2910714D01*
X6410000Y-3196429D02*
X6381428Y-3210714D01*
X6324286Y-3210714D01*
X6295714Y-3196429D01*
X6281428Y-3167857D01*
X6281428Y-3053571D01*
X6295714Y-3025000D01*
X6324286Y-3010714D01*
X6381428Y-3010714D01*
X6410000Y-3025000D01*
X6424286Y-3053571D01*
X6424286Y-3082143D01*
X6281428Y-3110714D01*
X6524286Y-3325000D02*
X6538571Y-3310714D01*
X6567143Y-3267857D01*
X6581428Y-3239286D01*
X6595714Y-3196429D01*
X6610000Y-3125000D01*
X6610000Y-3067857D01*
X6595714Y-2996429D01*
X6581428Y-2953571D01*
X6567143Y-2925000D01*
X6538571Y-2882143D01*
X6524286Y-2867857D01*
X7067143Y-3325000D02*
X7052857Y-3310714D01*
X7024286Y-3267857D01*
X7010000Y-3239286D01*
X6995714Y-3196429D01*
X6981428Y-3125000D01*
X6981428Y-3067857D01*
X6995714Y-2996429D01*
X7010000Y-2953571D01*
X7024286Y-2925000D01*
X7052857Y-2882143D01*
X7067143Y-2867857D01*
X7181428Y-3010714D02*
X7181428Y-3210714D01*
X7181428Y-3039286D02*
X7195714Y-3025000D01*
X7224286Y-3010714D01*
X7267143Y-3010714D01*
X7295714Y-3025000D01*
X7310000Y-3053571D01*
X7310000Y-3210714D01*
X7495714Y-3210714D02*
X7467143Y-3196429D01*
X7452857Y-3182143D01*
X7438571Y-3153571D01*
X7438571Y-3067857D01*
X7452857Y-3039286D01*
X7467143Y-3025000D01*
X7495714Y-3010714D01*
X7538571Y-3010714D01*
X7567143Y-3025000D01*
X7581428Y-3039286D01*
X7595714Y-3067857D01*
X7595714Y-3153571D01*
X7581428Y-3182143D01*
X7567143Y-3196429D01*
X7538571Y-3210714D01*
X7495714Y-3210714D01*
X7681428Y-3010714D02*
X7795714Y-3010714D01*
X7724286Y-2910714D02*
X7724286Y-3167857D01*
X7738571Y-3196429D01*
X7767143Y-3210714D01*
X7795714Y-3210714D01*
X8124286Y-3010714D02*
X8124286Y-3310714D01*
X8124286Y-3025000D02*
X8152857Y-3010714D01*
X8210000Y-3010714D01*
X8238571Y-3025000D01*
X8252857Y-3039286D01*
X8267143Y-3067857D01*
X8267143Y-3153571D01*
X8252857Y-3182143D01*
X8238571Y-3196429D01*
X8210000Y-3210714D01*
X8152857Y-3210714D01*
X8124286Y-3196429D01*
X8438571Y-3210714D02*
X8410000Y-3196429D01*
X8395714Y-3167857D01*
X8395714Y-2910714D01*
X8681428Y-3210714D02*
X8681428Y-3053571D01*
X8667143Y-3025000D01*
X8638571Y-3010714D01*
X8581428Y-3010714D01*
X8552857Y-3025000D01*
X8681428Y-3196429D02*
X8652857Y-3210714D01*
X8581428Y-3210714D01*
X8552857Y-3196429D01*
X8538571Y-3167857D01*
X8538571Y-3139286D01*
X8552857Y-3110714D01*
X8581428Y-3096429D01*
X8652857Y-3096429D01*
X8681428Y-3082143D01*
X8781428Y-3010714D02*
X8895714Y-3010714D01*
X8824286Y-2910714D02*
X8824286Y-3167857D01*
X8838571Y-3196429D01*
X8867143Y-3210714D01*
X8895714Y-3210714D01*
X9110000Y-3196429D02*
X9081428Y-3210714D01*
X9024286Y-3210714D01*
X8995714Y-3196429D01*
X8981428Y-3167857D01*
X8981428Y-3053571D01*
X8995714Y-3025000D01*
X9024286Y-3010714D01*
X9081428Y-3010714D01*
X9110000Y-3025000D01*
X9124286Y-3053571D01*
X9124286Y-3082143D01*
X8981428Y-3110714D01*
X9381428Y-3210714D02*
X9381428Y-2910714D01*
X9381428Y-3196429D02*
X9352857Y-3210714D01*
X9295714Y-3210714D01*
X9267143Y-3196429D01*
X9252857Y-3182143D01*
X9238571Y-3153571D01*
X9238571Y-3067857D01*
X9252857Y-3039286D01*
X9267143Y-3025000D01*
X9295714Y-3010714D01*
X9352857Y-3010714D01*
X9381428Y-3025000D01*
X9495714Y-3325000D02*
X9510000Y-3310714D01*
X9538571Y-3267857D01*
X9552857Y-3239286D01*
X9567143Y-3196429D01*
X9581428Y-3125000D01*
X9581428Y-3067857D01*
X9567143Y-2996429D01*
X9552857Y-2953571D01*
X9538571Y-2925000D01*
X9510000Y-2882143D01*
X9495714Y-2867857D01*
M02*
